<?xml version='1.0' standalone='no'?>
<!DOCTYPE svg>
<svg xmlns="http://www.w3.org/2000/svg" height="21.0007cm" width="29.7002cm" version="1.1"  viewBox="0 0 116929 82679 ">
    <desc >
        <referenceFile >noname.svg</referenceFile>
    </desc>
    <title >SVG Picture created as noname.svg date 2015/11/11 16:43:56 </title>
    <desc >Picture generated by Eeschema-SVG </desc>
    <g transform="translate(0 0) scale(1 1)" >
        <g >
            <g >
                <g stroke-opacity="1" style="  stroke-linecap:round; stroke-linejoin:round; " stroke-width="1" fill="#000000" fill-opacity="1"  stroke="#000000"/>
            </g>
        </g>
    </g>
    <g stroke-opacity="1" style="     stroke-linecap:round; stroke-linejoin:round;" stroke-width="0" fill="#000000" fill-opacity="0.0"  stroke="#000000"/>
    <g stroke-opacity="1" style="     stroke-linecap:round; stroke-linejoin:round;" stroke-width="80" fill="#9F0000" fill-opacity="0.0"  stroke="#9F0000">
        <polyline fill="none;"  points="60000,4100060100,41000"/>
        <polyline fill="none;"  points="60000,4000060500,40000"/>
        <polyline fill="none;"  points="60000,3800061500,38000"/>
        <polyline fill="none;"  points="60100,4100060300,41190"/>
        <polyline fill="none;"  points="60100,4069060100,40500"/>
        <polyline fill="none;"  points="60200,4080060100,40690"/>
        <polyline fill="none;"  points="60200,4040060100,40500"/>
        <polyline fill="none;"  points="60300,4119060500,41190"/>
        <polyline fill="none;"  points="60500,4160060500,39590"/>
        <polyline fill="none;"  points="60500,4080060200,40800"/>
        <polyline fill="none;"  points="60500,4080061000,40800"/>
        <polyline fill="none;"  points="60500,4040060200,40400"/>
        <polyline fill="none;"  points="60500,4000061000,40000"/>
        <polyline fill="none;"  points="60500,3959061000,39590"/>
        <polyline fill="none;"  points="61000,4160060500,41600"/>
        <polyline fill="none;"  points="61000,4119060500,41190"/>
        <polyline fill="none;"  points="61000,4119061290,41190"/>
        <polyline fill="none;"  points="61000,4080061290,40800"/>
        <polyline fill="none;"  points="61000,4040060500,40400"/>
        <polyline fill="none;"  points="61000,4040061290,40400"/>
        <polyline fill="none;"  points="61000,4000061290,40000"/>
        <polyline fill="none;"  points="61000,3959061000,41600"/>
        <polyline fill="none;"  points="61100,3869061890,38690"/>
        <polyline fill="none;"  points="61100,3759061890,37590"/>
        <polyline fill="none;"  points="61100,3570061500,35290"/>
        <polyline fill="none;"  points="61100,3460061390,34600"/>
        <polyline fill="none;"  points="61290,4119061390,41100"/>
        <polyline fill="none;"  points="61290,4080061390,40900"/>
        <polyline fill="none;"  points="61290,4040061390,40300"/>
        <polyline fill="none;"  points="61290,4000061390,40090"/>
        <polyline fill="none;"  points="61390,4110061390,40900"/>
        <polyline fill="none;"  points="61390,4009061390,40300"/>
        <polyline fill="none;"  points="61390,3489061100,34600"/>
        <polyline fill="none;"  points="61390,3489061500,35000"/>
        <polyline fill="none;"  points="61390,3460061890,34600"/>
        <polyline fill="none;"  points="61500,3900061500,38800"/>
        <polyline fill="none;"  points="61500,3880061500,38690"/>
        <polyline fill="none;"  points="61500,3830061100,38690"/>
        <polyline fill="none;"  points="61500,3800061100,37590"/>
        <polyline fill="none;"  points="61500,3800062000,38000"/>
        <polyline fill="none;"  points="61500,3700061500,37590"/>
        <polyline fill="none;"  points="61500,3700062000,37000"/>
        <polyline fill="none;"  points="61500,3600061500,35700"/>
        <polyline fill="none;"  points="61500,3600062000,36000"/>
        <polyline fill="none;"  points="61500,3529061890,35700"/>
        <polyline fill="none;"  points="61500,3500060000,35000"/>
        <polyline fill="none;"  points="61500,3500061600,35000"/>
        <polyline fill="none;"  points="61500,3400061500,34600"/>
        <polyline fill="none;"  points="61500,3400062000,34000"/>
        <polyline fill="none;"  points="61600,3500062000,35000"/>
        <polyline fill="none;"  points="61890,3869061500,38300"/>
        <polyline fill="none;"  points="61890,3759061500,38000"/>
        <polyline fill="none;"  points="61890,3570061100,35700"/>
        <polyline fill="none;"  points="61890,3460061500,35000"/>
        <polyline fill="none;"  points="62000,3900061500,39000"/>
        <path d="M62000 39000L65000 39000" />
        <path d="M63680 38840L63330 38840" />
        <path d="M63510 38840L63510 38240L63450 38330L63390 38390L63330 38410" />
        <path d="M62000 37000L65000 37000" />
        <path d="M63310 36240L63680 36240L63480 36470L63560 36470L63620 36500L63650 36530L63680 36590L63680 36730L63650 36790L63620 36810L63560 36840L63390 36840L63330 36810L63310 36790" />
        <path d="M60000 38000L57000 38000" />
        <path d="M58650 37240L58360 37240L58330 37530L58360 37500L58420 37470L58560 37470L58620 37500L58650 37530L58680 37590L58680 37730L58650 37790L58620 37810L58560 37840L58420 37840L58360 37810L58330 37790" />
        <path d="M60000 40000L57000 40000" />
        <path d="M58450 39500L58390 39470L58360 39440L58330 39390L58330 39360L58360 39300L58390 39270L58450 39240L58560 39240L58620 39270L58650 39300L58680 39360L58680 39390L58650 39440L58620 39470L58560 39500L58450 39500L58390 39530L58360 39560L58330 39610L58330 39730L58360 39790L58390 39810L58450 39840L58560 39840L58620 39810L58650 39790L58680 39730L58680 39610L58650 39560L58620 39530L58560 39500" />
        <path d="M60000 41000L57000 41000" />
        <path d="M58390 40840L58510 40840L58560 40810L58590 40790L58650 40700L58680 40590L58680 40360L58650 40300L58620 40270L58560 40240L58450 40240L58390 40270L58360 40300L58330 40360L58330 40500L58360 40560L58390 40590L58450 40610L58560 40610L58620 40590L58650 40560L58680 40500" />
        <path d="M60000 35000L57000 35000" />
        <path d="M58390 34840L58040 34840" />
        <path d="M58220 34840L58220 34240L58160 34330L58100 34390L58040 34410" />
        <path d="M58610 34300L58640 34270L58700 34240L58840 34240L58900 34270L58930 34300L58960 34360L58960 34410L58930 34500L58590 34840L58960 34840" />
        <path d="M62000 34000L65000 34000" />
        <path d="M63390 33840L63040 33840" />
        <path d="M63220 33840L63220 33240L63160 33330L63100 33390L63040 33410" />
        <path d="M63900 33440L63900 33840" />
        <path d="M63760 33210L63610 33640L63990 33640" />
        <path d="M62000 36000L65000 36000" />
        <path d="M63390 35840L63040 35840" />
        <path d="M63220 35840L63220 35240L63160 35330L63100 35390L63040 35410" />
        <path d="M63900 35240L63790 35240L63730 35270L63700 35300L63640 35390L63610 35500L63610 35730L63640 35790L63670 35810L63730 35840L63840 35840L63900 35810L63930 35790L63960 35730L63960 35590L63930 35530L63900 35500L63840 35470L63730 35470L63670 35500L63640 35530L63610 35590" />
    </g>
    <g stroke-opacity="1" style="     stroke-linecap:round; stroke-linejoin:round;" stroke-width="80" fill="#009F9F" fill-opacity="0.0"  stroke="#009F9F">
        <path d="M60020 33740L60020 33040" />
        <path d="M60420 33740L60120 33340" />
        <path d="M60420 33040L60020 33440" />
        <path d="M60820 33680L60850 33710L60820 33740L60780 33710L60820 33680L60820 33740" />
        <path d="M60680 33080L60750 33040L60920 33040L60980 33080L61020 33140L61020 33210L60980 33280L60950 33310L60880 33340L60850 33380L60820 33440L60820 33480" />
        <path d="M60310 42740L60070 42410" />
        <path d="M59910 42740L59910 42040L60170 42040L60240 42080L60270 42110L60310 42180L60310 42280L60270 42340L60240 42380L60170 42410L59910 42410" />
        <path d="M60610 42380L60840 42380" />
        <path d="M60940 42740L60610 42740L60610 42040L60940 42040" />
        <path d="M61570 42740L61240 42740L61240 42040" />
        <path d="M61770 42540L62110 42540" />
        <path d="M61710 42740L61940 42040L62170 42740" />
        <path d="M62540 42410L62540 42740" />
        <path d="M62310 42040L62540 42410L62770 42040" />
        <path d="M62840 42810L63370 42810" />
        <path d="M63500 42110L63540 42080L63600 42040L63770 42040L63840 42080L63870 42110L63900 42180L63900 42240L63870 42340L63470 42740L63900 42740" />
        <path d="M64610 42740L64370 42410" />
        <path d="M64210 42740L64210 42040L64470 42040L64540 42080L64570 42110L64610 42180L64610 42280L64570 42340L64540 42380L64470 42410L64210 42410" />
        <path d="M64810 42040L65210 42040" />
        <path d="M65010 42740L65010 42040" />
    </g>
    <g stroke-opacity="1" style="     stroke-linecap:round; stroke-linejoin:round;" stroke-width="0" fill="#009F9F" fill-opacity="0.0"  stroke="#009F9F"/>
    <g stroke-opacity="1" style="     stroke-linecap:round; stroke-linejoin:round;" stroke-width="80" fill="#9F0000" fill-opacity="0.0"  stroke="#9F0000">
        <polyline fill="none;"  points="60000,5350060100,53500"/>
        <polyline fill="none;"  points="60000,5250060500,52500"/>
        <polyline fill="none;"  points="60000,5050061500,50500"/>
        <polyline fill="none;"  points="60100,5350060300,53690"/>
        <polyline fill="none;"  points="60100,5319060100,53000"/>
        <polyline fill="none;"  points="60200,5330060100,53190"/>
        <polyline fill="none;"  points="60200,5290060100,53000"/>
        <polyline fill="none;"  points="60300,5369060500,53690"/>
        <polyline fill="none;"  points="60500,5410060500,52090"/>
        <polyline fill="none;"  points="60500,5330060200,53300"/>
        <polyline fill="none;"  points="60500,5330061000,53300"/>
        <polyline fill="none;"  points="60500,5290060200,52900"/>
        <polyline fill="none;"  points="60500,5250061000,52500"/>
        <polyline fill="none;"  points="60500,5209061000,52090"/>
        <polyline fill="none;"  points="61000,5410060500,54100"/>
        <polyline fill="none;"  points="61000,5369060500,53690"/>
        <polyline fill="none;"  points="61000,5369061290,53690"/>
        <polyline fill="none;"  points="61000,5330061290,53300"/>
        <polyline fill="none;"  points="61000,5290060500,52900"/>
        <polyline fill="none;"  points="61000,5290061290,52900"/>
        <polyline fill="none;"  points="61000,5250061290,52500"/>
        <polyline fill="none;"  points="61000,5209061000,54100"/>
        <polyline fill="none;"  points="61100,5119061890,51190"/>
        <polyline fill="none;"  points="61100,5009061890,50090"/>
        <polyline fill="none;"  points="61100,4820061500,47790"/>
        <polyline fill="none;"  points="61100,4710061390,47100"/>
        <polyline fill="none;"  points="61290,5369061390,53600"/>
        <polyline fill="none;"  points="61290,5330061390,53400"/>
        <polyline fill="none;"  points="61290,5290061390,52800"/>
        <polyline fill="none;"  points="61290,5250061390,52590"/>
        <polyline fill="none;"  points="61390,5360061390,53400"/>
        <polyline fill="none;"  points="61390,5259061390,52800"/>
        <polyline fill="none;"  points="61390,4739061100,47100"/>
        <polyline fill="none;"  points="61390,4739061500,47500"/>
        <polyline fill="none;"  points="61390,4710061890,47100"/>
        <polyline fill="none;"  points="61500,5150061500,51300"/>
        <polyline fill="none;"  points="61500,5130061500,51190"/>
        <polyline fill="none;"  points="61500,5080061100,51190"/>
        <polyline fill="none;"  points="61500,5050061100,50090"/>
        <polyline fill="none;"  points="61500,5050062000,50500"/>
        <polyline fill="none;"  points="61500,4950061500,50090"/>
        <polyline fill="none;"  points="61500,4950062000,49500"/>
        <polyline fill="none;"  points="61500,4850061500,48200"/>
        <polyline fill="none;"  points="61500,4850062000,48500"/>
        <polyline fill="none;"  points="61500,4779061890,48200"/>
        <polyline fill="none;"  points="61500,4750060000,47500"/>
        <polyline fill="none;"  points="61500,4750061600,47500"/>
        <polyline fill="none;"  points="61500,4650061500,47100"/>
        <polyline fill="none;"  points="61500,4650062000,46500"/>
        <polyline fill="none;"  points="61600,4750062000,47500"/>
        <polyline fill="none;"  points="61890,5119061500,50800"/>
        <polyline fill="none;"  points="61890,5009061500,50500"/>
        <polyline fill="none;"  points="61890,4820061100,48200"/>
        <polyline fill="none;"  points="61890,4710061500,47500"/>
        <polyline fill="none;"  points="62000,5150061500,51500"/>
        <path d="M62000 51500L65000 51500" />
        <path d="M63680 51340L63330 51340" />
        <path d="M63510 51340L63510 50740L63450 50830L63390 50890L63330 50910" />
        <path d="M62000 49500L65000 49500" />
        <path d="M63310 48740L63680 48740L63480 48970L63560 48970L63620 49000L63650 49030L63680 49090L63680 49230L63650 49290L63620 49310L63560 49340L63390 49340L63330 49310L63310 49290" />
        <path d="M60000 50500L57000 50500" />
        <path d="M58650 49740L58360 49740L58330 50030L58360 50000L58420 49970L58560 49970L58620 50000L58650 50030L58680 50090L58680 50230L58650 50290L58620 50310L58560 50340L58420 50340L58360 50310L58330 50290" />
        <path d="M60000 52500L57000 52500" />
        <path d="M58450 52000L58390 51970L58360 51940L58330 51890L58330 51860L58360 51800L58390 51770L58450 51740L58560 51740L58620 51770L58650 51800L58680 51860L58680 51890L58650 51940L58620 51970L58560 52000L58450 52000L58390 52030L58360 52060L58330 52110L58330 52230L58360 52290L58390 52310L58450 52340L58560 52340L58620 52310L58650 52290L58680 52230L58680 52110L58650 52060L58620 52030L58560 52000" />
        <path d="M60000 53500L57000 53500" />
        <path d="M58390 53340L58510 53340L58560 53310L58590 53290L58650 53200L58680 53090L58680 52860L58650 52800L58620 52770L58560 52740L58450 52740L58390 52770L58360 52800L58330 52860L58330 53000L58360 53060L58390 53090L58450 53110L58560 53110L58620 53090L58650 53060L58680 53000" />
        <path d="M60000 47500L57000 47500" />
        <path d="M58390 47340L58040 47340" />
        <path d="M58220 47340L58220 46740L58160 46830L58100 46890L58040 46910" />
        <path d="M58610 46800L58640 46770L58700 46740L58840 46740L58900 46770L58930 46800L58960 46860L58960 46910L58930 47000L58590 47340L58960 47340" />
        <path d="M62000 46500L65000 46500" />
        <path d="M63390 46340L63040 46340" />
        <path d="M63220 46340L63220 45740L63160 45830L63100 45890L63040 45910" />
        <path d="M63900 45940L63900 46340" />
        <path d="M63760 45710L63610 46140L63990 46140" />
        <path d="M62000 48500L65000 48500" />
        <path d="M63390 48340L63040 48340" />
        <path d="M63220 48340L63220 47740L63160 47830L63100 47890L63040 47910" />
        <path d="M63900 47740L63790 47740L63730 47770L63700 47800L63640 47890L63610 48000L63610 48230L63640 48290L63670 48310L63730 48340L63840 48340L63900 48310L63930 48290L63960 48230L63960 48090L63930 48030L63900 48000L63840 47970L63730 47970L63670 48000L63640 48030L63610 48090" />
    </g>
    <g stroke-opacity="1" style="     stroke-linecap:round; stroke-linejoin:round;" stroke-width="80" fill="#009F9F" fill-opacity="0.0"  stroke="#009F9F">
        <path d="M60020 46240L60020 45540" />
        <path d="M60420 46240L60120 45840" />
        <path d="M60420 45540L60020 45940" />
        <path d="M60820 46180L60850 46210L60820 46240L60780 46210L60820 46180L60820 46240" />
        <path d="M60680 45580L60750 45540L60920 45540L60980 45580L61020 45640L61020 45710L60980 45780L60950 45810L60880 45840L60850 45880L60820 45940L60820 45980" />
        <path d="M60310 55240L60070 54910" />
        <path d="M59910 55240L59910 54540L60170 54540L60240 54580L60270 54610L60310 54680L60310 54780L60270 54840L60240 54880L60170 54910L59910 54910" />
        <path d="M60610 54880L60840 54880" />
        <path d="M60940 55240L60610 55240L60610 54540L60940 54540" />
        <path d="M61570 55240L61240 55240L61240 54540" />
        <path d="M61770 55040L62110 55040" />
        <path d="M61710 55240L61940 54540L62170 55240" />
        <path d="M62540 54910L62540 55240" />
        <path d="M62310 54540L62540 54910L62770 54540" />
        <path d="M62840 55310L63370 55310" />
        <path d="M63500 54610L63540 54580L63600 54540L63770 54540L63840 54580L63870 54610L63900 54680L63900 54740L63870 54840L63470 55240L63900 55240" />
        <path d="M64610 55240L64370 54910" />
        <path d="M64210 55240L64210 54540L64470 54540L64540 54580L64570 54610L64610 54680L64610 54780L64570 54840L64540 54880L64470 54910L64210 54910" />
        <path d="M64810 54540L65210 54540" />
        <path d="M65010 55240L65010 54540" />
    </g>
    <g stroke-opacity="1" style="     stroke-linecap:round; stroke-linejoin:round;" stroke-width="0" fill="#009F9F" fill-opacity="0.0"  stroke="#009F9F"/>
    <g stroke-opacity="1" style="     stroke-linecap:round; stroke-linejoin:round;" stroke-width="80" fill="#9F0000" fill-opacity="0.0"  stroke="#9F0000">
        <polyline fill="none;"  points="60000,2950060100,29500"/>
        <polyline fill="none;"  points="60000,2850060500,28500"/>
        <polyline fill="none;"  points="60000,2650061500,26500"/>
        <polyline fill="none;"  points="60100,2950060300,29690"/>
        <polyline fill="none;"  points="60100,2919060100,29000"/>
        <polyline fill="none;"  points="60200,2930060100,29190"/>
        <polyline fill="none;"  points="60200,2890060100,29000"/>
        <polyline fill="none;"  points="60300,2969060500,29690"/>
        <polyline fill="none;"  points="60500,3010060500,28090"/>
        <polyline fill="none;"  points="60500,2930060200,29300"/>
        <polyline fill="none;"  points="60500,2930061000,29300"/>
        <polyline fill="none;"  points="60500,2890060200,28900"/>
        <polyline fill="none;"  points="60500,2850061000,28500"/>
        <polyline fill="none;"  points="60500,2809061000,28090"/>
        <polyline fill="none;"  points="61000,3010060500,30100"/>
        <polyline fill="none;"  points="61000,2969060500,29690"/>
        <polyline fill="none;"  points="61000,2969061290,29690"/>
        <polyline fill="none;"  points="61000,2930061290,29300"/>
        <polyline fill="none;"  points="61000,2890060500,28900"/>
        <polyline fill="none;"  points="61000,2890061290,28900"/>
        <polyline fill="none;"  points="61000,2850061290,28500"/>
        <polyline fill="none;"  points="61000,2809061000,30100"/>
        <polyline fill="none;"  points="61100,2719061890,27190"/>
        <polyline fill="none;"  points="61100,2609061890,26090"/>
        <polyline fill="none;"  points="61100,2420061500,23790"/>
        <polyline fill="none;"  points="61100,2310061390,23100"/>
        <polyline fill="none;"  points="61290,2969061390,29600"/>
        <polyline fill="none;"  points="61290,2930061390,29400"/>
        <polyline fill="none;"  points="61290,2890061390,28800"/>
        <polyline fill="none;"  points="61290,2850061390,28590"/>
        <polyline fill="none;"  points="61390,2960061390,29400"/>
        <polyline fill="none;"  points="61390,2859061390,28800"/>
        <polyline fill="none;"  points="61390,2339061100,23100"/>
        <polyline fill="none;"  points="61390,2339061500,23500"/>
        <polyline fill="none;"  points="61390,2310061890,23100"/>
        <polyline fill="none;"  points="61500,2750061500,27300"/>
        <polyline fill="none;"  points="61500,2730061500,27190"/>
        <polyline fill="none;"  points="61500,2680061100,27190"/>
        <polyline fill="none;"  points="61500,2650061100,26090"/>
        <polyline fill="none;"  points="61500,2650062000,26500"/>
        <polyline fill="none;"  points="61500,2550061500,26090"/>
        <polyline fill="none;"  points="61500,2550062000,25500"/>
        <polyline fill="none;"  points="61500,2450061500,24200"/>
        <polyline fill="none;"  points="61500,2450062000,24500"/>
        <polyline fill="none;"  points="61500,2379061890,24200"/>
        <polyline fill="none;"  points="61500,2350060000,23500"/>
        <polyline fill="none;"  points="61500,2350061600,23500"/>
        <polyline fill="none;"  points="61500,2250061500,23100"/>
        <polyline fill="none;"  points="61500,2250062000,22500"/>
        <polyline fill="none;"  points="61600,2350062000,23500"/>
        <polyline fill="none;"  points="61890,2719061500,26800"/>
        <polyline fill="none;"  points="61890,2609061500,26500"/>
        <polyline fill="none;"  points="61890,2420061100,24200"/>
        <polyline fill="none;"  points="61890,2310061500,23500"/>
        <polyline fill="none;"  points="62000,2750061500,27500"/>
        <path d="M62000 27500L65000 27500" />
        <path d="M63680 27340L63330 27340" />
        <path d="M63510 27340L63510 26740L63450 26830L63390 26890L63330 26910" />
        <path d="M62000 25500L65000 25500" />
        <path d="M63310 24740L63680 24740L63480 24970L63560 24970L63620 25000L63650 25030L63680 25090L63680 25230L63650 25290L63620 25310L63560 25340L63390 25340L63330 25310L63310 25290" />
        <path d="M60000 26500L57000 26500" />
        <path d="M58650 25740L58360 25740L58330 26030L58360 26000L58420 25970L58560 25970L58620 26000L58650 26030L58680 26090L58680 26230L58650 26290L58620 26310L58560 26340L58420 26340L58360 26310L58330 26290" />
        <path d="M60000 28500L57000 28500" />
        <path d="M58450 28000L58390 27970L58360 27940L58330 27890L58330 27860L58360 27800L58390 27770L58450 27740L58560 27740L58620 27770L58650 27800L58680 27860L58680 27890L58650 27940L58620 27970L58560 28000L58450 28000L58390 28030L58360 28060L58330 28110L58330 28230L58360 28290L58390 28310L58450 28340L58560 28340L58620 28310L58650 28290L58680 28230L58680 28110L58650 28060L58620 28030L58560 28000" />
        <path d="M60000 29500L57000 29500" />
        <path d="M58390 29340L58510 29340L58560 29310L58590 29290L58650 29200L58680 29090L58680 28860L58650 28800L58620 28770L58560 28740L58450 28740L58390 28770L58360 28800L58330 28860L58330 29000L58360 29060L58390 29090L58450 29110L58560 29110L58620 29090L58650 29060L58680 29000" />
        <path d="M60000 23500L57000 23500" />
        <path d="M58390 23340L58040 23340" />
        <path d="M58220 23340L58220 22740L58160 22830L58100 22890L58040 22910" />
        <path d="M58610 22800L58640 22770L58700 22740L58840 22740L58900 22770L58930 22800L58960 22860L58960 22910L58930 23000L58590 23340L58960 23340" />
        <path d="M62000 22500L65000 22500" />
        <path d="M63390 22340L63040 22340" />
        <path d="M63220 22340L63220 21740L63160 21830L63100 21890L63040 21910" />
        <path d="M63900 21940L63900 22340" />
        <path d="M63760 21710L63610 22140L63990 22140" />
        <path d="M62000 24500L65000 24500" />
        <path d="M63390 24340L63040 24340" />
        <path d="M63220 24340L63220 23740L63160 23830L63100 23890L63040 23910" />
        <path d="M63900 23740L63790 23740L63730 23770L63700 23800L63640 23890L63610 24000L63610 24230L63640 24290L63670 24310L63730 24340L63840 24340L63900 24310L63930 24290L63960 24230L63960 24090L63930 24030L63900 24000L63840 23970L63730 23970L63670 24000L63640 24030L63610 24090" />
    </g>
    <g stroke-opacity="1" style="     stroke-linecap:round; stroke-linejoin:round;" stroke-width="80" fill="#009F9F" fill-opacity="0.0"  stroke="#009F9F">
        <path d="M60020 22240L60020 21540" />
        <path d="M60420 22240L60120 21840" />
        <path d="M60420 21540L60020 21940" />
        <path d="M60820 22180L60850 22210L60820 22240L60780 22210L60820 22180L60820 22240" />
        <path d="M60680 21580L60750 21540L60920 21540L60980 21580L61020 21640L61020 21710L60980 21780L60950 21810L60880 21840L60850 21880L60820 21940L60820 21980" />
        <path d="M60310 31240L60070 30910" />
        <path d="M59910 31240L59910 30540L60170 30540L60240 30580L60270 30610L60310 30680L60310 30780L60270 30840L60240 30880L60170 30910L59910 30910" />
        <path d="M60610 30880L60840 30880" />
        <path d="M60940 31240L60610 31240L60610 30540L60940 30540" />
        <path d="M61570 31240L61240 31240L61240 30540" />
        <path d="M61770 31040L62110 31040" />
        <path d="M61710 31240L61940 30540L62170 31240" />
        <path d="M62540 30910L62540 31240" />
        <path d="M62310 30540L62540 30910L62770 30540" />
        <path d="M62840 31310L63370 31310" />
        <path d="M63500 30610L63540 30580L63600 30540L63770 30540L63840 30580L63870 30610L63900 30680L63900 30740L63870 30840L63470 31240L63900 31240" />
        <path d="M64610 31240L64370 30910" />
        <path d="M64210 31240L64210 30540L64470 30540L64540 30580L64570 30610L64610 30680L64610 30780L64570 30840L64540 30880L64470 30910L64210 30910" />
        <path d="M64810 30540L65210 30540" />
        <path d="M65010 31240L65010 30540" />
    </g>
    <g stroke-opacity="1" style="     stroke-linecap:round; stroke-linejoin:round;" stroke-width="0" fill="#009F9F" fill-opacity="0.0"  stroke="#009F9F"/>
    <g stroke-opacity="1" style="     stroke-linecap:round; stroke-linejoin:round;" stroke-width="80" fill="#9F0000" fill-opacity="0.0"  stroke="#9F0000">
        <polyline fill="none;"  points="60000,6550060100,65500"/>
        <polyline fill="none;"  points="60000,6450060500,64500"/>
        <polyline fill="none;"  points="60000,6250061500,62500"/>
        <polyline fill="none;"  points="60100,6550060300,65690"/>
        <polyline fill="none;"  points="60100,6519060100,65000"/>
        <polyline fill="none;"  points="60200,6530060100,65190"/>
        <polyline fill="none;"  points="60200,6490060100,65000"/>
        <polyline fill="none;"  points="60300,6569060500,65690"/>
        <polyline fill="none;"  points="60500,6610060500,64090"/>
        <polyline fill="none;"  points="60500,6530060200,65300"/>
        <polyline fill="none;"  points="60500,6530061000,65300"/>
        <polyline fill="none;"  points="60500,6490060200,64900"/>
        <polyline fill="none;"  points="60500,6450061000,64500"/>
        <polyline fill="none;"  points="60500,6409061000,64090"/>
        <polyline fill="none;"  points="61000,6610060500,66100"/>
        <polyline fill="none;"  points="61000,6569060500,65690"/>
        <polyline fill="none;"  points="61000,6569061290,65690"/>
        <polyline fill="none;"  points="61000,6530061290,65300"/>
        <polyline fill="none;"  points="61000,6490060500,64900"/>
        <polyline fill="none;"  points="61000,6490061290,64900"/>
        <polyline fill="none;"  points="61000,6450061290,64500"/>
        <polyline fill="none;"  points="61000,6409061000,66100"/>
        <polyline fill="none;"  points="61100,6319061890,63190"/>
        <polyline fill="none;"  points="61100,6209061890,62090"/>
        <polyline fill="none;"  points="61100,6020061500,59790"/>
        <polyline fill="none;"  points="61100,5910061390,59100"/>
        <polyline fill="none;"  points="61290,6569061390,65600"/>
        <polyline fill="none;"  points="61290,6530061390,65400"/>
        <polyline fill="none;"  points="61290,6490061390,64800"/>
        <polyline fill="none;"  points="61290,6450061390,64590"/>
        <polyline fill="none;"  points="61390,6560061390,65400"/>
        <polyline fill="none;"  points="61390,6459061390,64800"/>
        <polyline fill="none;"  points="61390,5939061100,59100"/>
        <polyline fill="none;"  points="61390,5939061500,59500"/>
        <polyline fill="none;"  points="61390,5910061890,59100"/>
        <polyline fill="none;"  points="61500,6350061500,63300"/>
        <polyline fill="none;"  points="61500,6330061500,63190"/>
        <polyline fill="none;"  points="61500,6280061100,63190"/>
        <polyline fill="none;"  points="61500,6250061100,62090"/>
        <polyline fill="none;"  points="61500,6250062000,62500"/>
        <polyline fill="none;"  points="61500,6150061500,62090"/>
        <polyline fill="none;"  points="61500,6150062000,61500"/>
        <polyline fill="none;"  points="61500,6050061500,60200"/>
        <polyline fill="none;"  points="61500,6050062000,60500"/>
        <polyline fill="none;"  points="61500,5979061890,60200"/>
        <polyline fill="none;"  points="61500,5950060000,59500"/>
        <polyline fill="none;"  points="61500,5950061600,59500"/>
        <polyline fill="none;"  points="61500,5850061500,59100"/>
        <polyline fill="none;"  points="61500,5850062000,58500"/>
        <polyline fill="none;"  points="61600,5950062000,59500"/>
        <polyline fill="none;"  points="61890,6319061500,62800"/>
        <polyline fill="none;"  points="61890,6209061500,62500"/>
        <polyline fill="none;"  points="61890,6020061100,60200"/>
        <polyline fill="none;"  points="61890,5910061500,59500"/>
        <polyline fill="none;"  points="62000,6350061500,63500"/>
        <path d="M62000 63500L65000 63500" />
        <path d="M63680 63340L63330 63340" />
        <path d="M63510 63340L63510 62740L63450 62830L63390 62890L63330 62910" />
        <path d="M62000 61500L65000 61500" />
        <path d="M63310 60740L63680 60740L63480 60970L63560 60970L63620 61000L63650 61030L63680 61090L63680 61230L63650 61290L63620 61310L63560 61340L63390 61340L63330 61310L63310 61290" />
        <path d="M60000 62500L57000 62500" />
        <path d="M58650 61740L58360 61740L58330 62030L58360 62000L58420 61970L58560 61970L58620 62000L58650 62030L58680 62090L58680 62230L58650 62290L58620 62310L58560 62340L58420 62340L58360 62310L58330 62290" />
        <path d="M60000 64500L57000 64500" />
        <path d="M58450 64000L58390 63970L58360 63940L58330 63890L58330 63860L58360 63800L58390 63770L58450 63740L58560 63740L58620 63770L58650 63800L58680 63860L58680 63890L58650 63940L58620 63970L58560 64000L58450 64000L58390 64030L58360 64060L58330 64110L58330 64230L58360 64290L58390 64310L58450 64340L58560 64340L58620 64310L58650 64290L58680 64230L58680 64110L58650 64060L58620 64030L58560 64000" />
        <path d="M60000 65500L57000 65500" />
        <path d="M58390 65340L58510 65340L58560 65310L58590 65290L58650 65200L58680 65090L58680 64860L58650 64800L58620 64770L58560 64740L58450 64740L58390 64770L58360 64800L58330 64860L58330 65000L58360 65060L58390 65090L58450 65110L58560 65110L58620 65090L58650 65060L58680 65000" />
        <path d="M60000 59500L57000 59500" />
        <path d="M58390 59340L58040 59340" />
        <path d="M58220 59340L58220 58740L58160 58830L58100 58890L58040 58910" />
        <path d="M58610 58800L58640 58770L58700 58740L58840 58740L58900 58770L58930 58800L58960 58860L58960 58910L58930 59000L58590 59340L58960 59340" />
        <path d="M62000 58500L65000 58500" />
        <path d="M63390 58340L63040 58340" />
        <path d="M63220 58340L63220 57740L63160 57830L63100 57890L63040 57910" />
        <path d="M63900 57940L63900 58340" />
        <path d="M63760 57710L63610 58140L63990 58140" />
        <path d="M62000 60500L65000 60500" />
        <path d="M63390 60340L63040 60340" />
        <path d="M63220 60340L63220 59740L63160 59830L63100 59890L63040 59910" />
        <path d="M63900 59740L63790 59740L63730 59770L63700 59800L63640 59890L63610 60000L63610 60230L63640 60290L63670 60310L63730 60340L63840 60340L63900 60310L63930 60290L63960 60230L63960 60090L63930 60030L63900 60000L63840 59970L63730 59970L63670 60000L63640 60030L63610 60090" />
    </g>
    <g stroke-opacity="1" style="     stroke-linecap:round; stroke-linejoin:round;" stroke-width="80" fill="#009F9F" fill-opacity="0.0"  stroke="#009F9F">
        <path d="M60020 58240L60020 57540" />
        <path d="M60420 58240L60120 57840" />
        <path d="M60420 57540L60020 57940" />
        <path d="M60820 58180L60850 58210L60820 58240L60780 58210L60820 58180L60820 58240" />
        <path d="M60680 57580L60750 57540L60920 57540L60980 57580L61020 57640L61020 57710L60980 57780L60950 57810L60880 57840L60850 57880L60820 57940L60820 57980" />
        <path d="M60310 67240L60070 66910" />
        <path d="M59910 67240L59910 66540L60170 66540L60240 66580L60270 66610L60310 66680L60310 66780L60270 66840L60240 66880L60170 66910L59910 66910" />
        <path d="M60610 66880L60840 66880" />
        <path d="M60940 67240L60610 67240L60610 66540L60940 66540" />
        <path d="M61570 67240L61240 67240L61240 66540" />
        <path d="M61770 67040L62110 67040" />
        <path d="M61710 67240L61940 66540L62170 67240" />
        <path d="M62540 66910L62540 67240" />
        <path d="M62310 66540L62540 66910L62770 66540" />
        <path d="M62840 67310L63370 67310" />
        <path d="M63500 66610L63540 66580L63600 66540L63770 66540L63840 66580L63870 66610L63900 66680L63900 66740L63870 66840L63470 67240L63900 67240" />
        <path d="M64610 67240L64370 66910" />
        <path d="M64210 67240L64210 66540L64470 66540L64540 66580L64570 66610L64610 66680L64610 66780L64570 66840L64540 66880L64470 66910L64210 66910" />
        <path d="M64810 66540L65210 66540" />
        <path d="M65010 67240L65010 66540" />
    </g>
    <g stroke-opacity="1" style="     stroke-linecap:round; stroke-linejoin:round;" stroke-width="0" fill="#009F9F" fill-opacity="0.0"  stroke="#009F9F"/>
    <g stroke-opacity="1" style="     stroke-linecap:round; stroke-linejoin:round;" stroke-width="80" fill="#9F0000" fill-opacity="0.0"  stroke="#9F0000">
        <rect height="4000" rx="0" x="44500" y="26000" width="6500" />
        <polyline fill="none;"  points="44500,2950045000,2950045000,29500"/>
        <polyline fill="none;"  points="44500,2650045000,2650045000,26500"/>
        <polyline fill="none;"  points="47400,2890047600,2870047600,28700"/>
        <polyline fill="none;"  points="49000,2700049000,2900049000,29000"/>
        <polyline fill="none;"  points="51000,2950050500,2950050500,29500"/>
        <polyline fill="none;"  points="51000,2650050500,2650050500,26500"/>
        <polyline fill="none;"  points="46000,2850046000,2950045000,2950045000,29500"/>
        <polyline fill="none;"  points="49000,2850049500,2900049500,2950050500,2950050500,29500"/>
        <polyline fill="none;"  points="49000,2750049500,2700049500,2650050500,2650050500,26500"/>
        <polyline fill="none;"  points="49100,2880049300,2860049300,2880049100,2880049100,28800"/>
        <polyline fill="none;"  points="46800,2810047600,2890047600,2870047600,2890047400,2890047400,28900"/>
        <polyline fill="none;"  points="46800,2870047600,2950047600,2930047600,2950047400,2950047600,2930047600,29300"/>
        <polyline fill="none;"  points="45000,2650046000,2650046000,2750045000,2750046000,2850047000,2750046000,2750046000,27500"/>
        <path d="M44500 26500L41500 26500" />
    </g>
    <g stroke-opacity="1" style="     stroke-linecap:round; stroke-linejoin:round;" stroke-width="80" fill="#009F9F" fill-opacity="0.0"  stroke="#009F9F">
        <path d="M44900 26560L45130 26560" />
        <path d="M44850 26700L45010 26200L45180 26700" />
    </g>
    <g stroke-opacity="1" style="     stroke-linecap:round; stroke-linejoin:round;" stroke-width="80" fill="#9F0000" fill-opacity="0.0"  stroke="#9F0000">
        <path d="M43140 26350L42860 26350" />
        <path d="M43000 26350L43000 25850L42950 25920L42900 25970L42860 26000" />
        <path d="M44500 29500L41500 29500" />
    </g>
    <g stroke-opacity="1" style="     stroke-linecap:round; stroke-linejoin:round;" stroke-width="80" fill="#009F9F" fill-opacity="0.0"  stroke="#009F9F">
        <path d="M44920 29700L44920 29200" />
        <path d="M45200 29700L44990 29420" />
        <path d="M45200 29200L44920 29490" />
    </g>
    <g stroke-opacity="1" style="     stroke-linecap:round; stroke-linejoin:round;" stroke-width="80" fill="#9F0000" fill-opacity="0.0"  stroke="#9F0000">
        <path d="M42860 28900L42880 28880L42930 28850L43050 28850L43090 28880L43120 28900L43140 28950L43140 29000L43120 29070L42830 29350L43140 29350" />
        <path d="M51000 29500L54000 29500" />
    </g>
    <g stroke-opacity="1" style="     stroke-linecap:round; stroke-linejoin:round;" stroke-width="80" fill="#009F9F" fill-opacity="0.0"  stroke="#009F9F">
        <path d="M50370 29440L50540 29440" />
        <path d="M50610 29700L50370 29700L50370 29200L50610 29200" />
    </g>
    <g stroke-opacity="1" style="     stroke-linecap:round; stroke-linejoin:round;" stroke-width="80" fill="#9F0000" fill-opacity="0.0"  stroke="#9F0000">
        <path d="M52330 28850L52640 28850L52470 29040L52550 29040L52590 29070L52620 29090L52640 29140L52640 29260L52620 29300L52590 29330L52550 29350L52400 29350L52360 29330L52330 29300" />
        <path d="M51000 26500L54000 26500" />
    </g>
    <g stroke-opacity="1" style="     stroke-linecap:round; stroke-linejoin:round;" stroke-width="80" fill="#009F9F" fill-opacity="0.0"  stroke="#009F9F">
        <path d="M50600 26650L50580 26680L50510 26700L50460 26700L50390 26680L50340 26630L50320 26580L50300 26490L50300 26420L50320 26320L50340 26270L50390 26230L50460 26200L50510 26200L50580 26230L50600 26250" />
    </g>
    <g stroke-opacity="1" style="     stroke-linecap:round; stroke-linejoin:round;" stroke-width="80" fill="#9F0000" fill-opacity="0.0"  stroke="#9F0000">
        <path d="M52590 26020L52590 26350" />
        <path d="M52470 25830L52360 26190L52660 26190" />
    </g>
    <g stroke-opacity="1" style="     stroke-linecap:round; stroke-linejoin:round;" stroke-width="80" fill="#009F9F" fill-opacity="0.0"  stroke="#009F9F">
        <path d="M49570 25100L49570 25590L49600 25650L49630 25670L49690 25700L49800 25700L49860 25670L49890 25650L49920 25590L49920 25100" />
        <path d="M50290 25650L50320 25670L50290 25700L50260 25670L50290 25650L50290 25700" />
        <path d="M50170 25130L50230 25100L50370 25100L50430 25130L50460 25190L50460 25250L50430 25300L50400 25330L50350 25360L50320 25390L50290 25450L50290 25470" />
        <path d="M43790 30100L43900 30100L43960 30130L44020 30190L44040 30300L44040 30500L44020 30620L43960 30670L43900 30700L43790 30700L43730 30670L43670 30620L43640 30500L43640 30300L43670 30190L43730 30130L43790 30100" />
        <path d="M44300 30700L44300 30100L44530 30100L44590 30130L44620 30160L44650 30220L44650 30300L44620 30360L44590 30390L44530 30420L44300 30420" />
        <path d="M44820 30100L45160 30100" />
        <path d="M44990 30700L44990 30100" />
        <path d="M45480 30100L45590 30100L45650 30130L45710 30190L45730 30300L45730 30500L45710 30620L45650 30670L45590 30700L45480 30700L45420 30670L45360 30620L45330 30500L45330 30300L45360 30190L45420 30130L45480 30100" />
        <path d="M45990 30470L46450 30470" />
        <path d="M46650 30100L46990 30100" />
        <path d="M46820 30700L46820 30100" />
        <path d="M47540 30700L47340 30420" />
        <path d="M47190 30700L47190 30100L47420 30100L47480 30130L47510 30160L47540 30220L47540 30300L47510 30360L47480 30390L47420 30420L47190 30420" />
        <path d="M47760 30530L48050 30530" />
        <path d="M47710 30700L47910 30100L48110 30700" />
        <path d="M48300 30700L48300 30100L48650 30700L48650 30100" />
        <path d="M48900 30670L48990 30700L49130 30700L49190 30670L49220 30650L49250 30590L49250 30530L49220 30470L49190 30450L49130 30420L49020 30390L48960 30360L48930 30330L48900 30270L48900 30220L48930 30160L48960 30130L49020 30100L49160 30100L49250 30130" />
        <path d="M49500 30700L49500 30100" />
        <path d="M49760 30670L49850 30700L49990 30700L50050 30670L50080 30650L50110 30590L50110 30530L50080 30470L50050 30450L49990 30420L49880 30390L49820 30360L49790 30330L49760 30270L49760 30220L49790 30160L49820 30130L49880 30100L50020 30100L50110 30130" />
        <path d="M50280 30100L50620 30100" />
        <path d="M50450 30700L50450 30100" />
        <path d="M50940 30100L51050 30100L51110 30130L51170 30190L51190 30300L51190 30500L51170 30620L51110 30670L51050 30700L50940 30700L50880 30670L50820 30620L50790 30500L50790 30300L50820 30190L50880 30130L50940 30100" />
        <path d="M51800 30700L51600 30420" />
        <path d="M51450 30700L51450 30100L51680 30100L51740 30130L51770 30160L51800 30220L51800 30300L51770 30360L51740 30390L51680 30420L51450 30420" />
        <path d="M52310 30300L52310 30700" />
        <path d="M52170 30070L52020 30500L52400 30500" />
    </g>
    <g stroke-opacity="1" style="     stroke-linecap:round; stroke-linejoin:round;" stroke-width="0" fill="#009F9F" fill-opacity="0.0"  stroke="#009F9F"/>
    <g stroke-opacity="1" style="     stroke-linecap:round; stroke-linejoin:round;" stroke-width="80" fill="#9F0000" fill-opacity="0.0"  stroke="#9F0000">
        <rect height="4000" rx="0" x="44000" y="38000" width="6500" />
        <polyline fill="none;"  points="44000,4150044500,4150044500,41500"/>
        <polyline fill="none;"  points="44000,3850044500,3850044500,38500"/>
        <polyline fill="none;"  points="46900,4090047100,4070047100,40700"/>
        <polyline fill="none;"  points="48500,3900048500,4100048500,41000"/>
        <polyline fill="none;"  points="50500,4150050000,4150050000,41500"/>
        <polyline fill="none;"  points="50500,3850050000,3850050000,38500"/>
        <polyline fill="none;"  points="45500,4050045500,4150044500,4150044500,41500"/>
        <polyline fill="none;"  points="48500,4050049000,4100049000,4150050000,4150050000,41500"/>
        <polyline fill="none;"  points="48500,3950049000,3900049000,3850050000,3850050000,38500"/>
        <polyline fill="none;"  points="48600,4080048800,4060048800,4080048600,4080048600,40800"/>
        <polyline fill="none;"  points="46300,4010047100,4090047100,4070047100,4090046900,4090046900,40900"/>
        <polyline fill="none;"  points="46300,4070047100,4150047100,4130047100,4150046900,4150047100,4130047100,41300"/>
        <polyline fill="none;"  points="44500,3850045500,3850045500,3950044500,3950045500,4050046500,3950045500,3950045500,39500"/>
        <path d="M44000 38500L41000 38500" />
    </g>
    <g stroke-opacity="1" style="     stroke-linecap:round; stroke-linejoin:round;" stroke-width="80" fill="#009F9F" fill-opacity="0.0"  stroke="#009F9F">
        <path d="M44400 38560L44630 38560" />
        <path d="M44350 38700L44510 38200L44680 38700" />
    </g>
    <g stroke-opacity="1" style="     stroke-linecap:round; stroke-linejoin:round;" stroke-width="80" fill="#9F0000" fill-opacity="0.0"  stroke="#9F0000">
        <path d="M42640 38350L42360 38350" />
        <path d="M42500 38350L42500 37850L42450 37920L42400 37970L42360 38000" />
        <path d="M44000 41500L41000 41500" />
    </g>
    <g stroke-opacity="1" style="     stroke-linecap:round; stroke-linejoin:round;" stroke-width="80" fill="#009F9F" fill-opacity="0.0"  stroke="#009F9F">
        <path d="M44420 41700L44420 41200" />
        <path d="M44700 41700L44490 41420" />
        <path d="M44700 41200L44420 41490" />
    </g>
    <g stroke-opacity="1" style="     stroke-linecap:round; stroke-linejoin:round;" stroke-width="80" fill="#9F0000" fill-opacity="0.0"  stroke="#9F0000">
        <path d="M42360 40900L42380 40880L42430 40850L42550 40850L42590 40880L42620 40900L42640 40950L42640 41000L42620 41070L42330 41350L42640 41350" />
        <path d="M50500 41500L53500 41500" />
    </g>
    <g stroke-opacity="1" style="     stroke-linecap:round; stroke-linejoin:round;" stroke-width="80" fill="#009F9F" fill-opacity="0.0"  stroke="#009F9F">
        <path d="M49870 41440L50040 41440" />
        <path d="M50110 41700L49870 41700L49870 41200L50110 41200" />
    </g>
    <g stroke-opacity="1" style="     stroke-linecap:round; stroke-linejoin:round;" stroke-width="80" fill="#9F0000" fill-opacity="0.0"  stroke="#9F0000">
        <path d="M51830 40850L52140 40850L51970 41040L52050 41040L52090 41070L52120 41090L52140 41140L52140 41260L52120 41300L52090 41330L52050 41350L51900 41350L51860 41330L51830 41300" />
        <path d="M50500 38500L53500 38500" />
    </g>
    <g stroke-opacity="1" style="     stroke-linecap:round; stroke-linejoin:round;" stroke-width="80" fill="#009F9F" fill-opacity="0.0"  stroke="#009F9F">
        <path d="M50100 38650L50080 38680L50010 38700L49960 38700L49890 38680L49840 38630L49820 38580L49800 38490L49800 38420L49820 38320L49840 38270L49890 38230L49960 38200L50010 38200L50080 38230L50100 38250" />
    </g>
    <g stroke-opacity="1" style="     stroke-linecap:round; stroke-linejoin:round;" stroke-width="80" fill="#9F0000" fill-opacity="0.0"  stroke="#9F0000">
        <path d="M52090 38020L52090 38350" />
        <path d="M51970 37830L51860 38190L52160 38190" />
    </g>
    <g stroke-opacity="1" style="     stroke-linecap:round; stroke-linejoin:round;" stroke-width="80" fill="#009F9F" fill-opacity="0.0"  stroke="#009F9F">
        <path d="M49070 37100L49070 37590L49100 37650L49130 37670L49190 37700L49300 37700L49360 37670L49390 37650L49420 37590L49420 37100" />
        <path d="M49790 37650L49820 37670L49790 37700L49760 37670L49790 37650L49790 37700" />
        <path d="M49670 37130L49730 37100L49870 37100L49930 37130L49960 37190L49960 37250L49930 37300L49900 37330L49850 37360L49820 37390L49790 37450L49790 37470" />
        <path d="M43290 42100L43400 42100L43460 42130L43520 42190L43540 42300L43540 42500L43520 42620L43460 42670L43400 42700L43290 42700L43230 42670L43170 42620L43140 42500L43140 42300L43170 42190L43230 42130L43290 42100" />
        <path d="M43800 42700L43800 42100L44030 42100L44090 42130L44120 42160L44150 42220L44150 42300L44120 42360L44090 42390L44030 42420L43800 42420" />
        <path d="M44320 42100L44660 42100" />
        <path d="M44490 42700L44490 42100" />
        <path d="M44980 42100L45090 42100L45150 42130L45210 42190L45230 42300L45230 42500L45210 42620L45150 42670L45090 42700L44980 42700L44920 42670L44860 42620L44830 42500L44830 42300L44860 42190L44920 42130L44980 42100" />
        <path d="M45490 42470L45950 42470" />
        <path d="M46150 42100L46490 42100" />
        <path d="M46320 42700L46320 42100" />
        <path d="M47040 42700L46840 42420" />
        <path d="M46690 42700L46690 42100L46920 42100L46980 42130L47010 42160L47040 42220L47040 42300L47010 42360L46980 42390L46920 42420L46690 42420" />
        <path d="M47260 42530L47550 42530" />
        <path d="M47210 42700L47410 42100L47610 42700" />
        <path d="M47800 42700L47800 42100L48150 42700L48150 42100" />
        <path d="M48400 42670L48490 42700L48630 42700L48690 42670L48720 42650L48750 42590L48750 42530L48720 42470L48690 42450L48630 42420L48520 42390L48460 42360L48430 42330L48400 42270L48400 42220L48430 42160L48460 42130L48520 42100L48660 42100L48750 42130" />
        <path d="M49000 42700L49000 42100" />
        <path d="M49260 42670L49350 42700L49490 42700L49550 42670L49580 42650L49610 42590L49610 42530L49580 42470L49550 42450L49490 42420L49380 42390L49320 42360L49290 42330L49260 42270L49260 42220L49290 42160L49320 42130L49380 42100L49520 42100L49610 42130" />
        <path d="M49780 42100L50120 42100" />
        <path d="M49950 42700L49950 42100" />
        <path d="M50440 42100L50550 42100L50610 42130L50670 42190L50690 42300L50690 42500L50670 42620L50610 42670L50550 42700L50440 42700L50380 42670L50320 42620L50290 42500L50290 42300L50320 42190L50380 42130L50440 42100" />
        <path d="M51300 42700L51100 42420" />
        <path d="M50950 42700L50950 42100L51180 42100L51240 42130L51270 42160L51300 42220L51300 42300L51270 42360L51240 42390L51180 42420L50950 42420" />
        <path d="M51810 42300L51810 42700" />
        <path d="M51670 42070L51520 42500L51900 42500" />
    </g>
    <g stroke-opacity="1" style="     stroke-linecap:round; stroke-linejoin:round;" stroke-width="0" fill="#009F9F" fill-opacity="0.0"  stroke="#009F9F"/>
    <g stroke-opacity="1" style="     stroke-linecap:round; stroke-linejoin:round;" stroke-width="80" fill="#9F0000" fill-opacity="0.0"  stroke="#9F0000">
        <rect height="4000" rx="0" x="44500" y="50000" width="6500" />
        <polyline fill="none;"  points="44500,5350045000,5350045000,53500"/>
        <polyline fill="none;"  points="44500,5050045000,5050045000,50500"/>
        <polyline fill="none;"  points="47400,5290047600,5270047600,52700"/>
        <polyline fill="none;"  points="49000,5100049000,5300049000,53000"/>
        <polyline fill="none;"  points="51000,5350050500,5350050500,53500"/>
        <polyline fill="none;"  points="51000,5050050500,5050050500,50500"/>
        <polyline fill="none;"  points="46000,5250046000,5350045000,5350045000,53500"/>
        <polyline fill="none;"  points="49000,5250049500,5300049500,5350050500,5350050500,53500"/>
        <polyline fill="none;"  points="49000,5150049500,5100049500,5050050500,5050050500,50500"/>
        <polyline fill="none;"  points="49100,5280049300,5260049300,5280049100,5280049100,52800"/>
        <polyline fill="none;"  points="46800,5210047600,5290047600,5270047600,5290047400,5290047400,52900"/>
        <polyline fill="none;"  points="46800,5270047600,5350047600,5330047600,5350047400,5350047600,5330047600,53300"/>
        <polyline fill="none;"  points="45000,5050046000,5050046000,5150045000,5150046000,5250047000,5150046000,5150046000,51500"/>
        <path d="M44500 50500L41500 50500" />
    </g>
    <g stroke-opacity="1" style="     stroke-linecap:round; stroke-linejoin:round;" stroke-width="80" fill="#009F9F" fill-opacity="0.0"  stroke="#009F9F">
        <path d="M44900 50560L45130 50560" />
        <path d="M44850 50700L45010 50200L45180 50700" />
    </g>
    <g stroke-opacity="1" style="     stroke-linecap:round; stroke-linejoin:round;" stroke-width="80" fill="#9F0000" fill-opacity="0.0"  stroke="#9F0000">
        <path d="M43140 50350L42860 50350" />
        <path d="M43000 50350L43000 49850L42950 49920L42900 49970L42860 50000" />
        <path d="M44500 53500L41500 53500" />
    </g>
    <g stroke-opacity="1" style="     stroke-linecap:round; stroke-linejoin:round;" stroke-width="80" fill="#009F9F" fill-opacity="0.0"  stroke="#009F9F">
        <path d="M44920 53700L44920 53200" />
        <path d="M45200 53700L44990 53420" />
        <path d="M45200 53200L44920 53490" />
    </g>
    <g stroke-opacity="1" style="     stroke-linecap:round; stroke-linejoin:round;" stroke-width="80" fill="#9F0000" fill-opacity="0.0"  stroke="#9F0000">
        <path d="M42860 52900L42880 52880L42930 52850L43050 52850L43090 52880L43120 52900L43140 52950L43140 53000L43120 53070L42830 53350L43140 53350" />
        <path d="M51000 53500L54000 53500" />
    </g>
    <g stroke-opacity="1" style="     stroke-linecap:round; stroke-linejoin:round;" stroke-width="80" fill="#009F9F" fill-opacity="0.0"  stroke="#009F9F">
        <path d="M50370 53440L50540 53440" />
        <path d="M50610 53700L50370 53700L50370 53200L50610 53200" />
    </g>
    <g stroke-opacity="1" style="     stroke-linecap:round; stroke-linejoin:round;" stroke-width="80" fill="#9F0000" fill-opacity="0.0"  stroke="#9F0000">
        <path d="M52330 52850L52640 52850L52470 53040L52550 53040L52590 53070L52620 53090L52640 53140L52640 53260L52620 53300L52590 53330L52550 53350L52400 53350L52360 53330L52330 53300" />
        <path d="M51000 50500L54000 50500" />
    </g>
    <g stroke-opacity="1" style="     stroke-linecap:round; stroke-linejoin:round;" stroke-width="80" fill="#009F9F" fill-opacity="0.0"  stroke="#009F9F">
        <path d="M50600 50650L50580 50680L50510 50700L50460 50700L50390 50680L50340 50630L50320 50580L50300 50490L50300 50420L50320 50320L50340 50270L50390 50230L50460 50200L50510 50200L50580 50230L50600 50250" />
    </g>
    <g stroke-opacity="1" style="     stroke-linecap:round; stroke-linejoin:round;" stroke-width="80" fill="#9F0000" fill-opacity="0.0"  stroke="#9F0000">
        <path d="M52590 50020L52590 50350" />
        <path d="M52470 49830L52360 50190L52660 50190" />
    </g>
    <g stroke-opacity="1" style="     stroke-linecap:round; stroke-linejoin:round;" stroke-width="80" fill="#009F9F" fill-opacity="0.0"  stroke="#009F9F">
        <path d="M49570 49100L49570 49590L49600 49650L49630 49670L49690 49700L49800 49700L49860 49670L49890 49650L49920 49590L49920 49100" />
        <path d="M50290 49650L50320 49670L50290 49700L50260 49670L50290 49650L50290 49700" />
        <path d="M50170 49130L50230 49100L50370 49100L50430 49130L50460 49190L50460 49250L50430 49300L50400 49330L50350 49360L50320 49390L50290 49450L50290 49470" />
        <path d="M43790 54100L43900 54100L43960 54130L44020 54190L44040 54300L44040 54500L44020 54620L43960 54670L43900 54700L43790 54700L43730 54670L43670 54620L43640 54500L43640 54300L43670 54190L43730 54130L43790 54100" />
        <path d="M44300 54700L44300 54100L44530 54100L44590 54130L44620 54160L44650 54220L44650 54300L44620 54360L44590 54390L44530 54420L44300 54420" />
        <path d="M44820 54100L45160 54100" />
        <path d="M44990 54700L44990 54100" />
        <path d="M45480 54100L45590 54100L45650 54130L45710 54190L45730 54300L45730 54500L45710 54620L45650 54670L45590 54700L45480 54700L45420 54670L45360 54620L45330 54500L45330 54300L45360 54190L45420 54130L45480 54100" />
        <path d="M45990 54470L46450 54470" />
        <path d="M46650 54100L46990 54100" />
        <path d="M46820 54700L46820 54100" />
        <path d="M47540 54700L47340 54420" />
        <path d="M47190 54700L47190 54100L47420 54100L47480 54130L47510 54160L47540 54220L47540 54300L47510 54360L47480 54390L47420 54420L47190 54420" />
        <path d="M47760 54530L48050 54530" />
        <path d="M47710 54700L47910 54100L48110 54700" />
        <path d="M48300 54700L48300 54100L48650 54700L48650 54100" />
        <path d="M48900 54670L48990 54700L49130 54700L49190 54670L49220 54650L49250 54590L49250 54530L49220 54470L49190 54450L49130 54420L49020 54390L48960 54360L48930 54330L48900 54270L48900 54220L48930 54160L48960 54130L49020 54100L49160 54100L49250 54130" />
        <path d="M49500 54700L49500 54100" />
        <path d="M49760 54670L49850 54700L49990 54700L50050 54670L50080 54650L50110 54590L50110 54530L50080 54470L50050 54450L49990 54420L49880 54390L49820 54360L49790 54330L49760 54270L49760 54220L49790 54160L49820 54130L49880 54100L50020 54100L50110 54130" />
        <path d="M50280 54100L50620 54100" />
        <path d="M50450 54700L50450 54100" />
        <path d="M50940 54100L51050 54100L51110 54130L51170 54190L51190 54300L51190 54500L51170 54620L51110 54670L51050 54700L50940 54700L50880 54670L50820 54620L50790 54500L50790 54300L50820 54190L50880 54130L50940 54100" />
        <path d="M51800 54700L51600 54420" />
        <path d="M51450 54700L51450 54100L51680 54100L51740 54130L51770 54160L51800 54220L51800 54300L51770 54360L51740 54390L51680 54420L51450 54420" />
        <path d="M52310 54300L52310 54700" />
        <path d="M52170 54070L52020 54500L52400 54500" />
    </g>
    <g stroke-opacity="1" style="     stroke-linecap:round; stroke-linejoin:round;" stroke-width="0" fill="#009F9F" fill-opacity="0.0"  stroke="#009F9F"/>
    <g stroke-opacity="1" style="     stroke-linecap:round; stroke-linejoin:round;" stroke-width="80" fill="#9F0000" fill-opacity="0.0"  stroke="#9F0000">
        <rect height="4000" rx="0" x="44000" y="62000" width="6500" />
        <polyline fill="none;"  points="44000,6550044500,6550044500,65500"/>
        <polyline fill="none;"  points="44000,6250044500,6250044500,62500"/>
        <polyline fill="none;"  points="46900,6490047100,6470047100,64700"/>
        <polyline fill="none;"  points="48500,6300048500,6500048500,65000"/>
        <polyline fill="none;"  points="50500,6550050000,6550050000,65500"/>
        <polyline fill="none;"  points="50500,6250050000,6250050000,62500"/>
        <polyline fill="none;"  points="45500,6450045500,6550044500,6550044500,65500"/>
        <polyline fill="none;"  points="48500,6450049000,6500049000,6550050000,6550050000,65500"/>
        <polyline fill="none;"  points="48500,6350049000,6300049000,6250050000,6250050000,62500"/>
        <polyline fill="none;"  points="48600,6480048800,6460048800,6480048600,6480048600,64800"/>
        <polyline fill="none;"  points="46300,6410047100,6490047100,6470047100,6490046900,6490046900,64900"/>
        <polyline fill="none;"  points="46300,6470047100,6550047100,6530047100,6550046900,6550047100,6530047100,65300"/>
        <polyline fill="none;"  points="44500,6250045500,6250045500,6350044500,6350045500,6450046500,6350045500,6350045500,63500"/>
        <path d="M44000 62500L41000 62500" />
    </g>
    <g stroke-opacity="1" style="     stroke-linecap:round; stroke-linejoin:round;" stroke-width="80" fill="#009F9F" fill-opacity="0.0"  stroke="#009F9F">
        <path d="M44400 62560L44630 62560" />
        <path d="M44350 62700L44510 62200L44680 62700" />
    </g>
    <g stroke-opacity="1" style="     stroke-linecap:round; stroke-linejoin:round;" stroke-width="80" fill="#9F0000" fill-opacity="0.0"  stroke="#9F0000">
        <path d="M42640 62350L42360 62350" />
        <path d="M42500 62350L42500 61850L42450 61920L42400 61970L42360 62000" />
        <path d="M44000 65500L41000 65500" />
    </g>
    <g stroke-opacity="1" style="     stroke-linecap:round; stroke-linejoin:round;" stroke-width="80" fill="#009F9F" fill-opacity="0.0"  stroke="#009F9F">
        <path d="M44420 65700L44420 65200" />
        <path d="M44700 65700L44490 65420" />
        <path d="M44700 65200L44420 65490" />
    </g>
    <g stroke-opacity="1" style="     stroke-linecap:round; stroke-linejoin:round;" stroke-width="80" fill="#9F0000" fill-opacity="0.0"  stroke="#9F0000">
        <path d="M42360 64900L42380 64880L42430 64850L42550 64850L42590 64880L42620 64900L42640 64950L42640 65000L42620 65070L42330 65350L42640 65350" />
        <path d="M50500 65500L53500 65500" />
    </g>
    <g stroke-opacity="1" style="     stroke-linecap:round; stroke-linejoin:round;" stroke-width="80" fill="#009F9F" fill-opacity="0.0"  stroke="#009F9F">
        <path d="M49870 65440L50040 65440" />
        <path d="M50110 65700L49870 65700L49870 65200L50110 65200" />
    </g>
    <g stroke-opacity="1" style="     stroke-linecap:round; stroke-linejoin:round;" stroke-width="80" fill="#9F0000" fill-opacity="0.0"  stroke="#9F0000">
        <path d="M51830 64850L52140 64850L51970 65040L52050 65040L52090 65070L52120 65090L52140 65140L52140 65260L52120 65300L52090 65330L52050 65350L51900 65350L51860 65330L51830 65300" />
        <path d="M50500 62500L53500 62500" />
    </g>
    <g stroke-opacity="1" style="     stroke-linecap:round; stroke-linejoin:round;" stroke-width="80" fill="#009F9F" fill-opacity="0.0"  stroke="#009F9F">
        <path d="M50100 62650L50080 62680L50010 62700L49960 62700L49890 62680L49840 62630L49820 62580L49800 62490L49800 62420L49820 62320L49840 62270L49890 62230L49960 62200L50010 62200L50080 62230L50100 62250" />
    </g>
    <g stroke-opacity="1" style="     stroke-linecap:round; stroke-linejoin:round;" stroke-width="80" fill="#9F0000" fill-opacity="0.0"  stroke="#9F0000">
        <path d="M52090 62020L52090 62350" />
        <path d="M51970 61830L51860 62190L52160 62190" />
    </g>
    <g stroke-opacity="1" style="     stroke-linecap:round; stroke-linejoin:round;" stroke-width="80" fill="#009F9F" fill-opacity="0.0"  stroke="#009F9F">
        <path d="M49070 61100L49070 61590L49100 61650L49130 61670L49190 61700L49300 61700L49360 61670L49390 61650L49420 61590L49420 61100" />
        <path d="M49790 61650L49820 61670L49790 61700L49760 61670L49790 61650L49790 61700" />
        <path d="M49670 61130L49730 61100L49870 61100L49930 61130L49960 61190L49960 61250L49930 61300L49900 61330L49850 61360L49820 61390L49790 61450L49790 61470" />
        <path d="M43290 66100L43400 66100L43460 66130L43520 66190L43540 66300L43540 66500L43520 66620L43460 66670L43400 66700L43290 66700L43230 66670L43170 66620L43140 66500L43140 66300L43170 66190L43230 66130L43290 66100" />
        <path d="M43800 66700L43800 66100L44030 66100L44090 66130L44120 66160L44150 66220L44150 66300L44120 66360L44090 66390L44030 66420L43800 66420" />
        <path d="M44320 66100L44660 66100" />
        <path d="M44490 66700L44490 66100" />
        <path d="M44980 66100L45090 66100L45150 66130L45210 66190L45230 66300L45230 66500L45210 66620L45150 66670L45090 66700L44980 66700L44920 66670L44860 66620L44830 66500L44830 66300L44860 66190L44920 66130L44980 66100" />
        <path d="M45490 66470L45950 66470" />
        <path d="M46150 66100L46490 66100" />
        <path d="M46320 66700L46320 66100" />
        <path d="M47040 66700L46840 66420" />
        <path d="M46690 66700L46690 66100L46920 66100L46980 66130L47010 66160L47040 66220L47040 66300L47010 66360L46980 66390L46920 66420L46690 66420" />
        <path d="M47260 66530L47550 66530" />
        <path d="M47210 66700L47410 66100L47610 66700" />
        <path d="M47800 66700L47800 66100L48150 66700L48150 66100" />
        <path d="M48400 66670L48490 66700L48630 66700L48690 66670L48720 66650L48750 66590L48750 66530L48720 66470L48690 66450L48630 66420L48520 66390L48460 66360L48430 66330L48400 66270L48400 66220L48430 66160L48460 66130L48520 66100L48660 66100L48750 66130" />
        <path d="M49000 66700L49000 66100" />
        <path d="M49260 66670L49350 66700L49490 66700L49550 66670L49580 66650L49610 66590L49610 66530L49580 66470L49550 66450L49490 66420L49380 66390L49320 66360L49290 66330L49260 66270L49260 66220L49290 66160L49320 66130L49380 66100L49520 66100L49610 66130" />
        <path d="M49780 66100L50120 66100" />
        <path d="M49950 66700L49950 66100" />
        <path d="M50440 66100L50550 66100L50610 66130L50670 66190L50690 66300L50690 66500L50670 66620L50610 66670L50550 66700L50440 66700L50380 66670L50320 66620L50290 66500L50290 66300L50320 66190L50380 66130L50440 66100" />
        <path d="M51300 66700L51100 66420" />
        <path d="M50950 66700L50950 66100L51180 66100L51240 66130L51270 66160L51300 66220L51300 66300L51270 66360L51240 66390L51180 66420L50950 66420" />
        <path d="M51810 66300L51810 66700" />
        <path d="M51670 66070L51520 66500L51900 66500" />
    </g>
    <g stroke-opacity="1" style="     stroke-linecap:round; stroke-linejoin:round;" stroke-width="0" fill="#009F9F" fill-opacity="0.0"  stroke="#009F9F"/>
    <g stroke-opacity="1" style="     stroke-linecap:round; stroke-linejoin:round;" stroke-width="80" fill="#9F0000" fill-opacity="0.0"  stroke="#9F0000">
        <rect height="3000" rx="0" x="48500" y="16000" width="2000" />
        <circle id="connector18pin"  cx="48150" cy="16500" r="350" gorn="0.61.1"/>
        <path d="M47800 16500L46000 16500" />
        <path d="M47430 16340L47080 16340" />
        <path d="M47260 16340L47260 15740L47200 15830L47140 15890L47080 15910" />
        <circle  cx="48150" cy="18500" r="350"/>
        <path d="M47800 18500L46000 18500" />
        <path d="M47080 17800L47110 17770L47170 17740L47310 17740L47370 17770L47400 17800L47430 17860L47430 17910L47400 18000L47060 18340L47430 18340" />
    </g>
    <g stroke-opacity="1" style="     stroke-linecap:round; stroke-linejoin:round;" stroke-width="70" fill="#009F9F" fill-opacity="0.0"  stroke="#009F9F">
        <path d="M49130 17770L48730 17770L48730 17620L48750 17580L48770 17570L48810 17550L48870 17550L48900 17570L48920 17580L48940 17620L48940 17770" />
        <path d="M49090 17320L49110 17300L49130 17320L49110 17340L49090 17320L49130 17320" />
        <path d="M48750 17390L48730 17360L48730 17260L48750 17220L48790 17200L48830 17200L48870 17220L48880 17240L48900 17280L48920 17300L48960 17320L48980 17320" />
        <path d="M50090 18350L50110 18370L50130 18420L50130 18460L50110 18520L50070 18560L50040 18570L49960 18590L49900 18590L49830 18570L49790 18560L49750 18520L49730 18460L49730 18420L49750 18370L49770 18350" />
        <path d="M49730 18100L49730 18020L49750 17980L49790 17950L49870 17930L50000 17930L50070 17950L50110 17980L50130 18020L50130 18100L50110 18140L50070 18170L50000 18190L49870 18190L49790 18170L49750 18140L49730 18100" />
        <path d="M50130 17750L49730 17750L50130 17530L49730 17530" />
        <path d="M50130 17330L49730 17330L50130 17110L49730 17110" />
        <path d="M50170 17010L50170 16710" />
        <path d="M49770 16630L49750 16610L49730 16580L49730 16480L49750 16440L49770 16420L49810 16410L49850 16410L49900 16420L50130 16650L50130 16410" />
    </g>
    <g stroke-opacity="1" style="     stroke-linecap:round; stroke-linejoin:round;" stroke-width="0" fill="#009F9F" fill-opacity="0.0"  stroke="#009F9F"/>
    <g stroke-opacity="1" style="     stroke-linecap:round; stroke-linejoin:round;" stroke-width="80" fill="#9F0000" fill-opacity="0.0"  stroke="#9F0000">
        <rect height="6000" rx="0" x="28500" y="28000" width="2000" />
        <circle id="connector0pin"  cx="30850" cy="28500" r="350" gorn="0.64.1"/>
        <path d="M31200 28500L33000 28500" />
        <path d="M31930 28340L31580 28340" />
        <path d="M31760 28340L31760 27740L31700 27830L31640 27890L31580 27910" />
        <circle id="connector2pin"  cx="30850" cy="29500" r="350" gorn="0.64.5"/>
        <path d="M31200 29500L33000 29500" />
        <path d="M31580 28800L31610 28770L31670 28740L31810 28740L31870 28770L31900 28800L31930 28860L31930 28910L31900 29000L31560 29340L31930 29340" />
        <circle id="connector3pin"  cx="30850" cy="30500" r="350" gorn="0.64.8"/>
        <path d="M31200 30500L33000 30500" />
        <path d="M31560 29740L31930 29740L31730 29970L31810 29970L31870 30000L31900 30030L31930 30090L31930 30230L31900 30290L31870 30310L31810 30340L31640 30340L31580 30310L31560 30290" />
        <circle id="connector4pin"  cx="30850" cy="31500" r="350" gorn="0.64.11"/>
        <path d="M31200 31500L33000 31500" />
        <path d="M31870 30940L31870 31340" />
        <path d="M31730 30710L31580 31140L31960 31140" />
        <circle id="connector5pin"  cx="30850" cy="32500" r="350" gorn="0.64.15"/>
        <path d="M31200 32500L33000 32500" />
        <path d="M31900 31740L31610 31740L31580 32030L31610 32000L31670 31970L31810 31970L31870 32000L31900 32030L31930 32090L31930 32230L31900 32290L31870 32310L31810 32340L31670 32340L31610 32310L31580 32290" />
        <circle id="connector1pin"  cx="30850" cy="33500" r="350" gorn="0.64.18"/>
        <path d="M31200 33500L33000 33500" />
        <path d="M31870 32740L31760 32740L31700 32770L31670 32800L31610 32890L31580 33000L31580 33230L31610 33290L31640 33310L31700 33340L31810 33340L31870 33310L31900 33290L31930 33230L31930 33090L31900 33030L31870 33000L31810 32970L31700 32970L31640 33000L31610 33030L31580 33090" />
    </g>
    <g stroke-opacity="1" style="     stroke-linecap:round; stroke-linejoin:round;" stroke-width="80" fill="#009F9F" fill-opacity="0.0"  stroke="#009F9F">
        <path d="M30280 31400L29680 31400L29680 31170L29710 31110L29740 31080L29800 31050L29880 31050L29940 31080L29970 31110L30000 31170L30000 31400" />
        <path d="M30230 30710L30250 30680L30280 30710L30250 30740L30230 30710L30280 30710" />
        <path d="M29710 30830L29680 30770L29680 30630L29710 30570L29770 30540L29830 30540L29880 30570L29910 30600L29940 30650L29970 30680L30030 30710L30050 30710" />
        <path d="M29230 32270L29250 32300L29280 32390L29280 32450L29250 32530L29200 32590L29140 32620L29030 32650L28940 32650L28830 32620L28770 32590L28710 32530L28680 32450L28680 32390L28710 32300L28740 32270" />
        <path d="M28680 31900L28680 31790L28710 31730L28770 31670L28880 31650L29080 31650L29200 31670L29250 31730L29280 31790L29280 31900L29250 31960L29200 32020L29080 32050L28880 32050L28770 32020L28710 31960L28680 31900" />
        <path d="M29280 31390L28680 31390L29280 31040L28680 31040" />
        <path d="M29280 30760L28680 30760L29280 30410L28680 30410" />
        <path d="M29340 30270L29340 29810" />
        <path d="M28680 29410L28680 29520L28710 29580L28740 29610L28830 29670L28940 29700L29170 29700L29230 29670L29250 29640L29280 29580L29280 29470L29250 29410L29230 29380L29170 29350L29030 29350L28970 29380L28940 29410L28910 29470L28910 29580L28940 29640L28970 29670L29030 29700" />
    </g>
    <g stroke-opacity="1" style="     stroke-linecap:round; stroke-linejoin:round;" stroke-width="80" fill="#009F00" fill-opacity="0.0" id="connector19pin"  stroke="#009F00" gorn="0.66">
        <path d="M33000 28500L34500 28500" />
        <path d="M34500 28500L34500 16500" />
        <path d="M34500 16500L46000 16500" />
        <path d="M46000 18500L46000 23500" />
        <path d="M46000 23500L54000 23500" />
        <path d="M54000 23500L54000 26500" />
        <path d="M54000 26500L55500 26500" />
        <path d="M55500 26500L55500 62500" />
        <path d="M55500 38500L53500 38500" />
        <path d="M55500 50500L54000 50500" />
    </g>
    <g stroke-opacity="1" style="     stroke-linecap:round; stroke-linejoin:round;" stroke-width="0" fill="#009F00" fill-opacity="0.0"  stroke="#009F00"/>
    <g stroke-opacity="1" style="     stroke-linecap:round; stroke-linejoin:round;" stroke-width="100" fill="#009F00" fill-opacity="1.0"  stroke="#009F00">
        <circle  cx="55500" cy="38500" r="160"/>
    </g>
    <g stroke-opacity="1" style="     stroke-linecap:round; stroke-linejoin:round;" stroke-width="80" fill="#009F00" fill-opacity="1.0"  stroke="#009F00">
        <path d="M55500 62500L53500 62500" />
    </g>
    <g stroke-opacity="1" style="     stroke-linecap:round; stroke-linejoin:round;" stroke-width="0" fill="#009F00" fill-opacity="1.0"  stroke="#009F00"/>
    <g stroke-opacity="1" style="     stroke-linecap:round; stroke-linejoin:round;" stroke-width="100" fill="#009F00" fill-opacity="1.0"  stroke="#009F00">
        <circle  cx="55500" cy="50500" r="160"/>
    </g>
    <g stroke-opacity="1" style="     stroke-linecap:round; stroke-linejoin:round;" stroke-width="80" fill="#009F00" fill-opacity="1.0"  stroke="#009F00">
        <path d="M54000 29500L54000 28500" />
        <path d="M54000 28500L57000 28500" />
        <path d="M53500 41500L53500 40000" />
        <path d="M53500 40000L57000 40000" />
        <path d="M54000 53500L54000 52500" />
        <path d="M54000 52500L57000 52500" />
        <path d="M53500 65500L53500 64500" />
        <path d="M53500 64500L57000 64500" />
        <path d="M33000 33500L41500 33500" />
        <path d="M35500 33500L35500 67500" />
        <path d="M35500 67500L57000 67500" />
        <path d="M57000 67500L57000 65500" />
        <path d="M57000 53500L56500 53500" />
        <path d="M56500 29500L56500 67500" />
    </g>
    <g stroke-opacity="1" style="     stroke-linecap:round; stroke-linejoin:round;" stroke-width="0" fill="#009F00" fill-opacity="1.0"  stroke="#009F00"/>
    <g stroke-opacity="1" style="     stroke-linecap:round; stroke-linejoin:round;" stroke-width="100" fill="#009F00" fill-opacity="1.0"  stroke="#009F00">
        <circle  cx="56500" cy="67500" r="160"/>
    </g>
    <g stroke-opacity="1" style="     stroke-linecap:round; stroke-linejoin:round;" stroke-width="80" fill="#009F00" fill-opacity="1.0"  stroke="#009F00">
        <path d="M57000 41000L56500 41000" />
    </g>
    <g stroke-opacity="1" style="     stroke-linecap:round; stroke-linejoin:round;" stroke-width="0" fill="#009F00" fill-opacity="1.0"  stroke="#009F00"/>
    <g stroke-opacity="1" style="     stroke-linecap:round; stroke-linejoin:round;" stroke-width="100" fill="#009F00" fill-opacity="1.0"  stroke="#009F00">
        <circle  cx="56500" cy="53500" r="160"/>
    </g>
    <g stroke-opacity="1" style="     stroke-linecap:round; stroke-linejoin:round;" stroke-width="80" fill="#009F00" fill-opacity="1.0"  stroke="#009F00">
        <path d="M57000 29500L56500 29500" />
    </g>
    <g stroke-opacity="1" style="     stroke-linecap:round; stroke-linejoin:round;" stroke-width="0" fill="#009F00" fill-opacity="1.0"  stroke="#009F00"/>
    <g stroke-opacity="1" style="     stroke-linecap:round; stroke-linejoin:round;" stroke-width="100" fill="#009F00" fill-opacity="1.0"  stroke="#009F00">
        <circle  cx="56500" cy="41000" r="160"/>
    </g>
    <g stroke-opacity="1" style="     stroke-linecap:round; stroke-linejoin:round;" stroke-width="80" fill="#009F00" fill-opacity="1.0"  stroke="#009F00">
        <path d="M33000 29500L36500 29500" />
        <path d="M36500 29500L36500 26500" />
        <path d="M36500 26500L41500 26500" />
        <path d="M41500 33500L41500 29500" />
    </g>
    <g stroke-opacity="1" style="     stroke-linecap:round; stroke-linejoin:round;" stroke-width="0" fill="#009F00" fill-opacity="1.0"  stroke="#009F00"/>
    <g stroke-opacity="1" style="     stroke-linecap:round; stroke-linejoin:round;" stroke-width="100" fill="#009F00" fill-opacity="1.0"  stroke="#009F00">
        <circle  cx="35500" cy="33500" r="160"/>
    </g>
    <g stroke-opacity="1" style="     stroke-linecap:round; stroke-linejoin:round;" stroke-width="80" fill="#009F00" fill-opacity="1.0"  stroke="#009F00">
        <path d="M41000 41500L35500 41500" />
    </g>
    <g stroke-opacity="1" style="     stroke-linecap:round; stroke-linejoin:round;" stroke-width="0" fill="#009F00" fill-opacity="1.0"  stroke="#009F00"/>
    <g stroke-opacity="1" style="     stroke-linecap:round; stroke-linejoin:round;" stroke-width="100" fill="#009F00" fill-opacity="1.0"  stroke="#009F00">
        <circle  cx="35500" cy="41500" r="160"/>
    </g>
    <g stroke-opacity="1" style="     stroke-linecap:round; stroke-linejoin:round;" stroke-width="80" fill="#009F00" fill-opacity="1.0"  stroke="#009F00">
        <path d="M41500 53500L35500 53500" />
    </g>
    <g stroke-opacity="1" style="     stroke-linecap:round; stroke-linejoin:round;" stroke-width="0" fill="#009F00" fill-opacity="1.0"  stroke="#009F00"/>
    <g stroke-opacity="1" style="     stroke-linecap:round; stroke-linejoin:round;" stroke-width="100" fill="#009F00" fill-opacity="1.0"  stroke="#009F00">
        <circle  cx="35500" cy="53500" r="160"/>
    </g>
    <g stroke-opacity="1" style="     stroke-linecap:round; stroke-linejoin:round;" stroke-width="80" fill="#009F00" fill-opacity="1.0"  stroke="#009F00">
        <path d="M41000 65500L35500 65500" />
    </g>
    <g stroke-opacity="1" style="     stroke-linecap:round; stroke-linejoin:round;" stroke-width="0" fill="#009F00" fill-opacity="1.0"  stroke="#009F00"/>
    <g stroke-opacity="1" style="     stroke-linecap:round; stroke-linejoin:round;" stroke-width="100" fill="#009F00" fill-opacity="1.0"  stroke="#009F00">
        <circle  cx="35500" cy="65500" r="160"/>
    </g>
    <g stroke-opacity="1" style="     stroke-linecap:round; stroke-linejoin:round;" stroke-width="80" fill="#009F00" fill-opacity="1.0"  stroke="#009F00">
        <path d="M33000 30500L39500 30500" />
        <path d="M39500 30500L39500 38500" />
        <path d="M39500 38500L41000 38500" />
        <path d="M33000 31500L38500 31500" />
        <path d="M38500 31500L38500 50500" />
        <path d="M38500 50500L41500 50500" />
        <path d="M33000 32500L37500 32500" />
        <path d="M37500 32500L37500 62500" />
        <path d="M37500 62500L41000 62500" />
    </g>
    <g stroke-opacity="1" style="     stroke-linecap:round; stroke-linejoin:round;" stroke-width="0" fill="#009F00" fill-opacity="1.0"  stroke="#009F00"/>
    <g stroke-opacity="1" style="     stroke-linecap:round; stroke-linejoin:round;" stroke-width="80" fill="#9F0000" fill-opacity="0.0"  stroke="#9F0000">
        <rect height="3000" rx="0" x="75500" y="23000" width="2000" />
        <circle id="connector6pin"  cx="75150" cy="23500" r="350" gorn="0.95.1"/>
        <path d="M74800 23500L73000 23500" />
        <path d="M74430 23340L74080 23340" />
        <path d="M74260 23340L74260 22740L74200 22830L74140 22890L74080 22910" />
        <circle id="connector10pin"  cx="75150" cy="24500" r="350" gorn="0.95.5"/>
        <path d="M74800 24500L73000 24500" />
        <path d="M74080 23800L74110 23770L74170 23740L74310 23740L74370 23770L74400 23800L74430 23860L74430 23910L74400 24000L74060 24340L74430 24340" />
        <circle id="connector14pin"  cx="75150" cy="25500" r="350" gorn="0.95.8"/>
        <path d="M74800 25500L73000 25500" />
        <path d="M74060 24740L74430 24740L74230 24970L74310 24970L74370 25000L74400 25030L74430 25090L74430 25230L74400 25290L74370 25310L74310 25340L74140 25340L74080 25310L74060 25290" />
    </g>
    <g stroke-opacity="1" style="     stroke-linecap:round; stroke-linejoin:round;" stroke-width="80" fill="#009F9F" fill-opacity="0.0"  stroke="#009F9F">
        <path d="M76160 24830L75660 24830" />
        <path d="M76160 24550L75880 24760" />
        <path d="M75660 24550L75950 24830" />
        <path d="M76110 24260L76140 24240L76160 24260L76140 24280L76110 24260L76160 24260" />
        <path d="M75690 24350L75660 24310L75660 24190L75690 24140L75730 24120L75780 24120L75830 24140L75850 24160L75880 24210L75900 24240L75950 24260L75970 24260" />
    </g>
    <g stroke-opacity="1" style="     stroke-linecap:round; stroke-linejoin:round;" stroke-width="70" fill="#009F9F" fill-opacity="0.0"  stroke="#009F9F">
        <path d="M77090 25350L77110 25370L77130 25420L77130 25460L77110 25520L77070 25560L77040 25570L76960 25590L76900 25590L76830 25570L76790 25560L76750 25520L76730 25460L76730 25420L76750 25370L76770 25350" />
        <path d="M76730 25100L76730 25020L76750 24980L76790 24950L76870 24930L77000 24930L77070 24950L77110 24980L77130 25020L77130 25100L77110 25140L77070 25170L77000 25190L76870 25190L76790 25170L76750 25140L76730 25100" />
        <path d="M77130 24750L76730 24750L77130 24530L76730 24530" />
        <path d="M77130 24330L76730 24330L77130 24110L76730 24110" />
        <path d="M77170 24010L77170 23710" />
        <path d="M76730 23650L76730 23410L76880 23540L76880 23480L76900 23440L76920 23420L76960 23410L77060 23410L77090 23420L77110 23440L77130 23480L77130 23600L77110 23630L77090 23650" />
    </g>
    <g stroke-opacity="1" style="     stroke-linecap:round; stroke-linejoin:round;" stroke-width="0" fill="#009F9F" fill-opacity="0.0"  stroke="#009F9F"/>
    <g stroke-opacity="1" style="     stroke-linecap:round; stroke-linejoin:round;" stroke-width="80" fill="#9F0000" fill-opacity="0.0"  stroke="#9F0000">
        <rect height="3000" rx="0" x="76000" y="36500" width="2000" />
        <circle id="connector7pin"  cx="75650" cy="37000" r="350" gorn="0.99.1"/>
        <path d="M75300 37000L73500 37000" />
        <path d="M74930 36840L74580 36840" />
        <path d="M74760 36840L74760 36240L74700 36330L74640 36390L74580 36410" />
        <circle id="connector11pin"  cx="75650" cy="38000" r="350" gorn="0.99.5"/>
        <path d="M75300 38000L73500 38000" />
        <path d="M74580 37300L74610 37270L74670 37240L74810 37240L74870 37270L74900 37300L74930 37360L74930 37410L74900 37500L74560 37840L74930 37840" />
        <circle id="connector15pin"  cx="75650" cy="39000" r="350" gorn="0.99.8"/>
        <path d="M75300 39000L73500 39000" />
        <path d="M74560 38240L74930 38240L74730 38470L74810 38470L74870 38500L74900 38530L74930 38590L74930 38730L74900 38790L74870 38810L74810 38840L74640 38840L74580 38810L74560 38790" />
    </g>
    <g stroke-opacity="1" style="     stroke-linecap:round; stroke-linejoin:round;" stroke-width="80" fill="#009F9F" fill-opacity="0.0"  stroke="#009F9F">
        <path d="M76660 38330L76160 38330" />
        <path d="M76660 38050L76380 38260" />
        <path d="M76160 38050L76450 38330" />
        <path d="M76610 37760L76640 37740L76660 37760L76640 37780L76610 37760L76660 37760" />
        <path d="M76190 37850L76160 37810L76160 37690L76190 37640L76230 37620L76280 37620L76330 37640L76350 37660L76380 37710L76400 37740L76450 37760L76470 37760" />
    </g>
    <g stroke-opacity="1" style="     stroke-linecap:round; stroke-linejoin:round;" stroke-width="70" fill="#009F9F" fill-opacity="0.0"  stroke="#009F9F">
        <path d="M77590 38850L77610 38870L77630 38920L77630 38960L77610 39020L77570 39060L77540 39070L77460 39090L77400 39090L77330 39070L77290 39060L77250 39020L77230 38960L77230 38920L77250 38870L77270 38850" />
        <path d="M77230 38600L77230 38520L77250 38480L77290 38450L77370 38430L77500 38430L77570 38450L77610 38480L77630 38520L77630 38600L77610 38640L77570 38670L77500 38690L77370 38690L77290 38670L77250 38640L77230 38600" />
        <path d="M77630 38250L77230 38250L77630 38030L77230 38030" />
        <path d="M77630 37830L77230 37830L77630 37610L77230 37610" />
        <path d="M77670 37510L77670 37210" />
        <path d="M77230 37150L77230 36910L77380 37040L77380 36980L77400 36940L77420 36920L77460 36910L77560 36910L77590 36920L77610 36940L77630 36980L77630 37100L77610 37130L77590 37150" />
    </g>
    <g stroke-opacity="1" style="     stroke-linecap:round; stroke-linejoin:round;" stroke-width="0" fill="#009F9F" fill-opacity="0.0"  stroke="#009F9F"/>
    <g stroke-opacity="1" style="     stroke-linecap:round; stroke-linejoin:round;" stroke-width="80" fill="#9F0000" fill-opacity="0.0"  stroke="#9F0000">
        <rect height="3000" rx="0" x="76000" y="48500" width="2000" />
        <circle id="connector8pin"  cx="75650" cy="49000" r="350" gorn="0.103.1"/>
        <path d="M75300 49000L73500 49000" />
        <path d="M74930 48840L74580 48840" />
        <path d="M74760 48840L74760 48240L74700 48330L74640 48390L74580 48410" />
        <circle id="connector12pin"  cx="75650" cy="50000" r="350" gorn="0.103.5"/>
        <path d="M75300 50000L73500 50000" />
        <path d="M74580 49300L74610 49270L74670 49240L74810 49240L74870 49270L74900 49300L74930 49360L74930 49410L74900 49500L74560 49840L74930 49840" />
        <circle id="connector16pin"  cx="75650" cy="51000" r="350" gorn="0.103.8"/>
        <path d="M75300 51000L73500 51000" />
        <path d="M74560 50240L74930 50240L74730 50470L74810 50470L74870 50500L74900 50530L74930 50590L74930 50730L74900 50790L74870 50810L74810 50840L74640 50840L74580 50810L74560 50790" />
    </g>
    <g stroke-opacity="1" style="     stroke-linecap:round; stroke-linejoin:round;" stroke-width="80" fill="#009F9F" fill-opacity="0.0"  stroke="#009F9F">
        <path d="M76660 50330L76160 50330" />
        <path d="M76660 50050L76380 50260" />
        <path d="M76160 50050L76450 50330" />
        <path d="M76610 49760L76640 49740L76660 49760L76640 49780L76610 49760L76660 49760" />
        <path d="M76190 49850L76160 49810L76160 49690L76190 49640L76230 49620L76280 49620L76330 49640L76350 49660L76380 49710L76400 49740L76450 49760L76470 49760" />
    </g>
    <g stroke-opacity="1" style="     stroke-linecap:round; stroke-linejoin:round;" stroke-width="70" fill="#009F9F" fill-opacity="0.0"  stroke="#009F9F">
        <path d="M77590 50850L77610 50870L77630 50920L77630 50960L77610 51020L77570 51060L77540 51070L77460 51090L77400 51090L77330 51070L77290 51060L77250 51020L77230 50960L77230 50920L77250 50870L77270 50850" />
        <path d="M77230 50600L77230 50520L77250 50480L77290 50450L77370 50430L77500 50430L77570 50450L77610 50480L77630 50520L77630 50600L77610 50640L77570 50670L77500 50690L77370 50690L77290 50670L77250 50640L77230 50600" />
        <path d="M77630 50250L77230 50250L77630 50030L77230 50030" />
        <path d="M77630 49830L77230 49830L77630 49610L77230 49610" />
        <path d="M77670 49510L77670 49210" />
        <path d="M77230 49150L77230 48910L77380 49040L77380 48980L77400 48940L77420 48920L77460 48910L77560 48910L77590 48920L77610 48940L77630 48980L77630 49100L77610 49130L77590 49150" />
    </g>
    <g stroke-opacity="1" style="     stroke-linecap:round; stroke-linejoin:round;" stroke-width="0" fill="#009F9F" fill-opacity="0.0"  stroke="#009F9F"/>
    <g stroke-opacity="1" style="     stroke-linecap:round; stroke-linejoin:round;" stroke-width="80" fill="#9F0000" fill-opacity="0.0"  stroke="#9F0000">
        <rect height="3000" rx="0" x="76000" y="60000" width="2000" />
        <circle id="connector9pin"  cx="75650" cy="60500" r="350" gorn="0.107.1"/>
        <path d="M75300 60500L73500 60500" />
        <path d="M74930 60340L74580 60340" />
        <path d="M74760 60340L74760 59740L74700 59830L74640 59890L74580 59910" />
        <circle id="connector13pin"  cx="75650" cy="61500" r="350" gorn="0.107.5"/>
        <path d="M75300 61500L73500 61500" />
        <path d="M74580 60800L74610 60770L74670 60740L74810 60740L74870 60770L74900 60800L74930 60860L74930 60910L74900 61000L74560 61340L74930 61340" />
        <circle id="connector17pin"  cx="75650" cy="62500" r="350" gorn="0.107.8"/>
        <path d="M75300 62500L73500 62500" />
        <path d="M74560 61740L74930 61740L74730 61970L74810 61970L74870 62000L74900 62030L74930 62090L74930 62230L74900 62290L74870 62310L74810 62340L74640 62340L74580 62310L74560 62290" />
    </g>
    <g stroke-opacity="1" style="     stroke-linecap:round; stroke-linejoin:round;" stroke-width="80" fill="#009F9F" fill-opacity="0.0"  stroke="#009F9F">
        <path d="M76660 61830L76160 61830" />
        <path d="M76660 61550L76380 61760" />
        <path d="M76160 61550L76450 61830" />
        <path d="M76610 61260L76640 61240L76660 61260L76640 61280L76610 61260L76660 61260" />
        <path d="M76190 61350L76160 61310L76160 61190L76190 61140L76230 61120L76280 61120L76330 61140L76350 61160L76380 61210L76400 61240L76450 61260L76470 61260" />
    </g>
    <g stroke-opacity="1" style="     stroke-linecap:round; stroke-linejoin:round;" stroke-width="70" fill="#009F9F" fill-opacity="0.0"  stroke="#009F9F">
        <path d="M77590 62350L77610 62370L77630 62420L77630 62460L77610 62520L77570 62560L77540 62570L77460 62590L77400 62590L77330 62570L77290 62560L77250 62520L77230 62460L77230 62420L77250 62370L77270 62350" />
        <path d="M77230 62100L77230 62020L77250 61980L77290 61950L77370 61930L77500 61930L77570 61950L77610 61980L77630 62020L77630 62100L77610 62140L77570 62170L77500 62190L77370 62190L77290 62170L77250 62140L77230 62100" />
        <path d="M77630 61750L77230 61750L77630 61530L77230 61530" />
        <path d="M77630 61330L77230 61330L77630 61110L77230 61110" />
        <path d="M77670 61010L77670 60710" />
        <path d="M77230 60650L77230 60410L77380 60540L77380 60480L77400 60440L77420 60420L77460 60410L77560 60410L77590 60420L77610 60440L77630 60480L77630 60600L77610 60630L77590 60650" />
    </g>
    <g stroke-opacity="1" style="     stroke-linecap:round; stroke-linejoin:round;" stroke-width="80" fill="#009F9F" fill-opacity="0.0"  stroke="#009F9F"/>
    <g stroke-opacity="1" style="     stroke-linecap:round; stroke-linejoin:round;" stroke-width="80" fill="#009F00" fill-opacity="0.0"  stroke="#009F00">
        <path d="M57000 26500L56000 26500" />
        <path d="M56000 26500L56000 20500" />
        <path d="M56000 20500L71500 20500" />
        <path d="M71500 20500L71500 24500" />
        <path d="M71500 24500L73000 24500" />
        <path d="M57000 38000L57000 36000" />
        <path d="M57000 36000L71500 36000" />
        <path d="M71500 36000L71500 38000" />
        <path d="M71500 38000L73500 38000" />
        <path d="M65000 37000L73500 37000" />
        <path d="M65000 39000L73500 39000" />
        <path d="M57000 62500L57000 61000" />
        <path d="M57000 61000L72500 61000" />
        <path d="M72500 61000L72500 61500" />
        <path d="M72500 61500L73500 61500" />
        <path d="M65000 61500L69500 61500" />
        <path d="M69500 61500L69500 60500" />
        <path d="M69500 60500L73500 60500" />
        <path d="M65000 63500L73500 63500" />
        <path d="M73500 63500L73500 62500" />
        <path d="M57000 50500L57000 49000" />
        <path d="M57000 49000L71500 49000" />
        <path d="M71500 49000L71500 50000" />
        <path d="M71500 50000L73500 50000" />
        <path d="M65000 49500L72500 49500" />
        <path d="M72500 49500L72500 49000" />
        <path d="M72500 49000L73500 49000" />
        <path d="M65000 51500L73500 51500" />
        <path d="M73500 51500L73500 51000" />
        <path d="M73000 23500L67000 23500" />
        <path d="M67000 23500L67000 25500" />
        <path d="M67000 25500L65000 25500" />
        <path d="M73000 25500L68500 25500" />
        <path d="M68500 25500L68500 27500" />
        <path d="M68500 27500L65000 27500" />
    </g>
</svg>
