<?xml version='1.0' encoding='UTF-8' standalone='no'?>
<!DOCTYPE
  svg>
<!-- Generator: Adobe Illustrator 13.0.1, SVG Export Plug-In . SVG Version: 6.00 Build 14948)  -->
  <svg
  xmlns="http://www.w3.org/2000/svg"
  enable-background="new 0 0 52.471 52.707"
  height="0.732042in"
  xml:space="preserve"
  version="1.1"
  gorn="0"
  id="envelope"
  x="0px"
  viewBox="0 0 52.471 52.707"
  width="0.728764in"
  y="0px">
  <g
    gorn="0.0"
    id="pcb">
    <desc>
      <referenceFile>MPS20N0040D_Module_pcb.svg</referenceFile>
    </desc>
    <g
      gorn="0.1"
      id="silkscreen">
      <path
        d="M46.972,38.367c3.202-1.124,5.499-4.174,5.499-7.759c0-3.673-2.409-6.783-5.733-7.838l0.003-0.008c-0.809-0.301-1.383-1.079-1.383-1.993l0.004,0.127V0H7.093v20.847l0-0.014c-0.014,0.838-0.4,1.558-1.225,1.893l-0.066,0.019c-3.368,1.027-5.818,4.16-5.818,7.864c0,3.512,2.204,6.51,5.303,7.687l0,0c1.177,0.461,1.804,1.063,1.804,2.12l0.002,0.064v12.254h38.269V40.315l-0.004,0.113C45.358,39.431,46.045,38.594,46.972,38.367L46.972,38.367z"
        stroke-width="0.25"
        stroke="#000000"
        fill="none"
      />
      <path
        d="M30.975,24.867c0.391,0,0.707,0.317,0.707,0.709v12.756c0,0.391-0.316,0.708-0.707,0.708H21.62c-0.391,0-0.709-0.317-0.709-0.708V25.576c0-0.392,0.318-0.709,0.709-0.709H30.975z"
        stroke-width="0.25"
        stroke="#000000"
        fill="none"
      />
      <path
        d="M35.862,19.955c0,0.164-0.133,0.297-0.296,0.297H16.883c-0.164,0-0.296-0.133-0.296-0.297V1.272c0-0.164,0.133-0.296,0.296-0.296h18.683c0.164,0,0.296,0.133,0.296,0.296V19.955z"
        stroke-width="0.25"
        stroke="#000000"
        fill="none"
      />
      <circle
        r="3.897"
        stroke-width="0.25"
        stroke="#000000"
        cx="26.225"
        fill="none"
        cy="10.614"
      />
    </g>
    <g
      gorn="0.2"
      id="copper1">
      <g
        gorn="0.2.0"
        id="copper0">
        <circle
          r="1.919"
          gorn="0.2.0.0"
          id="connector3pad"
          stroke-width="1"
          stroke="#FFBD00"
          cx="37.501"
          fill="none"
          cy="48.23"
        />
        <circle
          r="1.919"
          gorn="0.2.0.1"
          id="connector2pad"
          stroke-width="1"
          stroke="#FFBD00"
          cx="30.299"
          fill="none"
          cy="48.23"
        />
        <circle
          r="1.919"
          gorn="0.2.0.2"
          id="connector1pad"
          stroke-width="1"
          stroke="#FFBD00"
          cx="23.099"
          fill="none"
          cy="48.23"
        />
        <rect
          height="3.838"
          gorn="0.2.0.3"
          id="_x30__Square"
          x="13.997"
          width="3.838"
          y="46.284"
          stroke-width="1"
          stroke="#FFBD00"
          fill="none"
        />
        <circle
          r="1.919"
          gorn="0.2.0.4"
          id="connector0pad"
          stroke-width="1"
          stroke="#FFBD00"
          cx="15.916"
          fill="none"
          cy="48.203"
        />
      </g>
    </g>
  </g>
</svg>
