<?xml version='1.0' encoding='UTF-8' standalone='no'?>
<svg
  xmlns="http://www.w3.org/2000/svg"
  xmlns:svg="http://www.w3.org/2000/svg"
  xmlns:rdf="http://www.w3.org/1999/02/22-rdf-syntax-ns#"
  xmlns:cc="http://creativecommons.org/ns#"
  xmlns:dc="http://purl.org/dc/elements/1.1/"
  shape-rendering="crispEdges"
  viewBox="0 0 1847.8109 1270.2068"
  x="0in"
  width="1.8478109in"
  height="1.2702068in"
  version="1.2"
  y="0in"
  id="svg2">
  <metadata
    id="metadata27">
    <rdf:RDF>
      <cc:Work
        rdf:about="">
        <dc:format>image/svg+xml</dc:format>
        <dc:type
          rdf:resource="http://purl.org/dc/dcmitype/StillImage"
        />
      </cc:Work>
    </rdf:RDF>
  </metadata>
  <defs
    id="defs25"
  />
  <desc
    id="desc4">
    <referenceFile>tds-sensor-meter-v1.0_1_pcb.svg</referenceFile>
  </desc>
  <g
    id="silkscreen">
    <path
      id="upper"
      d="M 35.637241,43.75631 C 56.552041,23.81344 78.595641,4.5156405 135.27364,5.0088505 H 1561.8526 c 34.4854,8.0048795 54.659,21.3766995 68.3384,37.1838095 12.9595,12.90517 25.9872,25.58287 31.3127,63.93462 V 1158.0932 c 0.8788,30.4273 -2.1284,59.1893 -19.3737,81.8491 -28.354,15.4997 -57.7046,27.511 -91.2304,24.9091 H 87.052841 c -23.4032,-7.8688 -39.1827,-16.5846 -51.6938,-36.2053 -23.0587,-23.4757 -21.0306,-43.3675 -27.3985999,-64.4587 V 131.48156 C 0.10374114,104.68014 6.9935411,75.77208 35.637241,43.75631 Z"
      fill="none"
      stroke="#000000"
      stroke-width="10"
    />
    <circle
      id="path5864"
      cx="147"
      cy="139.96698"
      r="90"
      fill="#000000"
      stroke="none"
      stroke-width="0"
    />
    <circle
      id="ellipse5946"
      cx="147"
      cy="1128.1438"
      r="90"
      fill="#000000"
      stroke="none"
      stroke-width="0"
    />
    <circle
      id="ellipse5948"
      cx="1529"
      cy="1128.1438"
      r="90"
      fill="#000000"
      stroke="none"
      stroke-width="0"
    />
    <circle
      id="ellipse5950"
      cx="1529"
      cy="139.95499"
      r="90"
      fill="#000000"
      stroke="none"
      stroke-width="0"
    />
  </g>
  <g
    id="copper1">
    <g
      id="copper0">
      <rect
        stroke-width="20"
        stroke="#ffbf00"
        fill="none"
        id="square"
        gorn="0.2.0.0"
        x="1779.8108"
        height="58"
        width="58"
        y="700.8493"
      />
      <circle
        stroke-width="20"
        stroke="#ffbf00"
        fill="none"
        id="connector0pin"
        gorn="0.2.0.1"
        cx="1808.8108"
        cy="729.8493"
        r="29"
      />
      <circle
        stroke-width="20"
        stroke="#ffbf00"
        fill="none"
        id="connector1pin"
        gorn="0.2.0.2"
        cx="1808.8108"
        cy="629.81006"
        r="29"
      />
      <circle
        stroke-width="20"
        stroke="#ffbf00"
        fill="none"
        id="connector2pin"
        gorn="0.2.0.3"
        cx="1808.8108"
        cy="529.8493"
        r="29"
      />
    </g>
  </g>
</svg>
