<?xml version='1.0' encoding='UTF-8' standalone='no'?>
<svg
  xmlns:dc="http://purl.org/dc/elements/1.1/"
  xmlns:cc="http://creativecommons.org/ns#"
  xmlns:rdf="http://www.w3.org/1999/02/22-rdf-syntax-ns#"
  xmlns:svg="http://www.w3.org/2000/svg"
  xmlns="http://www.w3.org/2000/svg"
  viewBox="0 0 1574.8031 590.55116"
  x="0in"
  width="1.5748032in"
  height="0.5905512in"
  version="1.2"
  y="0in"
  id="svg2">
  <metadata
    id="metadata24">
    <rdf:RDF>
      <cc:Work
        rdf:about="">
        <dc:format>image/svg+xml</dc:format>
        <dc:type
          rdf:resource="http://purl.org/dc/dcmitype/StillImage"
        />
        <dc:title/>
      </cc:Work>
    </rdf:RDF>
  </metadata>
  <defs
    id="defs22"
  />
  <desc
    id="desc4">
    <referenceFile>2S-BMS_1_breadboard.svg</referenceFile>
  </desc>
  <g
    id="breadboard">
    <rect
      id="upper"
      gorn="0.1.0"
      x="0"
      width="1574.8031"
      height="590.55115"
      y="0"
      fill="#008000"
      stroke-width="0"
    />
    <rect
      y="-547.3208"
      id="rect3606"
      x="40.996155"
      width="110.639"
      height="37.236099"
      transform="rotate(90)"
      fill="#4d4d4d"
    />
    <rect
      y="-547.3208"
      id="rect3608"
      x="40.996155"
      enable-background="new    "
      width="110.639"
      height="0.63888901"
      transform="rotate(90)"
      opacity="0.2"
      fill="#ffffff"
    />
    <rect
      id="rect3610"
      x="40.996155"
      y="-519.12634"
      width="110.639"
      height="11.0972"
      transform="rotate(90)"
      fill="#333333"
    />
    <rect
      id="rect3612"
      x="40.996155"
      enable-background="new    "
      y="-508.40411"
      width="110.639"
      height="0.44444397"
      transform="rotate(90)"
      opacity="0.2"
    />
    <path
      id="path3614"
      d="M 547.32087,135.56588 V 135.56588 135.56588 134.27418 134.27418 C 543.83476,133.16308 536.26527,132.39918 532.39027,132.39918 528.3486,132.39918 522.76527,133.06588 519.12637,134.27418 V 134.27418 134.27418 L 519.12647,151.26028 H 547.32087 Z"
      fill="#dcdcdc"
    />
    <path
      id="path3616"
      d="M 545.87643,58.287879 H 547.32087 V 41.315479 H 519.12647 V 58.301779 C 522.77917,59.523979 528.27917,60.982279 532.37647,60.982279 537.18197,60.982279 541.69587,59.940679 545.87643,58.287879 Z"
      fill="#dcdcdc"
    />
    <path
      id="path3618"
      d="M 517.65417,151.35728 V 134.37138 L 519.12647,134.27418 V 151.26028 Z"
      fill="#999999"
    />
    <path
      id="path3620"
      d="M 517.62647,41.398879 V 58.385079 L 519.12647,58.287879 V 41.315479 L 517.62647,41.398779 Z"
      fill="#999999"
    />
    <rect
      id="rect3622"
      x="41.315491"
      enable-background="new    "
      y="-508.59863"
      width="16.986099"
      height="0.63888901"
      transform="rotate(90)"
      opacity="0.15"
    />
    <rect
      y="-547.3208"
      id="rect3624"
      x="41.315491"
      enable-background="new    "
      width="16.986099"
      height="0.63888901"
      transform="rotate(90)"
      opacity="0.5"
      fill="#ffffff"
    />
    <rect
      id="rect3626"
      x="134.28729"
      enable-background="new    "
      y="-508.59863"
      width="17"
      height="0.63888901"
      transform="rotate(90)"
      opacity="0.15"
    />
    <rect
      y="-547.3208"
      id="rect3628"
      x="134.28729"
      enable-background="new    "
      width="17"
      height="0.63888901"
      transform="rotate(90)"
      opacity="0.5"
      fill="#ffffff"
    />
    <line
      id="line3630"
      x2="507.95972"
      y1="51.579529"
      y2="51.579529"
      x1="507.95972"
      fill="none"
    />
    <rect
      id="rect3632"
      x="149.98163"
      y="-517.65405"
      width="1.63889"
      height="9.6111097"
      transform="rotate(90)"
      fill="#999999"
    />
    <rect
      id="rect3634"
      x="41.315491"
      y="-517.65405"
      width="1.6527801"
      height="9.6111097"
      transform="rotate(90)"
      fill="#999999"
    />
    <rect
      height="37.236099"
      width="110.639"
      x="41.333923"
      id="rect3638"
      y="-439.78223"
      transform="rotate(90)"
      fill="#4d4d4d"
    />
    <rect
      height="0.63888901"
      width="110.639"
      enable-background="new    "
      x="39.333923"
      id="rect3640"
      y="-439.78223"
      transform="rotate(90)"
      opacity="0.2"
      fill="#ffffff"
    />
    <rect
      height="11.0972"
      width="110.639"
      y="-411.58786"
      x="41.333923"
      id="rect3642"
      transform="rotate(90)"
      fill="#333333"
    />
    <rect
      height="0.44444397"
      width="110.639"
      y="-400.86551"
      enable-background="new    "
      x="41.333923"
      id="rect3644"
      transform="rotate(90)"
      opacity="0.2"
    />
    <path
      d="M 439.78222,135.90378 V 135.90378 135.90378 134.61208 134.61208 C 436.29611,133.50098 428.72663,132.73708 424.85164,132.73708 420.80997,132.73708 415.22664,133.40368 411.58774,134.61208 V 134.61208 134.61208 L 411.58784,151.59818 H 439.78222 Z"
      id="path3646"
      fill="#dcdcdc"
    />
    <path
      d="M 438.33778,58.625779 H 439.78222 V 41.653379 H 411.58784 V 58.639679 C 415.24054,59.861879 420.74054,61.320179 424.83784,61.320179 429.64333,61.320179 434.15722,60.278579 438.33778,58.625779 Z"
      id="path3648"
      fill="#dcdcdc"
    />
    <path
      d="M 410.11554,151.69518 V 134.70928 L 411.58784,134.61208 V 151.59818 Z"
      id="path3650"
      fill="#999999"
    />
    <path
      d="M 410.08784,41.736779 V 58.722979 L 411.58784,58.625779 V 41.653379 L 410.08784,41.736679 Z"
      id="path3652"
      fill="#999999"
    />
    <rect
      height="0.63888901"
      width="16.986099"
      y="-401.06003"
      enable-background="new    "
      x="41.653381"
      id="rect3654"
      transform="rotate(90)"
      opacity="0.15"
    />
    <rect
      height="0.63888901"
      width="16.986099"
      enable-background="new    "
      x="41.653381"
      id="rect3656"
      y="-439.78223"
      transform="rotate(90)"
      opacity="0.5"
      fill="#ffffff"
    />
    <rect
      height="0.63888901"
      width="17"
      y="-401.06003"
      enable-background="new    "
      x="134.62518"
      id="rect3658"
      transform="rotate(90)"
      opacity="0.15"
    />
    <rect
      height="0.63888901"
      width="17"
      enable-background="new    "
      x="134.62518"
      id="rect3660"
      y="-439.78223"
      transform="rotate(90)"
      opacity="0.5"
      fill="#ffffff"
    />
    <line
      x1="400.42111"
      y2="51.917297"
      y1="51.917297"
      x2="400.42111"
      id="line3662"
      fill="none"
    />
    <rect
      height="9.6111097"
      width="1.63889"
      y="-410.11554"
      x="150.3194"
      id="rect3664"
      transform="rotate(90)"
      fill="#999999"
    />
    <rect
      height="9.6111097"
      width="1.6527801"
      y="-410.11554"
      x="41.653381"
      id="rect3666"
      transform="rotate(90)"
      fill="#999999"
    />
    <rect
      y="-322.89246"
      id="rect3670"
      x="40.996155"
      width="110.639"
      height="37.236099"
      transform="rotate(90)"
      fill="#4d4d4d"
    />
    <rect
      y="-322.89246"
      id="rect3672"
      x="40.996155"
      enable-background="new    "
      width="110.639"
      height="0.63888901"
      transform="rotate(90)"
      opacity="0.2"
      fill="#ffffff"
    />
    <rect
      id="rect3674"
      x="40.996155"
      y="-294.69797"
      width="110.639"
      height="11.0972"
      transform="rotate(90)"
      fill="#333333"
    />
    <rect
      id="rect3676"
      x="40.996155"
      enable-background="new    "
      y="-283.97568"
      width="110.639"
      height="0.44444397"
      transform="rotate(90)"
      opacity="0.2"
    />
    <path
      id="path3678"
      d="M 322.89238,135.56588 V 135.56588 135.56588 134.27418 134.27418 C 319.40628,133.16308 311.83679,132.39918 307.96179,132.39918 303.92013,132.39918 298.3368,133.06588 294.6979,134.27418 V 134.27418 134.27418 L 294.698,151.26028 H 322.89238 Z"
      fill="#dcdcdc"
    />
    <path
      id="path3680"
      d="M 321.44794,58.287879 H 322.89238 V 41.315479 H 294.698 V 58.301779 C 298.3507,59.523979 303.8507,60.982279 307.94799,60.982279 312.75349,60.982279 317.26739,59.940679 321.44794,58.287879 Z"
      fill="#dcdcdc"
    />
    <path
      id="path3682"
      d="M 293.2257,151.35728 V 134.37138 L 294.698,134.27418 V 151.26028 Z"
      fill="#999999"
    />
    <path
      id="path3684"
      d="M 293.198,41.398879 V 58.385079 L 294.698,58.287879 V 41.315479 L 293.198,41.398779 Z"
      fill="#999999"
    />
    <rect
      id="rect3686"
      x="41.315491"
      enable-background="new    "
      y="-284.17017"
      width="16.986099"
      height="0.63888901"
      transform="rotate(90)"
      opacity="0.15"
    />
    <rect
      y="-322.89246"
      id="rect3688"
      x="41.315491"
      enable-background="new    "
      width="16.986099"
      height="0.63888901"
      transform="rotate(90)"
      opacity="0.5"
      fill="#ffffff"
    />
    <rect
      id="rect3690"
      x="134.28729"
      enable-background="new    "
      y="-284.17017"
      width="17"
      height="0.63888901"
      transform="rotate(90)"
      opacity="0.15"
    />
    <rect
      y="-322.89246"
      id="rect3692"
      x="134.28729"
      enable-background="new    "
      width="17"
      height="0.63888901"
      transform="rotate(90)"
      opacity="0.5"
      fill="#ffffff"
    />
    <line
      id="line3694"
      x2="283.53125"
      y1="51.579529"
      y2="51.579529"
      x1="283.53125"
      fill="none"
    />
    <rect
      id="rect3696"
      x="149.98163"
      y="-293.22565"
      width="1.63889"
      height="9.6111097"
      transform="rotate(90)"
      fill="#999999"
    />
    <rect
      id="rect3698"
      x="41.315491"
      y="-293.22565"
      width="1.6527801"
      height="9.6111097"
      transform="rotate(90)"
      fill="#999999"
    />
    <text
      id="text3683"
      font-size="48.61102295"
      y="-203.85416"
      x="469.10126"
      transform="rotate(90)"
      font-family="OCRA"
      fill="#ffffff">B-</text>
    <text
      x="62.252869"
      y="-203.85561"
      font-size="48.61102295"
      id="text3685"
      transform="rotate(90)"
      font-family="OCRA"
      fill="#ffffff">B+</text>
    <text
      x="-125.61688"
      y="1359.5062"
      font-size="48.61102295"
      id="text3687"
      transform="rotate(-90)"
      font-family="OCRA"
      fill="#ffffff">BM</text>
    <rect
      transform="rotate(90)"
      height="37.236115"
      width="110.639"
      x="40.996155"
      id="rect1239"
      y="-1080.6525"
      fill="#4d4d4d"
    />
    <rect
      transform="rotate(90)"
      height="0.63888925"
      width="110.639"
      enable-background="new    "
      x="40.996155"
      id="rect1241"
      y="-1080.6525"
      opacity="0.2"
      fill="#ffffff"
    />
    <rect
      transform="rotate(90)"
      height="11.097205"
      width="110.639"
      y="-1052.4581"
      x="40.996155"
      id="rect1243"
      fill="#333333"
    />
    <rect
      transform="rotate(90)"
      height="0.44444415"
      width="110.639"
      y="-1041.7357"
      enable-background="new    "
      x="40.996155"
      id="rect1245"
      opacity="0.2"
    />
    <path
      d="M 1080.6529,135.56588 V 135.56588 135.56588 134.27418 134.27418 C 1077.1668,133.16308 1069.5973,132.39918 1065.7223,132.39918 1061.6807,132.39918 1056.0974,133.06588 1052.4584,134.27418 V 134.27418 134.27418 L 1052.4585,151.26028 H 1080.6529 Z"
      id="path1247"
      fill="#dcdcdc"
    />
    <path
      d="M 1079.2085,58.287879 H 1080.6529 V 41.315479 H 1052.4585 V 58.301779 C 1056.1113,59.523979 1061.6112,60.982279 1065.7085,60.982279 1070.514,60.982279 1075.0279,59.940679 1079.2085,58.287879 Z"
      id="path1249"
      fill="#dcdcdc"
    />
    <path
      d="M 1050.9861,151.35728 V 134.37138 L 1052.4585,134.27418 V 151.26028 Z"
      id="path1251"
      fill="#999999"
    />
    <path
      d="M 1050.9584,41.398879 V 58.385079 L 1052.4585,58.287879 V 41.315479 L 1050.9584,41.398779 Z"
      id="path1253"
      fill="#999999"
    />
    <rect
      transform="rotate(90)"
      height="0.63888925"
      width="16.986099"
      y="-1041.9303"
      enable-background="new    "
      x="41.315491"
      id="rect1255"
      opacity="0.15"
    />
    <rect
      transform="rotate(90)"
      height="0.63888925"
      width="16.986099"
      enable-background="new    "
      x="41.315491"
      id="rect1257"
      y="-1080.6525"
      opacity="0.5"
      fill="#ffffff"
    />
    <rect
      transform="rotate(90)"
      height="0.63888925"
      width="17"
      y="-1041.9303"
      enable-background="new    "
      x="134.28729"
      id="rect1259"
      opacity="0.15"
    />
    <rect
      transform="rotate(90)"
      height="0.63888925"
      width="17"
      enable-background="new    "
      x="134.28729"
      id="rect1261"
      y="-1080.6525"
      opacity="0.5"
      fill="#ffffff"
    />
    <line
      x1="1041.2914"
      y2="51.579529"
      y1="51.579529"
      x2="1041.2914"
      id="line1263"
      fill="none"
    />
    <rect
      transform="rotate(90)"
      height="9.6111135"
      width="1.63889"
      y="-1050.9857"
      x="149.98163"
      id="rect1265"
      fill="#999999"
    />
    <rect
      transform="rotate(90)"
      height="9.6111135"
      width="1.6527801"
      y="-1050.9857"
      x="41.315491"
      id="rect1267"
      fill="#999999"
    />
    <rect
      id="rect20"
      connectorname="1"
      x="808.9057"
      y="147.17035"
      width="8.0711327"
      height="20.078751"
      fill="#b3b3b3"
      stroke="none"
      stroke-width="0"
      stroke-linecap="round"
    />
    <rect
      id="rect22-3"
      connectorname="2"
      x="821.70142"
      y="147.17035"
      width="8.0711327"
      height="20.078751"
      fill="#b3b3b3"
      stroke="none"
      stroke-width="0"
      stroke-linecap="round"
    />
    <rect
      id="rect24-0"
      connectorname="3"
      x="834.49707"
      y="147.17035"
      width="8.0711327"
      height="20.078751"
      fill="#b3b3b3"
      stroke="none"
      stroke-width="0"
      stroke-linecap="round"
    />
    <rect
      id="rect30"
      connectorname="6"
      x="834.49707"
      y="62.795349"
      width="8.0711327"
      height="20.078751"
      fill="#b3b3b3"
      stroke="none"
      stroke-width="0"
      stroke-linecap="round"
    />
    <rect
      id="rect32"
      connectorname="7"
      x="821.70142"
      y="62.795349"
      width="8.0711327"
      height="20.078751"
      fill="#b3b3b3"
      stroke="none"
      stroke-width="0"
      stroke-linecap="round"
    />
    <rect
      id="rect34"
      connectorname="8"
      x="808.9057"
      y="62.795349"
      width="8.0711327"
      height="20.078751"
      fill="#b3b3b3"
      stroke="none"
      stroke-width="0"
      stroke-linecap="round"
    />
    <rect
      id="rect36"
      connectorname="EP"
      x="804.99994"
      y="89.583679"
      width="43.442879"
      height="51.181"
      fill="#8c8c8c"
      stroke="none"
      stroke-width="0"
      stroke-linecap="round"
    />
    <rect
      id="rect38-5"
      x="796.33478"
      y="81.341492"
      width="57.14719"
      height="67.665497"
      fill="#4d4d4d"
      stroke="none"
      stroke-width="0"
    />
    <polygon
      transform="matrix(0.42439016,0,0,0.5,796.33479,57.964979)"
      id="polygon40"
      points="134.654,46.9016 124.654,56.9016 10,56.9016 0,46.9016 "
      fill="#333333"
      stroke-width="1.08541846"
    />
    <polygon
      transform="matrix(0.42440021,0,0,0.5,796.33479,57.890679)"
      id="polygon42"
      points="0,182.232 134.654,182.232 124.654,172.232 10,172.232 "
      fill="#808080"
      stroke-width="1.08541846"
    />
    <polygon
      transform="matrix(0.42440021,0,0,0.5,796.33479,57.852679)"
      id="polygon44"
      points="10,56.9016 0,46.9016 0,182.232 10,172.232 "
      fill="#666666"
      stroke-width="1.08541846"
    />
    <polygon
      transform="matrix(0.42440021,0,0,0.5,796.33479,57.890679)"
      id="polygon46"
      points="134.654,46.9016 134.654,182.232 124.654,172.232 124.654,56.9016 "
      fill="#666666"
      stroke-width="1.08541846"
    />
    <circle
      r="4"
      id="circle48"
      cy="134.00665"
      cx="809.06677"
      fill="#1f1f1f"
      stroke="none"
      stroke-width="0"
    />
    <rect
      id="rect8"
      y="-732.6723"
      width="91.21373"
      x="381.26166"
      height="67.666969"
      transform="rotate(90)"
      fill="#8c8c8c"
      stroke="none"
      stroke-width="0"
      stroke-linecap="round"
    />
    <rect
      id="rect10"
      y="-456.84561"
      width="91.21373"
      x="467.91583"
      height="78.077278"
      transform="rotate(90)"
      fill="#8c8c8c"
      stroke="none"
      stroke-width="0"
      stroke-linecap="round"
    />
    <rect
      id="rect12"
      y="-456.84561"
      width="91.21373"
      x="294.60895"
      height="78.077278"
      transform="rotate(90)"
      fill="#8c8c8c"
      stroke="none"
      stroke-width="0"
      stroke-linecap="round"
    />
    <rect
      id="rect14"
      y="-683.24768"
      width="273.38568"
      x="290.17609"
      height="254.84424"
      transform="rotate(90)"
      fill="#4d4d4d"
      stroke="none"
      stroke-width="0"
    />
    <ellipse
      id="circle24"
      cy="-503.358"
      cx="359.6817"
      transform="rotate(90)"
      rx="23.168278"
      ry="24.98473"
      fill="#1f1f1f"
      stroke="none"
      stroke-width="0"
    />
    <rect
      id="rect25"
      width="251.27348"
      height="33.335449"
      x="892.27338"
      y="-910.53259"
      transform="matrix(0,1,-0.74949436,0.66201073,0,0)"
      fill="#333333"
      stroke-width="12.0321846"
    />
    <rect
      id="rect31"
      width="250.25812"
      height="34.04586"
      x="-106.90613"
      y="-618.33807"
      transform="matrix(0,1,-0.73385516,-0.67930597,0,0)"
      fill="#333333"
      stroke-width="12.15971851"
    />
    <rect
      id="rect29"
      width="32.102692"
      height="230.95874"
      x="748.93494"
      y="-141.29576"
      transform="matrix(0.69221359,0.7216927,-1,0,0,0)"
      fill="#000000"
      stroke-width="12.26175308"
    />
    <rect
      id="rect27"
      width="34.334782"
      height="229.22235"
      x="429.75388"
      y="-1000.9641"
      transform="matrix(-0.73802288,0.67477569,-1,0,0,0)"
      fill="#000000"
      stroke-width="12.68087006"
    />
    <rect
      height="67.666969"
      x="-471.8985"
      width="91.21373"
      y="868.35413"
      id="rect1325"
      transform="rotate(-90)"
      fill="#8c8c8c"
      stroke="none"
      stroke-width="0"
      stroke-linecap="round"
    />
    <rect
      height="78.077278"
      x="-385.24432"
      width="91.21373"
      y="1144.1808"
      id="rect1327"
      transform="rotate(-90)"
      fill="#8c8c8c"
      stroke="none"
      stroke-width="0"
      stroke-linecap="round"
    />
    <rect
      height="78.077278"
      x="-558.55121"
      width="91.21373"
      y="1144.1808"
      id="rect1329"
      transform="rotate(-90)"
      fill="#8c8c8c"
      stroke="none"
      stroke-width="0"
      stroke-linecap="round"
    />
    <rect
      height="254.84424"
      x="-562.98407"
      width="273.38568"
      y="917.77875"
      id="rect1331"
      transform="rotate(-90)"
      fill="#4d4d4d"
      stroke="none"
      stroke-width="0"
    />
    <ellipse
      cx="-493.47845"
      cy="1097.6685"
      id="circle1333"
      transform="rotate(-90)"
      rx="23.168278"
      ry="24.98473"
      fill="#1f1f1f"
      stroke="none"
      stroke-width="0"
    />
    <rect
      transform="matrix(0,-1,0.74949436,-0.66201073,0,0)"
      y="1225.6095"
      x="-1375.0356"
      height="33.335449"
      width="251.27348"
      id="rect1335"
      fill="#333333"
      stroke-width="12.0321846"
    />
    <rect
      transform="matrix(0,-1,0.73385516,0.67930597,0,0)"
      y="1563.3274"
      x="521.95203"
      height="34.04586"
      width="250.25812"
      id="rect1337"
      fill="#333333"
      stroke-width="12.15971851"
    />
    <rect
      transform="matrix(-0.69221359,-0.7216927,1,0,0,0)"
      y="641.41968"
      x="-433.23056"
      height="230.95874"
      width="32.102692"
      id="rect1339"
      fill="#000000"
      stroke-width="12.26175308"
    />
    <rect
      transform="matrix(0.73802288,-0.67477569,1,0,0,0)"
      y="1533.1899"
      x="-834.6073"
      height="229.22235"
      width="34.334782"
      id="rect1341"
      fill="#000000"
      stroke-width="12.68087006"
    />
    <text
      transform="rotate(-90)"
      id="text1345"
      font-size="48.61102295"
      y="1359.5062"
      x="-338.11176"
      font-family="OCRA"
      fill="#ffffff">P+</text>
    <text
      x="-541.23676"
      y="1359.5062"
      font-size="48.61102295"
      id="text1347"
      transform="rotate(-90)"
      font-family="OCRA"
      fill="#ffffff">P-</text>
    <rect
      y="-1191.0693"
      id="rect1349"
      x="40.996155"
      width="110.639"
      height="37.236115"
      transform="rotate(90)"
      fill="#4d4d4d"
    />
    <rect
      y="-1191.0693"
      id="rect1351"
      x="40.996155"
      enable-background="new    "
      width="110.639"
      height="0.63888925"
      transform="rotate(90)"
      opacity="0.2"
      fill="#ffffff"
    />
    <rect
      id="rect1353"
      x="40.996155"
      y="-1162.875"
      width="110.639"
      height="11.097205"
      transform="rotate(90)"
      fill="#333333"
    />
    <rect
      id="rect1355"
      x="40.996155"
      enable-background="new    "
      y="-1152.1526"
      width="110.639"
      height="0.44444415"
      transform="rotate(90)"
      opacity="0.2"
    />
    <path
      id="path1357"
      d="M 1191.0701,135.56588 V 135.56588 135.56588 134.27418 134.27418 C 1187.584,133.16308 1180.0145,132.39918 1176.1395,132.39918 1172.0979,132.39918 1166.5146,133.06588 1162.8756,134.27418 V 134.27418 134.27418 L 1162.8757,151.26028 H 1191.0701 Z"
      fill="#dcdcdc"
    />
    <path
      id="path1359"
      d="M 1189.6257,58.287879 H 1191.0701 V 41.315479 H 1162.8757 V 58.301779 C 1166.5285,59.523979 1172.0284,60.982279 1176.1257,60.982279 1180.9312,60.982279 1185.4451,59.940679 1189.6257,58.287879 Z"
      fill="#dcdcdc"
    />
    <path
      id="path1361"
      d="M 1161.4033,151.35728 V 134.37138 L 1162.8757,134.27418 V 151.26028 Z"
      fill="#999999"
    />
    <path
      id="path1363"
      d="M 1161.3756,41.398879 V 58.385079 L 1162.8757,58.287879 V 41.315479 L 1161.3756,41.398779 Z"
      fill="#999999"
    />
    <rect
      id="rect1365"
      x="41.315491"
      enable-background="new    "
      y="-1152.3472"
      width="16.986099"
      height="0.63888925"
      transform="rotate(90)"
      opacity="0.15"
    />
    <rect
      y="-1191.0693"
      id="rect1367"
      x="41.315491"
      enable-background="new    "
      width="16.986099"
      height="0.63888925"
      transform="rotate(90)"
      opacity="0.5"
      fill="#ffffff"
    />
    <rect
      id="rect1369"
      x="134.28729"
      enable-background="new    "
      y="-1152.3472"
      width="17"
      height="0.63888925"
      transform="rotate(90)"
      opacity="0.15"
    />
    <rect
      y="-1191.0693"
      id="rect1371"
      x="134.28729"
      enable-background="new    "
      width="17"
      height="0.63888925"
      transform="rotate(90)"
      opacity="0.5"
      fill="#ffffff"
    />
    <line
      id="line1373"
      x2="1151.7083"
      y1="51.579529"
      y2="51.579529"
      x1="1151.7083"
      fill="none"
    />
    <rect
      id="rect1375"
      x="149.98163"
      y="-1161.4026"
      width="1.63889"
      height="9.6111135"
      transform="rotate(90)"
      fill="#999999"
    />
    <rect
      id="rect1377"
      x="41.315491"
      y="-1161.4026"
      width="1.6527801"
      height="9.6111135"
      transform="rotate(90)"
      fill="#999999"
    />
    <rect
      transform="rotate(90)"
      height="37.236099"
      width="110.639"
      x="40.996155"
      id="rect1379"
      y="-657.73615"
      fill="#4d4d4d"
    />
    <rect
      transform="rotate(90)"
      height="0.63888901"
      width="110.639"
      enable-background="new    "
      x="40.996155"
      id="rect1381"
      y="-657.73615"
      opacity="0.2"
      fill="#ffffff"
    />
    <rect
      transform="rotate(90)"
      height="11.0972"
      width="110.639"
      y="-629.54169"
      x="40.996155"
      id="rect1383"
      fill="#333333"
    />
    <rect
      transform="rotate(90)"
      height="0.44444397"
      width="110.639"
      y="-618.8194"
      enable-background="new    "
      x="40.996155"
      id="rect1385"
      opacity="0.2"
    />
    <path
      d="M 657.73622,135.56588 V 135.56588 135.56588 134.27418 134.27418 C 654.25011,133.16308 646.68062,132.39918 642.80562,132.39918 638.76395,132.39918 633.18062,133.06588 629.54172,134.27418 V 134.27418 134.27418 L 629.54182,151.26028 H 657.73622 Z"
      id="path1387"
      fill="#dcdcdc"
    />
    <path
      d="M 656.29178,58.287879 H 657.73622 V 41.315479 H 629.54182 V 58.301779 C 633.19452,59.523979 638.69452,60.982279 642.79182,60.982279 647.59732,60.982279 652.11122,59.940679 656.29178,58.287879 Z"
      id="path1389"
      fill="#dcdcdc"
    />
    <path
      d="M 628.06952,151.35728 V 134.37138 L 629.54182,134.27418 V 151.26028 Z"
      id="path1391"
      fill="#999999"
    />
    <path
      d="M 628.04182,41.398879 V 58.385079 L 629.54182,58.287879 V 41.315479 L 628.04182,41.398779 Z"
      id="path1393"
      fill="#999999"
    />
    <rect
      transform="rotate(90)"
      height="0.63888901"
      width="16.986099"
      y="-619.01392"
      enable-background="new    "
      x="41.315491"
      id="rect1395"
      opacity="0.15"
    />
    <rect
      transform="rotate(90)"
      height="0.63888901"
      width="16.986099"
      enable-background="new    "
      x="41.315491"
      id="rect1397"
      y="-657.73615"
      opacity="0.5"
      fill="#ffffff"
    />
    <rect
      transform="rotate(90)"
      height="0.63888901"
      width="17"
      y="-619.01392"
      enable-background="new    "
      x="134.28729"
      id="rect1399"
      opacity="0.15"
    />
    <rect
      transform="rotate(90)"
      height="0.63888901"
      width="17"
      enable-background="new    "
      x="134.28729"
      id="rect1401"
      y="-657.73615"
      opacity="0.5"
      fill="#ffffff"
    />
    <line
      x1="618.375"
      y2="51.579529"
      y1="51.579529"
      x2="618.375"
      id="line1403"
      fill="none"
    />
    <rect
      transform="rotate(90)"
      height="9.6111097"
      width="1.63889"
      y="-628.0694"
      x="149.98163"
      id="rect1405"
      fill="#999999"
    />
    <rect
      transform="rotate(90)"
      height="9.6111097"
      width="1.6527801"
      y="-628.0694"
      x="41.315491"
      id="rect1407"
      fill="#999999"
    />
    <circle
      r="54.999996"
      cy="94.742126"
      cx="100.86869"
      id="connector0pin"
      fill="#ffffff"
      stroke="#999999"
      stroke-width="40"
    />
    <circle
      id="connector1pin"
      cx="100.86869"
      cy="500.25275"
      r="54.999996"
      fill="#ffffff"
      stroke="#999999"
      stroke-width="40"
    />
    <circle
      id="connector2pin"
      cx="1474.8818"
      cy="500.25287"
      r="54.999996"
      fill="#ffffff"
      stroke="#999999"
      stroke-width="40"
    />
    <circle
      r="54.999996"
      cy="295.29584"
      cx="1474.8818"
      id="connector3pin"
      fill="#ffffff"
      stroke="#999999"
      stroke-width="40"
    />
    <circle
      id="connector4pin"
      cx="1474.8818"
      cy="94.742126"
      r="54.999996"
      fill="#ffffff"
      stroke="#999999"
      stroke-width="40"
    />
  </g>
</svg>
