<?xml version='1.0' encoding='UTF-8' standalone='no'?>
<svg
  xmlns="http://www.w3.org/2000/svg"
  xmlns:svg="http://www.w3.org/2000/svg"
  xmlns:rdf="http://www.w3.org/1999/02/22-rdf-syntax-ns#"
  xmlns:cc="http://creativecommons.org/ns#"
  xmlns:dc="http://purl.org/dc/elements/1.1/"
  id="svg2"
  y="0in"
  version="1.2"
  height="1.3385828in"
  width="2.5000207in"
  x="0in"
  viewBox="0 0 2500.0206 1338.5826"
  xml:space="preserve">
  <metadata
    id="metadata24">
    <rdf:RDF>
      <cc:Work
        rdf:about="">
        <dc:format>image/svg+xml</dc:format>
        <dc:type
          rdf:resource="http://purl.org/dc/dcmitype/StillImage"
        />
      </cc:Work>
    </rdf:RDF>
  </metadata>
  <defs
    id="defs22"
  />
  <desc
    id="desc4">
    <referenceFile>dc-01-sensor_1_breadboard.svg</referenceFile>
  </desc>
  <g
    id="breadboard">
    <path
      id="upper"
      d="m 323.64268,885.8267 -10.62992,-807.086549 c 0.0798,-49.44512 42.60509,-77.1342366 100.39369,-78.740151 h 1622.04715 c 45.9606,3.4229653 89.2918,17.241753 89.3879,49.463749 l 1.1633,37.150418 h 244.0945 c 61.9279,2.166816 128.0606,83.519303 129.9212,149.606283 -0.4041,61.05647 -62.1485,152.26088 -129.9212,149.60629 h -244.0945 v 862.20466 c 1.5137,43.6951 -38.1321,90.4576 -87.0866,90.5512 h -857.3622 c -41.2273,0 -80.8714,-24.8609 -82.2047,-62.9921 h -784.37003 v -110.2363 h -204.7244 c -64.489176,-2.9557 -108.7516639,-70.0062 -110.23621381,-137.9248 -1.15240699,-70.22536 46.03960381,-139.14199 110.23621381,-141.6027 z"
      fill="#e6e6e6"
      stroke-width="0"
    />
    <circle
      id="3pin_ra_header"
      cx="158.14778"
      cy="1034.1732"
      r="54.999996"
      fill-opacity="1"
      fill="#ffffff"
    />
    <circle
      id="circle1"
      cx="1211.576"
      cy="703.61469"
      r="160"
      fill-opacity="1"
      fill="#000000"
    />
    <rect
      x="458.23511"
      height="174.45833"
      width="498.95834"
      id="bgnd"
      y="980.37097"
      gorn="0.0.0"
      fill="#cccccc"
      stroke="none"
      stroke-width="0"
    />
    <rect
      x="459.27676"
      height="38.861"
      width="500"
      id="top inset"
      y="956.41614"
      gorn="0.0.1"
      fill="#333333"
      stroke="none"
      stroke-width="0"
    />
    <rect
      x="458.23511"
      height="38.861"
      width="500"
      id="bottom inset"
      y="1115.9683"
      gorn="0.0.2"
      fill="#4d4d4d"
      stroke="none"
      stroke-width="0"
    />
    <path
      d="m 458.23511,955.36762 v 199.46158 l 40,-40 v -120 z"
      id="left inset"
      gorn="0.0.3"
      fill="#4d4d4d"
      stroke="none"
      stroke-width="0"
    />
    <path
      d="m 959.27677,956.41611 -1.04166,198.41309 -40,-40 v -120 z"
      id="right inset"
      gorn="0.0.4"
      fill="#666666"
      stroke="none"
      stroke-width="0"
    />
    <rect
      x="458.23511"
      height="24.972"
      width="500"
      id="top border"
      y="955.36761"
      gorn="0.0.5"
      fill="#999999"
      stroke="none"
      stroke-width="0"
    />
    <rect
      x="458.23511"
      height="24.972"
      width="476.04166"
      id="bottom border"
      y="1129.8572"
      gorn="0.0.6"
      fill="#333333"
      stroke="none"
      stroke-width="0"
    />
    <rect
      x="458.23511"
      height="200.5"
      width="24.972"
      id="left border"
      y="954.32922"
      gorn="0.0.7"
      fill="#999999"
      stroke="none"
      stroke-width="0"
    />
    <rect
      x="934.30798"
      height="199.45833"
      width="24.972"
      id="right border"
      y="955.37091"
      gorn="0.0.8"
      fill="#999999"
      stroke="none"
      stroke-width="0"
    />
    <rect
      x="800.76288"
      height="52.763889"
      width="52.763889"
      id="rect30"
      y="1028.1101"
      gorn="0.0.21"
      fill="#cccccc"
      stroke="none"
      stroke-width="0"
    />
    <rect
      x="811.17987"
      height="31.930559"
      width="31.930559"
      id="rect156"
      y="1038.5269"
      gorn="0.0.22"
      fill="#8c8663"
      stroke="none"
      stroke-width="0"
    />
    <rect
      x="811.17987"
      height="7.75"
      width="31.930559"
      id="rect33"
      y="1038.5269"
      gorn="0.0.23"
      fill="#b8af82"
      stroke="none"
      stroke-width="0"
    />
    <rect
      x="811.17987"
      height="7.75"
      width="31.930559"
      id="rect35"
      y="1062.7074"
      gorn="0.0.24"
      fill="#5e5b43"
      stroke="none"
      stroke-width="0"
    />
    <path
      d="m 811.18,1038.5268 v 31.9306 l 7.75,-7.75 v -16.4306 z"
      id="path37"
      gorn="0.0.25"
      fill="#9a916c"
      stroke="none"
      stroke-width="0"
    />
    <path
      d="m 843.11,1038.5268 v 31.9306 l -7.75,-7.75 v -16.4306 z"
      id="path39"
      gorn="0.0.26"
      fill="#9a916c"
      stroke="none"
      stroke-width="0"
    />
    <rect
      x="564.52673"
      height="52.763889"
      width="52.763889"
      id="lower connector bgnd"
      y="1028.4299"
      gorn="0.0.27"
      fill="#cccccc"
      stroke="none"
      stroke-width="0"
    />
    <rect
      x="574.94373"
      height="31.930559"
      width="31.930559"
      id="rect144"
      y="1038.8466"
      gorn="0.0.28"
      fill="#8c8663"
      stroke="none"
      stroke-width="0"
    />
    <rect
      x="574.94373"
      height="7.75"
      width="31.930559"
      id="lower connector top inset"
      y="1038.8466"
      gorn="0.0.29"
      fill="#b8af82"
      stroke="none"
      stroke-width="0"
    />
    <rect
      x="574.94373"
      height="7.75"
      width="31.930559"
      id="lower connector bottom inset"
      y="1063.0271"
      gorn="0.0.30"
      fill="#5e5b43"
      stroke="none"
      stroke-width="0"
    />
    <path
      d="m 574.94379,1038.8465 v 31.9306 l 7.74999,-7.75 v -16.4306 z"
      id="lower connector left inset"
      gorn="0.0.31"
      fill="#9a916c"
      stroke="none"
      stroke-width="0"
    />
    <path
      d="m 606.8738,1038.8465 v 31.9306 l -7.75,-7.75 v -16.4306 z"
      id="lower connector right inset"
      gorn="0.0.32"
      fill="#9a916c"
      stroke="none"
      stroke-width="0"
    />
    <rect
      x="643.28271"
      height="52.763889"
      width="52.763889"
      id="rect47"
      y="1028.4299"
      gorn="0.0.33"
      fill="#cccccc"
      stroke="none"
      stroke-width="0"
    />
    <rect
      x="653.69971"
      height="31.930559"
      width="31.930559"
      id="rect148"
      y="1038.8466"
      gorn="0.0.34"
      fill="#8c8663"
      stroke="none"
      stroke-width="0"
    />
    <rect
      x="653.69971"
      height="7.75"
      width="31.930559"
      id="rect50"
      y="1038.8466"
      gorn="0.0.35"
      fill="#b8af82"
      stroke="none"
      stroke-width="0"
    />
    <rect
      x="653.69971"
      height="7.75"
      width="31.930559"
      id="rect52"
      y="1063.0271"
      gorn="0.0.36"
      fill="#5e5b43"
      stroke="none"
      stroke-width="0"
    />
    <path
      d="m 653.6997,1038.8465 v 31.9306 l 7.75,-7.75 v -16.4306 z"
      id="path54"
      gorn="0.0.37"
      fill="#9a916c"
      stroke="none"
      stroke-width="0"
    />
    <path
      d="m 685.6297,1038.8465 v 31.9306 l -7.75,-7.75 v -16.4306 z"
      id="path56"
      gorn="0.0.38"
      fill="#9a916c"
      stroke="none"
      stroke-width="0"
    />
    <rect
      x="722.02283"
      height="52.763889"
      width="52.763889"
      id="rect58"
      y="1028.4299"
      gorn="0.0.39"
      fill="#cccccc"
      stroke="none"
      stroke-width="0"
    />
    <rect
      x="732.43982"
      height="31.930559"
      width="31.930559"
      id="rect152"
      y="1038.8466"
      gorn="0.0.40"
      fill="#8c8663"
      stroke="none"
      stroke-width="0"
    />
    <rect
      x="732.43982"
      height="7.75"
      width="31.930559"
      id="rect61"
      y="1038.8466"
      gorn="0.0.41"
      fill="#b8af82"
      stroke="none"
      stroke-width="0"
    />
    <rect
      x="732.43982"
      height="7.75"
      width="31.930559"
      id="rect63"
      y="1063.0271"
      gorn="0.0.42"
      fill="#5e5b43"
      stroke="none"
      stroke-width="0"
    />
    <path
      d="m 732.43984,1038.8465 v 31.9306 l 7.75,-7.75 v -16.4306 z"
      id="path65"
      gorn="0.0.43"
      fill="#9a916c"
      stroke="none"
      stroke-width="0"
    />
    <path
      d="m 764.36984,1038.8465 v 31.9306 l -7.75,-7.75 v -16.4306 z"
      id="path67"
      gorn="0.0.44"
      fill="#9a916c"
      stroke="none"
      stroke-width="0"
    />
    <rect
      rx="1.4877979"
      ry="0.79932821"
      transform="matrix(0.80008434,-0.59988752,0,1,0,0)"
      y="1560.1029"
      x="689.45605"
      height="10.500355"
      width="10.526847"
      id="rect127"
      fill="#b3b3b3"
      stroke-width="7.90699"
    />
    <rect
      id="rect129"
      width="11.654875"
      height="7.3547039"
      x="1628.6394"
      y="2541.0342"
      transform="matrix(0.51872009,-0.85494413,0,1,0,0)"
      ry="1.757097"
      rx="2.2948096"
      fill="#b3b3b3"
      stroke-width="14.871"
    />
    <rect
      x="550.92944"
      height="8.1885452"
      width="299.0174"
      id="slot"
      y="1129.7993"
      gorn="0.0.45"
      fill="#e6e6e6"
      stroke="none"
      stroke-width="0"
    />
    <rect
      gorn="0.0.45"
      y="1129.7993"
      id="rect140"
      width="299.0174"
      height="24.853321"
      x="550.92944"
      fill="#cccccc"
      stroke="none"
      stroke-width="0"
    />
    <circle
      id="circle2"
      cx="2295.2009"
      cy="237.91544"
      r="54.999996"
      fill-opacity="1"
      fill="#ffffff"
    />
    <rect
      gorn="0.0.28"
      y="1038.8466"
      id="connector0pin"
      width="31.930559"
      height="31.930559"
      x="574.94373"
      fill="none"
      stroke="none"
      stroke-width="0"
    />
    <rect
      gorn="0.0.34"
      y="1038.8466"
      width="31.930559"
      height="31.930559"
      x="653.69971"
      id="connector1pin"
      fill="none"
      stroke="none"
      stroke-width="0"
    />
    <rect
      gorn="0.0.40"
      y="1038.8466"
      id="connector2pin"
      width="31.930559"
      height="31.930559"
      x="732.43982"
      fill="none"
      stroke="none"
      stroke-width="0"
    />
    <rect
      gorn="0.0.22"
      y="1038.5269"
      id="connector3pin"
      width="31.930559"
      height="31.930559"
      x="811.17987"
      fill="none"
      stroke="none"
      stroke-width="0"
    />
  </g>
</svg>
