<?xml version='1.0' encoding='UTF-8' standalone='no'?>
<svg
  xmlns:dc="http://purl.org/dc/elements/1.1/"
  xmlns:cc="http://creativecommons.org/ns#"
  xmlns:rdf="http://www.w3.org/1999/02/22-rdf-syntax-ns#"
  xmlns:svg="http://www.w3.org/2000/svg"
  xmlns="http://www.w3.org/2000/svg"
  height="1.2396048in"
  viewBox="0 0 1314.9607 1239.6048"
  id="svg2"
  gorn="0"
  x="0in"
  width="1.3149607in"
  version="1.2"
  y="0in">
  <metadata
    id="metadata24">
    <rdf:RDF>
      <cc:Work
        rdf:about="">
        <dc:format>image/svg+xml</dc:format>
        <dc:type
          rdf:resource="http://purl.org/dc/dcmitype/StillImage"
        />
        <dc:title/>
      </cc:Work>
    </rdf:RDF>
  </metadata>
  <defs
    id="defs22"
  />
  <desc
    id="desc4">
    <referenceFile>fc-51_4124034653eaed0cf1470fedd5cc32ba_1_breadboard.svg</referenceFile>
  </desc>
  <g
    id="breadboard">
    <rect
      stroke-width="0"
      fill="#ff2a2a"
      y="4.2632564e-014"
      width="1314.9606"
      x="0"
      gorn="0.3.0"
      id="upper"
      height="1007.874"
    />
    <rect
      stroke-width="0"
      stroke="none"
      fill="#ffcc00"
      y="1204.1058"
      width="10"
      x="877.1369"
      gorn="0.3.1"
      id="connector0terminal"
      height="10"
    />
    <rect
      stroke-width="0"
      stroke="none"
      fill="#ffcc00"
      y="1204.106"
      width="10"
      x="977.1369"
      gorn="0.3.2"
      id="connector1terminal"
      height="10"
    />
    <rect
      stroke-width="0"
      stroke="none"
      fill="#ffcc00"
      y="1204.106"
      width="10"
      x="1077.137"
      gorn="0.3.3"
      id="connector2terminal"
      height="10"
    />
    <polygon
      fill="#404040"
      transform="matrix(-0.1,0,0,-0.1,1112.3481,976.96285)"
      gorn="0.3.18.0.0.0"
      points="0,217.113 0,782.747 217.113,1000 782.747,1000 1000,782.747 1000,217.113 782.747,0 217.113,0 "
      id="polygon7"
    />
    <polygon
      fill="#404040"
      transform="matrix(-0.1,0,0,-0.1,1112.3481,976.96285)"
      gorn="0.3.18.0.1.0"
      points="1000,217.113 1000,782.747 1217.11,1000 1782.75,1000 2000,782.747 2000,217.113 1782.75,0 1217.11,0 "
      id="polygon23"
    />
    <polygon
      fill="#404040"
      transform="matrix(-0.1,0,0,-0.1,1112.3481,976.96285)"
      gorn="0.3.18.0.2.0"
      points="2000,217.113 2000,782.747 2217.11,1000 2782.75,1000 3000,782.747 3000,217.113 2782.75,0 2217.11,0 "
      id="polygon39-2"
    />
    <polygon
      fill="#aa8800"
      transform="matrix(0.192515,-0.029249,0.051305,0.050999,524.49698,1238.8725)"
      gorn="0.3.18.0.3.0.0.0"
      points="1659.67,340.463 1659.67,659.674 1582.03,582.025 1582.03,417.974 "
      id="polygon33"
    />
    <rect
      stroke-width="0.09999903"
      fill-opacity="1"
      fill="#d4aa00"
      transform="matrix(-0.81476867,-0.57978617,0.66526585,-0.74660656,0,0)"
      y="-489.78091"
      width="8.8936367"
      x="-1464.0344"
      gorn="0.3.18.0.3.0.1.0"
      id="rect3422"
      height="8.5491333"
    />
    <rect
      stroke-width="0.0999995"
      fill="#ffffff"
      transform="rotate(90)"
      y="-859.55005"
      width="16.4189"
      x="1206.2062"
      gorn="0.3.18.0.3.0.2.0"
      id="rect29"
      height="9.4535294"
    />
    <polygon
      fill="#d4aa00"
      transform="matrix(-0.099999,0,0.052172,-0.123979,998.77006,1296.0345)"
      gorn="0.3.18.0.3.0.3.0"
      points="1659.67,659.674 1340.46,659.674 1417.97,582.025 1582.03,582.025 "
      id="polygon35"
    />
    <rect
      stroke-width="0.0999995"
      fill="#8d8c8c"
      transform="scale(-1)"
      y="-944.68048"
      width="31.92078"
      x="-900.17902"
      gorn="0.3.18.0.3.0.4"
      id="rect43"
      height="31.921101"
    />
    <rect
      stroke-width="0.0999995"
      fill="#8c8663"
      transform="scale(-1)"
      y="-936.92938"
      width="16.418736"
      x="-892.4281"
      gorn="0.3.18.0.3.0.5"
      id="rect45"
      height="16.4189"
    />
    <polygon
      fill="#b8af82"
      transform="matrix(-0.099999,0,0,-0.1,1134.2226,978.72675)"
      gorn="0.3.18.0.3.0.6.0"
      points="2340.46,340.463 2417.97,417.974 2582.03,417.974 2659.67,340.463 "
      id="polygon47"
    />
    <polygon
      fill="#80795b"
      transform="matrix(-0.099999,0,0,-0.1,1134.2226,978.72675)"
      gorn="0.3.18.0.3.0.7.0"
      points="2582.03,582.025 2582.03,417.974 2659.67,340.463 2659.67,659.674 "
      id="polygon49"
    />
    <polygon
      fill="#5e5b43"
      transform="matrix(-0.099999,0,0,-0.1,1134.2226,978.72675)"
      gorn="0.3.18.0.3.0.8.0"
      points="2417.97,582.025 2582.03,582.025 2659.67,659.674 2340.46,659.674 "
      id="polygon51"
    />
    <polygon
      fill="#9a916c"
      transform="matrix(-0.099999,0,0,-0.1,1134.2226,978.72675)"
      gorn="0.3.18.0.3.0.9.0"
      points="2340.46,340.463 2417.97,417.974 2417.97,582.025 2340.46,659.674 "
      id="polygon53-8"
    />
    <rect
      stroke-width="0.0999995"
      fill-opacity="1"
      fill="#ffcc00"
      transform="scale(-1)"
      y="-1214.3518"
      width="31.99968"
      x="-899.32916"
      gorn="0.3.18.0.3.0.10"
      id="connector0pin"
      height="100.00002"
    />
    <rect
      stroke-width="0.0999995"
      fill-opacity="1"
      fill="#d4aa00"
      transform="scale(-1)"
      y="-1209.2737"
      width="8.0207529"
      x="-867.42847"
      gorn="0.3.18.0.3.0.11"
      id="rect3420"
      height="295.05212"
    />
    <rect
      stroke-width="0.0999995"
      fill-opacity="1"
      fill="#d4aa00"
      transform="scale(-1)"
      y="-943.58124"
      width="19.999802"
      x="-860.65771"
      gorn="0.3.18.0.3.0.12"
      id="rect3424"
      height="28.838837"
    />
    <rect
      stroke-width="0.09999933"
      fill="#ffffff"
      transform="matrix(-0.71400785,-0.7001377,0.53240131,-0.84649208,0,0)"
      y="-285.43402"
      width="28.766459"
      x="-1425.4153"
      gorn="0.3.18.0.3.0.13.0"
      id="rect27"
      height="17.444321"
    />
    <rect
      stroke-width="0.0999995"
      fill-opacity="1"
      fill="#ffcc00"
      transform="scale(-1)"
      y="-1214.3518"
      width="31.99968"
      x="-899.32916"
      gorn="0.3.18.0.3.0.14"
      id="rect3681"
      height="300.00003"
    />
    <polygon
      fill="#aa8800"
      transform="matrix(0.192515,-0.029249,0.051305,0.050999,624.66648,1238.8725)"
      gorn="0.3.18.0.4.0.0.0"
      points="1659.67,659.674 1582.03,582.025 1582.03,417.974 1659.67,340.463 "
      id="polygon3444"
    />
    <rect
      stroke-width="0.09999903"
      fill-opacity="1"
      fill="#d4aa00"
      transform="matrix(-0.81476867,-0.57978617,0.66526585,-0.74660656,0,0)"
      y="-431.35483"
      width="8.8936367"
      x="-1539.2712"
      gorn="0.3.18.0.4.0.1.0"
      id="rect3446"
      height="8.5491333"
    />
    <rect
      stroke-width="0.0999995"
      fill="#ffffff"
      transform="rotate(90)"
      y="-959.71954"
      width="16.4189"
      x="1206.2062"
      gorn="0.3.18.0.4.0.2.0"
      id="rect3448"
      height="9.4535294"
    />
    <polygon
      fill="#d4aa00"
      transform="matrix(-0.099999,0,0.052172,-0.123979,1098.9396,1296.0345)"
      gorn="0.3.18.0.4.0.3.0"
      points="1340.46,659.674 1417.97,582.025 1582.03,582.025 1659.67,659.674 "
      id="polygon3450"
    />
    <rect
      stroke-width="0.0999995"
      fill="#8d8c8c"
      transform="scale(-1)"
      y="-944.68048"
      width="31.92078"
      x="-1000.3485"
      gorn="0.3.18.0.4.0.4"
      id="rect3452"
      height="31.921101"
    />
    <rect
      stroke-width="0.0999995"
      fill="#8c8663"
      transform="scale(-1)"
      y="-936.92938"
      width="16.418736"
      x="-992.5976"
      gorn="0.3.18.0.4.0.5"
      id="rect3454"
      height="16.4189"
    />
    <polygon
      fill="#b8af82"
      transform="matrix(-0.099999,0,0,-0.1,1234.3921,978.72675)"
      gorn="0.3.18.0.4.0.6.0"
      points="2417.97,417.974 2582.03,417.974 2659.67,340.463 2340.46,340.463 "
      id="polygon3456"
    />
    <polygon
      fill="#80795b"
      transform="matrix(-0.099999,0,0,-0.1,1234.3921,978.72675)"
      gorn="0.3.18.0.4.0.7.0"
      points="2582.03,417.974 2659.67,340.463 2659.67,659.674 2582.03,582.025 "
      id="polygon3458"
    />
    <polygon
      fill="#5e5b43"
      transform="matrix(-0.099999,0,0,-0.1,1234.3921,978.72675)"
      gorn="0.3.18.0.4.0.8.0"
      points="2582.03,582.025 2659.67,659.674 2340.46,659.674 2417.97,582.025 "
      id="polygon3460"
    />
    <polygon
      fill="#9a916c"
      transform="matrix(-0.099999,0,0,-0.1,1234.3921,978.72675)"
      gorn="0.3.18.0.4.0.9.0"
      points="2417.97,417.974 2417.97,582.025 2340.46,659.674 2340.46,340.463 "
      id="polygon3462"
    />
    <rect
      stroke-width="0.0999995"
      fill-opacity="1"
      fill="#ffcc00"
      transform="scale(-1)"
      y="-1214.3518"
      width="32.000156"
      x="-999.49915"
      gorn="0.3.18.0.4.0.10"
      id="connector1pin"
      height="100.00002"
    />
    <rect
      stroke-width="0.0999995"
      fill-opacity="1"
      fill="#d4aa00"
      transform="scale(-1)"
      y="-1209.2737"
      width="8.0207529"
      x="-967.59796"
      gorn="0.3.18.0.4.0.11"
      id="rect3466"
      height="295.05212"
    />
    <rect
      stroke-width="0.0999995"
      fill-opacity="1"
      fill="#d4aa00"
      transform="scale(-1)"
      y="-943.57568"
      width="19.999802"
      x="-960.82721"
      gorn="0.3.18.0.4.0.12"
      id="rect3468"
      height="28.833332"
    />
    <rect
      stroke-width="0.09999933"
      fill="#ffffff"
      transform="matrix(-0.71400785,-0.7001377,0.53240131,-0.84649208,0,0)"
      y="-213.66199"
      width="28.766459"
      x="-1512.1903"
      gorn="0.3.18.0.4.0.13.0"
      id="rect3470"
      height="17.444321"
    />
    <rect
      stroke-width="0.0999995"
      fill-opacity="1"
      fill="#ffcc00"
      transform="scale(-1)"
      y="-1214.3518"
      width="31.99968"
      x="-999.49872"
      gorn="0.3.18.0.4.0.14"
      id="rect3679"
      height="300.00003"
    />
    <polygon
      fill="#aa8800"
      transform="matrix(0.192515,-0.029249,0.051305,0.050999,724.665,1238.6316)"
      gorn="0.3.18.0.5.0.0.0"
      points="1659.67,659.674 1582.03,582.025 1582.03,417.974 1659.67,340.463 "
      id="polygon3474"
    />
    <rect
      stroke-width="0.09999903"
      fill-opacity="1"
      fill="#d4aa00"
      transform="matrix(-0.81476867,-0.57978617,0.66526585,-0.74660656,0,0)"
      y="-372.83102"
      width="8.8936367"
      x="-1614.2185"
      gorn="0.3.18.0.5.0.1.0"
      id="rect3476"
      height="8.5491333"
    />
    <rect
      stroke-width="0.0999995"
      fill="#ffffff"
      transform="rotate(90)"
      y="-1059.7181"
      width="16.4189"
      x="1205.9652"
      gorn="0.3.18.0.5.0.2.0"
      id="rect3478"
      height="9.4535294"
    />
    <polygon
      fill="#d4aa00"
      transform="matrix(-0.099999,0,0.052172,-0.123979,1198.9381,1295.7936)"
      gorn="0.3.18.0.5.0.3.0"
      points="1340.46,659.674 1417.97,582.025 1582.03,582.025 1659.67,659.674 "
      id="polygon3480"
    />
    <rect
      stroke-width="0.0999995"
      fill="#8d8c8c"
      transform="scale(-1)"
      y="-944.43958"
      width="31.92078"
      x="-1100.347"
      gorn="0.3.18.0.5.0.4"
      id="rect3482"
      height="31.921101"
    />
    <rect
      stroke-width="0.0999995"
      fill="#8c8663"
      transform="scale(-1)"
      y="-936.68848"
      width="16.418736"
      x="-1092.5962"
      gorn="0.3.18.0.5.0.5"
      id="rect3484"
      height="16.4189"
    />
    <polygon
      fill="#b8af82"
      transform="matrix(-0.099999,0,0,-0.1,1334.3906,978.48585)"
      gorn="0.3.18.0.5.0.6.0"
      points="2417.97,417.974 2582.03,417.974 2659.67,340.463 2340.46,340.463 "
      id="polygon3486"
    />
    <polygon
      fill="#80795b"
      transform="matrix(-0.099999,0,0,-0.1,1334.3906,978.48585)"
      gorn="0.3.18.0.5.0.7.0"
      points="2582.03,417.974 2659.67,340.463 2659.67,659.674 2582.03,582.025 "
      id="polygon3488"
    />
    <polygon
      fill="#5e5b43"
      transform="matrix(-0.099999,0,0,-0.1,1334.3906,978.48585)"
      gorn="0.3.18.0.5.0.8.0"
      points="2582.03,582.025 2659.67,659.674 2340.46,659.674 2417.97,582.025 "
      id="polygon3490"
    />
    <polygon
      fill="#9a916c"
      transform="matrix(-0.099999,0,0,-0.1,1334.3906,978.48585)"
      gorn="0.3.18.0.5.0.9.0"
      points="2417.97,417.974 2417.97,582.025 2340.46,659.674 2340.46,340.463 "
      id="polygon3492"
    />
    <rect
      stroke-width="0.0999995"
      fill-opacity="1"
      fill="#ffcc00"
      transform="scale(-1)"
      y="-1214.1108"
      width="31.99968"
      x="-1099.4972"
      gorn="0.3.18.0.5.0.10"
      id="connector2pin"
      height="100.00002"
    />
    <rect
      stroke-width="0.0999995"
      fill-opacity="1"
      fill="#d4aa00"
      transform="scale(-1)"
      y="-1209.0327"
      width="8.0207529"
      x="-1067.5964"
      gorn="0.3.18.0.5.0.11"
      id="rect3496"
      height="295.05212"
    />
    <rect
      stroke-width="0.0999995"
      fill-opacity="1"
      fill="#d4aa00"
      transform="scale(-1)"
      y="-943.33478"
      width="19.999802"
      x="-1060.8257"
      gorn="0.3.18.0.5.0.12"
      id="rect3498"
      height="28.833332"
    />
    <rect
      stroke-width="0.09999933"
      fill="#ffffff"
      transform="matrix(-0.71400785,-0.7001377,0.53240131,-0.84649208,0,0)"
      y="-141.83649"
      width="28.766459"
      x="-1598.6858"
      gorn="0.3.18.0.5.0.13.0"
      id="rect3500"
      height="17.444321"
    />
    <rect
      stroke-width="0.0999995"
      fill-opacity="1"
      fill="#ffcc00"
      transform="scale(-1)"
      y="-1214.1108"
      width="31.99968"
      x="-1099.4972"
      gorn="0.3.18.0.5.0.14"
      id="rect3677"
      height="300.00003"
    />
    <text
      fill="#ffffff"
      font-family="OCRA"
      y="977.11292"
      font-size="48.61102295"
      x="-850.1839"
      gorn="0.3.21"
      id="text3683"
      transform="rotate(-90)">VCC</text>
    <text
      fill="#ffffff"
      font-family="OCRA"
      y="875.29785"
      font-size="48.61102295"
      x="-854.04913"
      gorn="0.3.22"
      id="text3685"
      transform="rotate(-90)">SIG</text>
    <text
      fill="#ffffff"
      font-family="OCRA"
      y="1092.5295"
      font-size="48.61102295"
      x="-854.04913"
      gorn="0.3.23"
      id="text3687"
      transform="rotate(-90)">GND</text>
    <polygon
      fill="#254e89"
      gorn="0.0.0"
      points="196.012,157.607 196.012,72.4061 200,72.4061 200,39.9487 196.012,39.9487 196.012,0 0,0 0,39.9487 3.98829,39.9487 3.98829,72.4061 0,72.4061 0,157.607 "
      id="background"
      transform="rotate(180,267,133.80234)"
    />
    <rect
      stroke-width="0"
      fill="#456dab"
      gorn="0.0.1"
      height="5.7603593"
      y="-265.22299"
      width="192.74498"
      id="upperstripe"
      x="-532.24402"
      transform="scale(-1)"
    />
    <rect
      stroke-width="0"
      fill="#123c66"
      gorn="0.0.2"
      height="71.478394"
      y="-181.49002"
      width="196.01199"
      id="lowerrect"
      x="-534"
      transform="scale(-1)"
    />
    <path
      stroke-width="0.99999994"
      fill="#3a5c8e"
      d="m 484.96982,185.6164 c -19.0567,0 -34.5743,15.75789 -34.5743,35.17149 h 69.1622 c 0.0137,-19.4274 -15.4903,-35.17149 -34.5879,-35.17149 z"
      id="path7"
    />
    <path
      stroke-width="0.99999994"
      fill="#123c66"
      d="m 484.96982,255.94549 c 19.0839,0 34.5879,-15.7718 34.5879,-35.1576 h -69.1622 c 1e-4,19.4135 15.4904,35.1576 34.5743,35.1576 z"
      id="path9"
    />
    <path
      stroke-width="0.99999994"
      fill="#8b8b8b"
      id="path13"
      d="m 484.96982,192.263 c 15.4904,0 28.0678,12.79469 28.0678,28.55259 0,15.7302 -12.5774,28.5387 -28.0678,28.5387 -15.4768,0 -28.0542,-12.7947 -28.0542,-28.5387 0.0137,-15.7579 12.5911,-28.55259 28.0542,-28.55259 z"
    />
    <path
      stroke-width="0.99999994"
      id="path15"
      d="m 484.96982,248.80039 c -15.2045,0 -27.5097,-12.5454 -27.5097,-27.9848 0,-15.4533 12.3052,-27.99869 27.5097,-27.99869 15.2045,0 27.537,12.54539 27.537,27.99869 0.0136,15.4394 -12.3188,27.9848 -27.537,27.9848 m 0,1.02469 c 15.749,0 28.585,-13.0301 28.585,-29.05109 0,-16.021 -12.8088,-29.07879 -28.585,-29.07879 -15.7218,0 -28.5578,13.01619 -28.5578,29.07879 0.0136,16.0211 12.8225,29.0511 28.5578,29.05109 z"
    />
    <path
      stroke-width="0.99999994"
      fill="#707070"
      id="path19"
      d="m 511.67642,227.36519 c 0.50369,-2.1186 0.844,-4.3341 0.844,-6.5912 0,-2.28476 -0.34031,-4.45874 -0.84394,-6.63273 h -53.386 c -0.50364,2.1186 -0.84394,4.32027 -0.84394,6.63273 0,2.25707 0.31308,4.43105 0.84394,6.59119 z"
    />
    <rect
      stroke-width="0"
      fill="#545252"
      id="rect23"
      height="47.467598"
      y="-244.5217"
      width="12.958599"
      x="-491.46274"
      transform="scale(-1)"
    />
    <rect
      stroke-width="0"
      fill="#545252"
      id="rect25"
      height="13.168499"
      y="-227.3652"
      width="40.822197"
      x="-505.38773"
      transform="scale(-1)"
    />
    <path
      stroke-width="0.99999994"
      id="path29"
      d="m 484.96982,246.48799 c -13.8978,0 -25.2365,-11.5346 -25.2365,-25.6724 0,-14.1655 11.3387,-25.68619 25.2365,-25.68619 13.925,0 25.2637,11.53459 25.2637,25.68619 0.0138,14.1378 -11.325,25.6724 -25.2637,25.6724 m 0,2.3124 c 15.2045,0 27.5369,-12.5454 27.5369,-27.9848 0,-15.4533 -12.3324,-27.99869 -27.5369,-27.99869 -15.2045,0 -27.5097,12.54539 -27.5097,27.99869 -0.0272,15.4394 12.3052,27.9848 27.5097,27.9848 z"
    />
    <rect
      stroke-width="0"
      fill="#103656"
      id="rect38"
      height="28.150997"
      y="-173.6387"
      width="69.175789"
      x="-519.57135"
      transform="scale(-1)"
    />
    <rect
      stroke-width="0"
      fill="#254e89"
      id="rect40"
      height="29.203398"
      y="-145.47372"
      width="69.175789"
      x="-519.57135"
      transform="scale(-1)"
    />
    <rect
      stroke-width="0"
      fill="#254e89"
      id="rect42"
      height="35.074501"
      y="-145.11368"
      width="33.866497"
      x="-501.91672"
      transform="scale(-1)"
    />
    <rect
      stroke-width="0"
      fill="#8d8c8c"
      id="rect44"
      height="52.867996"
      y="-171.17398"
      width="63.540493"
      x="-516.74005"
      transform="scale(-1)"
    />
    <path
      stroke-width="0.99999994"
      fill="#a0a0a0"
      id="path46"
      d="m 484.96982,121.4077 c -15.0684,0 -27.3327,9.08364 -27.3327,20.3551 h 54.7199 c -0.0272,-11.2711 -12.2779,-20.3551 -27.3872,-20.3551 z"
    />
    <path
      stroke-width="0.99999994"
      fill="#565656"
      id="path48"
      d="m 484.96982,162.0207 c 15.0956,0 27.3872,-9.08365 27.3872,-20.31361 h -54.7199 c 0.0136,11.23061 12.2371,20.31361 27.3327,20.31361 z"
    />
    <ellipse
      stroke-width="0"
      fill="#383838"
      id="ellipse50"
      ry="15.757898"
      cx="-484.98355"
      rx="21.207397"
      cy="-141.70767"
      transform="scale(-1)"
    />
    <polygon
      fill="#919291"
      points="76.989,103.271 67.0115,116.467 30.8446,116.467 21.8335,103.631 17.2599,103.271 18.1175,96.0569 80.8004,96.9431 79.9292,104.157 "
      id="polygon52"
      transform="rotate(180,267,133.80234)"
    />
    <path
      stroke-width="0.99999994"
      fill="#57585a"
      id="path54"
      d="m 454.94192,169.7754 v -4.55567 l 2.0554,-3e-5 h 0.8848 l 0.5037,-0.72 9.0247,-12.476 h 34.8737 l 9.1745,12.49 0.5308,0.706 h 0.8576 2.137 v 4.5557 h -60.0422 m -1.7423,1.7724 h 63.5405 v -8.10051 h -3.8794 l -9.7053,-13.19621 h -36.5889 l -9.54196,13.19621 h -3.79773 z"
    />
    <rect
      stroke-width="0"
      fill="#8c8c8c"
      id="rect164"
      height="20.8398"
      y="-118.49972"
      width="28.503399"
      x="-499.22153"
      transform="scale(-1)"
    />
    <rect
      gorn="0.0.5"
      height="60.0844"
      y="-157.73068"
      width="31.523499"
      id="connector5pin"
      x="-499.71164"
      transform="scale(-1)"
      fill="none"
      stroke-width="0"
    />
    <path
      stroke-width="0.99999994"
      fill="#3a5c8e"
      d="m 384.96982,185.6164 c -19.05669,0 -34.5743,15.75789 -34.5743,35.17149 h 69.1622 c 0.0135,-19.4274 -15.49031,-35.17149 -34.5879,-35.17149 z"
      id="path66"
    />
    <path
      stroke-width="0.99999994"
      fill="#123c66"
      d="m 384.96982,255.94549 c 19.0839,0 34.5879,-15.7718 34.5879,-35.1576 h -69.1622 c 1.1e-4,19.4135 15.4904,35.1576 34.5743,35.1576 z"
      id="path68"
    />
    <path
      stroke-width="0.99999994"
      fill="#8b8b8b"
      id="path72"
      d="m 384.96982,192.263 c 15.4904,0 28.0678,12.79469 28.0678,28.55259 0,15.7302 -12.5774,28.5387 -28.0678,28.5387 -15.4768,0 -28.05419,-12.7947 -28.05419,-28.5387 0.0135,-15.7579 12.59109,-28.55259 28.05419,-28.55259 z"
    />
    <path
      stroke-width="0.99999994"
      id="path74"
      d="m 384.96982,248.80039 c -15.2045,0 -27.50969,-12.5454 -27.50969,-27.9848 0,-15.4533 12.30519,-27.99869 27.50969,-27.99869 15.2045,0 27.537,12.54539 27.537,27.99869 0.0135,15.4394 -12.3188,27.9848 -27.537,27.9848 m 0,1.02469 c 15.749,0 28.585,-13.0301 28.585,-29.05109 0,-16.021 -12.8088,-29.07879 -28.585,-29.07879 -15.7218,0 -28.5578,13.01619 -28.5578,29.07879 0.0135,16.02109 12.8225,29.05109 28.5578,29.05109 z"
    />
    <path
      stroke-width="0.99999994"
      fill="#707070"
      id="path78"
      d="m 411.67641,227.36519 c 0.50375,-2.1186 0.84396,-4.3341 0.84396,-6.5912 0,-2.28476 -0.34031,-4.45874 -0.84396,-6.63273 h -53.38599 c -0.50365,2.1186 -0.84396,4.32027 -0.84396,6.63273 0,2.25707 0.31312,4.43105 0.84396,6.59119 z"
    />
    <rect
      stroke-width="0"
      fill="#545252"
      id="rect82"
      height="47.467598"
      y="-244.5217"
      width="12.958599"
      x="-391.46274"
      transform="scale(-1)"
    />
    <rect
      stroke-width="0"
      fill="#545252"
      id="rect84"
      height="13.168499"
      y="-227.3652"
      width="40.822197"
      x="-405.38776"
      transform="scale(-1)"
    />
    <path
      stroke-width="0.99999994"
      id="path88"
      d="m 384.96982,246.48799 c -13.8978,0 -25.2365,-11.5346 -25.2365,-25.6724 0,-14.1655 11.3387,-25.68619 25.2365,-25.68619 13.925,0 25.2637,11.53459 25.2637,25.68619 0.0135,14.1378 -11.325,25.6724 -25.2637,25.6724 m 0,2.3124 c 15.2045,0 27.5369,-12.5454 27.5369,-27.9848 0,-15.4533 -12.3324,-27.99869 -27.5369,-27.99869 -15.2045,0 -27.50969,12.54539 -27.50969,27.99869 -0.0271,15.4394 12.30519,27.9848 27.50969,27.9848 z"
    />
    <rect
      stroke-width="0"
      fill="#103656"
      id="rect97"
      height="28.150997"
      y="-173.6387"
      width="69.175789"
      x="-419.57144"
      transform="scale(-1)"
    />
    <rect
      stroke-width="0"
      fill="#254e89"
      id="rect99"
      height="29.203398"
      y="-145.47372"
      width="69.175789"
      x="-419.57144"
      transform="scale(-1)"
    />
    <rect
      stroke-width="0"
      fill="#254e89"
      id="rect101"
      height="35.074501"
      y="-145.11368"
      width="33.866497"
      x="-401.91675"
      transform="scale(-1)"
    />
    <rect
      stroke-width="0"
      fill="#8d8c8c"
      id="rect103"
      height="52.867996"
      y="-171.17398"
      width="63.540493"
      x="-416.74014"
      transform="scale(-1)"
    />
    <path
      stroke-width="0.99999994"
      fill="#a0a0a0"
      id="path105"
      d="m 384.96982,121.4077 c -15.0684,0 -27.33269,9.08364 -27.33269,20.3551 h 54.71989 c -0.0271,-11.2711 -12.2779,-20.3551 -27.3872,-20.3551 z"
    />
    <path
      stroke-width="0.99999994"
      fill="#565656"
      id="path107"
      d="m 384.96982,162.0207 c 15.09559,0 27.3872,-9.08365 27.3872,-20.31361 h -54.71989 c 0.0135,11.23061 12.23709,20.31361 27.33269,20.31361 z"
    />
    <ellipse
      stroke-width="0"
      fill="#383838"
      id="ellipse109"
      ry="15.757898"
      cx="-384.98355"
      rx="21.207397"
      cy="-141.70767"
      transform="scale(-1)"
    />
    <polygon
      fill="#919291"
      points="76.989,103.271 67.0115,116.467 30.8446,116.467 21.8335,103.631 17.2599,103.271 18.1175,96.0569 80.8004,96.9431 79.9292,104.157 "
      id="polygon111"
      transform="rotate(180,217.00001,133.80234)"
    />
    <path
      stroke-width="0.99999994"
      fill="#57585a"
      id="path113"
      d="m 354.94192,169.7754 v -4.55567 l 2.0554,-3e-5 h 0.8848 l 0.50375,-0.72 9.02469,-12.476 h 34.87366 l 9.1745,12.49 0.5308,0.706 h 0.8576 2.137 v 4.5557 h -60.0422 m -1.74229,1.7724 h 63.54049 v -8.10051 h -3.8794 l -9.70531,-13.19621 h -36.58889 l -9.54196,13.19621 h -3.79773 z"
    />
    <rect
      stroke-width="0"
      fill="#8c8c8c"
      id="rect2233"
      height="20.8398"
      y="-118.49972"
      width="28.503399"
      x="-399.22156"
      transform="scale(-1)"
    />
    <rect
      stroke-width="0"
      fill="none"
      gorn="0.0.8"
      height="60.0844"
      y="-157.73068"
      width="31.523499"
      id="connector6pin"
      x="-399.71164"
      transform="scale(-1)"
    />
    <polygon
      fill="#254e89"
      transform="rotate(180,466.87938,133.89096)"
      id="polygon2033"
      points="196.012,39.9487 196.012,0 0,0 0,39.9487 3.98829,39.9487 3.98829,72.4061 0,72.4061 0,157.607 196.012,157.607 196.012,72.4061 200,72.4061 200,39.9487 "
      gorn="0.0.0"
    />
    <rect
      stroke-width="0"
      fill="#456dab"
      x="-932.00269"
      id="rect2035"
      width="192.74498"
      y="-265.40021"
      height="5.7603593"
      gorn="0.0.1"
      transform="scale(-1)"
    />
    <rect
      stroke-width="0"
      fill="#123c66"
      x="-933.75867"
      id="rect2037"
      width="196.01199"
      y="-181.66725"
      height="71.478394"
      gorn="0.0.2"
      transform="scale(-1)"
    />
    <path
      stroke-width="0.99999994"
      fill="#3a5c8e"
      id="path2039"
      d="m 884.72855,185.79363 c -19.0567,0 -34.5743,15.75789 -34.5743,35.17149 h 69.1622 c 0.0137,-19.4274 -15.4903,-35.17149 -34.5879,-35.17149 z"
    />
    <path
      stroke-width="0.99999994"
      fill="#123c66"
      id="path2041"
      d="m 884.72855,256.12272 c 19.0839,0 34.5879,-15.7718 34.5879,-35.1576 h -69.1622 c 10e-5,19.4135 15.4904,35.1576 34.5743,35.1576 z"
    />
    <path
      stroke-width="0.99999994"
      fill="#8b8b8b"
      d="m 884.72855,192.44023 c 15.4904,0 28.0678,12.79469 28.0678,28.55259 0,15.7302 -12.5774,28.5387 -28.0678,28.5387 -15.4768,0 -28.0542,-12.7947 -28.0542,-28.5387 0.0137,-15.7579 12.5911,-28.55259 28.0542,-28.55259 z"
      id="path2043"
    />
    <path
      stroke-width="0.99999994"
      d="m 884.72855,248.97762 c -15.2045,0 -27.5097,-12.5454 -27.5097,-27.9848 0,-15.4533 12.3052,-27.99869 27.5097,-27.99869 15.2045,0 27.537,12.54539 27.537,27.99869 0.0136,15.4394 -12.3188,27.9848 -27.537,27.9848 m 0,1.02469 c 15.749,0 28.585,-13.0301 28.585,-29.05109 0,-16.021 -12.8088,-29.07879 -28.585,-29.07879 -15.7218,0 -28.5578,13.01619 -28.5578,29.07879 0.0136,16.0211 12.8225,29.0511 28.5578,29.05109 z"
      id="path2045"
    />
    <path
      stroke-width="0.99999994"
      fill="#707070"
      d="m 911.43515,227.54242 c 0.50369,-2.1186 0.844,-4.3341 0.844,-6.5912 0,-2.28476 -0.34031,-4.45874 -0.84394,-6.63273 h -53.386 c -0.50364,2.1186 -0.84394,4.32027 -0.84394,6.63273 0,2.25707 0.31308,4.43105 0.84394,6.59119 z"
      id="path2047"
    />
    <rect
      stroke-width="0"
      fill="#545252"
      x="-891.22137"
      width="12.958599"
      y="-244.69893"
      height="47.467598"
      id="rect2049"
      transform="scale(-1)"
    />
    <rect
      stroke-width="0"
      fill="#545252"
      x="-905.14636"
      width="40.822197"
      y="-227.54243"
      height="13.168499"
      id="rect2051"
      transform="scale(-1)"
    />
    <path
      stroke-width="0.99999994"
      d="m 884.72855,246.66522 c -13.8978,0 -25.2365,-11.5346 -25.2365,-25.6724 0,-14.1655 11.3387,-25.68619 25.2365,-25.68619 13.925,0 25.2637,11.53459 25.2637,25.68619 0.0138,14.1378 -11.325,25.6724 -25.2637,25.6724 m 0,2.3124 c 15.2045,0 27.5369,-12.5454 27.5369,-27.9848 0,-15.4533 -12.3324,-27.99869 -27.5369,-27.99869 -15.2045,0 -27.5097,12.54539 -27.5097,27.99869 -0.0272,15.4394 12.3052,27.9848 27.5097,27.9848 z"
      id="path2053"
    />
    <rect
      stroke-width="0"
      fill="#103656"
      x="-919.33002"
      width="69.175789"
      y="-173.81593"
      height="28.150997"
      id="rect2055"
      transform="scale(-1)"
    />
    <rect
      stroke-width="0"
      fill="#254e89"
      x="-919.33002"
      width="69.175789"
      y="-145.65096"
      height="29.203398"
      id="rect2057"
      transform="scale(-1)"
    />
    <rect
      stroke-width="0"
      fill="#254e89"
      x="-901.67535"
      width="33.866497"
      y="-145.29091"
      height="35.074501"
      id="rect2059"
      transform="scale(-1)"
    />
    <rect
      stroke-width="0"
      fill="#8d8c8c"
      x="-916.49872"
      width="63.540493"
      y="-171.35121"
      height="52.867996"
      id="rect2061"
      transform="scale(-1)"
    />
    <path
      stroke-width="0.99999994"
      fill="#a0a0a0"
      d="m 884.72855,121.58493 c -15.0684,0 -27.3327,9.08364 -27.3327,20.3551 h 54.7199 c -0.0272,-11.2711 -12.2779,-20.3551 -27.3872,-20.3551 z"
      id="path2063"
    />
    <path
      stroke-width="0.99999994"
      fill="#565656"
      d="m 884.72855,162.19793 c 15.0956,0 27.3872,-9.08365 27.3872,-20.31361 h -54.7199 c 0.0136,11.23061 12.2371,20.31361 27.3327,20.31361 z"
      id="path2065"
    />
    <ellipse
      stroke-width="0"
      fill="#383838"
      cy="-141.8849"
      rx="21.207397"
      cx="-884.74219"
      ry="15.757898"
      id="ellipse2067"
      transform="scale(-1)"
    />
    <polygon
      fill="#919291"
      transform="rotate(180,466.87938,133.89096)"
      id="polygon2231"
      points="18.1175,96.0569 80.8004,96.9431 79.9292,104.157 76.989,103.271 67.0115,116.467 30.8446,116.467 21.8335,103.631 17.2599,103.271 "
    />
    <path
      stroke-width="0.99999994"
      fill="#57585a"
      d="m 854.70065,169.95263 v -4.55567 l 2.0554,-3e-5 h 0.8848 l 0.5037,-0.72 9.0247,-12.476 h 34.8737 l 9.1745,12.49 0.5308,0.706 h 0.8576 2.137 v 4.5557 h -60.0422 m -1.7423,1.7724 h 63.5405 v -8.10051 h -3.8794 l -9.7053,-13.19621 h -36.5889 l -9.54196,13.19621 h -3.79773 z"
      id="path2071"
    />
    <rect
      stroke-width="0"
      fill="#8c8c8c"
      x="-898.98016"
      width="28.503399"
      y="-118.67696"
      height="20.8398"
      id="rect168"
      transform="scale(-1)"
    />
    <rect
      x="-899.47028"
      id="connector3pin"
      width="31.523499"
      y="-157.90791"
      height="60.0844"
      gorn="0.0.5"
      transform="scale(-1)"
      fill="none"
      stroke-width="0"
    />
    <path
      stroke-width="0.99999994"
      fill="#3a5c8e"
      id="path2077"
      d="m 784.72855,185.79363 c -19.05669,0 -34.5743,15.75789 -34.5743,35.17149 h 69.1622 c 0.0135,-19.4274 -15.49031,-35.17149 -34.5879,-35.17149 z"
    />
    <path
      stroke-width="0.99999994"
      fill="#123c66"
      id="path2079"
      d="m 784.72855,256.12272 c 19.0839,0 34.5879,-15.7718 34.5879,-35.1576 h -69.1622 c 1.1e-4,19.4135 15.4904,35.1576 34.5743,35.1576 z"
    />
    <path
      stroke-width="0.99999994"
      fill="#8b8b8b"
      d="m 784.72855,192.44023 c 15.4904,0 28.0678,12.79469 28.0678,28.55259 0,15.7302 -12.5774,28.5387 -28.0678,28.5387 -15.4768,0 -28.05419,-12.7947 -28.05419,-28.5387 0.0135,-15.7579 12.59109,-28.55259 28.05419,-28.55259 z"
      id="path2081"
    />
    <path
      stroke-width="0.99999994"
      d="m 784.72855,248.97762 c -15.2045,0 -27.50969,-12.5454 -27.50969,-27.9848 0,-15.4533 12.30519,-27.99869 27.50969,-27.99869 15.2045,0 27.537,12.54539 27.537,27.99869 0.0135,15.4394 -12.3188,27.9848 -27.537,27.9848 m 0,1.02469 c 15.749,0 28.585,-13.0301 28.585,-29.05109 0,-16.021 -12.8088,-29.07879 -28.585,-29.07879 -15.7218,0 -28.5578,13.01619 -28.5578,29.07879 0.0135,16.02109 12.8225,29.05109 28.5578,29.05109 z"
      id="path2083"
    />
    <path
      stroke-width="0.99999994"
      fill="#707070"
      d="m 811.43514,227.54242 c 0.50375,-2.1186 0.84396,-4.3341 0.84396,-6.5912 0,-2.28476 -0.34031,-4.45874 -0.84396,-6.63273 h -53.38599 c -0.50365,2.1186 -0.84396,4.32027 -0.84396,6.63273 0,2.25707 0.31312,4.43105 0.84396,6.59119 z"
      id="path2085"
    />
    <rect
      stroke-width="0"
      fill="#545252"
      x="-791.22137"
      width="12.958599"
      y="-244.69893"
      height="47.467598"
      id="rect2087"
      transform="scale(-1)"
    />
    <rect
      stroke-width="0"
      fill="#545252"
      x="-805.14636"
      width="40.822197"
      y="-227.54243"
      height="13.168499"
      id="rect2089"
      transform="scale(-1)"
    />
    <path
      stroke-width="0.99999994"
      d="m 784.72855,246.66522 c -13.8978,0 -25.2365,-11.5346 -25.2365,-25.6724 0,-14.1655 11.3387,-25.68619 25.2365,-25.68619 13.925,0 25.2637,11.53459 25.2637,25.68619 0.0135,14.1378 -11.325,25.6724 -25.2637,25.6724 m 0,2.3124 c 15.2045,0 27.5369,-12.5454 27.5369,-27.9848 0,-15.4533 -12.3324,-27.99869 -27.5369,-27.99869 -15.2045,0 -27.50969,12.54539 -27.50969,27.99869 -0.0271,15.4394 12.30519,27.9848 27.50969,27.9848 z"
      id="path2091"
    />
    <rect
      stroke-width="0"
      fill="#103656"
      x="-819.33008"
      width="69.175789"
      y="-173.81593"
      height="28.150997"
      id="rect2093"
      transform="scale(-1)"
    />
    <rect
      stroke-width="0"
      fill="#254e89"
      x="-819.33008"
      width="69.175789"
      y="-145.65096"
      height="29.203398"
      id="rect2095"
      transform="scale(-1)"
    />
    <rect
      stroke-width="0"
      fill="#254e89"
      x="-801.67535"
      width="33.866497"
      y="-145.29091"
      height="35.074501"
      id="rect2097"
      transform="scale(-1)"
    />
    <rect
      stroke-width="0"
      fill="#8d8c8c"
      x="-816.49878"
      width="63.540493"
      y="-171.35121"
      height="52.867996"
      id="rect2099"
      transform="scale(-1)"
    />
    <path
      stroke-width="0.99999994"
      fill="#a0a0a0"
      d="m 784.72855,121.58493 c -15.0684,0 -27.33269,9.08364 -27.33269,20.3551 h 54.71989 c -0.0271,-11.2711 -12.2779,-20.3551 -27.3872,-20.3551 z"
      id="path2101"
    />
    <path
      stroke-width="0.99999994"
      fill="#565656"
      d="m 784.72855,162.19793 c 15.09559,0 27.3872,-9.08365 27.3872,-20.31361 h -54.71989 c 0.0135,11.23061 12.23709,20.31361 27.33269,20.31361 z"
      id="path2103"
    />
    <ellipse
      stroke-width="0"
      fill="#383838"
      cy="-141.8849"
      rx="21.207397"
      cx="-784.74219"
      ry="15.757898"
      id="ellipse2105"
      transform="scale(-1)"
    />
    <polygon
      fill="#919291"
      transform="rotate(180,416.87939,133.89097)"
      id="polygon2229"
      points="18.1175,96.0569 80.8004,96.9431 79.9292,104.157 76.989,103.271 67.0115,116.467 30.8446,116.467 21.8335,103.631 17.2599,103.271 "
    />
    <path
      stroke-width="0.99999994"
      fill="#57585a"
      d="m 754.70065,169.95263 v -4.55567 l 2.0554,-3e-5 h 0.8848 l 0.50375,-0.72 9.02469,-12.476 h 34.87366 l 9.1745,12.49 0.5308,0.706 h 0.8576 2.137 v 4.5557 h -60.0422 m -1.74229,1.7724 h 63.54049 v -8.10051 h -3.8794 l -9.70531,-13.19621 h -36.58889 l -9.54196,13.19621 h -3.79773 z"
      id="path2109"
    />
    <rect
      stroke-width="0"
      fill="#8c8c8c"
      x="-798.98016"
      width="28.503399"
      y="-118.67696"
      height="20.8398"
      id="rect166"
      transform="scale(-1)"
    />
    <rect
      x="-799.47028"
      id="connector4pin"
      width="31.523499"
      y="-157.90791"
      height="60.0844"
      gorn="0.0.8"
      transform="scale(-1)"
      fill="none"
      stroke-width="0"
    />
    <path
      stroke-width="10.41666603"
      fill="#ff2a2a"
      id="path2117"
      d="m 112.55756,541.96689 a 30.444445,37.363636 0 0 1 31.63911,-35.76828 30.444445,37.363636 0 0 1 29.20067,38.76623 30.444445,37.363636 0 0 1 -31.5354,35.90597 30.444445,37.363636 0 0 1 -29.31267,-38.63871"
    />
    <rect
      stroke-width="9.99999809"
      stroke="none"
      fill-rule="evenodd"
      fill="#1a1a1a"
      width="378.73038"
      y="660.55853"
      type="MSShapeGroup"
      id="rect51"
      height="78.755203"
      x="203.27997"
      gorn="0.4.0.0.0.0.0.0.0.0.19"
    />
    <path
      stroke-width="9.59999943"
      fill="#bfbcbc"
      d="M 546.40099,581.16435 H 392.82276 v 6.7339 c 44.58459,0 25.68447,14.3101 25.68447,22.508 -10.04409,10.2815 -13.95501,14.1412 -24.30195,14.8375 l -1.38252,14.1054 h 153.57823 z"
      id="path10-9"
    />
    <path
      stroke-width="9.59999943"
      fill="#808080"
      d="m 319.80774,603.42935 c 0,-8.2006 28.47141,-15.5365 73.01502,-15.5365 v -6.7312 H 239.24455 v 58.1633 h 155.99761 l 0.69125,-13.7545 c -44.5436,0.01 -37.69037,-46.5333 -41.56288,-44.0757 z"
      id="path12-8"
    />
    <polygon
      stroke-width="1.82867336"
      fill="#cccccc"
      id="polygon10-3"
      gorn="0.0.11"
      points="0.501,17.865 4.001,17.865 4.001,0.5 0.501,4.525 "
      transform="matrix(10.239913,0,0,2.6913733,198.27466,579.81865)"
    />
    <polygon
      stroke-width="1.82867336"
      fill="#999999"
      id="polygon12-2"
      gorn="0.0.12"
      points="37.497,4.525 33.997,0.5 33.997,17.865 37.497,17.865 "
      transform="matrix(10.239913,0,0,2.6913733,198.27466,579.81865)"
    />
    <rect
      stroke-width="9.59999943"
      fill="#b2b2b2"
      height="11.438336"
      id="rect53-0"
      width="307.17694"
      y="581.16437"
      gorn="0.0.23"
      x="239.2446"
    />
    <path
      stroke-width="9.59999943"
      fill="#8c8c8c"
      d="M 546.42147,589.93825 H 239.26503 l -35.83969,10.8301 v 35.9029 h 378.83583 v -35.9029 z m -162.2189,44.7623 c -6.87018,-1.7409 -14.26109,-8.9724 -15.29518,-21.4528 -0.59677,-7.2033 8.77402,-17.4651 23.93586,-16.573 17.24867,1.0149 23.95633,3.5088 25.33886,19.7065 -2.09463,16.2005 -22.26927,21.2866 -33.97954,18.3193 z"
      id="path55-3"
      gorn="0.0.24"
    />
    <rect
      stroke-width="9.60196209"
      fill="#333333"
      transform="matrix(1,0,-0.02858874,0.99959126,0,0)"
      height="24.662991"
      id="rect51-3"
      width="378.59286"
      y="636.72137"
      gorn="0.0.22"
      x="222.10728"
    />
    <text
      fill="#ffffff"
      font-family="OCRA"
      id="text2235"
      gorn="0.3.23"
      x="871.52484"
      font-size="48.61102295"
      y="68.779709">GND</text>
    <text
      fill="#ffffff"
      font-family="OCRA"
      y="68.779709"
      font-size="48.61102295"
      x="709.09027"
      gorn="0.3.23"
      id="text2237">VIN</text>
    <text
      fill="#ffffff"
      font-family="OCRA"
      id="text2239"
      gorn="0.3.23"
      x="351.72522"
      font-size="48.61102295"
      y="71.069565">V+</text>
    <text
      fill="#ffffff"
      font-family="OCRA"
      y="71.880211"
      font-size="48.61102295"
      x="460.84476"
      gorn="0.3.23"
      id="text2241">V-</text>
    <text
      fill="#ffffff"
      font-family="OCRA"
      transform="rotate(-90)"
      id="text2243"
      gorn="0.3.23"
      x="-910.77948"
      font-size="48.61102295"
      y="1187.0576">MOS Module</text>
    <text
      fill="#ffffff"
      font-family="OCRA"
      y="1236.3722"
      font-size="48.61102295"
      x="-276.72144"
      gorn="0.3.23"
      id="text2245"
      transform="rotate(-90)">140C07</text>
    <text
      fill="#ffffff"
      font-family="OCRA"
      id="text2247"
      gorn="0.3.23"
      x="197.90851"
      font-size="48.61102295"
      y="879.97101">Keyes</text>
    <circle
      stroke-width="1"
      fill-opacity="1"
      fill="#ffffff"
      id="path4155"
      cx="88.565674"
      cy="489.56424"
      r="54.999996"
    />
    <circle
      stroke-width="1"
      fill-opacity="1"
      fill="#ffffff"
      r="54.999996"
      cy="489.60468"
      cx="1234.3838"
      id="circle2255"
    />
  </g>
</svg>
