<?xml version='1.0' encoding='UTF-8' standalone='no'?>
<svg
  xmlns:dc="http://purl.org/dc/elements/1.1/"
  xmlns:cc="http://creativecommons.org/ns#"
  xmlns:rdf="http://www.w3.org/1999/02/22-rdf-syntax-ns#"
  xmlns:svg="http://www.w3.org/2000/svg"
  xmlns="http://www.w3.org/2000/svg"
  width="0.71046358in"
  gorn="0"
  x="0in"
  y="0in"
  viewBox="0 0 710.4638 530.23973"
  height="0.53023958in"
  version="1.2"
  id="svg4990">
  <desc
    id="desc2">
    <referenceFile>max30102_1_breadboard.svg</referenceFile>
  </desc>
  <metadata
    id="metadata5543">
    <rdf:RDF>
      <cc:Work
        rdf:about="">
        <dc:title/>
        <dc:format>image/svg+xml</dc:format>
        <dc:type
          rdf:resource="http://purl.org/dc/dcmitype/StillImage"
        />
      </cc:Work>
    </rdf:RDF>
  </metadata>
  <defs
    id="defs5541">
    <defs
      id="defs7"
    />
  </defs>
  <desc
    id="desc4992">Fritzing
    breadboard
    generated
    by
    brd2svg</desc>
  <g
    id="breadboard">
    <rect
      id="rect1643"
      width="710.46381"
      height="530.23975"
      x="-1.4210855e-14"
      y="-1.4210855e-14"
      fill="#000080"
      stroke="none"
      stroke-width="0"
    />
    <text
      gorn="0.4.1.9.1"
      font-size="25"
      x="454.86185"
      y="438.27817"
      id="text5022"
      font-family="OCRA"
      text-anchor="middle"
      fill="#ffffff">IRQ</text>
    <text
      gorn="0.4.1.10.1"
      font-size="25"
      x="355.93185"
      y="439.88913"
      id="text5028"
      font-family="OCRA"
      text-anchor="middle"
      fill="#ffffff">INT</text>
    <text
      gorn="0.4.1.12.1"
      font-size="25"
      x="254.91954"
      y="440.19632"
      id="text5040"
      font-family="OCRA"
      text-anchor="middle"
      fill="#ffffff">SDA</text>
    <text
      gorn="0.4.1.13.1"
      font-size="25"
      x="653.94159"
      y="437.17679"
      id="text5046"
      font-family="OCRA"
      text-anchor="middle"
      fill="#ffffff"
      stroke="none"
      stroke-width="0">GND</text>
    <text
      gorn="0.4.1.14.1"
      font-size="25"
      x="156.17314"
      y="441.86301"
      id="text5052"
      font-family="OCRA"
      text-anchor="middle"
      fill="#ffffff">SCL</text>
    <text
      gorn="0.4.1.16.1.0.0.0.0.0.0"
      font-size="25"
      x="53.745285"
      y="441.18002"
      id="text5068"
      font-family="OCRA"
      text-anchor="middle"
      fill="#ffffff">VIN</text>
    <circle
      connectorname="SDA"
      gorn="0.4.13"
      cy="493.54691"
      cx="655.74884"
      id="ellipse396"
      r="27"
      fill="#b3b3b3"
      stroke="#b3b3b3"
      stroke-width="15"
    />
    <circle
      connectorname="SCL"
      gorn="0.4.14"
      cy="493.54691"
      cx="555.74878"
      id="ellipse398"
      r="27"
      fill="#b3b3b3"
      stroke="#b3b3b3"
      stroke-width="15"
    />
    <circle
      connectorname="INT1"
      gorn="0.4.15"
      cy="493.54691"
      cx="455.24875"
      id="ellipse400"
      r="27"
      fill="#b3b3b3"
      stroke="#b3b3b3"
      stroke-width="15"
    />
    <circle
      connectorname="INT2"
      gorn="0.4.16"
      cy="493.54691"
      cx="355.24869"
      id="ellipse402"
      r="27"
      fill="#b3b3b3"
      stroke="#b3b3b3"
      stroke-width="15"
    />
    <circle
      connectorname="+3V3"
      gorn="0.4.17"
      cy="493.54691"
      cx="255.2487"
      id="ellipse404"
      r="27"
      fill="#b3b3b3"
      stroke="#b3b3b3"
      stroke-width="15"
    />
    <circle
      connectorname="GND"
      gorn="0.4.18"
      cy="493.54691"
      cx="155.7487"
      id="ellipse406"
      r="27"
      fill="#b3b3b3"
      stroke="#b3b3b3"
      stroke-width="15"
    />
    <circle
      connectorname="VIN"
      gorn="0.4.19"
      cy="493.38943"
      cx="55.748672"
      id="ellipse408"
      r="27"
      fill="#b3b3b3"
      stroke="#b3b3b3"
      stroke-width="15.31504059"
    />
    <text
      id="text312"
      y="437.22946"
      x="555.53473"
      font-size="25"
      gorn="0.4.1.9.1"
      font-family="OCRA"
      text-anchor="middle"
      fill="#ffffff">RD</text>
    <g
      id="smd-604"
      transform="matrix(0,-1.0000004,1.0000004,0.11024305,240.24356,134.89832)">
      <rect
        transform="matrix(1,0,0.18884669,0.98200658,0,0)"
        y="0.002379426"
        x="6.5804586"
        height="26.354992"
        width="44.069145"
        id="rect25"
        fill="#666666"
        stroke-width="10.51166344"
      />
      <rect
        transform="matrix(1,0,-0.07620418,0.99709223,0,0)"
        id="rect31"
        width="52.155472"
        height="9.6669025"
        x="9.0157423"
        y="25.809875"
        fill="#333333"
        stroke-width="10.43184376"
      />
      <rect
        id="rect51"
        width="4.680604"
        height="2.0336654"
        x="56.739132"
        y="25.754074"
        transform="matrix(1,0,-0.08349269,0.99650839,0,0)"
        fill="#b3b3b3"
        stroke-width="10.43489933"
      />
      <rect
        transform="matrix(1,0,0.18738054,0.9822874,0,0)"
        id="rect27"
        width="8.3783693"
        height="26.34746"
        x="49.6763"
        y="0.0023791939"
        fill="#cccccc"
        stroke-width="10.51016331"
      />
      <rect
        transform="matrix(1,0,-0.07419928,0.99724343,0,0)"
        y="25.979439"
        x="61.109669"
        height="9.5415192"
        width="3.7990158"
        id="rect33"
        fill="#b3b3b3"
        stroke-width="10.43105221"
      />
      <rect
        id="rect35"
        width="4.0131898"
        height="9.562458"
        x="5.7807612"
        y="26.162411"
        transform="matrix(0.99973746,-0.02291303,-0.09434497,0.99553957,0,0)"
        fill="#b3b3b3"
        stroke-width="10.45270252"
      />
      <rect
        transform="matrix(1,0,-0.08085461,0.99672591,0,0)"
        y="25.942169"
        x="9.3664446"
        height="2.0332215"
        width="4.531724"
        id="rect49"
        fill="#b3b3b3"
        stroke-width="10.43376064"
      />
      <rect
        y="1.7848551e-15"
        x="0.87274688"
        height="26.004595"
        width="8.4027615"
        id="rect66"
        transform="matrix(1,0,0.09746751,0.99523871,0,0)"
        fill="#cccccc"
        stroke-width="10.44155407"
      />
      <rect
        transform="matrix(0.0917749,-0.99577978,0.09618291,0.99536368,0,0)"
        id="rect64"
        width="9.6938124"
        height="25.760004"
        x="-5.0015821"
        y="4.7723622"
        fill="#808080"
        stroke-width="24.08027267"
      />
      <text
        transform="matrix(0.7516663,0,0.34506579,1.3303776,0,0)"
        x="26.431389"
        y="12.625351"
        font-size="8.91711617"
        id="text3685"
        font-family="OCRA"
        fill="#ffffff"
        stroke-width="1">472</text>
    </g>
    <g
      transform="matrix(0,-1.0000004,1.0000004,0.11024305,241.34643,251.80212)"
      id="g341">
      <rect
        id="rect321"
        width="44.069145"
        height="26.354992"
        x="6.5804586"
        y="0.002379426"
        transform="matrix(1,0,0.18884669,0.98200658,0,0)"
        fill="#666666"
        stroke-width="10.51166344"
      />
      <rect
        y="25.809875"
        x="9.0157423"
        height="9.6669025"
        width="52.155472"
        id="rect323"
        transform="matrix(1,0,-0.07620418,0.99709223,0,0)"
        fill="#333333"
        stroke-width="10.43184376"
      />
      <rect
        transform="matrix(1,0,-0.08349269,0.99650839,0,0)"
        y="25.754074"
        x="56.739132"
        height="2.0336654"
        width="4.680604"
        id="rect325"
        fill="#b3b3b3"
        stroke-width="10.43489933"
      />
      <rect
        y="0.0023791939"
        x="49.6763"
        height="26.34746"
        width="8.3783693"
        id="rect327"
        transform="matrix(1,0,0.18738054,0.9822874,0,0)"
        fill="#cccccc"
        stroke-width="10.51016331"
      />
      <rect
        id="rect329"
        width="3.7990158"
        height="9.5415192"
        x="61.109669"
        y="25.979439"
        transform="matrix(1,0,-0.07419928,0.99724343,0,0)"
        fill="#b3b3b3"
        stroke-width="10.43105221"
      />
      <rect
        transform="matrix(0.99973746,-0.02291303,-0.09434497,0.99553957,0,0)"
        y="26.162411"
        x="5.7807612"
        height="9.562458"
        width="4.0131898"
        id="rect331"
        fill="#b3b3b3"
        stroke-width="10.45270252"
      />
      <rect
        id="rect333"
        width="4.531724"
        height="2.0332215"
        x="9.3664446"
        y="25.942169"
        transform="matrix(1,0,-0.08085461,0.99672591,0,0)"
        fill="#b3b3b3"
        stroke-width="10.43376064"
      />
      <rect
        transform="matrix(1,0,0.09746751,0.99523871,0,0)"
        id="rect335"
        width="8.4027615"
        height="26.004595"
        x="0.87274688"
        y="1.7848551e-15"
        fill="#cccccc"
        stroke-width="10.44155407"
      />
      <rect
        y="4.7723622"
        x="-5.0015821"
        height="25.760004"
        width="9.6938124"
        id="rect337"
        transform="matrix(0.0917749,-0.99577978,0.09618291,0.99536368,0,0)"
        fill="#808080"
        stroke-width="24.08027267"
      />
      <text
        id="text339"
        font-size="8.91711617"
        y="12.625351"
        x="26.431389"
        transform="matrix(0.7516663,0,0.34506579,1.3303776,0,0)"
        font-family="OCRA"
        fill="#ffffff"
        stroke-width="1">472</text>
    </g>
    <g
      id="g363"
      transform="matrix(0,-1.0000004,1.0000004,0.11024305,242.4493,377.52885)">
      <rect
        transform="matrix(1,0,0.18884669,0.98200658,0,0)"
        y="0.002379426"
        x="6.5804586"
        height="26.354992"
        width="44.069145"
        id="rect343"
        fill="#666666"
        stroke-width="10.51166344"
      />
      <rect
        transform="matrix(1,0,-0.07620418,0.99709223,0,0)"
        id="rect345"
        width="52.155472"
        height="9.6669025"
        x="9.0157423"
        y="25.809875"
        fill="#333333"
        stroke-width="10.43184376"
      />
      <rect
        id="rect347"
        width="4.680604"
        height="2.0336654"
        x="56.739132"
        y="25.754074"
        transform="matrix(1,0,-0.08349269,0.99650839,0,0)"
        fill="#b3b3b3"
        stroke-width="10.43489933"
      />
      <rect
        transform="matrix(1,0,0.18738054,0.9822874,0,0)"
        id="rect349"
        width="8.3783693"
        height="26.34746"
        x="49.6763"
        y="0.0023791939"
        fill="#cccccc"
        stroke-width="10.51016331"
      />
      <rect
        transform="matrix(1,0,-0.07419928,0.99724343,0,0)"
        y="25.979439"
        x="61.109669"
        height="9.5415192"
        width="3.7990158"
        id="rect351"
        fill="#b3b3b3"
        stroke-width="10.43105221"
      />
      <rect
        id="rect353"
        width="4.0131898"
        height="9.562458"
        x="5.7807612"
        y="26.162411"
        transform="matrix(0.99973746,-0.02291303,-0.09434497,0.99553957,0,0)"
        fill="#b3b3b3"
        stroke-width="10.45270252"
      />
      <rect
        transform="matrix(1,0,-0.08085461,0.99672591,0,0)"
        y="25.942169"
        x="9.3664446"
        height="2.0332215"
        width="4.531724"
        id="rect355"
        fill="#b3b3b3"
        stroke-width="10.43376064"
      />
      <rect
        y="1.7848551e-15"
        x="0.87274688"
        height="26.004595"
        width="8.4027615"
        id="rect357"
        transform="matrix(1,0,0.09746751,0.99523871,0,0)"
        fill="#cccccc"
        stroke-width="10.44155407"
      />
      <rect
        transform="matrix(0.0917749,-0.99577978,0.09618291,0.99536368,0,0)"
        id="rect359"
        width="9.6938124"
        height="25.760004"
        x="-5.0015821"
        y="4.7723622"
        fill="#808080"
        stroke-width="24.08027267"
      />
      <text
        transform="matrix(0.7516663,0,0.34506579,1.3303776,0,0)"
        x="26.431389"
        y="12.625351"
        font-size="8.91711617"
        id="text361"
        font-family="OCRA"
        fill="#ffffff"
        stroke-width="1">472</text>
    </g>
    <g
      transform="matrix(0,-1.0000004,1.0000004,0.11024305,157.52862,218.71615)"
      id="g385">
      <rect
        id="rect365"
        width="44.069145"
        height="26.354992"
        x="6.5804586"
        y="0.002379426"
        transform="matrix(1,0,0.18884669,0.98200658,0,0)"
        fill="#666666"
        stroke-width="10.51166344"
      />
      <rect
        y="25.809875"
        x="9.0157423"
        height="9.6669025"
        width="52.155472"
        id="rect367"
        transform="matrix(1,0,-0.07620418,0.99709223,0,0)"
        fill="#333333"
        stroke-width="10.43184376"
      />
      <rect
        transform="matrix(1,0,-0.08349269,0.99650839,0,0)"
        y="25.754074"
        x="56.739132"
        height="2.0336654"
        width="4.680604"
        id="rect369"
        fill="#b3b3b3"
        stroke-width="10.43489933"
      />
      <rect
        y="0.0023791939"
        x="49.6763"
        height="26.34746"
        width="8.3783693"
        id="rect371"
        transform="matrix(1,0,0.18738054,0.9822874,0,0)"
        fill="#cccccc"
        stroke-width="10.51016331"
      />
      <rect
        id="rect373"
        width="3.7990158"
        height="9.5415192"
        x="61.109669"
        y="25.979439"
        transform="matrix(1,0,-0.07419928,0.99724343,0,0)"
        fill="#b3b3b3"
        stroke-width="10.43105221"
      />
      <rect
        transform="matrix(0.99973746,-0.02291303,-0.09434497,0.99553957,0,0)"
        y="26.162411"
        x="5.7807612"
        height="9.562458"
        width="4.0131898"
        id="rect375"
        fill="#b3b3b3"
        stroke-width="10.45270252"
      />
      <rect
        id="rect377"
        width="4.531724"
        height="2.0332215"
        x="9.3664446"
        y="25.942169"
        transform="matrix(1,0,-0.08085461,0.99672591,0,0)"
        fill="#b3b3b3"
        stroke-width="10.43376064"
      />
      <rect
        transform="matrix(1,0,0.09746751,0.99523871,0,0)"
        id="rect379"
        width="8.4027615"
        height="26.004595"
        x="0.87274688"
        y="1.7848551e-15"
        fill="#cccccc"
        stroke-width="10.44155407"
      />
      <rect
        y="4.7723622"
        x="-5.0015821"
        height="25.760004"
        width="9.6938124"
        id="rect381"
        transform="matrix(0.0917749,-0.99577978,0.09618291,0.99536368,0,0)"
        fill="#808080"
        stroke-width="24.08027267"
      />
    </g>
    <g
      id="g405"
      transform="matrix(1.0000004,0,-0.11024305,1.0000004,63.209588,281.9656)">
      <rect
        transform="matrix(1,0,0.18884669,0.98200658,0,0)"
        y="0.002379426"
        x="6.5804586"
        height="26.354992"
        width="44.069145"
        id="rect387"
        fill="#666666"
        stroke-width="10.51166344"
      />
      <rect
        transform="matrix(1,0,-0.07620418,0.99709223,0,0)"
        id="rect389"
        width="52.155472"
        height="9.6669025"
        x="9.0157423"
        y="25.809875"
        fill="#333333"
        stroke-width="10.43184376"
      />
      <rect
        id="rect391"
        width="4.680604"
        height="2.0336654"
        x="56.739132"
        y="25.754074"
        transform="matrix(1,0,-0.08349269,0.99650839,0,0)"
        fill="#b3b3b3"
        stroke-width="10.43489933"
      />
      <rect
        transform="matrix(1,0,0.18738054,0.9822874,0,0)"
        id="rect393"
        width="8.3783693"
        height="26.34746"
        x="49.6763"
        y="0.0023791939"
        fill="#cccccc"
        stroke-width="10.51016331"
      />
      <rect
        transform="matrix(1,0,-0.07419928,0.99724343,0,0)"
        y="25.979439"
        x="61.109669"
        height="9.5415192"
        width="3.7990158"
        id="rect395"
        fill="#b3b3b3"
        stroke-width="10.43105221"
      />
      <rect
        id="rect397"
        width="4.0131898"
        height="9.562458"
        x="5.7807612"
        y="26.162411"
        transform="matrix(0.99973746,-0.02291303,-0.09434497,0.99553957,0,0)"
        fill="#b3b3b3"
        stroke-width="10.45270252"
      />
      <rect
        transform="matrix(1,0,-0.08085461,0.99672591,0,0)"
        y="25.942169"
        x="9.3664446"
        height="2.0332215"
        width="4.531724"
        id="rect399"
        fill="#b3b3b3"
        stroke-width="10.43376064"
      />
      <rect
        y="1.7848551e-15"
        x="0.87274688"
        height="26.004595"
        width="8.4027615"
        id="rect401"
        transform="matrix(1,0,0.09746751,0.99523871,0,0)"
        fill="#cccccc"
        stroke-width="10.44155407"
      />
      <rect
        transform="matrix(0.0917749,-0.99577978,0.09618291,0.99536368,0,0)"
        id="rect403"
        width="9.6938124"
        height="25.760004"
        x="-5.0015821"
        y="4.7723622"
        fill="#808080"
        stroke-width="24.08027267"
      />
    </g>
    <g
      id="g425"
      transform="matrix(0,-1.0000004,1.0000004,0.11024305,486.1827,87.47509)">
      <rect
        transform="matrix(1,0,0.18884669,0.98200658,0,0)"
        y="0.002379426"
        x="6.5804586"
        height="26.354992"
        width="44.069145"
        id="rect407"
        fill="#666666"
        stroke-width="10.51166344"
      />
      <rect
        transform="matrix(1,0,-0.07620418,0.99709223,0,0)"
        id="rect409"
        width="52.155472"
        height="9.6669025"
        x="9.0157423"
        y="25.809875"
        fill="#333333"
        stroke-width="10.43184376"
      />
      <rect
        id="rect411"
        width="4.680604"
        height="2.0336654"
        x="56.739132"
        y="25.754074"
        transform="matrix(1,0,-0.08349269,0.99650839,0,0)"
        fill="#b3b3b3"
        stroke-width="10.43489933"
      />
      <rect
        transform="matrix(1,0,0.18738054,0.9822874,0,0)"
        id="rect413"
        width="8.3783693"
        height="26.34746"
        x="49.6763"
        y="0.0023791939"
        fill="#cccccc"
        stroke-width="10.51016331"
      />
      <rect
        transform="matrix(1,0,-0.07419928,0.99724343,0,0)"
        y="25.979439"
        x="61.109669"
        height="9.5415192"
        width="3.7990158"
        id="rect415"
        fill="#b3b3b3"
        stroke-width="10.43105221"
      />
      <rect
        id="rect417"
        width="4.0131898"
        height="9.562458"
        x="5.7807612"
        y="26.162411"
        transform="matrix(0.99973746,-0.02291303,-0.09434497,0.99553957,0,0)"
        fill="#b3b3b3"
        stroke-width="10.45270252"
      />
      <rect
        transform="matrix(1,0,-0.08085461,0.99672591,0,0)"
        y="25.942169"
        x="9.3664446"
        height="2.0332215"
        width="4.531724"
        id="rect419"
        fill="#b3b3b3"
        stroke-width="10.43376064"
      />
      <rect
        y="1.7848551e-15"
        x="0.87274688"
        height="26.004595"
        width="8.4027615"
        id="rect421"
        transform="matrix(1,0,0.09746751,0.99523871,0,0)"
        fill="#cccccc"
        stroke-width="10.44155407"
      />
      <rect
        transform="matrix(0.0917749,-0.99577978,0.09618291,0.99536368,0,0)"
        id="rect423"
        width="9.6938124"
        height="25.760004"
        x="-5.0015821"
        y="4.7723622"
        fill="#808080"
        stroke-width="24.08027267"
      />
    </g>
    <g
      transform="matrix(0,-1.0000004,1.0000004,0.11024305,544.6346,89.68082)"
      id="g445">
      <rect
        id="rect427"
        width="44.069145"
        height="26.354992"
        x="6.5804586"
        y="0.002379426"
        transform="matrix(1,0,0.18884669,0.98200658,0,0)"
        fill="#666666"
        stroke-width="10.51166344"
      />
      <rect
        y="25.809875"
        x="9.0157423"
        height="9.6669025"
        width="52.155472"
        id="rect429"
        transform="matrix(1,0,-0.07620418,0.99709223,0,0)"
        fill="#333333"
        stroke-width="10.43184376"
      />
      <rect
        transform="matrix(1,0,-0.08349269,0.99650839,0,0)"
        y="25.754074"
        x="56.739132"
        height="2.0336654"
        width="4.680604"
        id="rect431"
        fill="#b3b3b3"
        stroke-width="10.43489933"
      />
      <rect
        y="0.0023791939"
        x="49.6763"
        height="26.34746"
        width="8.3783693"
        id="rect433"
        transform="matrix(1,0,0.18738054,0.9822874,0,0)"
        fill="#cccccc"
        stroke-width="10.51016331"
      />
      <rect
        id="rect435"
        width="3.7990158"
        height="9.5415192"
        x="61.109669"
        y="25.979439"
        transform="matrix(1,0,-0.07419928,0.99724343,0,0)"
        fill="#b3b3b3"
        stroke-width="10.43105221"
      />
      <rect
        transform="matrix(0.99973746,-0.02291303,-0.09434497,0.99553957,0,0)"
        y="26.162411"
        x="5.7807612"
        height="9.562458"
        width="4.0131898"
        id="rect437"
        fill="#b3b3b3"
        stroke-width="10.45270252"
      />
      <rect
        id="rect439"
        width="4.531724"
        height="2.0332215"
        x="9.3664446"
        y="25.942169"
        transform="matrix(1,0,-0.08085461,0.99672591,0,0)"
        fill="#b3b3b3"
        stroke-width="10.43376064"
      />
      <rect
        transform="matrix(1,0,0.09746751,0.99523871,0,0)"
        id="rect441"
        width="8.4027615"
        height="26.004595"
        x="0.87274688"
        y="1.7848551e-15"
        fill="#cccccc"
        stroke-width="10.44155407"
      />
      <rect
        y="4.7723622"
        x="-5.0015821"
        height="25.760004"
        width="9.6938124"
        id="rect443"
        transform="matrix(0.0917749,-0.99577978,0.09618291,0.99536368,0,0)"
        fill="#808080"
        stroke-width="24.08027267"
      />
    </g>
    <g
      id="g487"
      transform="matrix(0,-2.7893173,1.9648858,0.30750272,632.0286,339.69148)"
      stroke-width="0.42715213">
      <rect
        transform="matrix(1,0,0.18884669,0.98200658,0,0)"
        y="0.002379426"
        x="6.5804586"
        height="26.354992"
        width="44.069145"
        id="rect467"
        fill="#ffdd55"
        stroke-width="4.4900794"
      />
      <rect
        transform="matrix(1,0,-0.07620418,0.99709223,0,0)"
        id="rect469"
        width="52.155472"
        height="9.6669025"
        x="9.0157423"
        y="25.809875"
        fill="#d4aa00"
        stroke-width="4.45598459"
      />
      <rect
        id="rect471"
        width="4.680604"
        height="2.0336654"
        x="56.739132"
        y="25.754074"
        transform="matrix(1,0,-0.08349269,0.99650839,0,0)"
        fill="#b3b3b3"
        stroke-width="4.4572897"
      />
      <rect
        transform="matrix(1,0,0.18738054,0.9822874,0,0)"
        id="rect473"
        width="8.3783693"
        height="26.34746"
        x="49.6763"
        y="0.0023791939"
        fill="#cccccc"
        stroke-width="4.48943853"
      />
      <rect
        transform="matrix(1,0,-0.07419928,0.99724343,0,0)"
        y="25.979439"
        x="61.109669"
        height="9.5415192"
        width="3.7990158"
        id="rect475"
        fill="#b3b3b3"
        stroke-width="4.45564604"
      />
      <rect
        id="rect477"
        width="4.0131898"
        height="9.562458"
        x="5.7807612"
        y="26.162411"
        transform="matrix(0.99973746,-0.02291303,-0.09434497,0.99553957,0,0)"
        fill="#b3b3b3"
        stroke-width="4.46489429"
      />
      <rect
        transform="matrix(1,0,-0.08085461,0.99672591,0,0)"
        y="25.942169"
        x="9.3664446"
        height="2.0332215"
        width="4.531724"
        id="rect479"
        fill="#b3b3b3"
        stroke-width="4.45680285"
      />
      <rect
        y="1.7848551e-15"
        x="0.87274688"
        height="26.004595"
        width="8.4027615"
        id="rect481"
        transform="matrix(1,0,0.09746751,0.99523871,0,0)"
        fill="#cccccc"
        stroke-width="4.46013212"
      />
      <rect
        transform="matrix(0.0917749,-0.99577978,0.09618291,0.99536368,0,0)"
        id="rect483"
        width="9.6938124"
        height="25.760004"
        x="-5.0015821"
        y="4.7723622"
        fill="#808080"
        stroke-width="10.28593922"
      />
      <text
        transform="matrix(-0.75166629,1.3318525e-8,-0.3450658,-1.3303776,0,0)"
        x="-49.964214"
        y="-5.6700001"
        font-size="8.91711617"
        id="text485"
        font-family="OCRA"
        fill="#ff0000"
        stroke-width="0.42715213">106C</text>
      <rect
        y="0.0023636161"
        x="41.298023"
        height="26.17495"
        width="4.2620902"
        id="rect533"
        transform="matrix(1,0,0.14950251,0.98876135,0,0)"
        fill="#ff6600"
        stroke-width="4.47471714"
      />
      <rect
        transform="matrix(1,0,0.14950251,0.98876135,0,0)"
        id="rect535"
        width="4.2620902"
        height="26.17495"
        x="41.298023"
        y="0.0023636161"
        fill="#ff6600"
        stroke-width="4.47471714"
      />
    </g>
    <g
      transform="matrix(0,-2.7893173,1.9648858,0.30750272,540.007,339.69148)"
      id="g561"
      stroke-width="0.42715213">
      <rect
        id="rect537"
        width="44.069145"
        height="26.354992"
        x="6.5804586"
        y="0.002379426"
        transform="matrix(1,0,0.18884669,0.98200658,0,0)"
        fill="#ffdd55"
        stroke-width="4.4900794"
      />
      <rect
        y="25.809875"
        x="9.0157423"
        height="9.6669025"
        width="52.155472"
        id="rect539"
        transform="matrix(1,0,-0.07620418,0.99709223,0,0)"
        fill="#d4aa00"
        stroke-width="4.45598459"
      />
      <rect
        transform="matrix(1,0,-0.08349269,0.99650839,0,0)"
        y="25.754074"
        x="56.739132"
        height="2.0336654"
        width="4.680604"
        id="rect541"
        fill="#b3b3b3"
        stroke-width="4.4572897"
      />
      <rect
        y="0.0023791939"
        x="49.6763"
        height="26.34746"
        width="8.3783693"
        id="rect543"
        transform="matrix(1,0,0.18738054,0.9822874,0,0)"
        fill="#cccccc"
        stroke-width="4.48943853"
      />
      <rect
        id="rect545"
        width="3.7990158"
        height="9.5415192"
        x="61.109669"
        y="25.979439"
        transform="matrix(1,0,-0.07419928,0.99724343,0,0)"
        fill="#b3b3b3"
        stroke-width="4.45564604"
      />
      <rect
        transform="matrix(0.99973746,-0.02291303,-0.09434497,0.99553957,0,0)"
        y="26.162411"
        x="5.7807612"
        height="9.562458"
        width="4.0131898"
        id="rect547"
        fill="#b3b3b3"
        stroke-width="4.46489429"
      />
      <rect
        id="rect549"
        width="4.531724"
        height="2.0332215"
        x="9.3664446"
        y="25.942169"
        transform="matrix(1,0,-0.08085461,0.99672591,0,0)"
        fill="#b3b3b3"
        stroke-width="4.45680285"
      />
      <rect
        transform="matrix(1,0,0.09746751,0.99523871,0,0)"
        id="rect551"
        width="8.4027615"
        height="26.004595"
        x="0.87274688"
        y="1.7848551e-15"
        fill="#cccccc"
        stroke-width="4.46013212"
      />
      <rect
        y="4.7723622"
        x="-5.0015821"
        height="25.760004"
        width="9.6938124"
        id="rect553"
        transform="matrix(0.0917749,-0.99577978,0.09618291,0.99536368,0,0)"
        fill="#808080"
        stroke-width="10.28593922"
      />
      <text
        id="text555"
        font-size="8.91711617"
        y="-5.6700001"
        x="-49.964214"
        transform="matrix(-0.75166629,1.3318525e-8,-0.3450658,-1.3303776,0,0)"
        font-family="OCRA"
        fill="#ff0000"
        stroke-width="0.42715213">106C</text>
      <rect
        transform="matrix(1,0,0.14950251,0.98876135,0,0)"
        id="rect557"
        width="4.2620902"
        height="26.17495"
        x="41.298023"
        y="0.0023636161"
        fill="#ff6600"
        stroke-width="4.47471714"
      />
      <rect
        y="0.0023636161"
        x="41.298023"
        height="26.17495"
        width="4.2620902"
        id="rect559"
        transform="matrix(1,0,0.14950251,0.98876135,0,0)"
        fill="#ff6600"
        stroke-width="4.47471714"
      />
    </g>
    <g
      id="g587"
      transform="matrix(-2.7893173,0,0.30750272,-1.9648858,219.10994,399.5566)"
      stroke-width="0.42715213">
      <rect
        transform="matrix(1,0,0.18884669,0.98200658,0,0)"
        y="0.002379426"
        x="6.5804586"
        height="26.354992"
        width="44.069145"
        id="rect563"
        fill="#ffdd55"
        stroke-width="4.4900794"
      />
      <rect
        transform="matrix(1,0,-0.07620418,0.99709223,0,0)"
        id="rect565"
        width="52.155472"
        height="9.6669025"
        x="9.0157423"
        y="25.809875"
        fill="#d4aa00"
        stroke-width="4.45598459"
      />
      <rect
        id="rect567"
        width="4.680604"
        height="2.0336654"
        x="56.739132"
        y="25.754074"
        transform="matrix(1,0,-0.08349269,0.99650839,0,0)"
        fill="#b3b3b3"
        stroke-width="4.4572897"
      />
      <rect
        transform="matrix(1,0,0.18738054,0.9822874,0,0)"
        id="rect569"
        width="8.3783693"
        height="26.34746"
        x="49.6763"
        y="0.0023791939"
        fill="#cccccc"
        stroke-width="4.48943853"
      />
      <rect
        transform="matrix(1,0,-0.07419928,0.99724343,0,0)"
        y="25.979439"
        x="61.109669"
        height="9.5415192"
        width="3.7990158"
        id="rect571"
        fill="#b3b3b3"
        stroke-width="4.45564604"
      />
      <rect
        id="rect573"
        width="4.0131898"
        height="9.562458"
        x="5.7807612"
        y="26.162411"
        transform="matrix(0.99973746,-0.02291303,-0.09434497,0.99553957,0,0)"
        fill="#b3b3b3"
        stroke-width="4.46489429"
      />
      <rect
        transform="matrix(1,0,-0.08085461,0.99672591,0,0)"
        y="25.942169"
        x="9.3664446"
        height="2.0332215"
        width="4.531724"
        id="rect575"
        fill="#b3b3b3"
        stroke-width="4.45680285"
      />
      <rect
        y="1.7848551e-15"
        x="0.87274688"
        height="26.004595"
        width="8.4027615"
        id="rect577"
        transform="matrix(1,0,0.09746751,0.99523871,0,0)"
        fill="#cccccc"
        stroke-width="4.46013212"
      />
      <rect
        transform="matrix(0.0917749,-0.99577978,0.09618291,0.99536368,0,0)"
        id="rect579"
        width="9.6938124"
        height="25.760004"
        x="-5.0015821"
        y="4.7723622"
        fill="#808080"
        stroke-width="10.28593922"
      />
      <text
        transform="matrix(-0.75166629,1.3318525e-8,-0.3450658,-1.3303776,0,0)"
        x="-49.964214"
        y="-5.6700001"
        font-size="8.91711617"
        id="text581"
        font-family="OCRA"
        fill="#ff0000"
        stroke-width="0.42715213">106C</text>
      <rect
        y="0.0023636161"
        x="41.298023"
        height="26.17495"
        width="4.2620902"
        id="rect583"
        transform="matrix(1,0,0.14950251,0.98876135,0,0)"
        fill="#ff6600"
        stroke-width="4.47471714"
      />
      <rect
        transform="matrix(1,0,0.14950251,0.98876135,0,0)"
        id="rect585"
        width="4.2620902"
        height="26.17495"
        x="41.298023"
        y="0.0023636161"
        fill="#ff6600"
        stroke-width="4.47471714"
      />
    </g>
    <g
      transform="matrix(0.61349935,0,0,0.67223916,284.62528,209.86271)"
      id="soic-14"
      stroke-width="1.55715215">
      <rect
        id="rect20"
        connectorname="1"
        x="38.084389"
        y="161.14415"
        width="31.0674"
        height="48.04652"
        fill="#8c8c8c"
        stroke="none"
        stroke-width="0"
        stroke-linecap="round"
      />
      <rect
        id="rect22"
        connectorname="2"
        x="87.337662"
        y="161.14415"
        width="31.0674"
        height="48.04652"
        fill="#8c8c8c"
        stroke="none"
        stroke-width="0"
        stroke-linecap="round"
      />
      <rect
        id="rect24"
        connectorname="3"
        x="136.59074"
        y="161.14415"
        width="31.0674"
        height="48.04652"
        fill="#8c8c8c"
        stroke="none"
        stroke-width="0"
        stroke-linecap="round"
      />
      <rect
        id="rect26"
        connectorname="4"
        x="185.84436"
        y="161.14415"
        width="31.0674"
        height="48.04652"
        fill="#8c8c8c"
        stroke="none"
        stroke-width="0"
        stroke-linecap="round"
      />
      <rect
        id="rect28"
        connectorname="5"
        x="185.84436"
        y="-2.8421709e-14"
        width="31.0674"
        height="29.911301"
        fill="#8c8c8c"
        stroke="none"
        stroke-width="0"
        stroke-linecap="round"
      />
      <rect
        id="rect30"
        connectorname="6"
        x="136.59074"
        y="-2.8421709e-14"
        width="31.0674"
        height="29.911301"
        fill="#8c8c8c"
        stroke="none"
        stroke-width="0"
        stroke-linecap="round"
      />
      <rect
        id="rect32"
        connectorname="7"
        x="87.337662"
        y="-2.8421709e-14"
        width="31.0674"
        height="29.911301"
        fill="#8c8c8c"
        stroke="none"
        stroke-width="0"
        stroke-linecap="round"
      />
      <rect
        id="rect34"
        connectorname="8"
        x="38.084389"
        y="-2.8421709e-14"
        width="31.0674"
        height="29.911301"
        fill="#8c8c8c"
        stroke="none"
        stroke-width="0"
        stroke-linecap="round"
      />
      <rect
        id="rect90"
        connectorname="1"
        x="241.30363"
        y="-2.8421709e-14"
        width="31.0674"
        height="29.911301"
        fill="#8c8c8c"
        stroke="none"
        stroke-width="0"
        stroke-linecap="round"
      />
      <rect
        id="rect92"
        connectorname="2"
        x="290.55704"
        y="-2.8421709e-14"
        width="31.0674"
        height="29.911301"
        fill="#8c8c8c"
        stroke="none"
        stroke-width="0"
        stroke-linecap="round"
      />
      <rect
        id="rect94"
        connectorname="3"
        x="339.74179"
        y="-2.8421709e-14"
        width="31.075167"
        height="29.911301"
        fill="#8c8c8c"
        stroke="none"
        stroke-width="0"
        stroke-linecap="round"
      />
      <rect
        height="48.04652"
        width="31.0674"
        y="161.3326"
        x="241.30888"
        connectorname="1"
        id="rect50"
        fill="#8c8c8c"
        stroke="none"
        stroke-width="0"
        stroke-linecap="round"
      />
      <rect
        height="48.04652"
        width="31.0674"
        y="161.3326"
        x="290.56229"
        connectorname="2"
        id="rect52"
        fill="#8c8c8c"
        stroke="none"
        stroke-width="0"
        stroke-linecap="round"
      />
      <rect
        height="48.04652"
        width="31.0674"
        y="161.3326"
        x="339.81519"
        connectorname="3"
        id="rect54"
        fill="#8c8c8c"
        stroke="none"
        stroke-width="0"
        stroke-linecap="round"
      />
      <rect
        id="rect38"
        x="3.0391855e-06"
        y="26.225056"
        width="403.496"
        height="161.91702"
        fill="#4d4d4d"
        stroke="none"
        stroke-width="0"
      />
      <circle
        id="circle48"
        cy="149.58559"
        cx="47.434719"
        r="12"
        fill="#1f1f1f"
        stroke="none"
        stroke-width="0"
      />
      <rect
        id="rect29"
        width="379.26639"
        height="31.320005"
        x="-32.165516"
        y="41.501492"
        transform="matrix(1,0,0.77504479,0.6319063,0,0)"
        fill="#1f1f1f"
        stroke-width="20.40485573"
      />
      <rect
        id="rect33-4"
        width="31.667971"
        height="141.79539"
        x="511.33755"
        y="390.15579"
        transform="matrix(0.74219909,-0.67017946,0,1,0,0)"
        fill="#3d3d3d"
        stroke-width="18.82780647"
      />
      <rect
        transform="matrix(1,0,0.77504479,0.6319063,0,0)"
        y="266.4173"
        x="-206.48526"
        height="31.320005"
        width="379.26639"
        id="rect31-3"
        fill="#1f1f1f"
        stroke-width="20.40485573"
      />
      <rect
        id="rect35-0"
        width="30.338385"
        height="142.04903"
        x="0.51771969"
        y="25.795029"
        transform="matrix(0.77449196,0.63258375,0,1,0,0)"
        fill="#333333"
        stroke-width="18.43110466"
      />
      <rect
        id="rect43"
        width="23.211273"
        height="33.069016"
        x="-275.24142"
        y="281.29486"
        transform="matrix(-1,0,-0.80113402,0.59848499,0,0)"
        fill="#1a1a1a"
        stroke-width="20.96684837"
      />
    </g>
    <circle
      r="21"
      cy="281.27094"
      cx="349.14313"
      id="path691"
      fill="#b3b3b3"
      fill-opacity="1"
      stroke-width="10.41666985"
    />
    <circle
      id="circle693"
      cx="490.29489"
      cy="269.05215"
      r="5"
      fill="#b3b3b3"
      fill-opacity="1"
      stroke-width="10.41666985"
    />
    <circle
      r="5"
      cy="300.51508"
      cx="490.68484"
      id="circle695"
      fill="#b3b3b3"
      fill-opacity="1"
      stroke-width="10.41666985"
    />
    <rect
      y="245.92599"
      x="409.97092"
      height="73.305344"
      width="43.671268"
      id="rect697"
      fill="#333333"
      fill-opacity="1"
      stroke-width="10.41666985"
    />
    <g
      id="sot23"
      transform="translate(-218.5833,1361.777)">
      <rect
        transform="rotate(90)"
        height="16.915585"
        x="-1300.665"
        width="14.725513"
        y="-634.64001"
        id="rect8"
        fill="#8c8c8c"
        stroke="none"
        stroke-width="0"
        stroke-linecap="round"
      />
      <rect
        transform="rotate(90)"
        height="19.517982"
        x="-1270.5325"
        width="19.794498"
        y="-565.68805"
        id="rect10"
        fill="#8c8c8c"
        stroke="none"
        stroke-width="0"
        stroke-linecap="round"
      />
      <rect
        transform="rotate(90)"
        height="19.517982"
        x="-1346.3937"
        width="21.354189"
        y="-565.68805"
        id="rect12"
        fill="#8c8c8c"
        stroke="none"
        stroke-width="0"
        stroke-linecap="round"
      />
      <rect
        transform="rotate(90)"
        height="63.706696"
        x="-1355.8823"
        width="128.2798"
        y="-622.28473"
        id="rect14"
        fill="#4d4d4d"
        stroke="none"
        stroke-width="0"
      />
      <circle
        r="6.1999998"
        transform="rotate(90)"
        cx="-1332.6418"
        cy="-577.31537"
        id="circle24"
        fill="#1f1f1f"
        stroke="none"
        stroke-width="0"
      />
      <rect
        transform="matrix(0,1,-0.51648275,0.85629759,0,0)"
        y="-1204.4595"
        x="-324.82791"
        height="12.092862"
        width="117.90417"
        id="rect25-1"
        fill="#333333"
        stroke-width="23.88698769"
      />
      <rect
        transform="matrix(0,1,-0.49882036,-0.8667054,0,0)"
        y="-1132.5106"
        x="-2326.6626"
        height="12.521051"
        width="117.42773"
        id="rect31-8"
        fill="#333333"
        stroke-width="24.30620956"
      />
      <rect
        transform="matrix(0.45502818,0.89047704,-1,0,0,0)"
        y="-1249.2294"
        x="-1390.7415"
        height="57.735729"
        width="12.208253"
        id="rect29-2"
        fill="#000000"
        stroke-width="18.19189644"
      />
      <rect
        transform="matrix(-0.50345676,0.86402042,-1,0,0,0)"
        y="167.68996"
        x="-1569.3735"
        height="57.301662"
        width="12.582073"
        id="rect27-7"
        fill="#000000"
        stroke-width="18.46831512"
      />
    </g>
    <text
      id="text239"
      y="175.75272"
      x="398.94363"
      font-size="25"
      gorn="0.4.1.10.1"
      font-family="OCRA"
      text-anchor="middle"
      fill="#ffffff">MAX30102</text>
    <g
      id="soic6"
      transform="matrix(1.982529,0,0,1,27.348208,115.71471)">
      <rect
        id="rect20-3"
        connectorname="1"
        x="12.570908"
        y="84.375"
        width="8.0711327"
        height="20.078751"
        fill="#b3b3b3"
        stroke="none"
        stroke-width="0"
        stroke-linecap="round"
      />
      <rect
        id="rect22-3"
        connectorname="2"
        x="25.366625"
        y="84.375"
        width="8.0711327"
        height="20.078751"
        fill="#b3b3b3"
        stroke="none"
        stroke-width="0"
        stroke-linecap="round"
      />
      <rect
        id="rect24-9"
        connectorname="3"
        x="38.162296"
        y="84.375"
        width="8.0711327"
        height="20.078751"
        fill="#b3b3b3"
        stroke="none"
        stroke-width="0"
        stroke-linecap="round"
      />
      <rect
        id="rect30-6"
        connectorname="6"
        x="38.162296"
        y="0"
        width="8.0711327"
        height="20.078751"
        fill="#b3b3b3"
        stroke="none"
        stroke-width="0"
        stroke-linecap="round"
      />
      <rect
        id="rect32-7"
        connectorname="7"
        x="25.366625"
        y="0"
        width="8.0711327"
        height="20.078751"
        fill="#b3b3b3"
        stroke="none"
        stroke-width="0"
        stroke-linecap="round"
      />
      <rect
        id="rect34-9"
        connectorname="8"
        x="12.570908"
        y="0"
        width="8.0711327"
        height="20.078751"
        fill="#b3b3b3"
        stroke="none"
        stroke-width="0"
        stroke-linecap="round"
      />
      <rect
        id="rect36"
        connectorname="EP"
        x="8.6651573"
        y="26.788265"
        width="43.442879"
        height="51.181"
        fill="#8c8c8c"
        stroke="none"
        stroke-width="0"
        stroke-linecap="round"
      />
      <rect
        id="rect38-1"
        x="0"
        y="18.546108"
        width="57.14719"
        height="67.665497"
        fill="#4d4d4d"
        stroke="none"
        stroke-width="0"
      />
      <polygon
        transform="matrix(0.42439016,0,0,0.5,0,-4.8303836)"
        id="polygon40"
        points="124.654,56.9016 10,56.9016 0,46.9016 134.654,46.9016 "
        fill="#333333"
        stroke-width="1.08541846"
      />
      <polygon
        transform="matrix(0.42440021,0,0,0.5,4.0201975e-6,-4.9046893)"
        id="polygon42"
        points="134.654,182.232 124.654,172.232 10,172.232 0,182.232 "
        fill="#808080"
        stroke-width="1.08541846"
      />
      <polygon
        transform="matrix(0.42440021,0,0,0.5,0,-4.9426584)"
        id="polygon44"
        points="0,46.9016 0,182.232 10,172.232 10,56.9016 "
        fill="#666666"
        stroke-width="1.08541846"
      />
      <polygon
        transform="matrix(0.42440021,0,0,0.5,4.0201975e-6,-4.9046893)"
        id="polygon46"
        points="134.654,182.232 124.654,172.232 124.654,56.9016 134.654,46.9016 "
        fill="#666666"
        stroke-width="1.08541846"
      />
      <circle
        r="4"
        id="circle48-1"
        cy="71.211304"
        cx="12.732006"
        fill="#1f1f1f"
        stroke="none"
        stroke-width="0"
      />
    </g>
    <circle
      id="circle307"
      cx="66.382767"
      cy="44.46595"
      r="30"
      fill="#ffffff"
      stroke-width="0"
    />
    <circle
      r="30"
      cy="44.46595"
      cx="640.34381"
      id="circle309"
      fill="#ffffff"
      stroke-width="0"
    />
    <circle
      id="connector0pin"
      cx="55.613754"
      cy="493.25247"
      r="20"
      fill="#ffffff"
      stroke-width="0"
    />
    <circle
      cy="493.38956"
      cx="155.7487"
      id="connector1pin"
      r="20"
      fill="#ffffff"
      stroke-width="0"
    />
    <circle
      id="connector2pin"
      cx="255.7487"
      cy="493.38956"
      r="20"
      fill="#ffffff"
      stroke-width="0"
    />
    <circle
      cy="493.38956"
      cx="355.74869"
      id="connector3pin"
      r="20"
      fill="#ffffff"
      stroke-width="0"
    />
    <circle
      id="connector4pin"
      cx="455.74875"
      cy="493.38956"
      r="20"
      fill="#ffffff"
      stroke-width="0"
    />
    <circle
      cy="493.38956"
      cx="555.74884"
      id="connector5pin"
      r="20"
      fill="#ffffff"
      stroke-width="0"
    />
    <circle
      id="connector6pin"
      cx="655.74884"
      cy="493.38956"
      r="20"
      fill="#ffffff"
      stroke-width="0"
    />
  </g>
</svg>
