<?xml version='1.0' encoding='UTF-8'?>
<svg xmlns="http://www.w3.org/2000/svg"  viewBox="0 0 230.64 143.14" gorn="0" id="a" data-name="Layer 1" width="230.64" height="143.14">
    <desc >
        <referenceFile >nextion.svg</referenceFile>
    </desc>
    <g  gorn="0.1" id="b" data-name="breadboard">
        <rect style="fill: #035ba9; stroke-width: 0px;"  gorn="0.1.0" id="c" data-name="rect8384" width="230.64" height="143.14"/>
        <circle style="fill: #fff; stroke-width: 0px;"  cy="133.92" gorn="0.1.1" cx="6.52" id="d" data-name="circle4189" r="4.25"/>
        <circle style="fill: #fff; stroke-width: 0px;"  cy="9.2" gorn="0.1.2" cx="221.95" id="e" data-name="circle4185" r="4.25"/>
        <circle style="fill: #fff; stroke-width: 0px;"  cy="9.2" gorn="0.1.3" cx="6.52" id="f" data-name="circle4173" r="4.25"/>
        <circle style="fill: #fff; stroke-width: 0px;"  cy="133.92" gorn="0.1.4" cx="221.95" id="g" data-name="circle4187" r="4.25"/>
        <circle style="fill: #fff; stroke: #9a916c; stroke-width: 1.8px;"  cy="62.92" gorn="0.1.5" cx="221.76" id="connector0pin" data-name="connector18pin" r="2.27"/>
        <circle style="fill: #fff; stroke: #9a916c; stroke-width: 1.8px;"  cy="77.32" gorn="0.1.6" cx="221.76" id="connector2pin" data-name="connector16pin" r="2.27"/>
        <circle style="fill: #fff; stroke: #9a916c; stroke-width: 1.8px;"  cy="84.52" gorn="0.1.7" cx="221.76" id="connector3pin" data-name="connector15pin" r="2.27"/>
        <circle style="fill: #fff; stroke: #9a916c; stroke-width: 1.8px;"  cy="70.12" gorn="0.1.8" cx="221.76" id="connector1pin" data-name="connector17pin" r="2.27"/>
        <rect style="fill: #4d4d4d; stroke-width: 0px;"  y="0" gorn="0.1.9" id="l" data-name="rect9003" x="14.93" width="198.43" height="143.14"/>
        <rect style="fill: #231f20; stroke-width: 0px;"  y="3.33" x="18" width="191.67" height="136.67"/>
        <rect style="fill: #a98b30; stroke-width: 0px;"  y="23.33" x="11.77" width="3.97" height="28"/>
    </g>
    <g >
        <path style="fill: #fff; stroke-width: 0px;"  d="M80.57,80.63c-4.65,0-9.31.02-13.96,0-4.22-.02-5.86-2.99-3.73-6.66,10.08-17.43,20.14-34.87,30.2-52.3,1.06-1.83,2.48-2.84,4.73-2.82,9.31.08,18.61.04,27.92.08,4.32.02,5.81,2.61,3.65,6.38-10.05,17.51-20.14,34.99-30.18,52.51-1.17,2.05-2.7,2.93-5.08,2.87-4.51-.13-9.04-.04-13.55-.04ZM126.95,22.5c-.34-.22-.45-.35-.56-.35-9.51-.02-19.01-.05-28.52,0-.55,0-1.29.6-1.61,1.13-1.88,3.11-3.67,6.28-5.49,9.43-7.35,12.7-14.71,25.4-22.05,38.11-1.15,1.99-2.24,4.01-3.48,6.23.77.08,1.09.15,1.42.15,9.17,0,18.35.04,27.52-.05.72,0,1.71-.72,2.1-1.39,9.62-16.53,19.19-33.09,28.75-49.66.69-1.19,1.3-2.42,1.94-3.6Z"/>
        <path style="fill: #fff; stroke-width: 0px;"  d="M117.12,80.65c-2.77,0-5.53.03-8.3,0-3.07-.04-4.41-2.23-2.89-4.89,6.18-10.83,12.4-21.63,18.7-32.38.49-.83,1.77-1.66,2.7-1.69,5.93-.17,11.87-.19,17.81-.1,2.72.04,3.93,2.48,2.53,4.92-4.52,7.89-9.08,15.76-13.63,23.63-1.65,2.86-3.34,5.69-4.94,8.57-.74,1.33-1.77,1.94-3.27,1.93-2.9-.03-5.8,0-8.7,0,0,0,0,.02,0,.03ZM144.53,45.03c-5.31,0-10.2.04-15.09-.03-1.4-.02-2.18.49-2.87,1.7-4.59,8.07-9.26,16.09-13.9,24.13-1.16,2.01-2.29,4.03-3.62,6.36,5.64,0,10.88.03,16.11-.05.5,0,1.14-.62,1.45-1.12,1.34-2.17,2.59-4.4,3.87-6.62,4.6-7.98,9.2-15.95,14.05-24.37Z"/>
        <path style="fill: #fff; stroke-width: 0px;"  d="M155.14,54.43c1.42,0,2.85.14,4.24-.03,3.58-.44,5.02,1.98,3,5.2-2.9,4.61-5.5,9.41-8.23,14.13-.94,1.63-1.96,3.23-2.79,4.91-.69,1.4-1.74,2-3.21,2-3.57,0-7.14.04-10.71-.04-2.46-.06-3.5-1.88-2.27-4.05,3.91-6.91,7.85-13.8,11.91-20.61.45-.75,1.68-1.32,2.62-1.44,1.79-.23,3.63-.07,5.45-.07ZM159.27,57.85c-2.82,0-5.21.08-7.6-.03-1.34-.06-2.08.42-2.72,1.56-2.14,3.81-4.38,7.57-6.54,11.36-1.14,2.01-2.22,4.05-3.53,6.46,3.19,0,5.94.06,8.67-.06.48-.02,1.07-.75,1.38-1.28,2.12-3.59,4.19-7.21,6.26-10.83,1.29-2.25,2.56-4.51,4.08-7.19Z"/>
        <path style="fill: #fff; stroke-width: 0px;"  d="M85.86,91.74c-.5,2.76-1.08,3.34-3.37,3.35-3.71.03-7.41.03-11.12,0-1.03,0-1.65.17-1.67,1.41-.02,1.3.71,1.4,1.68,1.4,3.84-.01,7.68,0,11.53,0,.92,0,1.85,0,2.78,0-.05,2.62-.8,3.42-3.02,3.43-3.71.01-7.41.04-11.12-.01-1.56-.02-2.14.49-1.44,2.33h16.17c-.7,2.09-1.36,3.45-3.66,3.37-4.11-.14-8.22-.01-12.33-.04-2.92-.02-3.98-1.11-3.99-4.07-.01-2.63-.01-5.26,0-7.89,0-1.8.88-3.17,2.67-3.21,5.57-.13,11.15-.05,16.9-.05Z"/>
        <path style="fill: #fff; stroke-width: 0px;"  d="M149.76,91.76c3.19-.3,6.19,0,8.39,2.78,1.91,2.41,2.18,5.07,1.07,7.78-1.07,2.6-3.17,4.25-6,4.49-2.4.2-4.86.2-7.25-.07-3.61-.41-6.22-3.65-6.21-7.32.01-3.96,2.64-7.16,6.37-7.64,1.19-.15,2.42-.02,3.63-.02ZM149.65,102.96s0,.02,0,.03c.81,0,1.62.03,2.43,0,2.18-.1,3.74-1.64,3.76-3.68.02-1.96-1.42-3.49-3.59-3.61-1.75-.1-3.51-.1-5.26.03-1.9.14-3.31,1.85-3.28,3.71.03,1.66,1.6,3.36,3.31,3.51.87.07,1.75.01,2.63.01Z"/>
        <path style="fill: #fff; stroke-width: 0px;"  d="M58.69,102.99v-10.98c3.24-.76,3.43-.62,3.43,2.44,0,3.1.09,6.2-.09,9.29-.06.99-.6,2.24-1.35,2.82-1.15.89-2.38.14-3.42-.74-3.65-3.08-7.32-6.12-11-9.17-.24-.2-.54-.31-1.17-.67,0,3.05.02,5.77,0,8.49-.01,1.16.33,2.54-1.66,2.51-1.83-.03-1.58-1.28-1.59-2.39-.03-3.3-.12-6.61.02-9.9.04-.94.57-2.3,1.28-2.64.7-.34,2.13.05,2.86.62,4.12,3.22,8.13,6.58,12.71,10.32Z"/>
        <path style="fill: #fff; stroke-width: 0px;"  d="M180.32,102.99v-11.05c3.03-.5,3.2-.36,3.19,2.29,0,3.17.1,6.34-.08,9.5-.06.99-.64,2.41-1.4,2.78-.76.36-2.28-.04-3.04-.64-4.01-3.15-7.9-6.46-12.07-9.92-.11.74-.23,1.23-.24,1.71-.04,2.43-.06,4.85-.05,7.28,0,1.16,0,2.09-1.65,2.08-1.53-.01-1.77-.71-1.75-1.99.06-3.44-.07-6.88.08-10.31.04-.93.59-2.36,1.26-2.62.83-.32,2.27.04,3.04.63,3.67,2.83,7.21,5.84,10.79,8.78.49.4,1,.78,1.92,1.49Z"/>
        <path style="fill: #fff; stroke-width: 0px;"  d="M89.06,106.69c2.64-2.64,4.9-4.91,7.78-7.79-2.54-2.29-4.99-4.5-7.69-6.92,2.32-.46,4.17-.76,5.66,1.07,1.14,1.4,2.34,2.76,3.44,4.06,3.59-1.91,4.85-6.81,9.97-5.11-1.71,2.93-4.78,4.57-6.73,7.4,2.22,2.28,4.43,4.55,7,7.18-2.34.41-4.02.86-5.59-.86-1.23-1.35-2.72-3.34-4.15-3.38-1.29-.04-2.73,2.09-3.97,3.4-1.48,1.56-3.18,1.33-5.72.94Z"/>
        <path style="fill: #fff; stroke-width: 0px;"  d="M109.37,95.08c1.47-2.01,2.34-3.51,4.67-3.44,4.58.12,9.17.06,13.75.02,1.26-.01,2,.18,2,1.74,0,1.6-.78,1.74-2.02,1.69-1.62-.06-3.24.04-4.85-.03-1.25-.06-1.66.48-1.64,1.67.04,2.7-.03,5.4,0,8.09.02,1.28-.08,2.2-1.8,2.17-1.61-.03-1.68-.88-1.66-2.08.04-2.7-.05-5.4.03-8.09.04-1.34-.47-1.79-1.77-1.75-2.05.07-4.1.02-6.71.02Z"/>
        <path style="fill: #fff; stroke-width: 0px;"  d="M132.91,99.06c0-1.95.07-3.91-.03-5.85-.06-1.29.46-1.65,1.64-1.61,1.03.04,1.85.08,1.83,1.47-.06,4.17-.06,8.34-.05,12.51,0,1.05-.45,1.42-1.48,1.35-.99-.06-1.93-.02-1.92-1.43.02-2.15,0-4.31,0-6.46,0,0,0,0,0,0Z"/>
    </g>
</svg>
