<?xml version='1.0' encoding='UTF-8' standalone='no'?>
<svg
  xmlns:dc="http://purl.org/dc/elements/1.1/"
  xmlns:cc="http://creativecommons.org/ns#"
  xmlns:rdf="http://www.w3.org/1999/02/22-rdf-syntax-ns#"
  xmlns:svg="http://www.w3.org/2000/svg"
  xmlns="http://www.w3.org/2000/svg"
  viewBox="0 0 413.38914 521.65318"
  y="0px"
  height="0.521653in"
  gorn="0"
  xml:space="preserve"
  version="1.1"
  width="0.413389in"
  x="0px"
  id="Layer_1"
  enable-background="new 0 0 29.764 37.559">
  <metadata
    id="metadata361">
    <rdf:RDF>
      <cc:Work
        rdf:about="">
        <dc:format>image/svg+xml</dc:format>
        <dc:type
          rdf:resource="http://purl.org/dc/dcmitype/StillImage"
        />
        <dc:title/>
      </cc:Work>
    </rdf:RDF>
  </metadata>
  <defs
    id="defs359">
                                                                                                                        </defs>
  <desc
    id="desc2">
    <referenceFile>prefix0000_cb49924e658c39db849202f8f44be578_1_breadboard.svg</referenceFile>
  </desc>
  <g
    id="breadboard">
    <path
      gorn="0.1.0"
      d="M 0,0.19356321 V 521.1735 H 413.38555 V 0.19356321 Z M 56.693986,484.65025 c -10.874912,0 -19.666507,-8.8083 -19.666507,-19.66957 0,-10.84739 8.791595,-19.64182 19.666507,-19.64182 10.874912,0 19.666508,8.79443 19.666508,19.64182 0,10.87514 -8.791596,19.66957 -19.666508,19.66957 z m -5.513844,-374.3737 c 0,-32.569917 26.444231,-58.980956 59.055078,-58.980956 32.69418,0 59.05508,26.411039 59.05508,58.980956 0,32.65314 -26.34701,58.99482 -59.05508,58.99482 -32.610847,0 -59.055078,-26.41103 -59.055078,-58.99482 z m 105.513038,374.3737 c -10.87491,0 -19.66651,-8.8083 -19.66651,-19.66957 0,-10.84739 8.7916,-19.64182 19.66651,-19.64182 10.77769,0 19.56928,8.79443 19.56928,19.64182 0.0972,10.87514 -8.69437,19.66957 -19.56928,19.66957 z m 99.99919,0 c -10.77769,0 -19.66651,-8.8083 -19.66651,-19.66957 0,-10.84739 8.88882,-19.64182 19.66651,-19.64182 10.87491,0 19.66651,8.79443 19.66651,19.64182 0,10.87514 -8.7916,19.66957 -19.66651,19.66957 z m 99.9853,0 c -10.87491,0 -19.6665,-8.8083 -19.6665,-19.66957 0,-10.84739 8.79159,-19.64182 19.6665,-19.64182 10.87491,0 19.66651,8.79443 19.66651,19.64182 0,10.87514 -8.7916,19.66957 -19.66651,19.66957 z"
      id="icon"
      fill="#672e58"
      stroke-width="13.88005733"
    />
    <text
      font-size="37.09584045"
      id="text5"
      transform="matrix(-5.2392768e-8,-0.99937222,1.0006282,-5.2327006e-8,0,0)"
      x="-414.61975"
      y="69.146263"
      font-family="DroidSans"
      fill="#ffffff"
      stroke-width="13.88005733">VIN</text>
    <text
      font-size="37.09584045"
      id="text65"
      transform="matrix(-5.2392768e-8,-0.99937222,1.0006282,-5.2327006e-8,0,0)"
      x="-414.61975"
      y="171.63339"
      font-family="DroidSans"
      fill="#ffffff"
      stroke-width="13.88005733">GND</text>
    <text
      font-size="37.09584045"
      id="text125"
      transform="matrix(-5.2392768e-8,-0.99937222,1.0006282,-5.2327006e-8,0,0)"
      x="-413.37265"
      y="264.86301"
      font-family="DroidSans"
      fill="#ffffff"
      stroke-width="13.88005733">SCL</text>
    <text
      font-size="37.09584045"
      id="text185"
      transform="matrix(-5.2392768e-8,-0.99937222,1.0006282,-5.2327006e-8,0,0)"
      x="-413.37265"
      y="365.95419"
      font-family="DroidSans"
      fill="#ffffff"
      stroke-width="13.88005733">SDA</text>
    <ellipse
      id="circle245"
      cy="464.99442"
      cx="56.693985"
      rx="27.555332"
      ry="27.520746"
      fill="none"
      stroke="#9a916c"
      stroke-width="16.6560688"
    />
    <rect
      y="437.47354"
      height="55.124722"
      gorn="0.1.5.0.1"
      width="55.124557"
      x="29.124763"
      id="connector0pin"
      fill="none"
      stroke="#9a916c"
      stroke-width="16.6560688"
    />
    <ellipse
      cy="464.99442"
      gorn="0.1.5.0.2"
      id="connector1pin"
      cx="156.69318"
      rx="27.555332"
      ry="27.520746"
      fill="none"
      stroke="#9a916c"
      stroke-width="16.6560688"
    />
    <ellipse
      cy="464.99442"
      gorn="0.1.5.0.3"
      id="connector2pin"
      cx="256.69238"
      rx="27.555332"
      ry="27.520746"
      fill="none"
      stroke="#9a916c"
      stroke-width="16.6560688"
    />
    <ellipse
      cy="464.99442"
      gorn="0.1.5.0.4"
      id="connector3pin"
      cx="356.67767"
      rx="27.555332"
      ry="27.520746"
      fill="none"
      stroke="#9a916c"
      stroke-width="16.6560688"
    />
    <rect
      id="rect253"
      y="310.53729"
      height="29.476606"
      width="29.513651"
      x="91.804817"
      fill="#ffffff"
      stroke-width="13.88005733"
    />
    <rect
      id="rect255"
      y="310.53729"
      height="29.476606"
      width="29.527538"
      x="199.74838"
      fill="#ffffff"
      stroke-width="13.88005733"
    />
    <text
      font-size="48.07218933"
      id="text257"
      x="44.679905"
      y="299.02481"
      transform="scale(1.0006282,0.99937222)"
      font-family="DroidSans"
      fill="#ffffff"
      stroke-width="13.88005733">BME/BMP280</text>
    <rect
      id="rect317"
      y="190.59172"
      height="58.980953"
      width="29.513651"
      x="184.97072"
      fill="#9a916c"
      stroke-width="13.88005733"
    />
    <rect
      id="rect319"
      y="190.59172"
      height="58.980953"
      width="29.513651"
      x="223.17876"
      fill="#9a916c"
      stroke-width="13.88005733"
    />
    <rect
      id="rect321"
      y="190.59172"
      height="58.980953"
      width="29.513651"
      x="259.81735"
      fill="#9a916c"
      stroke-width="13.88005733"
    />
    <path
      id="path323"
      d="m 110.23522,30.488578 c -44.055199,0 -79.888243,35.788068 -79.888243,79.787972 0,44.01377 35.833044,79.80184 79.888243,79.80184 44.0552,0 79.88824,-35.78807 79.88824,-79.80184 0,-43.999904 -35.84693,-79.787972 -79.88824,-79.787972 z m 0,138.782792 c -32.610847,0 -59.055078,-26.32781 -59.055078,-58.99482 0,-32.569917 26.444231,-58.980956 59.055078,-58.980956 32.69418,0 59.05508,26.411039 59.05508,58.980956 0,32.58379 -26.44423,58.99482 -59.05508,58.99482 z"
      fill="#9a916c"
      stroke-width="13.88005733"
    />
    <path
      d="m 344.53888,146.92464 c 0,5.39595 -4.41663,9.82091 -9.84714,9.82091 h -70.84665 c -5.49996,0 -9.83325,-4.42496 -9.83325,-9.82091 V 72.518751 c 0,-5.409825 4.34718,-9.820912 9.83325,-9.820912 h 70.86054 c 5.49995,0 9.84714,4.411087 9.84714,9.820912 z"
      id="path325"
      fill="#d9d9d9"
      stroke-width="13.88005733"
    />
    <path
      d="m 343.08056,145.7317 c 0,5.21563 -4.34719,9.50187 -9.55548,9.50187 h -68.56889 c -5.22218,0 -9.55548,-4.28624 -9.55548,-9.50187 V 73.725557 c 0,-5.229496 4.34719,-9.50187 9.55548,-9.50187 h 68.58278 c 5.24996,0 9.55548,4.272374 9.55548,9.50187 z"
      id="path327"
      fill="#b3b3b3"
      stroke-width="13.88005733"
    />
    <path
      d="m 339.70559,140.37737 c 0,5.47918 -4.34719,9.82091 -9.55548,9.82091 h -61.81895 c -5.23606,0 -9.51381,-4.34173 -9.51381,-9.82091 V 79.066025 c 0,-5.395953 4.27775,-9.820912 9.51381,-9.820912 h 61.84673 c 5.24995,0 9.55548,4.424959 9.55548,9.820912 z"
      id="path329"
      fill="#d9d9d9"
      stroke-width="13.88005733"
    />
    <path
      d="m 268.34505,146.27269 c -3.15275,0 -5.61106,-2.63556 -5.61106,-5.96468 V 78.996668 c 0,-3.176538 2.56942,-5.895321 5.61106,-5.895321 h 61.84673 c 3.18053,0 5.72217,2.635555 5.72217,5.895321 v 61.311342 c 0,3.23202 -2.58331,5.96468 -5.72217,5.96468 z"
      id="path331"
      fill="#b3b3b3"
      stroke-width="13.88005733"
    />
    <path
      d="m 281.7755,115.93606 h -8.59715 c -0.375,0 -0.70833,-0.13872 -0.97222,-0.41614 -0.29166,-0.27743 -0.41666,-0.59647 -0.41666,-0.92938 v -4.50819 c 0,-0.36065 0.18055,-0.69357 0.41666,-0.95712 0.29167,-0.27743 0.59722,-0.36066 0.97222,-0.36066 h 8.59715 c 0.33333,0 0.70833,0.13872 0.93055,0.36066 0.29166,0.2913 0.40277,0.59647 0.40277,0.98486 v 4.4527 c 0,0.34679 -0.13888,0.72131 -0.40277,0.94326 -0.22222,0.30517 -0.54166,0.43001 -0.93055,0.43001 z m -0.0556,-5.79822 h -8.47216 v 4.36947 h 8.47216 z"
      id="path333"
      fill="#ffffff"
      stroke-width="13.88005733"
    />
    <path
      d="m 281.69217,105.37996 h -3.49997 c -0.34722,0 -0.73611,-0.13871 -0.97222,-0.43001 -0.29166,-0.2913 -0.41666,-0.62421 -0.41666,-1.02648 h -4.23608 c -0.25,0 -0.375,-0.0694 -0.51388,-0.20807 -0.13889,-0.13871 -0.25,-0.30517 -0.25,-0.51324 v -2.91298 c 0,-0.1942 0.11111,-0.360654 0.25,-0.513239 0.13888,-0.138713 0.29166,-0.20807 0.51388,-0.20807 h 4.23608 c 0,-0.388397 0.13889,-0.762924 0.40277,-0.998737 0.29167,-0.291298 0.625,-0.430011 0.98611,-0.430011 h 3.56941 c 0.34722,0 0.73611,0.194199 0.97222,0.430011 0.29166,0.291299 0.41666,0.61034 0.41666,0.998737 v 4.341729 c 0,0.40227 -0.15278,0.79067 -0.44444,1.02648 -0.29167,0.30517 -0.625,0.44388 -1.01388,0.44388 z m -8.44438,-2.88524 h 3.51386 v -1.48423 h -3.51386 z m 4.95829,1.44262 h 3.56942 v -4.369469 h -3.56942 z"
      id="path335"
      fill="#ffffff"
      stroke-width="13.88005733"
    />
    <path
      d="m 282.44216,90.079872 h -2.99997 v 4.341731 h -6.91661 c -0.25,0 -0.375,-0.06936 -0.52778,-0.263556 -0.13889,-0.138713 -0.26389,-0.291298 -0.26389,-0.471626 0,-0.235812 0.125,-0.360655 0.26389,-0.499368 0.15278,-0.180327 0.29167,-0.263555 0.52778,-0.263555 h 5.47217 v -2.843626 h -4.22218 c -0.19445,0 -0.36111,-0.06936 -0.51389,-0.20807 -0.15278,-0.138714 -0.22222,-0.30517 -0.22222,-0.51324 0,-0.194199 0.0694,-0.360655 0.22222,-0.51324 0.15278,-0.152584 0.31944,-0.20807 0.51389,-0.20807 h 4.22218 c 0,-0.235813 0.0695,-0.360655 0.20833,-0.513239 0.18056,-0.138714 0.30556,-0.208071 0.51389,-0.208071 0.23611,0 0.36111,0.06936 0.5,0.208071 0.19444,0.138713 0.26388,0.291298 0.26388,0.513239 h 3.01387 c 0.19444,0 0.31944,0.06936 0.49999,0.221942 0.15278,0.138713 0.22222,0.305169 0.22222,0.499368 0,0.20807 -0.0694,0.374526 -0.22222,0.51324 -0.18055,0.138713 -0.36111,0.20807 -0.55555,0.20807 z"
      id="path337"
      fill="#ffffff"
      stroke-width="13.88005733"
    />
    <path
      d="m 302.03923,105.36609 h -8.47216 c -0.20833,0 -0.375,-0.0694 -0.51388,-0.24968 -0.15278,-0.13871 -0.22222,-0.2913 -0.22222,-0.47163 0,-0.23581 0.0694,-0.36065 0.20833,-0.49937 0.15277,-0.18032 0.30555,-0.26355 0.51388,-0.26355 h 8.48605 c 0.19444,0 0.30555,-0.0694 0.4861,-0.20807 0.15278,-0.13871 0.22222,-0.30517 0.22222,-0.51324 v -2.91298 c 0,-0.1942 -0.0694,-0.360658 -0.20833,-0.513243 -0.18055,-0.138713 -0.30555,-0.20807 -0.49999,-0.20807 h -8.47216 c -0.20833,0 -0.375,-0.06936 -0.52777,-0.249684 -0.13889,-0.138713 -0.20833,-0.291298 -0.20833,-0.51324 0,-0.194199 0.0694,-0.319041 0.20833,-0.471625 0.15277,-0.180328 0.31944,-0.249685 0.52777,-0.249685 h 8.45827 c 0.59721,0 1.09721,0.263556 1.4861,0.638082 0.41666,0.430012 0.63888,0.92938 0.63888,1.511975 v 2.94073 c 0,0.59646 -0.22222,1.1097 -0.63888,1.52584 -0.375,0.4855 -0.875,0.70744 -1.47221,0.70744 z"
      id="path341"
      fill="#ffffff"
      stroke-width="13.88005733"
    />
    <path
      d="m 303.48366,94.782258 h -10.65269 v -5.090784 c 0,-0.582596 0.20833,-1.095836 0.63888,-1.511976 0.41666,-0.430012 0.88888,-0.638082 1.52777,-0.638082 h 2.65275 c 0.58333,0 1.09722,0.20807 1.51388,0.624211 0.38888,0.430011 0.63888,0.92938 0.63888,1.525847 v 3.634292 h 3.62497 c 0.25,0 0.36111,0.06936 0.51389,0.208071 0.13889,0.180327 0.20833,0.305169 0.20833,0.513239 0,0.249685 -0.0694,0.374527 -0.20833,0.527111 -0.0972,0.138714 -0.26389,0.208071 -0.45833,0.208071 z m -5.05552,-1.456492 v -3.634292 c 0,-0.235812 -0.0833,-0.360655 -0.22222,-0.513239 -0.13888,-0.152585 -0.31944,-0.208071 -0.49999,-0.208071 h -2.70831 c -0.25,0 -0.36111,0.110971 -0.51389,0.249685 -0.18055,0.138713 -0.25,0.291298 -0.25,0.513239 v 3.634293 z"
      id="path343"
      fill="#ffffff"
      stroke-width="13.88005733"
    />
    <ellipse
      id="circle347"
      cy="93.159164"
      cx="323.92795"
      rx="5.9027305"
      ry="5.8953214"
      fill="#ffffff"
      stroke-width="13.88005733"
    />
    <ellipse
      cx="299.26147"
      cy="134.60683"
      id="circle351"
      rx="5.9027305"
      ry="5.8953214"
      fill="#1a1a1a"
      stroke-width="13.88005733"
    />
  </g>
</svg>
