<?xml version='1.0' encoding='utf-8'?>
<svg xmlns="http://www.w3.org/2000/svg" id="svg4317"  version="1.1" gorn="0" height="287" width="80">
    <desc>
        <referenceFile>Pulse_Sensor_9b42ac4ae84eebb2bab0e9098e88835f_5_breadboard.svg</referenceFile>
    </desc>
    <desc />
    <title id="title4319" >my
    vector
    image</title>
    <g stroke-linecap="butt" font-variant="normal"  stroke-width="1" font-weight="normal" font-size="10" fill="#000000" font-stretch="normal" stroke="none" word-spacing="0" text-anchor="end" gorn="0.2" font-style="normal" stroke-linejoin="miter" id="text4361" fill-opacity="1" text-align="end" letter-spacing="0" writing-mode="lr-tb" line-height="125%" stroke-opacity="1" font-family="Droid Sans"/>
    <g id="g6166"  gorn="0.3">
        <g  transform="matrix(0.97293894,0,0,1,1.0028715,1.6143689)">
            <g >
                <g >
                    <g >
                        <g id="g4322"  gorn="0.3.0.0.0.0.0" class="currentLayer">
                            <title id="title4324" >Layer
              1</title>
                            <path id="svg_9" d="M              40.003336,80.298906              40.744077,240.49604" stroke-dasharray="none"  opacity="1" fill-rule="nonzero" stroke-width="8" stroke-dashoffset="" stroke-linecap="butt" gorn="0.3.0.0.0.0.0.1" stroke-opacity="1" stroke="#eb1a1a" fill-opacity="1" stroke-linejoin="miter" fill="" class=""/>
                            <path id="svg_14" d="M              29.632966,76.953366              31.114447,240.49603" stroke-dasharray="none"  opacity="1" fill-rule="nonzero" stroke-width="8" stroke-dashoffset="" stroke-linecap="butt" gorn="0.3.0.0.0.0.0.2" stroke-opacity="1" stroke="#000000" fill-opacity="1" stroke-linejoin="miter" fill="" class=""/>
                            <path id="svg_10" d="M 50.360238,76.953366 51.100979,240.49604" stroke-dasharray="none"  opacity="1" fill-rule="nonzero" stroke-width="8" stroke-dashoffset="" stroke-linecap="butt" gorn="0.3.0.0.0.0.0.3" stroke-opacity="1" stroke="#fc05db" fill-opacity="1" stroke-linejoin="miter" fill="#b804b8" class=""/>
                            <path id="svg_1" d="M -5.5613782e-8,40.345077 C -5.5613782e-8,18.054979 17.965863,9.8243618e-8 40.145941,9.8243618e-8 62.326019,9.8243618e-8 80.291882,18.054979 80.291882,40.345077 c 0,22.290098 -17.965863,40.345078 -40.145941,40.345078 C 17.965863,80.690155 -5.5613782e-8,62.635175 -5.5613782e-8,40.345077 Z" stroke-dasharray="none"  opacity="1" fill-rule="nonzero" stroke-width="2" stroke-dashoffset="" stroke-linecap="butt" gorn="0.3.0.0.0.0.0.4" stroke-opacity="1" stroke="none" fill-opacity="1" stroke-linejoin="round" fill="#000000" class=""/>
                            <path id="svg_4" d="m 34.559911,22.762111 c 0,-8.544985 6.960062,-15.4664221 15.552731,-15.4664221 8.592669,0 15.552731,6.9214371 15.552731,15.4664221 0,8.544985 -6.960062,15.466422 -15.552731,15.466422 -8.592669,0 -15.552731,-6.921437 -15.552731,-15.466422 z" stroke-dasharray="none"  opacity="1" fill-rule="nonzero" stroke-width="2" stroke-dashoffset="" stroke-linecap="butt" gorn="0.3.0.0.0.0.0.5" stroke-opacity="1" stroke="none" fill-opacity="1" stroke-linejoin="round" fill="#ffffff" class=""/>
                            <path id="svg_7" d="m 14.129018,24.384058 c 0,-9.185059 6.754599,-16.6249558 15.09361,-16.6249558 8.33901,0 15.093609,7.4398968 15.093609,16.6249558 0,9.185058 -6.754599,16.624956 -15.093609,16.624956 -8.339011,0 -15.09361,-7.439898 -15.09361,-16.624956 z" stroke-dasharray="none"  opacity="1" fill-rule="nonzero" stroke-width="2" stroke-dashoffset="" stroke-linecap="butt" gorn="0.3.0.0.0.0.0.6" stroke-opacity="1" stroke="none" fill-opacity="1" stroke-linejoin="round" fill="#ffffff" class=""/>
                            <path id="svg_8" d="m 6.6206943,36.073319 c 0,-15.265758 9.4769827,-27.631022 21.1769617,-27.631022 11.699979,0 21.176962,12.365264 21.176962,27.631022 0,15.265757 -9.476983,27.631021 -21.176962,27.631021 -11.699979,0 -21.1769617,-12.365264 -21.1769617,-27.631021 z" stroke-dasharray="none"  opacity="1" fill-rule="nonzero" stroke-width="2" stroke-dashoffset="" stroke-linecap="butt" gorn="0.3.0.0.0.0.0.7" stroke-opacity="1" stroke="none" fill-opacity="1" stroke-linejoin="round" fill="#ffffff" class=""/>
                            <path id="svg_3" d="m 30.934555,36.305025 c 0,-15.265757 9.425618,-27.6310212 21.062184,-27.6310212 11.636565,0 21.062183,12.3652642 21.062183,27.6310212 0,15.265758 -9.425618,27.631022 -21.062183,27.631022 -11.636566,0 -21.062184,-12.365264 -21.062184,-27.631022 z" stroke-dasharray="none"  opacity="1" fill-rule="nonzero" stroke-width="2" stroke-dashoffset="" stroke-linecap="butt" gorn="0.3.0.0.0.0.0.8" stroke-opacity="1" stroke="none" fill-opacity="1" stroke-linejoin="round" fill="#ffffff" class=""/>
                            <path id="svg_13" d="m 32.838208,62.049351 c 0,-2.343427 3.461472,-4.241602 7.734895,-4.241602 4.273423,0 7.734896,1.898175 7.734896,4.241602 0,2.343426 -3.461473,4.241601 -7.734896,4.241601 -4.273423,0 -7.734895,-1.898175 -7.734895,-4.241601 z" stroke-dasharray="none"  opacity="1" fill-rule="nonzero" stroke-width="12" stroke-dashoffset="" stroke-linecap="butt" gorn="0.3.0.0.0.0.0.9" stroke-opacity="1" stroke="#ffffff" fill-opacity="1" stroke-linejoin="round" fill="#ffffff" class=""/>
                            <path id="svg_2" d="m 13.574543,41.89155 c 0,-10.497209 10.385722,-18.999949 23.207602,-18.999949 12.82188,0 23.207603,8.50274 23.207603,18.999949 0,10.49721 -10.385723,18.99995 -23.207603,18.99995 -12.82188,0 -23.207602,-8.50274 -23.207602,-18.99995 z" stroke-dasharray="none"  opacity="1" fill-rule="nonzero" stroke-width="12" stroke-dashoffset="" stroke-linecap="butt" gorn="0.3.0.0.0.0.0.10" stroke-opacity="1" stroke="#ffffff" fill-opacity="1" stroke-linejoin="round" fill="#ffffff" class=""/>
                            <path id="svg_11" d="m 27.801306,41.889848 c 0,-10.24118 8.58792,-18.536536 19.190291,-18.536536 10.60237,0 19.190291,8.295356 19.190291,18.536536 0,10.241181 -8.587921,18.536537 -19.190291,18.536537 -10.602371,0 -19.190291,-8.295356 -19.190291,-18.536537 z" stroke-dasharray="none"  opacity="1" fill-rule="nonzero" stroke-width="12" stroke-dashoffset="" stroke-linecap="butt" gorn="0.3.0.0.0.0.0.11" stroke-opacity="1" stroke="#ffffff" fill-opacity="1" stroke-linejoin="round" fill="#ffffff" class=""/>
                            <path id="svg_12" d="M 22.642255,56.732993 44.909633,73.184168" stroke-dasharray="none"  opacity="1" fill-rule="nonzero" stroke-width="12" stroke-dashoffset="" stroke-linecap="butt" gorn="0.3.0.0.0.0.0.12" stroke-opacity="1" stroke="#ffffff" fill-opacity="1" stroke-linejoin="round" fill="#ffffff" class=""/>
                            <path id="svg_16" d="M 58.443955,56.898041 37.87932,72.972468" stroke-dasharray="none"  opacity="1" fill-rule="nonzero" stroke-width="12" stroke-dashoffset="" stroke-linecap="butt" gorn="0.3.0.0.0.0.0.13" stroke-opacity="1" stroke="#ffffff" fill-opacity="1" stroke-linejoin="round" fill="#ffffff" class=""/>
                            <path id="svg_5" d="m 27.825036,35.710046 c 0,-6.711574 5.312924,-12.147949 11.87209,-12.147949 6.559165,0 11.87209,5.436375 11.87209,12.147949 0,6.711574 -5.312925,12.147949 -11.87209,12.147949 -6.559166,0 -11.87209,-5.436375 -11.87209,-12.147949 z" stroke-dasharray="none"  opacity="1" fill-rule="nonzero" stroke-width="12" stroke-dashoffset="" stroke-linecap="butt" gorn="0.3.0.0.0.0.0.14" stroke-opacity="1" stroke="#ffffff" fill-opacity="1" stroke-linejoin="round" fill="#1aeb1a" class=""/>
                            <path id="connector0pin" d="m 31.018398,239.78669 0,42.90909" stroke-dasharray="none"  opacity="1" fill-rule="nonzero" stroke-width="8" stroke-dashoffset="" stroke-linecap="butt" gorn="0.3.0.0.0.0.0.15" stroke-opacity="1" stroke="#919191" fill-opacity="1" stroke-linejoin="miter" fill="#b804b8" class=""/>
                            <rect id="connector0terminal"  x="31.0104" y="277.518" stroke-width="0" gorn="0.3.0.0.0.0.0.16" stroke="none" height="0.101818" fill="none" width="0.016"/>
                            <path id="connector1pin" d="m 40.662742,239.78669 0,42.90909" stroke-dasharray="none"  opacity="1" fill-rule="nonzero" stroke-width="8" stroke-dashoffset="" stroke-linecap="butt" gorn="0.3.0.0.0.0.0.17" stroke-opacity="1" stroke="#919191" fill-opacity="1" stroke-linejoin="miter" fill="#b804b8" class=""/>
                            <rect id="connector1terminal"  x="40.6547" y="277.199" stroke-width="0" gorn="0.3.0.0.0.0.0.18" stroke="none" height="0.101818" fill="none" width="0.016"/>
                            <path id="connector2pin" d="m 51.100971,239.78669 0,42.90909" stroke-dasharray="none"  opacity="1" fill-rule="nonzero" stroke-width="8" stroke-dashoffset="" stroke-linecap="butt" gorn="0.3.0.0.0.0.0.19" stroke-opacity="1" stroke="#919191" fill-opacity="1" stroke-linejoin="miter" fill="#b804b8" class=""/>
                            <rect id="connector2terminal"  x="51.093" y="277.199" stroke-width="0" gorn="0.3.0.0.0.0.0.20" stroke="none" height="0.101818" fill="none" width="0.016"/>
                        </g>
                    </g>
                </g>
            </g>
        </g>
        <text  x="15.185" y="52.302" style="fill: rgb(51, 51, 51); font-family: sans-serif; font-size: 6px; font-weight: bold; white-space: pre;">PulseSensor.com</text>
    </g>
</svg>
