<?xml version='1.0' encoding='UTF-8' standalone='no'?>
<svg
  xmlns="http://www.w3.org/2000/svg"
  xmlns:svg="http://www.w3.org/2000/svg"
  xmlns:rdf="http://www.w3.org/1999/02/22-rdf-syntax-ns#"
  xmlns:cc="http://creativecommons.org/ns#"
  xmlns:dc="http://purl.org/dc/elements/1.1/"
  id="svg2"
  y="0in"
  version="1.2"
  height="1.2in"
  width="1.4025091in"
  x="0in"
  viewBox="0 0 1402.509 1200"
  xml:space="preserve">
  <metadata
    id="metadata24">
    <rdf:RDF>
      <cc:Work
        rdf:about="">
        <dc:format>image/svg+xml</dc:format>
        <dc:type
          rdf:resource="http://purl.org/dc/dcmitype/StillImage"
        />
      </cc:Work>
    </rdf:RDF>
  </metadata>
  <defs
    id="defs22"
  />
  <desc
    id="desc4">
    <referenceFile>TS-300B-sensor_1_breadboard.svg</referenceFile>
  </desc>
  <g
    id="breadboard">
    <path
      id="rect1021"
      d="m 57.24409,264.69829 h 144.47203 l -90.02398,328.53 90.02398,327.21267 -144.47203,-0.008 c -2.30742,-7.66757 -32.23729,-7.3102 -32.23729,-7.3102 -18.81372,-0.92786 -12.32393,-64.05792 -3.27731,-84.96014 7.72628,-92.69366 -21.6418,-165.70528 -21.72949,-234.93436 0.90893,-109.22551 37.15105,-197.74482 34.14784,-248.5253 -0.73269,-12.38885 -22.61648,-53.52258 -8.64066,-71.84224 9.71066,-12.72884 30.32679,-2.53152 31.73691,-8.16246 z"
      fill="#00ccff"
      stroke-width="0"
    />
    <path
      id="path1122"
      d="m 102.0973,438.87506 h 46.77866 l -9.23471,167.73012 3.36358,143.57303 -56.56387,-0.004 c -18.803,-48.99221 -24.41352,-114.58076 -29.68671,-149.4401 6.0426,-63.09554 4.49308,-110.96912 23.45927,-157.69166 6.69586,-6.49868 20.91145,-1.29246 21.88378,-4.16732 z"
      fill="#e6e6e6"
      stroke-width="0"
    />
    <path
      id="path1124"
      d="m 1345.2648,920.44093 h -144.472 l 90.024,-328.53 -90.024,-327.21267 144.472,0.008 c 2.3075,7.66757 32.2373,7.3102 32.2373,7.3102 18.8138,0.92786 12.324,64.05792 3.2774,84.96014 -7.7263,92.69366 21.6418,165.70528 21.7295,234.93436 -0.909,109.22551 -37.1511,197.74482 -34.1479,248.5253 0.7327,12.38885 22.6165,53.52258 8.6407,71.84224 -9.7107,12.72884 -30.3268,2.53152 -31.737,8.16246 z"
      fill="#00ccff"
      stroke-width="0"
    />
    <path
      id="path1126"
      d="m 1304.3257,750.17821 h -46.7786 l 9.2347,-167.73012 -3.3636,-143.57303 56.5639,0.004 c 18.803,48.99221 24.4135,114.58076 29.6867,149.4401 -6.0426,63.09554 -4.4931,110.96912 -23.4593,157.69166 -6.6959,6.49868 -20.9115,1.29246 -21.8838,4.16732 z"
      fill="#e6e6e6"
      stroke-width="0"
    />
    <circle
      id="path967"
      cx="704.29681"
      cy="600"
      r="600"
      fill="#00aad4"
      stroke="none"
      stroke-width="0"
    />
    <rect
      id="rect905"
      width="395.77777"
      height="225.56566"
      x="506.57724"
      y="736.82465"
      fill="#ececec"
      stroke="#cccccc"
      stroke-width="20"
    />
    <rect
      fill="#8d8c8c"
      height="31.921097"
      y="809.35754"
      width="31.921097"
      x="581.55206"
      id="rect6272"
      stroke-width="0.1"
    />
    <rect
      fill="#8c8663"
      height="16.418898"
      y="817.10864"
      width="16.418898"
      x="589.30316"
      id="rect6274"
      stroke-width="0.1"
    />
    <polygon
      points="340.463,340.463 417.974,417.974 582.025,417.974 659.674,340.463 "
      fill="#b8af82"
      id="polygon6276"
      transform="matrix(0.09999999,0,0,0.09999999,547.50578,775.31123)"
    />
    <polygon
      points="582.025,582.025 582.025,417.974 659.674,340.463 659.674,659.674 "
      fill="#80795b"
      id="polygon6278"
      transform="matrix(0.09999999,0,0,0.09999999,547.50578,775.31123)"
    />
    <polygon
      points="417.974,582.025 582.025,582.025 659.674,659.674 340.463,659.674 "
      fill="#5e5b43"
      id="polygon6280"
      transform="matrix(0.09999999,0,0,0.09999999,547.50578,775.31123)"
    />
    <polygon
      points="340.463,340.463 417.974,417.974 417.974,582.025 340.463,659.674 "
      fill="#9a916c"
      id="polygon6282"
      transform="matrix(0.09999999,0,0,0.09999999,547.50578,775.31123)"
    />
    <rect
      fill="#8d8c8c"
      height="31.921097"
      y="809.35754"
      width="31.921097"
      x="681.55176"
      id="rect6288"
      stroke-width="0.1"
    />
    <rect
      fill="#8c8663"
      height="16.418898"
      y="817.10864"
      width="16.418898"
      x="689.3028"
      id="rect6290"
      stroke-width="0.1"
    />
    <polygon
      points="1340.46,340.463 1417.97,417.974 1582.03,417.974 1659.67,340.463 "
      fill="#b8af82"
      id="polygon6292"
      transform="matrix(0.09999999,0,0,0.09999999,547.50578,775.31123)"
    />
    <polygon
      points="1582.03,582.025 1582.03,417.974 1659.67,340.463 1659.67,659.674 "
      fill="#80795b"
      id="polygon6294"
      transform="matrix(0.09999999,0,0,0.09999999,547.50578,775.31123)"
    />
    <polygon
      points="1417.97,582.025 1582.03,582.025 1659.67,659.674 1340.46,659.674 "
      fill="#5e5b43"
      id="polygon6296"
      transform="matrix(0.09999999,0,0,0.09999999,547.50578,775.31123)"
    />
    <polygon
      points="1340.46,340.463 1417.97,417.974 1417.97,582.025 1340.46,659.674 "
      fill="#9a916c"
      id="polygon6298"
      transform="matrix(0.09999999,0,0,0.09999999,547.50578,775.31123)"
    />
    <rect
      fill="#8d8c8c"
      height="31.921097"
      y="809.35754"
      width="31.921097"
      x="781.55176"
      id="rect6304"
      stroke-width="0.1"
    />
    <rect
      fill="#8c8663"
      height="16.418898"
      y="817.10864"
      width="16.418898"
      x="789.30273"
      id="rect6306"
      stroke-width="0.1"
    />
    <polygon
      points="2340.46,340.463 2417.97,417.974 2582.03,417.974 2659.67,340.463 "
      fill="#b8af82"
      id="polygon6308"
      transform="matrix(0.09999999,0,0,0.09999999,547.50578,775.31123)"
    />
    <polygon
      points="2582.03,582.025 2582.03,417.974 2659.67,340.463 2659.67,659.674 "
      fill="#80795b"
      id="polygon6310"
      transform="matrix(0.09999999,0,0,0.09999999,547.50578,775.31123)"
    />
    <polygon
      points="2417.97,582.025 2582.03,582.025 2659.67,659.674 2340.46,659.674 "
      fill="#5e5b43"
      id="polygon6312"
      transform="matrix(0.09999999,0,0,0.09999999,547.50578,775.31123)"
    />
    <polygon
      points="2340.46,340.463 2417.97,417.974 2417.97,582.025 2340.46,659.674 "
      fill="#9a916c"
      id="polygon6314"
      transform="matrix(0.09999999,0,0,0.09999999,547.50578,775.31123)"
    />
    <rect
      id="rect907"
      width="59.505051"
      height="40.131313"
      x="586.83984"
      y="729.9054"
      fill="#b3b3b3"
      stroke="none"
      stroke-width="0"
    />
    <rect
      id="rect909"
      width="59.505051"
      height="40.131313"
      x="760.08417"
      y="729.9054"
      fill="#b3b3b3"
      stroke="none"
      stroke-width="0"
    />
    <rect
      id="rect911"
      width="40.131313"
      height="40.131313"
      x="685.35687"
      y="700.84479"
      fill="#e6e6e6"
      stroke="none"
      stroke-width="0"
    />
    <rect
      id="rect913"
      width="181.28282"
      height="135.61617"
      x="618.93268"
      y="591.10052"
      fill="#333333"
      stroke="none"
      stroke-width="0"
    />
    <rect
      gorn="0.0.1"
      fill="none"
      height="38.769196"
      y="805.92651"
      width="38.769196"
      id="connector0pin"
      x="578.12109"
      stroke-width="0.1"
    />
    <rect
      gorn="0.0.10"
      fill="none"
      height="38.769196"
      y="805.92651"
      width="38.769196"
      id="connector1pin"
      x="678.12079"
      stroke-width="0.1"
    />
    <rect
      gorn="0.0.19"
      fill="none"
      height="38.769196"
      y="805.92651"
      width="38.769196"
      id="connector2pin"
      x="778.12073"
      stroke-width="0.1"
    />
  </g>
</svg>
