<?xml version='1.0' encoding='UTF-8' standalone='no'?>
<svg
  xmlns:dc="http://purl.org/dc/elements/1.1/"
  xmlns:cc="http://creativecommons.org/ns#"
  xmlns:rdf="http://www.w3.org/1999/02/22-rdf-syntax-ns#"
  xmlns:svg="http://www.w3.org/2000/svg"
  xmlns="http://www.w3.org/2000/svg"
  viewBox="0 0 1102.3545 551.16681"
  height="13.999633mm"
  gorn="0"
  version="1.1"
  width="27.999796mm"
  id="svg8">
  <desc
    id="desc2">
    <referenceFile>Voltage-Sensor-25V_1_breadboard.svg</referenceFile>
  </desc>
  <defs
    id="defs2"
  />
  <metadata
    id="metadata5">
    <rdf:RDF>
      <cc:Work
        rdf:about="">
        <dc:format>image/svg+xml</dc:format>
        <dc:type
          rdf:resource="http://purl.org/dc/dcmitype/StillImage"
        />
        <dc:title/>
      </cc:Work>
    </rdf:RDF>
  </metadata>
  <g
    id="breadboard">
    <path
      id="rect3713"
      d="M 0,0 V 551.16683 H 1102.3545 V 0 Z m 551.18745,157.75526 a 19.40776,19.407754 0 0 1 19.40915,19.40902 19.40776,19.407754 0 0 1 -19.40915,19.40942 19.40776,19.407754 0 0 1 -19.40915,-19.40942 19.40776,19.407754 0 0 1 19.40915,-19.40902 z m -69.60035,28.82909 a 19.40776,19.407754 0 0 1 19.40915,19.40902 19.40776,19.407754 0 0 1 -19.40915,19.38855 19.40776,19.407754 0 0 1 -19.40915,-19.38855 19.40776,19.407754 0 0 1 19.40915,-19.40902 z m 139.18034,0 a 19.40776,19.407754 0 0 1 19.40915,19.40902 19.40776,19.407754 0 0 1 -19.40915,19.38855 19.40776,19.407754 0 0 1 -19.38884,-19.38855 19.40776,19.407754 0 0 1 19.38884,-19.40902 z m -69.57999,30.78184 a 58.223272,58.223253 0 0 1 58.20713,58.20699 58.223272,58.223253 0 0 1 -58.20713,58.22747 58.223272,58.223253 0 0 1 -58.22749,-58.22747 58.223272,58.223253 0 0 1 58.22749,-58.20699 z m -98.42925,38.79797 a 19.40776,19.407754 0 0 1 19.40915,19.40902 19.40776,19.407754 0 0 1 -19.40915,19.40942 19.40776,19.407754 0 0 1 -19.40915,-19.40942 19.40776,19.407754 0 0 1 19.40915,-19.40902 z m 196.83814,0 a 19.40776,19.407754 0 0 1 19.40915,19.40902 19.40776,19.407754 0 0 1 -19.40915,19.40942 19.40776,19.407754 0 0 1 -19.38884,-19.40942 19.40776,19.407754 0 0 1 19.38884,-19.40902 z M 481.5871,325.76444 a 19.40776,19.407754 0 0 1 19.40915,19.40902 19.40776,19.407754 0 0 1 -19.40915,19.40942 19.40776,19.407754 0 0 1 -19.40915,-19.40942 19.40776,19.407754 0 0 1 19.40915,-19.40902 z m 139.18034,0 a 19.40776,19.407754 0 0 1 19.40915,19.40902 19.40776,19.407754 0 0 1 -19.40915,19.40942 19.40776,19.407754 0 0 1 -19.38884,-19.40942 19.40776,19.407754 0 0 1 19.38884,-19.40902 z m -69.57999,28.82909 a 19.40776,19.407754 0 0 1 19.40915,19.40902 19.40776,19.407754 0 0 1 -19.40915,19.40903 19.40776,19.407754 0 0 1 -19.40915,-19.40903 19.40776,19.407754 0 0 1 19.40915,-19.40902 z"
      gorn="0.3.0.0.0.0"
      fill="#0f7391"
      fill-opacity="1"
      stroke-width="4.87194252"
    />
    <text
      x="132.87979"
      gorn="0.3.0.0.0.1.0.0.0.0.0.0.0.0.0"
      y="-11.810987"
      id="tspan1966"
      transform="rotate(90)"
      font-style="normal"
      font-variant="normal"
      font-weight="normal"
      font-stretch="normal"
      font-size="37.77772522"
      font-family="OCRA"
      font-variant-ligatures="normal"
      font-variant-caps="normal"
      font-variant-numeric="normal"
      font-feature-settings="normal"
      text-align="start"
      writing-mode="lr-tb"
      text-anchor="start"
      fill="#ffffff"
      stroke-width="11.6241169">GND</text>
    <text
      x="420.45389"
      gorn="0.3.0.0.0.2.0.0.0.0.0.0.0.0.0"
      y="526.89447"
      id="tspan1964"
      font-style="normal"
      font-variant="normal"
      font-weight="normal"
      font-stretch="normal"
      font-size="59.07213974"
      font-family="OCRA"
      font-variant-ligatures="normal"
      font-variant-caps="normal"
      font-variant-numeric="normal"
      font-feature-settings="normal"
      text-align="start"
      writing-mode="lr-tb"
      text-anchor="start"
      fill="#ffffff"
      stroke-width="18.17622566">VCC&lt;25V</text>
    <text
      x="333.36063"
      gorn="0.3.0.0.0.3.0.0.0.0.0.0.0.0.0"
      y="-11.810987"
      id="tspan1966-1"
      transform="rotate(90)"
      font-style="normal"
      font-variant="normal"
      font-weight="normal"
      font-stretch="normal"
      font-size="37.77772522"
      font-family="OCRA"
      font-variant-ligatures="normal"
      font-variant-caps="normal"
      font-variant-numeric="normal"
      font-feature-settings="normal"
      text-align="start"
      writing-mode="lr-tb"
      text-anchor="start"
      fill="#ffffff"
      stroke-width="11.6241169">VCC</text>
    <rect
      x="-340.17963"
      height="393.70016"
      gorn="0.3.0.0.0.4.0.0.0"
      y="-472.43066"
      width="196.85014"
      id="rect5730-7"
      transform="scale(-1)"
      fill="#254e89"
      fill-opacity="1"
      stroke="none"
      stroke-width="2.51169229"
      stroke-miterlimit="4"
      stroke-dasharray="none"
      stroke-opacity="1"
    />
    <polygon
      gorn="0.3.0.0.0.5.0.0.0"
      points="9.92102,19.232 19.842,19.232 19.842,6.205 9.92102,6.205 0,6.205 0,19.232 "
      id="polygon6493-4"
      transform="matrix(0,-19.841758,3.0221867,0,321.42695,472.43074)"
      fill="#123c66"
      stroke-width="0"
    />
    <polygon
      gorn="0.3.0.0.0.6.0.0.0"
      points="19.842,19.232 19.842,6.205 9.92102,6.205 0,6.205 0,19.232 9.92102,19.232 "
      id="polygon6493-9-1"
      transform="matrix(0,-19.841758,-1.9359318,0,155.34192,472.43074)"
      fill="#123c66"
      stroke-width="0"
    />
    <ellipse
      rx="5.9965687"
      cy="-372.59271"
      gorn="0.3.0.0.0.7.0.0.0"
      ry="5.9060268"
      cx="-351.73785"
      id="path5732-3"
      transform="scale(-1)"
      fill="#00112b"
      fill-opacity="1"
      stroke="none"
      stroke-width="1.39446962"
      stroke-miterlimit="4"
      stroke-dasharray="none"
      stroke-opacity="1"
    />
    <ellipse
      rx="5.9965687"
      cy="-177.97258"
      gorn="0.3.0.0.0.8.0.0.0"
      ry="5.9060268"
      cx="-351.34601"
      id="path5732-7-0"
      transform="scale(-1)"
      fill="#00112b"
      fill-opacity="1"
      stroke="none"
      stroke-width="1.39446962"
      stroke-miterlimit="4"
      stroke-dasharray="none"
      stroke-opacity="1"
    />
    <path
      id="path5819-1-3-0-9"
      d="M 185.19657,276.02594 H 304.00882"
      gorn="0.3.0.0.0.9"
      fill="#002255"
      stroke="#002255"
      stroke-width="3.75051427"
      stroke-linecap="butt"
      stroke-linejoin="miter"
      stroke-opacity="1"
    />
    <rect
      id="rect5262"
      width="294.88678"
      y="78.73053"
      gorn="0.3.0.0.0.10"
      height="393.70071"
      x="84.662857"
      fill="none"
      stroke="#ffffff"
      stroke-width="3.77614069"
      stroke-miterlimit="4"
      stroke-dasharray="none"
      stroke-opacity="1"
    />
    <path
      id="path5264"
      d="M 118.11009,79.105779 V 472.98507"
      gorn="0.3.0.0.0.11"
      fill="none"
      stroke="#ffffff"
      stroke-width="3.85155177"
      stroke-linecap="butt"
      stroke-linejoin="miter"
      stroke-miterlimit="4"
      stroke-dasharray="none"
      stroke-opacity="1"
    />
    <text
      x="343.48019"
      gorn="0.3.0.0.0.12.0.0.0.0.0.0.0.0.0"
      y="57.098022"
      id="tspan1964-2"
      font-style="normal"
      font-variant="normal"
      font-weight="normal"
      font-stretch="normal"
      font-size="59.07213974"
      font-family="OCRA"
      font-variant-ligatures="normal"
      font-variant-caps="normal"
      font-variant-numeric="normal"
      font-feature-settings="normal"
      text-align="start"
      writing-mode="lr-tb"
      text-anchor="start"
      fill="#ffffff"
      stroke-width="18.17622566">VoltageSensor</text>
    <rect
      id="rect5262-8"
      width="194.11504"
      y="115.9475"
      gorn="0.3.0.0.0.13"
      height="303.42456"
      x="826.88794"
      fill="none"
      stroke="#ffffff"
      stroke-width="2.68962884"
      stroke-miterlimit="4"
      stroke-dasharray="none"
      stroke-opacity="1"
    />
    <text
      x="143.63048"
      gorn="0.3.0.0.0.14.0.0.0.0.0.0.0.0.0"
      y="-848.89142"
      id="tspan1964-7"
      transform="rotate(90)"
      font-style="normal"
      font-variant="normal"
      font-weight="normal"
      font-stretch="normal"
      font-size="59.07213974"
      font-family="OCRA"
      font-variant-ligatures="normal"
      font-variant-caps="normal"
      font-variant-numeric="normal"
      font-feature-settings="normal"
      text-align="start"
      writing-mode="lr-tb"
      text-anchor="start"
      fill="#ffffff"
      stroke-width="18.17622566">S</text>
    <text
      x="242.39801"
      gorn="0.3.0.0.0.15.0.0.0.0.0.0.0.0.0"
      y="-847.96136"
      id="tspan1964-7-6"
      transform="rotate(90)"
      font-style="normal"
      font-variant="normal"
      font-weight="normal"
      font-stretch="normal"
      font-size="59.07213974"
      font-family="OCRA"
      font-variant-ligatures="normal"
      font-variant-caps="normal"
      font-variant-numeric="normal"
      font-feature-settings="normal"
      text-align="start"
      writing-mode="lr-tb"
      text-anchor="start"
      fill="#ffffff"
      stroke-width="18.17622566">+</text>
    <text
      x="852.56018"
      gorn="0.3.0.0.0.16.0.0.0.0.0.0.0.0.0"
      y="388.8175"
      id="tspan1964-7-8"
      font-style="normal"
      font-variant="normal"
      font-weight="normal"
      font-stretch="normal"
      font-size="59.07213974"
      font-family="OCRA"
      font-variant-ligatures="normal"
      font-variant-caps="normal"
      font-variant-numeric="normal"
      font-feature-settings="normal"
      text-align="start"
      writing-mode="lr-tb"
      text-anchor="start"
      fill="#ffffff"
      stroke-width="18.17622566">-</text>
    <path
      id="path5264-6"
      d="M 917.43509,116.36123 V 419.10445"
      gorn="0.3.0.0.0.17"
      fill="none"
      stroke="#ffffff"
      stroke-width="3.37669086"
      stroke-linecap="butt"
      stroke-linejoin="miter"
      stroke-miterlimit="4"
      stroke-dasharray="none"
      stroke-opacity="1"
    />
    <path
      id="path5264-6-3"
      d="m 827.07544,217.74493 h 91.56863"
      gorn="0.3.0.0.0.18"
      fill="none"
      stroke="#ffffff"
      stroke-width="1.85706544"
      stroke-linecap="butt"
      stroke-linejoin="miter"
      stroke-miterlimit="4"
      stroke-dasharray="none"
      stroke-opacity="1"
    />
    <path
      id="path5264-6-3-7"
      d="m 825.21533,317.72626 h 91.56862"
      gorn="0.3.0.0.0.19"
      fill="none"
      stroke="#ffffff"
      stroke-width="1.85706544"
      stroke-linecap="butt"
      stroke-linejoin="miter"
      stroke-miterlimit="4"
      stroke-dasharray="none"
      stroke-opacity="1"
    />
    <rect
      x="123.03141"
      height="35.444401"
      gorn="0.3.0.0.0.20.0.0.0.0.0.0.0"
      y="-752.46826"
      width="78.749878"
      id="_x30_.1.12.0.0.0-8-4-3-9-8-8-3-9"
      transform="rotate(90)"
      fill="#999999"
      stroke-width="13.88886833"
    />
    <path
      stroke-miterlimit="10"
      gorn="0.3.0.0.0.20.0.0.0.0.0.1.0"
      d="M 728.73222,183.10049"
      id="_x30_.1.12.0.1.0-1-7-8-6-0-4-5-0"
      fill="none"
      stroke="#ffffff"
      stroke-width="3.47221708"
    />
    <path
      gorn="0.3.0.0.0.20.0.0.0.0.0.2.0"
      d="m 723.17664,184.7812 v -46.72197 c 0,-1.05512 0.72244,-1.91732 1.58346,-1.91732 h 19.94442 c 0.87481,0 1.59725,0.87401 1.59725,1.91732 v 49.97197 c 0,1.02755 -0.73622,1.94487 -1.59725,1.94487 h -4.55554 c -0.45827,0 -0.84724,0.44489 -0.84724,0.98425 v 2.36221 c 0,0.27559 -0.16536,0.40157 -0.37402,0.40157 -0.19291,0 -0.34646,-0.19685 -0.34646,-0.40157 v -2.38976 c 0,-1.07087 0.73622,-1.95669 1.59725,-1.95669 h 4.52779 c 0.47204,0 0.8748,-0.44489 0.8748,-1 v -49.91646 c 0,-0.58267 -0.33465,-1.01574 -0.8748,-1.01574 h -19.97218 c -0.45827,0 -0.87481,0.44488 -0.87481,1.01574 v 46.72197 c 0,0.61024 0.33465,1.04331 0.87481,1.04331 h 18.33328 c 0.47205,0 0.86102,-0.42913 0.86102,-1.04331 v -43.55544 c 0,-0.57086 -0.34645,-1 -0.86102,-1 h -16.48608 c -0.44449,0 -0.8752,0.42914 -0.8752,1 v 40.40269 c 0,0.62599 0.23622,0.95669 0.29134,0.98819 h 15.31943 c 0.47205,0 0.84724,-0.42913 0.84724,-0.98819 v -37.22198 c 0,-0.58268 -0.33464,-1.02756 -0.84724,-1.02756 H 728.3447 c -0.47204,0 -0.8748,0.44488 -0.8748,1.02756 v 34.29128 c 0,0.57086 0.3622,1.01575 0.8748,1.01575 h 11.34719 c 0.44449,0 0.8748,-0.44489 0.8748,-1.01575 v -31.54129 c 0,-0.55512 -0.37401,-1.02756 -0.8748,-1.02756 H 728.6086 c -0.20866,0 -0.3622,-0.19685 -0.3622,-0.42913 0,-0.27559 0.1811,-0.47244 0.3622,-0.47244 h 11.08329 c 0.8748,0 1.56929,0.87401 1.56929,1.92913 v 31.54129 c 0,1.07086 -0.72204,1.91732 -1.56929,1.91732 h -11.30553 c -0.87481,0 -1.59725,-0.84646 -1.59725,-1.91732 v -34.26373 c 0,-1.05511 0.70827,-1.91732 1.59725,-1.91732 h 12.93053 c 0.8748,0 1.59724,0.86221 1.59724,1.91732 v 37.22239 c 0,1.03936 -0.70826,1.91732 -1.59724,1.91732 H 725.9836 c -0.56929,0 -0.98622,-0.84646 -0.98622,-1.91732 v -40.41687 c 0,-1.0433 0.72244,-1.91732 1.58347,-1.91732 h 16.48608 c 0.8748,0 1.59724,0.87402 1.59724,1.91732 v 43.55544 c 0,1.08268 -0.72244,1.95669 -1.59724,1.95669 h -18.29305 c -0.90275,-0.0279 -1.59724,-0.88976 -1.59724,-1.97243 z"
      id="_x30_.1.12.0.2.0-9-3-6-9-4-6-6-4"
      fill="#cba580"
      stroke-width="13.88886833"
    />
    <rect
      x="123.03141"
      height="0.54166597"
      gorn="0.3.0.0.0.20.0.0.0.0.0.3.0.0.0"
      y="-752.46826"
      width="78.749878"
      id="_x30_.1.12.0.3.0.0.0-5-2-7-1-9-5-6-5"
      transform="rotate(90)"
      fill="#ffffff"
      stroke-width="13.88886833"
    />
    <path
      gorn="0.3.0.0.0.20.0.0.0.0.0.3.1.0.0"
      d="m 751.27385,131.53129 h 1.19448 v -8.49999 h -35.44444 v 8.48621 c 3.02795,0.59842 6.63889,1.31889 9.99999,1.31889 3.91653,0.0142 20.83332,-0.51575 24.24997,-1.30708 z"
      id="_x30_.1.12.0.3.1.0.0-8-9-0-9-8-2-4-7"
      fill="#dcdcdc"
      stroke-width="13.88886833"
    />
    <path
      gorn="0.3.0.0.0.20.0.0.0.0.0.3.1.1.0"
      d="m 727.02388,191.94772 c -3.36102,0 -6.94444,0.73622 -9.99999,1.36221 v 8.47203 h 35.4444 v -8.52754 h -1.19448 c -3.41653,-0.77953 -20.31943,-1.30709 -24.24997,-1.30709 z"
      id="_x30_.1.12.0.3.1.1.0-6-8-6-6-1-4-7-4"
      fill="#dcdcdc"
      stroke-width="13.88886833"
    />
    <rect
      x="123.03141"
      height="0.54166597"
      gorn="0.3.0.0.0.20.0.0.0.0.0.3.1.2.0"
      y="-752.46826"
      width="8.4860973"
      id="_x30_.1.12.0.3.1.2.0-2-7-4-1-9-5-0-1"
      transform="rotate(90)"
      fill="#ffffff"
      stroke-width="13.88886833"
    />
    <rect
      x="193.25298"
      height="0.54166597"
      gorn="0.3.0.0.0.20.0.0.0.0.0.3.1.3.0"
      y="-752.46826"
      width="8.4860973"
      id="_x30_.1.12.0.3.1.3.0-0-5-7-5-3-2-2-1"
      transform="rotate(90)"
      fill="#ffffff"
      stroke-width="13.88886833"
    />
    <line
      y1="130.5863"
      gorn="0.3.0.0.0.20.0.0.0.0.0.3.1.4.0"
      x1="717.09332"
      x2="717.09332"
      y2="130.5863"
      id="_x30_.1.12.0.3.1.4.0-0-7-4-2-0-2-6-8"
      fill="none"
      stroke-width="13.88886833"
    />
    <rect
      x="328.57538"
      height="35.444401"
      gorn="0.3.0.0.0.21.0.0.0.0.0.0.0"
      y="-753.39838"
      width="78.749878"
      id="_x30_.1.12.0.0.0-8-4-3-9-8-8-3-9-2"
      transform="rotate(90)"
      fill="#999999"
      stroke-width="13.88886833"
    />
    <path
      stroke-miterlimit="10"
      gorn="0.3.0.0.0.21.0.0.0.0.0.1.0"
      d="M 729.6623,388.64347"
      id="_x30_.1.12.0.1.0-1-7-8-6-0-4-5-0-1"
      fill="none"
      stroke="#ffffff"
      stroke-width="3.47221708"
    />
    <path
      gorn="0.3.0.0.0.21.0.0.0.0.0.2.0"
      d="m 724.10672,390.32418 v -46.72197 c 0,-1.05512 0.72204,-1.91732 1.58346,-1.91732 h 19.94442 c 0.8752,0 1.59724,0.87401 1.59724,1.91732 v 49.97196 c 0,1.02756 -0.73622,1.94488 -1.59724,1.94488 h -4.55554 c -0.45827,0 -0.84725,0.44488 -0.84725,0.98819 v 2.3622 c 0,0.27559 -0.16535,0.40157 -0.37401,0.40157 -0.19292,0 -0.34646,-0.19685 -0.34646,-0.40157 v -2.38976 c 0,-1.07086 0.73622,-1.95669 1.59724,-1.95669 h 4.52779 c 0.47205,0 0.8752,-0.44488 0.8752,-1 v -49.91645 c 0,-0.58268 -0.33465,-1.01575 -0.8752,-1.01575 h -19.97218 c -0.45826,0 -0.8748,0.44488 -0.8748,1.01575 v 46.72197 c 0,0.61023 0.33465,1.0433 0.8748,1.0433 h 18.33329 c 0.47244,0 0.86102,-0.42913 0.86102,-1.0433 v -43.55544 c 0,-0.57087 -0.34646,-1 -0.86102,-1 H 727.5114 c -0.44449,0 -0.87481,0.42913 -0.87481,1 v 40.40269 c 0,0.62598 0.23622,0.95669 0.29134,0.98425 h 15.31943 c 0.47205,0 0.84724,-0.42913 0.84724,-0.98425 v -37.22199 c 0,-0.58268 -0.33464,-1.02756 -0.84724,-1.02756 h -12.97219 c -0.47244,0 -0.87519,0.44488 -0.87519,1.02756 v 34.29128 c 0,0.57087 0.3622,1.01575 0.87519,1.01575 h 11.34719 c 0.44449,0 0.8752,-0.44488 0.8752,-1.01575 v -31.54128 c 0,-0.55512 -0.37402,-1.02756 -0.8752,-1.02756 h -11.08329 c -0.20866,0 -0.3622,-0.19685 -0.3622,-0.42913 0,-0.27559 0.1811,-0.47244 0.3622,-0.47244 h 11.08329 c 0.8752,0 1.56929,0.87401 1.56929,1.92913 v 31.54128 c 0,1.07087 -0.72204,1.91732 -1.56929,1.91732 h -11.30553 c -0.8752,0 -1.59725,-0.84645 -1.59725,-1.91732 v -34.26372 c 0,-1.05512 0.70827,-1.91732 1.59725,-1.91732 h 12.93053 c 0.8748,0 1.59724,0.8622 1.59724,1.91732 v 37.22238 c 0,1.03937 -0.70826,1.91732 -1.59724,1.91732 h -15.33329 c -0.56929,0 -0.98622,-0.84645 -0.98622,-1.91732 v -40.41686 c 0,-1.04331 0.72244,-1.91732 1.58347,-1.91732 h 16.48608 c 0.87519,0 1.59724,0.87401 1.59724,1.91732 v 43.55544 c 0,1.08267 -0.72244,1.96063 -1.59724,1.96063 h -18.29163 c -0.90276,-0.028 -1.59724,-0.88977 -1.59724,-1.97244 z"
      id="_x30_.1.12.0.2.0-9-3-6-9-4-6-6-4-4"
      fill="#cba580"
      stroke-width="13.88886833"
    />
    <rect
      x="328.57538"
      height="0.54166597"
      gorn="0.3.0.0.0.21.0.0.0.0.0.3.0.0.0"
      y="-753.39838"
      width="78.749878"
      id="_x30_.1.12.0.3.0.0.0-5-2-7-1-9-5-6-5-0"
      transform="rotate(90)"
      fill="#ffffff"
      stroke-width="13.88886833"
    />
    <path
      gorn="0.3.0.0.0.21.0.0.0.0.0.3.1.0.0"
      d="m 752.20392,337.07426 h 1.19449 v -8.49998 h -35.4444 v 8.4862 c 3.02795,0.59843 6.63889,1.3189 9.99998,1.3189 3.91653,0.0142 20.83332,-0.51575 24.24997,-1.30708 z"
      id="_x30_.1.12.0.3.1.0.0-8-9-0-9-8-2-4-7-8"
      fill="#dcdcdc"
      stroke-width="13.88886833"
    />
    <path
      gorn="0.3.0.0.0.21.0.0.0.0.0.3.1.1.0"
      d="m 727.95395,397.4907 c -3.36101,0 -6.94444,0.73622 -9.99998,1.3622 v 8.47243 h 35.4444 v -8.52754 h -1.19449 c -3.41653,-0.77953 -20.31942,-1.30709 -24.24996,-1.30709 z"
      id="_x30_.1.12.0.3.1.1.0-6-8-6-6-1-4-7-4-7"
      fill="#dcdcdc"
      stroke-width="13.88886833"
    />
    <rect
      x="328.57538"
      height="0.54166597"
      gorn="0.3.0.0.0.21.0.0.0.0.0.3.1.2.0"
      y="-753.39838"
      width="8.4860973"
      id="_x30_.1.12.0.3.1.2.0-2-7-4-1-9-5-0-1-3"
      transform="rotate(90)"
      fill="#ffffff"
      stroke-width="13.88886833"
    />
    <rect
      x="398.79694"
      height="0.54166597"
      gorn="0.3.0.0.0.21.0.0.0.0.0.3.1.3.0"
      y="-753.39838"
      width="8.4860973"
      id="_x30_.1.12.0.3.1.3.0-0-5-7-5-3-2-2-1-5"
      transform="rotate(90)"
      fill="#ffffff"
      stroke-width="13.88886833"
    />
    <line
      y1="336.13025"
      gorn="0.3.0.0.0.21.0.0.0.0.0.3.1.4.0"
      x1="718.02338"
      x2="718.02338"
      y2="336.13025"
      id="_x30_.1.12.0.3.1.4.0-0-7-4-2-0-2-6-8-4"
      fill="none"
      stroke-width="13.88886833"
    />
    <path
      id="path998"
      d="M 551.18745,137.77655 A 137.79509,137.79505 0 0 0 413.39058,275.57318 137.79509,137.79505 0 0 0 551.18745,413.3702 137.79509,137.79505 0 0 0 688.98432,275.57318 137.79509,137.79505 0 0 0 551.18745,137.77655 Z m 0,19.97871 a 19.40776,19.407754 0 0 1 19.40915,19.40902 19.40776,19.407754 0 0 1 -19.40915,19.40942 19.40776,19.407754 0 0 1 -19.40915,-19.40942 19.40776,19.407754 0 0 1 19.40915,-19.40902 z m -69.60035,28.82909 a 19.40776,19.407754 0 0 1 19.40915,19.40902 19.40776,19.407754 0 0 1 -19.40915,19.38855 19.40776,19.407754 0 0 1 -19.40915,-19.38855 19.40776,19.407754 0 0 1 19.40915,-19.40902 z m 139.18034,0 a 19.40776,19.407754 0 0 1 19.40915,19.40902 19.40776,19.407754 0 0 1 -19.40915,19.38855 19.40776,19.407754 0 0 1 -19.38884,-19.38855 19.40776,19.407754 0 0 1 19.38884,-19.40902 z m -69.57999,30.78184 a 58.223272,58.223253 0 0 1 58.20713,58.20699 58.223272,58.223253 0 0 1 -58.20713,58.22747 58.223272,58.223253 0 0 1 -58.22749,-58.22747 58.223272,58.223253 0 0 1 58.22749,-58.20699 z m -98.42925,38.79797 a 19.40776,19.407754 0 0 1 19.40915,19.40902 19.40776,19.407754 0 0 1 -19.40915,19.40942 19.40776,19.407754 0 0 1 -19.40915,-19.40942 19.40776,19.407754 0 0 1 19.40915,-19.40902 z m 196.83814,0 a 19.40776,19.407754 0 0 1 19.40915,19.40902 19.40776,19.407754 0 0 1 -19.40915,19.40942 19.40776,19.407754 0 0 1 -19.38884,-19.40942 19.40776,19.407754 0 0 1 19.38884,-19.40902 z M 481.5871,325.76444 a 19.40776,19.407754 0 0 1 19.40915,19.40902 19.40776,19.407754 0 0 1 -19.40915,19.40942 19.40776,19.407754 0 0 1 -19.40915,-19.40942 19.40776,19.407754 0 0 1 19.40915,-19.40902 z m 139.18034,0 a 19.40776,19.407754 0 0 1 19.40915,19.40902 19.40776,19.407754 0 0 1 -19.40915,19.40942 19.40776,19.407754 0 0 1 -19.38884,-19.40942 19.40776,19.407754 0 0 1 19.38884,-19.40902 z m -69.57999,28.82909 a 19.40776,19.407754 0 0 1 19.40915,19.40902 19.40776,19.407754 0 0 1 -19.40915,19.40903 19.40776,19.407754 0 0 1 -19.40915,-19.40903 19.40776,19.407754 0 0 1 19.40915,-19.40902 z"
      gorn="0.3.0.0.0.22"
      fill="#ffe680"
      stroke="#ffe680"
      stroke-width="3.93700218"
      stroke-miterlimit="4"
      stroke-dasharray="none"
      stroke-opacity="1"
    />
    <path
      id="path6495-2"
      d="m 301.04481,178.43987 c 0,-31.85073 -26.32914,-57.82195 -58.81878,-57.82195 v 115.56714 c 32.51519,0.0787 58.81878,-25.84366 58.81878,-57.74519 z"
      gorn="0.3.0.0.0.23.0.0.0.0"
      fill="#3a5c8e"
      stroke-width="0"
    />
    <path
      id="path6497-4"
      d="m 183.50941,178.43987 c 0,31.85074 26.35469,57.77078 58.74213,57.77078 V 120.6691 c -32.41295,-0.0256 -58.74213,25.86885 -58.74213,57.77077 z"
      gorn="0.3.0.0.0.23.0.0.0.1"
      fill="#123c66"
      stroke-width="0"
    />
    <path
      gorn="0.3.0.0.0.23.0.0.0.2.0.0.0.0.0"
      d="m 289.64405,178.43987 c 0,25.71571 -21.2679,46.62552 -47.41803,46.62552 -26.12465,0 -47.39247,-20.90981 -47.39247,-46.62552 0,-12.32124 4.80571,-23.97752 13.65026,-32.74522 8.99792,-8.94684 20.96109,-13.88029 33.74221,-13.88029 26.15021,0 47.41803,20.90981 47.41803,46.62551 z"
      id="path6517-9"
      fill="#8b8b8b"
      stroke-width="0"
    />
    <path
      id="path6519-2"
      d="m 195.44704,178.43987 c 0,-25.40901 20.9611,-46.03772 46.77898,-45.98654 25.84347,0 46.77897,20.57753 46.77897,45.98654 0,25.35784 -20.9355,45.98654 -46.77897,45.98654 -25.81791,0 -46.77898,-20.6287 -46.77898,-45.98654 m -1.27811,0 c 0,26.09917 21.54895,47.29008 48.05709,47.29008 26.50814,0 48.08265,-21.16532 48.08265,-47.29008 0,-26.07358 -21.57451,-47.23929 -48.08265,-47.23929 -12.96008,-0.0394 -25.0766,4.93385 -34.2279,14.03383 -8.92124,8.94684 -13.82919,20.73107 -13.82919,33.20546 z"
      gorn="0.3.0.0.0.23.0.0.0.2.0.0.0.0.1.0"
      stroke-width="0"
    />
    <path
      id="path6523-9"
      d="m 199.28138,178.43987 c 0,-11.14526 4.37116,-21.62555 12.32102,-29.54995 8.12881,-8.07794 18.9927,-12.57675 30.59806,-12.52557 23.69623,0 42.97019,18.86493 42.97019,42.07552 0,23.26178 -19.27391,42.12671 -42.97019,42.12671 -23.64512,0.0256 -42.91908,-18.86493 -42.91908,-42.12671 m -3.83432,0 c 0,25.35784 20.96109,45.98654 46.77897,45.98654 25.84347,0 46.77898,-20.6287 46.77898,-45.98654 0,-25.40901 -20.93551,-45.98654 -46.77898,-45.98654 -25.8179,-0.0394 -46.77897,20.57753 -46.77897,45.98654 z"
      gorn="0.3.0.0.0.23.0.0.0.2.0.0.0.0.2.0"
      stroke-width="0"
    />
    <path
      gorn="0.3.0.0.0.23.0.0.0.2.1.0.0.0.0"
      d="m 242.22602,220.59217 c 3.88547,0 7.56643,-0.6378 11.19628,-1.58661 v -81.03255 c -3.57874,-0.94488 -7.28525,-1.58661 -11.19628,-1.58661 -3.73208,0 -7.41306,0.58661 -10.96622,1.55905 v 81.13491 c 3.52759,0.84252 7.15744,1.50787 10.96622,1.50787 z"
      id="path6529-0"
      fill="#707070"
      stroke-width="0"
    />
    <path
      id="path6495-7-0"
      d="m 301.43702,375.28995 c 0,-31.85074 -26.32914,-57.82195 -58.81879,-57.82195 v 115.56713 c 32.5152,0.0787 58.81879,-25.84366 58.81879,-57.74518 z"
      gorn="0.3.0.0.0.24.0.0.0.0"
      fill="#3a5c8e"
      stroke-width="0"
    />
    <path
      id="path6497-7-9"
      d="m 183.90162,375.28995 c 0,31.85074 26.35469,57.77077 58.74213,57.77077 V 317.51918 c -32.41295,-0.0256 -58.74213,25.86885 -58.74213,57.77077 z"
      gorn="0.3.0.0.0.24.0.0.0.1"
      fill="#123c66"
      stroke-width="0"
    />
    <path
      gorn="0.3.0.0.0.24.0.0.0.2.0.0.0.0.0"
      d="m 290.03626,375.28995 c 0,25.71571 -21.2679,46.62552 -47.41804,46.62552 -26.12465,0 -47.39247,-20.90981 -47.39247,-46.62552 0,-12.32124 4.80571,-23.97752 13.65026,-32.74522 8.99793,-8.94684 20.9611,-13.8803 33.74221,-13.8803 26.15022,0 47.41804,20.90981 47.41804,46.62552 z"
      id="path6517-1-4"
      fill="#8b8b8b"
      stroke-width="0"
    />
    <path
      id="path6519-7-6"
      d="m 195.83925,375.28995 c 0,-25.40901 20.96109,-46.03772 46.77897,-45.98654 25.84347,0 46.77898,20.57753 46.77898,45.98654 0,25.35783 -20.93551,45.98654 -46.77898,45.98654 -25.8179,0 -46.77897,-20.62871 -46.77897,-45.98654 m -1.27811,0 c 0,26.09917 21.54895,47.29008 48.05709,47.29008 26.50814,0 48.08265,-21.16532 48.08265,-47.29008 0,-26.07358 -21.57451,-47.23929 -48.08265,-47.23929 -12.96009,-0.0394 -25.07661,4.93385 -34.2279,14.03383 -8.92124,8.94684 -13.8292,20.73107 -13.82919,33.20546 z"
      gorn="0.3.0.0.0.24.0.0.0.2.0.0.0.0.1.0"
      stroke-width="0"
    />
    <path
      id="path6523-01-9"
      d="m 199.67359,375.28995 c 0,-11.14526 4.37115,-21.62556 12.32102,-29.54995 8.1288,-8.07794 18.9927,-12.57675 30.59805,-12.52557 23.69624,0 42.9702,18.86493 42.9702,42.07552 0,23.26177 -19.27391,42.1267 -42.9702,42.1267 -23.64511,0.0256 -42.91907,-18.86493 -42.91907,-42.1267 m -3.83433,0 c 0,25.35783 20.9611,45.98654 46.77898,45.98654 25.84347,0 46.77897,-20.62871 46.77897,-45.98654 0,-25.40901 -20.9355,-45.98654 -46.77897,-45.98654 -25.81791,-0.0394 -46.77898,20.57753 -46.77898,45.98654 z"
      gorn="0.3.0.0.0.24.0.0.0.2.0.0.0.0.2.0"
      stroke-width="0"
    />
    <path
      gorn="0.3.0.0.0.24.0.0.0.2.1.0.0.0.0"
      d="m 242.61822,417.44225 c 3.88547,0 7.56644,-0.6378 11.19628,-1.58662 v -81.03254 c -3.57873,-0.94488 -7.28525,-1.58662 -11.19628,-1.58662 -3.73208,0 -7.41306,0.58662 -10.96622,1.55906 v 81.13491 c 3.5276,0.84251 7.15744,1.50787 10.96622,1.50787 z"
      id="path6529-2-5"
      fill="#707070"
      stroke-width="0"
    />
    <polygon
      id="polygon3155"
      points="2217.11,0 2000,217.113 2000,782.747 2217.11,1000 2782.75,1000 3000,782.747 3000,217.113 2782.75,0 "
      gorn="0.3.0.0.0.25.0.0.0.0"
      transform="matrix(0,0.09999984,-0.09999987,0,1020.9809,117.50336)"
      fill="#404040"
    />
    <rect
      id="rect311"
      x="352.47995"
      height="31.420959"
      y="-986.68451"
      width="30.05965"
      transform="rotate(90)"
      fill="none"
      stroke-width="0.09999987"
    />
    <rect
      x="351.54761"
      height="31.921061"
      gorn="0.3.0.0.0.25.1.2.0.0.0"
      y="-986.93457"
      width="31.921049"
      id="rect5383"
      transform="rotate(90)"
      fill="#8d8c8c"
      stroke-width="0.09999987"
    />
    <rect
      x="359.29956"
      height="16.418879"
      gorn="0.3.0.0.0.25.1.3.0.0.0"
      y="-979.18347"
      width="16.418873"
      id="rect5385"
      transform="rotate(90)"
      fill="#8c8663"
      stroke-width="0.09999987"
    />
    <polygon
      gorn="0.3.0.0.0.25.1.4.0.0.0"
      points="2582.03,417.974 2659.67,340.463 2340.46,340.463 2417.97,417.974 "
      id="polygon5387"
      transform="matrix(0,0.09999984,-0.09999987,0,1020.9809,117.50336)"
      fill="#b8af82"
    />
    <polygon
      gorn="0.3.0.0.0.25.1.5.0.0.0"
      points="2659.67,340.463 2659.67,659.674 2582.03,582.025 2582.03,417.974 "
      id="polygon5389"
      transform="matrix(0,0.09999984,-0.09999987,0,1020.9809,117.50336)"
      fill="#80795b"
    />
    <polygon
      gorn="0.3.0.0.0.25.1.6.0.0.0"
      points="2659.67,659.674 2340.46,659.674 2417.97,582.025 2582.03,582.025 "
      id="polygon5391"
      transform="matrix(0,0.09999984,-0.09999987,0,1020.9809,117.50336)"
      fill="#5e5b43"
    />
    <polygon
      gorn="0.3.0.0.0.25.1.7.0.0.0"
      points="2417.97,582.025 2340.46,659.674 2340.46,340.463 2417.97,417.974 "
      id="polygon5393"
      transform="matrix(0,0.09999984,-0.09999987,0,1020.9809,117.50336)"
      fill="#9a916c"
    />
    <polygon
      id="polygon3153"
      points="1217.11,0 1000,217.113 1000,782.747 1217.11,1000 1782.75,1000 2000,782.747 2000,217.113 1782.75,0 "
      gorn="0.3.0.0.0.26.0.0.0.0"
      transform="matrix(0,0.09999984,-0.09999987,0,1020.9809,117.50336)"
      fill="#404040"
    />
    <rect
      id="rect378"
      x="252.47861"
      height="31.420959"
      y="-986.68451"
      width="30.05965"
      transform="rotate(90)"
      fill="none"
      stroke-width="0.09999987"
    />
    <rect
      x="251.54866"
      height="31.921061"
      gorn="0.3.0.0.0.26.1.2.0.0.0"
      y="-986.93457"
      width="31.921049"
      id="rect5367"
      transform="rotate(90)"
      fill="#8d8c8c"
      stroke-width="0.09999987"
    />
    <rect
      x="259.29819"
      height="16.418879"
      gorn="0.3.0.0.0.26.1.3.0.0.0"
      y="-979.18347"
      width="16.418873"
      id="rect5369"
      transform="rotate(90)"
      fill="#8c8663"
      stroke-width="0.09999987"
    />
    <polygon
      gorn="0.3.0.0.0.26.1.4.0.0.0"
      points="1582.03,417.974 1659.67,340.463 1340.46,340.463 1417.97,417.974 "
      id="polygon5371"
      transform="matrix(0,0.09999984,-0.09999987,0,1020.9809,117.50336)"
      fill="#b8af82"
    />
    <polygon
      gorn="0.3.0.0.0.26.1.5.0.0.0"
      points="1659.67,340.463 1659.67,659.674 1582.03,582.025 1582.03,417.974 "
      id="polygon5373"
      transform="matrix(0,0.09999984,-0.09999987,0,1020.9809,117.50336)"
      fill="#80795b"
    />
    <polygon
      gorn="0.3.0.0.0.26.1.6.0.0.0"
      points="1659.67,659.674 1340.46,659.674 1417.97,582.025 1582.03,582.025 "
      id="polygon5375"
      transform="matrix(0,0.09999984,-0.09999987,0,1020.9809,117.50336)"
      fill="#5e5b43"
    />
    <polygon
      gorn="0.3.0.0.0.26.1.7.0.0.0"
      points="1417.97,582.025 1340.46,659.674 1340.46,340.463 1417.97,417.974 "
      id="polygon5377"
      transform="matrix(0,0.09999984,-0.09999987,0,1020.9809,117.50336)"
      fill="#9a916c"
    />
    <polygon
      id="polygon3151"
      points="217.113,0 0,217.113 0,782.747 217.113,1000 782.747,1000 1000,782.747 1000,217.113 782.747,0 "
      gorn="0.3.0.0.0.27.0.0.0.0"
      transform="matrix(0,0.09999984,-0.09999987,0,1020.9809,117.50336)"
      fill="#404040"
    />
    <rect
      id="rect445"
      x="152.47963"
      height="31.420959"
      y="-986.68451"
      width="30.05965"
      transform="rotate(90)"
      fill="none"
      stroke-width="0.09999987"
    />
    <rect
      x="151.54968"
      height="31.921061"
      gorn="0.3.0.0.0.27.1.2.0.0.0"
      y="-986.93457"
      width="31.921049"
      id="rect5351"
      transform="rotate(90)"
      fill="#8d8c8c"
      stroke-width="0.09999987"
    />
    <rect
      x="159.29921"
      height="16.418879"
      gorn="0.3.0.0.0.27.1.3.0.0.0"
      y="-979.18347"
      width="16.418873"
      id="rect5353"
      transform="rotate(90)"
      fill="#8c8663"
      stroke-width="0.09999987"
    />
    <polygon
      gorn="0.3.0.0.0.27.1.4.0.0.0"
      points="582.025,417.974 659.674,340.463 340.463,340.463 417.974,417.974 "
      id="polygon5355"
      transform="matrix(0,0.09999984,-0.09999987,0,1020.9809,117.50336)"
      fill="#b8af82"
    />
    <polygon
      gorn="0.3.0.0.0.27.1.5.0.0.0"
      points="659.674,340.463 659.674,659.674 582.025,582.025 582.025,417.974 "
      id="polygon5357"
      transform="matrix(0,0.09999984,-0.09999987,0,1020.9809,117.50336)"
      fill="#80795b"
    />
    <polygon
      gorn="0.3.0.0.0.27.1.6.0.0.0"
      points="659.674,659.674 340.463,659.674 417.974,582.025 582.025,582.025 "
      id="polygon5359"
      transform="matrix(0,0.09999984,-0.09999987,0,1020.9809,117.50336)"
      fill="#5e5b43"
    />
    <polygon
      gorn="0.3.0.0.0.27.1.7.0.0.0"
      points="417.974,582.025 340.463,659.674 340.463,340.463 417.974,417.974 "
      id="polygon5361"
      transform="matrix(0,0.09999984,-0.09999987,0,1020.9809,117.50336)"
      fill="#9a916c"
    />
    <polygon
      id="connector0pin"
      points="16.191,3.564 16.191,2.703 15.279,2.703 15.279,1.583 14.431,1.583 14.431,2.703 13.521,2.703 13.521,3.564 14.431,3.564 14.431,4.685 15.279,4.685 15.279,3.564 "
      gorn="0.3.0.0.0.23.0.0.0.2.2.0.0.0"
      transform="matrix(0,-25.562274,25.562282,0,162.16495,558.16722)"
      fill="#545252"
      stroke-width="0"
    />
    <polygon
      id="connector1pin"
      points="14.431,3.564 14.431,4.685 15.279,4.685 15.279,3.564 16.191,3.564 16.191,2.703 15.279,2.703 15.279,1.583 14.431,1.583 14.431,2.703 13.521,2.703 13.521,3.564 "
      gorn="0.3.0.0.0.24.0.0.0.2.2.0.0.0"
      transform="matrix(0,-25.562274,25.562282,0,162.55716,755.0173)"
      fill="#545252"
      stroke-width="0"
    />
    <rect
      id="connector2pin"
      x="148.11827"
      height="38.76915"
      y="-990.36566"
      width="38.769135"
      transform="rotate(90)"
      fill="none"
      stroke-width="0.09999987"
    />
    <rect
      id="connector3pin"
      x="248.11723"
      height="38.76915"
      y="-990.36566"
      width="38.769135"
      transform="rotate(90)"
      fill="none"
      stroke-width="0.09999987"
    />
    <rect
      id="connector4pin"
      x="348.11621"
      height="38.76915"
      y="-990.36566"
      width="38.769135"
      transform="rotate(90)"
      fill="none"
      stroke-width="0.09999987"
    />
  </g>
</svg>
