<?xml version='1.0' encoding='utf-8'?>
<!DOCTYPE svg>
<!-- Generator: Adobe Illustrator 16.0.0, SVG Export Plug-In . SVG Version: 6.00 Build 0)  -->
<svg xmlns="http://www.w3.org/2000/svg"  height="0.549514in" xmlns:xml="http://www.w3.org/XML/1998/namespace" enable-background="new -27.638 -13.749 60.312 39.565" gorn="0" version="1.1" id="Layer_1" x="0px" y="0px" width="0.837667in" xml:space="preserve" viewBox="0 0 60.312 39.565">
    <desc >
        <referenceFile >BH1750.svg</referenceFile>
    </desc>
    <g transform="translate(27.638,13.749)" >
        <g >
            <g >
                <desc >Fritzing breadboard generated by brd2svg</desc>
                <g  gorn="0.1.0.0.1" id="breadboard">
                    <g  gorn="0.1.0.0.1.0" id="icon">
                        <path  d="M-27.638,25.816h60.312v-39.565h-60.312V25.816 M26.331,5.522c0-0.796,0.645-1.44,1.439-1.44c0.797,0,1.441,0.645,1.441,1.44s-0.645,1.441-1.441,1.441C26.976,6.963,26.331,6.318,26.331,5.522z M26.331-1.678c0-0.795,0.645-1.44,1.439-1.44c0.797,0,1.441,0.645,1.441,1.44l0,0c0,0.795-0.645,1.439-1.441,1.439C26.976-0.239,26.331-0.883,26.331-1.678z M26.331-8.878c0-0.795,0.645-1.44,1.439-1.44c0.797,0,1.441,0.645,1.441,1.44c0,0.795-0.645,1.44-1.441,1.44C26.976-7.438,26.331-8.083,26.331-8.878z M26.415,19.872c0-0.795,0.645-1.439,1.439-1.439s1.439,0.645,1.439,1.439c0,0.797-0.645,1.441-1.439,1.441S26.415,20.668,26.415,19.872z M26.415,12.67c0-0.795,0.645-1.439,1.439-1.439s1.439,0.645,1.439,1.439l0,0c0,0.795-0.645,1.439-1.439,1.439S26.415,13.465,26.415,12.67z M-26.093-7.731c0-2.52,2.043-4.562,4.562-4.562c2.521,0,4.564,2.043,4.564,4.562c0,2.526-2.043,4.568-4.564,4.568C-24.05-3.163-26.093-5.205-26.093-7.731z M-26.446,19.88c0-2.52,2.043-4.562,4.563-4.562c2.521,0,4.564,2.043,4.564,4.562c0,2.525-2.043,4.568-4.564,4.568C-24.403,24.449-26.446,22.406-26.446,19.88z" fill="#006A99"/>
                        <rect  height="4.676" x="14.02" y="-6.748" width="9.602" fill="#333333"/>
                        <circle  stroke-width="1.224" r="2.052" gorn="0.1.0.0.1.0.2" id="connector6pin" fill="none" stroke="#9A916C" cx="27.814" cy="-8.8"/>
                        <circle  stroke-width="1.224" r="2.052" gorn="0.1.0.0.1.0.3" id="connector6pin_1_" fill="none" stroke="#9A916C" cx="27.814" cy="-1.666"/>
                        <circle  stroke-width="1.224" r="2.052" gorn="0.1.0.0.1.0.4" id="connector6pin_2_" fill="none" stroke="#9A916C" cx="27.814" cy="5.487"/>
                        <circle  stroke-width="1.224" r="2.052" gorn="0.1.0.0.1.0.5" id="connector6pin_3_" fill="none" stroke="#9A916C" cx="27.814" cy="12.683"/>
                        <circle  stroke-width="1.224" r="2.052" gorn="0.1.0.0.1.0.6" id="connector6pin_4_" fill="none" stroke="#9A916C" cx="27.814" cy="19.884"/>
                        <rect  height="2.886" fill-opacity="0.15" x="14.967" y="19.884" width="7.708" fill="#FFFFFF"/>
                        <rect  height="2.886" fill-opacity="0.15" x="14.967" y="14.947" width="7.708" fill="#FFFFFF"/>
                        <rect  height="2.886" fill-opacity="0.15" x="14.967" y="10.232" width="7.708" fill="#FFFFFF"/>
                        <rect  height="2.886" fill-opacity="0.15" x="14.967" y="5.487" width="7.708" fill="#FFFFFF"/>
                        <rect  height="2.886" fill-opacity="0.15" x="14.967" y="0.549" width="7.708" fill="#FFFFFF"/>
                        <rect  height="2.886" fill-opacity="0.15" x="14.967" y="-11.686" width="7.708" fill="#FFFFFF"/>
                        <rect  height="14.698" x="-7.934" y="-1.315" width="9.734" fill="#333333"/>
                        <rect  height="2.885" fill-opacity="0.15" x="-21.199" y="7.55" width="7.708" fill="#FFFFFF"/>
                        <rect  height="2.886" fill-opacity="0.15" x="-21.199" y="2.612" width="7.708" fill="#FFFFFF"/>
                        <g transform="matrix(1.192488e-08 -1 1 1.192488e-08 8.3938 15.9351)" >
                            <g >
                                <text  font-family="Droid Sans" font-size="5.9438" fill="#FFFFFF">BH1750</text>
                            </g>
                        </g>
                    </g>
                </g>
                <g transform="matrix(1 0 0 1 16.3987 -7.499)" >
                    <g >
                        <text  font-family="Droid Sans" font-size="4.3433" fill="#FFFFFF">VCC</text>
                    </g>
                </g>
                <g transform="matrix(1 0 0 1 14.967 -0.0825)" >
                    <g >
                        <text  font-family="Droid Sans" font-size="4.3433" fill="#FFFFFF">GND</text>
                    </g>
                </g>
                <g transform="matrix(1 0 0 1 16.9827 7.5498)" >
                    <g >
                        <text  font-family="Droid Sans" font-size="4.3433" fill="#FFFFFF">SCL</text>
                    </g>
                </g>
                <g transform="matrix(1 0 0 1 16.3982 14.7349)" >
                    <g >
                        <text  font-family="Droid Sans" font-size="4.3433" fill="#FFFFFF">SDA</text>
                    </g>
                </g>
                <g transform="matrix(1 0 0 1 13.5652 21.937)" >
                    <g >
                        <text  font-family="Droid Sans" font-size="4.3433" fill="#FFFFFF">ADDR</text>
                    </g>
                </g>
            </g>
        </g>
    </g>
</svg>
