<?xml version='1.0' encoding='utf-8'?>
<!DOCTYPE svg>
<!-- Generator: Adobe Illustrator 13.0.1, SVG Export Plug-In . SVG Version: 6.00 Build 14948)  -->
<svg xmlns="http://www.w3.org/2000/svg" enable-background="new 0 0 52.486 52.732" height="0.732389in"  xml:space="preserve" version="1.1" xmlns:xml="http://www.w3.org/XML/1998/namespace" gorn="0" id="breadboard" x="0px" viewBox="0 0 52.486 52.732" y="0px" width="0.728972in">
    <desc >
        <referenceFile >MPS20N0040D_Module_breadboard.svg</referenceFile>
    </desc>
    <g  gorn="0.1" id="PCB">
        <g  gorn="0.1.0" id="Board_Base">
            <g >
                <g >
                    <path  d="M46.754,22.771l0.003-0.008c-0.801-0.299-1.367-1.064-1.379-1.969V0H7.109v20.837c-0.015,0.836-0.399,1.556-1.226,1.89l-0.065,0.02C2.451,23.771,0,26.904,0,30.608c0,3.513,2.204,6.511,5.304,7.688c1.177,0.461,1.804,1.062,1.804,2.12l0.002,0.063v12.254h38.27V40.383c0.021-0.978,0.698-1.793,1.609-2.017v0.001c3.202-1.124,5.499-4.175,5.499-7.76C52.487,26.936,50.078,23.825,46.754,22.771z M4.842,33.354c-1.564,0-2.834-1.271-2.834-2.834c0-1.565,1.27-2.836,2.834-2.836c1.565,0,2.836,1.271,2.836,2.836C7.677,32.085,6.407,33.354,4.842,33.354z M15.932,49.762c-0.861,0-1.561-0.698-1.561-1.56s0.697-1.56,1.561-1.56c0.862,0,1.56,0.697,1.56,1.56C17.491,49.064,16.793,49.762,15.932,49.762z M23.117,49.789c-0.861,0-1.561-0.697-1.561-1.56c0-0.861,0.698-1.561,1.561-1.561c0.859,0,1.558,0.698,1.558,1.561S23.977,49.789,23.117,49.789z M30.316,49.789c-0.86,0-1.561-0.697-1.561-1.56c0-0.861,0.699-1.561,1.561-1.561s1.559,0.698,1.559,1.561C31.874,49.092,31.176,49.789,30.316,49.789z M37.519,49.789c-0.86,0-1.561-0.698-1.561-1.561c0-0.858,0.699-1.559,1.561-1.559c0.86,0,1.56,0.698,1.56,1.559C39.077,49.091,38.379,49.789,37.519,49.789z M47.645,33.354c-1.564,0-2.834-1.271-2.834-2.834c0-1.565,1.27-2.836,2.834-2.836s2.835,1.271,2.835,2.836C50.479,32.085,49.21,33.354,47.645,33.354z" fill="#E22020"/>
                </g>
            </g>
            <path  d="M46.988,38.367c3.202-1.124,5.499-4.175,5.499-7.76c0-3.673-2.408-6.782-5.732-7.838l0.003-0.009c-0.81-0.301-1.383-1.078-1.383-1.992l0.004,0.127V0H7.109v20.848v-0.015c-0.014,0.838-0.399,1.559-1.226,1.894l-0.065,0.02C2.451,23.771,0,26.904,0,30.608c0,3.513,2.204,6.511,5.304,7.688l0,0c1.177,0.461,1.804,1.062,1.804,2.12l0.002,0.063v12.254h38.27V40.315l-0.004,0.112C45.374,39.431,46.062,38.594,46.988,38.367L46.988,38.367z" stroke="#C18A8A" stroke-width="0.25" fill="none"/>
        </g>
    </g>
    <g  gorn="0.2" id="Components">
        <g  gorn="0.2.0" id="C1_2_">
            <path  d="M41.975,32.564c0.083,0,0.148,0.065,0.148,0.148v2.109c0,0.084-0.065,0.15-0.148,0.15H39.58c-0.083,0-0.148-0.066-0.148-0.15v-2.109c0-0.083,0.065-0.148,0.148-0.148H41.975z" fill="#8C8C8C"/>
            <path  d="M41.975,38.064c0.083,0,0.148,0.065,0.148,0.148v2.109c0,0.084-0.065,0.15-0.148,0.15H39.58c-0.083,0-0.148-0.066-0.148-0.15v-2.109c0-0.083,0.065-0.148,0.148-0.148H41.975z" fill="#8C8C8C"/>
            <g >
                <path  d="M41.839,38.374c0,0.146-0.118,0.267-0.267,0.267h-1.59c-0.147,0-0.267-0.119-0.267-0.267v-3.711c0-0.146,0.117-0.265,0.267-0.265h1.59c0.146,0,0.267,0.117,0.267,0.265V38.374z" fill="#DDDDDD"/>
                <rect height="2.834"  x="39.714" y="35.103" width="2.127" fill="#956132"/>
                <path  d="M41.573,34.399c0.146,0,0.267,0.117,0.267,0.265v3.711c0,0.146-0.118,0.267-0.267,0.267" stroke-linejoin="round" stroke="#666666" stroke-width="0.15" fill="none" stroke-linecap="round"/>
                <line x1="41.573" x2="39.983"  stroke-linejoin="round" y1="38.64" stroke="#A6A6A6" stroke-width="0.15" y2="38.64" fill="none" stroke-linecap="round"/>
                <line x1="39.983" x2="41.573"  stroke-linejoin="round" y1="34.399" stroke="#A6A6A6" stroke-width="0.15" y2="34.399" fill="none" stroke-linecap="round"/>
                <path  d="M39.983,38.64c-0.147,0-0.267-0.119-0.267-0.267v-3.711c0-0.146,0.117-0.265,0.267-0.265" stroke-linejoin="round" stroke="#EEEEEE" stroke-width="0.15" fill="none" stroke-linecap="round"/>
                <line x1="39.718" x2="39.718"  y1="35.111" stroke="#B57441" stroke-width="0.15" y2="37.945" fill="none"/>
                <line x1="41.839" x2="41.839"  y1="35.111" stroke="#704525" stroke-width="0.15" y2="37.945" fill="none"/>
            </g>
        </g>
        <g  gorn="0.2.1" id="C2_1_">
            <path  d="M12.698,32.564c0.083,0,0.149,0.065,0.149,0.148v2.109c0,0.084-0.067,0.15-0.149,0.15h-2.395c-0.083,0-0.15-0.066-0.15-0.15v-2.109c0-0.083,0.067-0.148,0.15-0.148H12.698z" fill="#8C8C8C"/>
            <path  d="M12.698,38.064c0.083,0,0.149,0.065,0.149,0.148v2.109c0,0.084-0.067,0.15-0.149,0.15h-2.395c-0.083,0-0.15-0.066-0.15-0.15v-2.109c0-0.083,0.067-0.148,0.15-0.148H12.698z" fill="#8C8C8C"/>
            <g >
                <path  d="M12.562,38.374c0,0.146-0.118,0.267-0.267,0.267h-1.59c-0.146,0-0.267-0.119-0.267-0.267v-3.711c0-0.146,0.118-0.265,0.267-0.265h1.59c0.146,0,0.267,0.117,0.267,0.265V38.374z" fill="#DDDDDD"/>
                <rect height="2.834"  x="10.438" y="35.103" width="2.126" fill="#956132"/>
                <path  d="M12.296,34.399c0.146,0,0.267,0.117,0.267,0.265v3.711c0,0.146-0.118,0.267-0.267,0.267" stroke-linejoin="round" stroke="#666666" stroke-width="0.15" fill="none" stroke-linecap="round"/>
                <line x1="12.296" x2="10.707"  stroke-linejoin="round" y1="38.64" stroke="#A6A6A6" stroke-width="0.15" y2="38.64" fill="none" stroke-linecap="round"/>
                <line x1="10.707" x2="12.296"  stroke-linejoin="round" y1="34.399" stroke="#A6A6A6" stroke-width="0.15" y2="34.399" fill="none" stroke-linecap="round"/>
                <path  d="M10.707,38.64c-0.146,0-0.267-0.119-0.267-0.267v-3.711c0-0.146,0.118-0.265,0.267-0.265" stroke-linejoin="round" stroke="#EEEEEE" stroke-width="0.15" fill="none" stroke-linecap="round"/>
                <line x1="10.441" x2="10.441"  y1="35.111" stroke="#B57441" stroke-width="0.15" y2="37.945" fill="none"/>
                <line x1="12.562" x2="12.562"  y1="35.111" stroke="#704525" stroke-width="0.15" y2="37.945" fill="none"/>
            </g>
        </g>
        <g  gorn="0.2.2" id="R2_3_">
            <path  d="M42.103,21.096c0.082,0,0.148,0.065,0.148,0.148v2.108c0,0.084-0.066,0.15-0.148,0.15h-2.396c-0.083,0-0.149-0.066-0.149-0.15v-2.108c0-0.083,0.066-0.148,0.149-0.148H42.103z" fill="#8C8C8C"/>
            <path  d="M42.103,26.596c0.082,0,0.148,0.065,0.148,0.148v2.108c0,0.084-0.066,0.15-0.148,0.15h-2.396c-0.083,0-0.149-0.066-0.149-0.15v-2.108c0-0.083,0.066-0.148,0.149-0.148H42.103z" fill="#8C8C8C"/>
            <g >
                <g >
                    <path  d="M41.966,26.906c0,0.146-0.117,0.266-0.266,0.266h-1.59c-0.146,0-0.266-0.119-0.266-0.266v-3.712c0-0.146,0.117-0.264,0.266-0.264h1.59c0.146,0,0.266,0.116,0.266,0.264V26.906z" fill="#DDDDDD"/>
                    <rect height="2.834"  x="39.842" y="23.634" width="2.126" fill="#3D3D3D"/>
                    <path  d="M41.7,22.931c0.146,0,0.266,0.116,0.266,0.264v3.712c0,0.146-0.117,0.266-0.266,0.266" stroke-linejoin="round" stroke="#666666" stroke-width="0.15" fill="none" stroke-linecap="round"/>
                    <line x1="41.7" x2="40.11"  stroke-linejoin="round" y1="27.171" stroke="#A6A6A6" stroke-width="0.15" y2="27.171" fill="none" stroke-linecap="round"/>
                    <line x1="40.11" x2="41.7"  stroke-linejoin="round" y1="22.931" stroke="#A6A6A6" stroke-width="0.15" y2="22.931" fill="none" stroke-linecap="round"/>
                    <path  d="M40.11,27.171c-0.146,0-0.266-0.119-0.266-0.266v-3.712c0-0.146,0.117-0.264,0.266-0.264" stroke-linejoin="round" stroke="#EEEEEE" stroke-width="0.15" fill="none" stroke-linecap="round"/>
                    <line x1="39.845" x2="39.845"  y1="23.643" stroke="#666666" stroke-width="0.15" y2="26.477" fill="none"/>
                    <line x1="41.966" x2="41.966"  y1="23.643" stroke="#121212" stroke-width="0.15" y2="26.477" fill="none"/>
                </g>
                <g >
                    <path  d="M41.355,24.157c0,0.197,0,0.19-0.004,0.205c-0.014,0.05-0.054,0.085-0.104,0.091c-0.005,0.001-0.104,0.001-0.359,0.001h-0.354l-0.009-0.002c-0.021-0.007-0.038-0.015-0.053-0.025c-0.024-0.02-0.039-0.048-0.043-0.079c-0.001-0.006-0.001-0.06-0.001-0.193v-0.187l0.002-0.008c0.007-0.028,0.021-0.053,0.042-0.069c0.014-0.011,0.028-0.02,0.047-0.022c0.016-0.005-0.006-0.005,0.372-0.005s0.355,0,0.372,0.005c0.048,0.013,0.084,0.053,0.09,0.102C41.354,23.972,41.355,24.056,41.355,24.157z M41.235,24.334v-0.176v-0.176h-0.343H40.55v0.176v0.176h0.344H41.235z" fill="#FFFFFF"/>
                    <path  d="M41.355,24.961v0.149h-0.402H40.55v0.059v0.06h0.123c0.135,0,0.13,0,0.141,0.004c0.003,0.001,0.008,0.003,0.01,0.004c0.007,0.005,0.019,0.017,0.021,0.021c0.003,0.007,0.007,0.017,0.008,0.023c0.001,0.014-0.002,0.027-0.011,0.038c-0.004,0.008-0.014,0.017-0.021,0.021c-0.006,0.004-0.015,0.008-0.021,0.009c-0.005,0-0.046,0.001-0.163,0c-0.179,0-0.16,0.001-0.175-0.007c-0.012-0.006-0.021-0.015-0.025-0.026c-0.002-0.004-0.004-0.009-0.005-0.013c-0.002-0.004-0.002-0.016-0.002-0.25v-0.244l0.002-0.007c0.008-0.025,0.029-0.044,0.058-0.044s0.051,0.018,0.06,0.043l0.001,0.007l0.001,0.094v0.093h0.344h0.343V24.9v-0.094l0.002-0.007c0.007-0.018,0.019-0.03,0.033-0.037c0.016-0.008,0.034-0.008,0.05,0c0.019,0.008,0.031,0.024,0.034,0.045C41.354,24.809,41.355,24.878,41.355,24.961z" fill="#FFFFFF"/>
                    <path  d="M41.354,25.96c-0.001,0.004-0.003,0.008-0.005,0.013c-0.007,0.013-0.016,0.021-0.027,0.026c-0.005,0.003-0.078,0.023-0.41,0.121c-0.224,0.065-0.407,0.119-0.409,0.12s-0.008,0.001-0.013,0.001c-0.038,0-0.066-0.038-0.058-0.076c0.006-0.019,0.021-0.033,0.035-0.039c0.005-0.002,0.041-0.015,0.086-0.024l0.077-0.022v-0.131v-0.134l-0.08-0.022c-0.044-0.014-0.081-0.022-0.084-0.024c-0.011-0.004-0.021-0.013-0.026-0.021c-0.021-0.035-0.004-0.081,0.036-0.093c0.008-0.002,0.021-0.002,0.027,0c0.011,0.004,0.809,0.236,0.812,0.238c0.009,0.003,0.014,0.006,0.021,0.015c0.011,0.01,0.016,0.019,0.019,0.03C41.355,25.94,41.355,25.954,41.354,25.96z M41.081,25.946c0,0-0.073-0.021-0.165-0.049l-0.165-0.049v0.049c0,0.026,0,0.069,0,0.098v0.048l0.165-0.048C41.006,25.968,41.08,25.946,41.081,25.946z" fill="#FFFFFF"/>
                </g>
            </g>
        </g>
        <g  gorn="0.2.3" id="R1">
            <path  d="M12.698,21.721c0.083,0,0.149,0.065,0.149,0.148v2.108c0,0.084-0.067,0.15-0.149,0.15h-2.395c-0.083,0-0.15-0.066-0.15-0.15V21.87c0-0.083,0.067-0.148,0.15-0.148H12.698z" fill="#8C8C8C"/>
            <path  d="M12.698,27.221c0.083,0,0.149,0.065,0.149,0.148v2.108c0,0.084-0.067,0.15-0.149,0.15h-2.395c-0.083,0-0.15-0.066-0.15-0.15V27.37c0-0.083,0.067-0.148,0.15-0.148H12.698z" fill="#8C8C8C"/>
            <g >
                <g >
                    <path  d="M12.562,27.531c0,0.146-0.118,0.266-0.267,0.266h-1.59c-0.146,0-0.267-0.119-0.267-0.266v-3.712c0-0.146,0.118-0.264,0.267-0.264h1.59c0.146,0,0.267,0.116,0.267,0.264V27.531z" fill="#DDDDDD"/>
                    <rect height="2.834"  x="10.438" y="24.259" width="2.126" fill="#3D3D3D"/>
                    <path  d="M12.296,23.556c0.146,0,0.267,0.116,0.267,0.264v3.712c0,0.146-0.118,0.266-0.267,0.266" stroke-linejoin="round" stroke="#666666" stroke-width="0.15" fill="none" stroke-linecap="round"/>
                    <line x1="12.296" x2="10.706"  stroke-linejoin="round" y1="27.796" stroke="#A6A6A6" stroke-width="0.15" y2="27.796" fill="none" stroke-linecap="round"/>
                    <line x1="10.706" x2="12.296"  stroke-linejoin="round" y1="23.556" stroke="#A6A6A6" stroke-width="0.15" y2="23.556" fill="none" stroke-linecap="round"/>
                    <path  d="M10.706,27.796c-0.146,0-0.267-0.119-0.267-0.266v-3.712c0-0.146,0.118-0.264,0.267-0.264" stroke-linejoin="round" stroke="#EEEEEE" stroke-width="0.15" fill="none" stroke-linecap="round"/>
                    <line x1="10.44" x2="10.44"  y1="24.268" stroke="#666666" stroke-width="0.15" y2="27.102" fill="none"/>
                    <line x1="12.562" x2="12.562"  y1="24.268" stroke="#121212" stroke-width="0.15" y2="27.102" fill="none"/>
                </g>
                <g >
                    <path  d="M11.951,24.782c0,0.197,0,0.19-0.005,0.205c-0.013,0.05-0.053,0.085-0.104,0.091c-0.005,0.001-0.104,0.001-0.359,0.001H11.13l-0.008-0.002c-0.021-0.007-0.038-0.015-0.054-0.025c-0.023-0.02-0.039-0.048-0.043-0.079c-0.001-0.006-0.001-0.06-0.001-0.193v-0.187l0.002-0.008c0.008-0.028,0.021-0.053,0.042-0.069c0.015-0.011,0.029-0.02,0.048-0.022c0.015-0.005-0.007-0.005,0.371-0.005c0.379,0,0.355,0,0.372,0.005c0.049,0.013,0.084,0.053,0.091,0.102C11.95,24.597,11.951,24.681,11.951,24.782z M11.831,24.959v-0.176v-0.176h-0.344h-0.343v0.176v0.176h0.343H11.831z" fill="#FFFFFF"/>
                    <path  d="M11.951,25.586v0.149h-0.403h-0.401v0.059v0.06h0.123c0.134,0,0.129,0,0.141,0.004c0.003,0.001,0.008,0.003,0.01,0.004c0.006,0.005,0.019,0.017,0.021,0.021c0.003,0.007,0.007,0.017,0.008,0.023c0.002,0.014-0.002,0.027-0.01,0.038c-0.004,0.008-0.015,0.017-0.021,0.021s-0.016,0.008-0.021,0.009c-0.005,0-0.046,0.001-0.164,0c-0.178,0-0.16,0.001-0.174-0.007c-0.013-0.006-0.021-0.015-0.025-0.026c-0.003-0.004-0.005-0.009-0.006-0.013c-0.002-0.004-0.002-0.016-0.002-0.25v-0.244l0.002-0.007c0.009-0.025,0.03-0.044,0.059-0.044c0.027,0,0.051,0.018,0.06,0.043l0.001,0.007l0.001,0.094v0.093h0.344h0.343v-0.093v-0.094l0.002-0.007c0.007-0.018,0.019-0.03,0.033-0.037c0.016-0.008,0.033-0.008,0.05,0c0.019,0.008,0.031,0.024,0.034,0.045C11.95,25.434,11.951,25.503,11.951,25.586z" fill="#FFFFFF"/>
                    <path  d="M11.949,26.585c-0.002,0.004-0.004,0.008-0.006,0.013c-0.006,0.013-0.015,0.021-0.026,0.026c-0.005,0.003-0.079,0.023-0.411,0.121c-0.223,0.065-0.406,0.119-0.408,0.12s-0.009,0.001-0.013,0.001c-0.039,0-0.066-0.038-0.059-0.076c0.007-0.019,0.021-0.033,0.036-0.039c0.004-0.002,0.041-0.015,0.085-0.024l0.078-0.022v-0.131v-0.134l-0.08-0.022c-0.044-0.014-0.082-0.022-0.084-0.024c-0.012-0.004-0.021-0.013-0.026-0.021c-0.021-0.035-0.005-0.081,0.035-0.093c0.009-0.002,0.021-0.002,0.028,0c0.01,0.004,0.809,0.236,0.812,0.238c0.008,0.003,0.013,0.006,0.021,0.015c0.01,0.01,0.015,0.019,0.019,0.03C11.951,26.565,11.951,26.579,11.949,26.585z M11.677,26.571c0,0-0.073-0.021-0.165-0.049l-0.165-0.049v0.049c0,0.026,0,0.069,0,0.098v0.048l0.165-0.048C11.602,26.593,11.676,26.571,11.677,26.571z" fill="#FFFFFF"/>
                </g>
            </g>
        </g>
        <g  gorn="0.2.4" id="HK710B">
            <path  d="M30.991,24.867c0.391,0,0.706,0.316,0.706,0.709v12.756c0,0.392-0.315,0.708-0.706,0.708h-9.354c-0.392,0-0.709-0.316-0.709-0.708V25.576c0-0.393,0.317-0.709,0.709-0.709H30.991z" fill="#3D3D3D"/>
            <path  d="M30.62,38.11c0.075,0,0.142-0.062,0.142-0.137V25.935c0-0.076-0.064-0.138-0.142-0.138h-8.613c-0.077,0-0.141,0.062-0.141,0.138v12.039c0,0.074,0.062,0.137,0.141,0.137L30.62,38.11L30.62,38.11z" stroke="#4D4D4D" stroke-width="0.25" fill="#4D4D4D"/>
            <g >
                <path  d="M22.005,25.798c-0.075,0-0.142,0.062-0.142,0.137v12.04c0,0.074,0.064,0.137,0.142,0.137" stroke="#333333" stroke-width="0.25" fill="none"/>
                <line x1="22.005" x2="30.62"  y1="38.11" stroke="#4D4D4D" stroke-width="0.25" y2="38.11" fill="none" stroke-linecap="round"/>
                <line x1="30.62" x2="22.005"  y1="25.798" stroke="#666666" stroke-width="0.25" y2="25.798" fill="none" stroke-linecap="round"/>
                <path  d="M30.62,38.11c0.077,0,0.142-0.062,0.142-0.137v-12.04c0-0.075-0.062-0.137-0.142-0.137" stroke="#808080" stroke-width="0.25" fill="none" stroke-linecap="round"/>
            </g>
            <g >
                <circle  r="0.729" stroke="#333333" stroke-width="0.1" cx="23.407" fill="#1A1A1A" cy="26.922"/>
                <path  d="M23.269,27.46c-0.156,0-0.285-0.129-0.285-0.285c0-0.155,0.129-0.28,0.285-0.28c0.155,0,0.281,0.125,0.281,0.28C23.551,27.331,23.425,27.46,23.269,27.46z" fill="#666666"/>
                <g >
                    <path  d="M24.544,27.907l1.74,0.682v-0.912h0.223v1.138h-0.193l-1.77-0.671V27.907z" fill="#605F5F"/>
                    <path  d="M24.544,29.246l1.74,0.681v-0.91h0.223v1.136h-0.193l-1.77-0.67V29.246z" fill="#605F5F"/>
                    <path  d="M24.544,31.104v-0.213h1.227c0.039,0,0.08,0,0.124,0c0.044,0.001,0.087,0.002,0.131,0.003c0.043,0.001,0.085,0.003,0.125,0.004s0.075,0.002,0.104,0.003c-0.018-0.014-0.029-0.024-0.042-0.035c-0.012-0.012-0.021-0.021-0.032-0.032c-0.012-0.011-0.021-0.021-0.034-0.034c-0.014-0.013-0.025-0.025-0.043-0.044l-0.162-0.179l0.165-0.116l0.4,0.463v0.183L24.544,31.104L24.544,31.104z" fill="#605F5F"/>
                    <path  d="M25.528,32.831c-0.157,0-0.301-0.012-0.426-0.031c-0.125-0.019-0.23-0.054-0.317-0.1c-0.088-0.045-0.153-0.104-0.198-0.177c-0.046-0.07-0.068-0.157-0.068-0.261c0-0.096,0.022-0.179,0.068-0.248c0.045-0.071,0.11-0.13,0.198-0.176c0.087-0.047,0.192-0.082,0.317-0.104s0.269-0.033,0.426-0.033c0.158,0,0.301,0.01,0.427,0.03c0.125,0.021,0.229,0.054,0.316,0.099c0.086,0.045,0.151,0.104,0.198,0.174c0.045,0.071,0.067,0.158,0.067,0.26c0,0.097-0.021,0.18-0.067,0.251c-0.046,0.069-0.11,0.129-0.197,0.176c-0.086,0.047-0.191,0.082-0.316,0.104C25.83,32.819,25.688,32.831,25.528,32.831z M25.528,31.925c-0.135,0-0.252,0.008-0.353,0.021s-0.185,0.031-0.251,0.058c-0.065,0.027-0.115,0.062-0.149,0.104c-0.032,0.043-0.05,0.097-0.05,0.157c0,0.062,0.018,0.114,0.049,0.158c0.033,0.043,0.083,0.078,0.148,0.105c0.065,0.028,0.148,0.049,0.251,0.061c0.102,0.015,0.219,0.021,0.354,0.021c0.135,0,0.251-0.006,0.353-0.021c0.102-0.012,0.185-0.03,0.25-0.061c0.065-0.028,0.116-0.062,0.147-0.105c0.033-0.044,0.051-0.098,0.051-0.158c0-0.062-0.018-0.114-0.051-0.157c-0.031-0.043-0.082-0.078-0.147-0.104c-0.065-0.024-0.148-0.045-0.25-0.058S25.662,31.925,25.528,31.925z" fill="#605F5F"/>
                    <path  d="M25.528,34.169c-0.157,0-0.301-0.01-0.426-0.03s-0.23-0.054-0.317-0.1c-0.088-0.046-0.153-0.104-0.198-0.177c-0.046-0.07-0.068-0.158-0.068-0.261c0-0.097,0.022-0.179,0.068-0.248c0.045-0.07,0.11-0.129,0.198-0.177c0.087-0.047,0.192-0.08,0.317-0.104s0.269-0.035,0.426-0.035c0.158,0,0.301,0.011,0.427,0.03c0.125,0.021,0.229,0.054,0.316,0.099c0.086,0.045,0.151,0.104,0.198,0.174c0.045,0.072,0.067,0.158,0.067,0.261c0,0.097-0.021,0.181-0.067,0.25s-0.11,0.129-0.197,0.176c-0.086,0.048-0.191,0.082-0.316,0.104C25.831,34.155,25.688,34.169,25.528,34.169z M25.528,33.264c-0.135,0-0.252,0.007-0.353,0.02c-0.101,0.012-0.185,0.03-0.251,0.058c-0.065,0.028-0.115,0.062-0.149,0.104c-0.032,0.043-0.05,0.097-0.05,0.158s0.018,0.114,0.049,0.158c0.033,0.043,0.083,0.078,0.148,0.106c0.065,0.026,0.148,0.047,0.251,0.061c0.102,0.013,0.219,0.02,0.354,0.02c0.135,0,0.251-0.007,0.353-0.02c0.102-0.014,0.185-0.032,0.25-0.061s0.116-0.063,0.147-0.106c0.033-0.044,0.051-0.098,0.051-0.158c0-0.062-0.018-0.115-0.051-0.158c-0.031-0.043-0.082-0.077-0.147-0.104c-0.065-0.025-0.148-0.046-0.25-0.058C25.779,33.271,25.662,33.264,25.528,33.264z" fill="#605F5F"/>
                    <path  d="M24.544,34.6l1.74,0.682V34.37h0.223v1.136h-0.193l-1.77-0.67V34.6z" fill="#605F5F"/>
                    <path  d="M24.544,36.817v-1.103h0.209l0.513,0.423c0.072,0.062,0.139,0.114,0.198,0.161c0.061,0.049,0.118,0.089,0.177,0.121c0.058,0.034,0.114,0.061,0.173,0.077c0.059,0.02,0.12,0.025,0.188,0.025c0.054,0,0.101-0.006,0.141-0.021c0.04-0.014,0.073-0.033,0.104-0.06c0.028-0.025,0.05-0.058,0.062-0.091c0.015-0.034,0.021-0.072,0.021-0.116c0-0.075-0.018-0.146-0.053-0.206c-0.033-0.062-0.078-0.12-0.132-0.177l0.16-0.123c0.031,0.031,0.062,0.065,0.09,0.104c0.027,0.037,0.053,0.077,0.072,0.12c0.021,0.042,0.037,0.087,0.051,0.136c0.012,0.047,0.019,0.098,0.019,0.149c0,0.076-0.013,0.146-0.036,0.21c-0.023,0.062-0.06,0.114-0.104,0.157c-0.045,0.044-0.101,0.078-0.165,0.103c-0.063,0.022-0.139,0.035-0.219,0.035c-0.076,0-0.149-0.012-0.219-0.031c-0.068-0.021-0.138-0.051-0.204-0.089c-0.065-0.038-0.133-0.082-0.199-0.134c-0.067-0.054-0.138-0.108-0.21-0.169l-0.401-0.34h-0.011v0.832h-0.224V36.817z" fill="#605F5F"/>
                </g>
                <g >
                    <path  d="M27.409,29.199v-0.245h0.999v-0.879h-0.999v-0.244h2.142v0.244h-0.901v0.879h0.901v0.245H27.409z" fill="#605F5F"/>
                    <path  d="M27.409,30.998v-0.278l1.021-0.594l-0.167-0.185h-0.854v-0.246h2.142v0.246h-1.07l0.246,0.159l0.824,0.598v0.274l-0.933-0.687L27.409,30.998z" fill="#605F5F"/>
                    <path  d="M27.409,31.342l1.897,0.742V31.09h0.242v1.239h-0.212l-1.93-0.731L27.409,31.342L27.409,31.342z" fill="#605F5F"/>
                    <path  d="M27.409,33.368v-0.232h1.338c0.041,0,0.086,0.002,0.135,0.003c0.048,0,0.096,0.001,0.144,0.002c0.047,0.002,0.094,0.003,0.137,0.004c0.044,0.002,0.082,0.002,0.114,0.004c-0.019-0.017-0.032-0.028-0.046-0.04c-0.014-0.011-0.023-0.021-0.036-0.033c-0.012-0.014-0.023-0.025-0.036-0.038c-0.015-0.014-0.028-0.029-0.047-0.049l-0.178-0.194l0.18-0.126l0.438,0.505v0.197L27.409,33.368L27.409,33.368z" fill="#605F5F"/>
                    <path  d="M28.483,35.251c-0.174,0-0.328-0.011-0.465-0.033c-0.138-0.021-0.253-0.059-0.349-0.106c-0.095-0.051-0.166-0.113-0.217-0.191c-0.05-0.078-0.074-0.173-0.074-0.284c0-0.104,0.024-0.193,0.074-0.271c0.051-0.076,0.122-0.142,0.217-0.191c0.096-0.049,0.211-0.088,0.349-0.112c0.137-0.024,0.291-0.037,0.465-0.037c0.172,0,0.327,0.013,0.464,0.033c0.138,0.021,0.253,0.06,0.348,0.106c0.095,0.049,0.166,0.11,0.217,0.188c0.05,0.078,0.074,0.172,0.074,0.282c0,0.104-0.024,0.195-0.073,0.272c-0.051,0.076-0.121,0.142-0.217,0.191c-0.094,0.051-0.21,0.09-0.348,0.114C28.811,35.24,28.656,35.251,28.483,35.251z M28.483,34.265c-0.146,0-0.274,0.006-0.385,0.021c-0.11,0.014-0.2,0.033-0.271,0.062c-0.073,0.028-0.129,0.066-0.164,0.114c-0.037,0.047-0.057,0.104-0.057,0.172s0.02,0.125,0.056,0.173c0.035,0.048,0.09,0.087,0.161,0.116c0.072,0.03,0.164,0.054,0.273,0.066c0.109,0.014,0.237,0.02,0.387,0.02c0.146,0,0.272-0.006,0.384-0.02c0.109-0.015,0.199-0.036,0.272-0.066c0.07-0.029,0.126-0.068,0.161-0.116c0.036-0.048,0.056-0.104,0.056-0.173c0-0.067-0.02-0.125-0.056-0.172c-0.035-0.048-0.091-0.086-0.161-0.114c-0.073-0.028-0.164-0.05-0.272-0.062C28.757,34.272,28.63,34.265,28.483,34.265z" fill="#605F5F"/>
                    <path  d="M29.551,35.615v0.524c0,0.112-0.01,0.212-0.027,0.297c-0.021,0.086-0.05,0.157-0.093,0.216c-0.042,0.059-0.099,0.102-0.167,0.131c-0.068,0.028-0.153,0.043-0.255,0.043c-0.062,0-0.116-0.009-0.17-0.025c-0.053-0.016-0.101-0.042-0.139-0.073c-0.041-0.033-0.074-0.073-0.102-0.121c-0.028-0.048-0.045-0.103-0.055-0.162H28.53c-0.012,0.062-0.027,0.117-0.051,0.17c-0.021,0.054-0.052,0.101-0.091,0.14c-0.038,0.04-0.088,0.071-0.146,0.095c-0.06,0.022-0.131,0.034-0.215,0.034c-0.098,0-0.186-0.015-0.262-0.043s-0.143-0.069-0.194-0.124c-0.054-0.054-0.095-0.119-0.121-0.196c-0.029-0.077-0.043-0.165-0.043-0.264v-0.639L29.551,35.615L29.551,35.615z M28.414,35.858h-0.772v0.353c0,0.077,0.01,0.144,0.028,0.193c0.02,0.052,0.047,0.096,0.082,0.127c0.035,0.032,0.077,0.056,0.127,0.069c0.05,0.015,0.104,0.021,0.163,0.021c0.056,0,0.104-0.007,0.149-0.021c0.046-0.015,0.086-0.038,0.118-0.071c0.032-0.032,0.06-0.075,0.075-0.131c0.02-0.056,0.027-0.123,0.027-0.203L28.414,35.858L28.414,35.858z M28.643,35.858v0.322c0,0.073,0.007,0.136,0.021,0.187s0.036,0.091,0.063,0.12c0.028,0.031,0.064,0.055,0.107,0.067c0.044,0.014,0.095,0.021,0.15,0.021c0.117,0,0.201-0.034,0.252-0.103c0.052-0.067,0.076-0.176,0.076-0.32v-0.295L28.643,35.858L28.643,35.858z" fill="#605F5F"/>
                </g>
            </g>
            <rect height="1.56"  x="34.135" y="25.756" width="2.693" fill="#8C8C8C"/>
            <g >
                <rect height="1.134"  x="31.698" y="25.968" width="3.544" stroke="#000000" stroke-width="0.05" fill="#A9A9A9"/>
                <rect height="1.134"  x="31.698" y="25.968" width="1.275" stroke="#000000" stroke-width="0.05" fill="#DDD9D9"/>
                <rect height="1.134"  x="32.973" y="25.968" width="0.709" fill="#808080"/>
            </g>
            <rect height="1.559"  x="34.135" y="29.368" width="2.693" fill="#8C8C8C"/>
            <g >
                <rect height="1.133"  x="31.698" y="29.58" width="3.544" stroke="#000000" stroke-width="0.05" fill="#A9A9A9"/>
                <rect height="1.133"  x="31.698" y="29.58" width="1.275" stroke="#000000" stroke-width="0.05" fill="#DDD9D9"/>
                <rect height="1.133"  x="32.973" y="29.58" width="0.709" fill="#808080"/>
            </g>
            <rect height="1.56"  x="34.135" y="32.98" width="2.693" fill="#8C8C8C"/>
            <g >
                <rect height="1.134"  x="31.698" y="33.192" width="3.544" stroke="#000000" stroke-width="0.05" fill="#A9A9A9"/>
                <rect height="1.134"  x="31.698" y="33.192" width="1.275" stroke="#000000" stroke-width="0.05" fill="#DDD9D9"/>
                <rect height="1.134"  x="32.973" y="33.192" width="0.709" fill="#808080"/>
            </g>
            <rect height="1.56"  x="34.135" y="36.593" width="2.693" fill="#8C8C8C"/>
            <g >
                <rect height="1.133"  x="31.698" y="36.805" width="3.544" stroke="#000000" stroke-width="0.05" fill="#A9A9A9"/>
                <rect height="1.133"  x="31.698" y="36.805" width="1.275" stroke="#000000" stroke-width="0.05" fill="#DDD9D9"/>
                <rect height="1.133"  x="32.973" y="36.805" width="0.709" fill="#808080"/>
            </g>
            <rect height="1.56"  x="15.738" y="25.756" width="2.693" fill="#8C8C8C"/>
            <g >
                <rect height="1.134"  x="17.385" y="25.968" width="3.544" stroke="#000000" stroke-width="0.05" fill="#A9A9A9"/>
                <rect height="1.134"  x="19.653" y="25.968" width="1.275" stroke="#000000" stroke-width="0.05" fill="#DDD9D9"/>
                <rect height="1.134"  x="18.944" y="25.968" width="0.708" fill="#808080"/>
            </g>
            <rect height="1.559"  x="15.738" y="29.368" width="2.693" fill="#8C8C8C"/>
            <g >
                <rect height="1.133"  x="17.385" y="29.58" width="3.544" stroke="#000000" stroke-width="0.05" fill="#A9A9A9"/>
                <rect height="1.133"  x="19.653" y="29.58" width="1.275" stroke="#000000" stroke-width="0.05" fill="#DDD9D9"/>
                <rect height="1.133"  x="18.944" y="29.58" width="0.709" fill="#808080"/>
            </g>
            <rect height="1.56"  x="15.738" y="32.98" width="2.693" fill="#8C8C8C"/>
            <g >
                <rect height="1.134"  x="17.385" y="33.192" width="3.544" stroke="#000000" stroke-width="0.05" fill="#A9A9A9"/>
                <rect height="1.134"  x="19.653" y="33.192" width="1.275" stroke="#000000" stroke-width="0.05" fill="#DDD9D9"/>
                <rect height="1.134"  x="18.944" y="33.192" width="0.709" fill="#808080"/>
            </g>
            <rect height="1.56"  x="15.738" y="36.593" width="2.693" fill="#8C8C8C"/>
            <g >
                <rect height="1.133"  x="17.385" y="36.805" width="3.544" stroke="#000000" stroke-width="0.05" fill="#A9A9A9"/>
                <rect height="1.133"  x="19.653" y="36.805" width="1.275" stroke="#000000" stroke-width="0.05" fill="#DDD9D9"/>
                <rect height="1.133"  x="18.944" y="36.805" width="0.708" fill="#808080"/>
            </g>
        </g>
        <g  gorn="0.2.5" id="MPS20N0040D">
            <g  gorn="0.2.5.0" id="Pads">
                <rect height="3.4"  x="8.102" y="1.512" width="6.521" fill="#8C8C8C"/>
                <rect height="3.399"  x="8.102" y="8.866" width="6.521" fill="#8C8C8C"/>
                <rect height="3.402"  x="8.102" y="16.219" width="6.521" fill="#8C8C8C"/>
                <rect height="3.4"  x="37.86" y="1.512" width="6.521" fill="#8C8C8C"/>
                <rect height="3.399"  x="37.86" y="8.866" width="6.521" fill="#8C8C8C"/>
                <rect height="3.402"  x="37.86" y="16.219" width="6.521" fill="#8C8C8C"/>
            </g>
            <g  gorn="0.2.5.1" id="Legs">
                <g >
                    <rect height="2.334"  x="10.304" y="16.754" width="6.299" fill="#D6A678"/>
                    <rect height="2.334"  x="12.262" y="16.754" width="2.125" fill="#705623"/>
                    <rect height="2.334"  x="13.167" y="16.754" width="0.283" fill="#F2B88C"/>
                </g>
                <g >
                    <rect height="2.334"  x="10.304" y="9.399" width="6.299" fill="#D6A678"/>
                    <rect height="2.334"  x="12.262" y="9.399" width="2.125" fill="#705623"/>
                    <rect height="2.334"  x="13.167" y="9.399" width="0.283" fill="#F2B88C"/>
                </g>
                <g >
                    <rect height="2.334"  x="10.304" y="2.045" width="6.299" fill="#D6A678"/>
                    <rect height="2.334"  x="12.262" y="2.045" width="2.125" fill="#705623"/>
                    <rect height="2.334"  x="13.167" y="2.045" width="0.283" fill="#F2B88C"/>
                </g>
                <g >
                    <rect height="2.334"  x="35.878" y="16.754" width="6.301" fill="#D6A678"/>
                    <rect height="2.334"  x="37.836" y="16.754" width="1.593" fill="#BD702C"/>
                    <rect height="2.334"  x="38.741" y="16.754" width="0.282" fill="#F2B88C"/>
                </g>
                <g >
                    <rect height="2.334"  x="35.878" y="9.399" width="6.301" fill="#D6A678"/>
                    <rect height="2.334"  x="37.836" y="9.399" width="1.593" fill="#BD702C"/>
                    <rect height="2.334"  x="38.741" y="9.399" width="0.282" fill="#F2B88C"/>
                </g>
                <g >
                    <rect height="2.334"  x="35.878" y="2.045" width="6.301" fill="#D6A678"/>
                    <rect height="2.334"  x="37.836" y="2.045" width="1.593" fill="#BD702C"/>
                    <rect height="2.334"  x="38.741" y="2.045" width="0.282" fill="#F2B88C"/>
                </g>
            </g>
            <path  d="M35.878,19.955c0,0.164-0.133,0.297-0.296,0.297H16.899c-0.164,0-0.296-0.133-0.296-0.297V1.272c0-0.164,0.133-0.296,0.296-0.296h18.684c0.164,0,0.296,0.133,0.296,0.296L35.878,19.955L35.878,19.955z" fill="#666666"/>
            <path  d="M16.899,20.252c-0.164,0-0.296-0.133-0.296-0.297V1.272c0-0.164,0.133-0.296,0.296-0.296" stroke="#333333" stroke-width="1" fill="none" stroke-linecap="round"/>
            <line x1="16.899" x2="35.582"  y1="0.976" stroke="#666666" y2="0.976" stroke-width="1" fill="none" stroke-linecap="round"/>
            <line x1="35.582" x2="16.899"  y1="20.252" stroke="#4D4D4D" y2="20.252" stroke-width="1" fill="none" stroke-linecap="round"/>
            <path  d="M35.582,0.976c0.164,0,0.296,0.133,0.296,0.296v18.684c0,0.164-0.133,0.297-0.296,0.297" stroke="#808080" stroke-width="1" fill="none" stroke-linecap="round"/>
            <circle  r="3.897" stroke="#333333" cx="24.968" stroke-width="1" fill="#333333" cy="11.615"/>
            <g >
                <circle  r="3.897" cx="26.241" fill="#A6A6A6" cy="10.614"/>
                <path  d="M28.996,13.37c-1.521,1.521-3.989,1.521-5.512,0c-1.521-1.521-1.522-3.989,0-5.513" stroke="#808080" stroke-width="1" fill="none" stroke-linecap="round"/>
                <path  d="M23.485,7.858c1.521-1.521,3.989-1.521,5.513,0c1.521,1.521,1.521,3.988-0.001,5.513" stroke="#939393" stroke-width="1" fill="none" stroke-linecap="round"/>
                <circle  r="1.062" cx="26.242" fill="#333333" cy="10.616"/>
                <circle  r="1.063" stroke="#666666" stroke-width="0.5" cx="26.24" fill="none" stroke-linecap="round" cy="10.614"/>
            </g>
            <g >
                <g >
                    <circle  r="1.063" cx="18.866" fill="#4D4D4D" cy="4.681"/>
                    <path  d="M19.618,5.432c-0.211,0.212-0.78,0.105-1.196-0.311c-0.415-0.414-0.52-0.981-0.309-1.192c0.415-0.416,1.088-0.415,1.503,0C20.032,4.344,20.033,5.017,19.618,5.432z" fill="#333333"/>
                </g>
                <g >
                    <circle  r="1.063" cx="18.866" fill="#4D4D4D" cy="10.473"/>
                    <path  d="M19.618,11.224c-0.211,0.213-0.78,0.106-1.196-0.31c-0.415-0.414-0.52-0.981-0.309-1.192c0.415-0.416,1.088-0.416,1.503,0C20.032,10.135,20.033,10.81,19.618,11.224z" fill="#333333"/>
                </g>
                <g >
                    <circle  r="1.063" cx="18.866" fill="#4D4D4D" cy="16.265"/>
                    <path  d="M19.618,17.016c-0.211,0.213-0.78,0.106-1.196-0.31c-0.415-0.414-0.52-0.981-0.309-1.192c0.415-0.416,1.088-0.416,1.503,0C20.032,15.927,20.033,16.602,19.618,17.016z" fill="#333333"/>
                </g>
                <g >
                    <circle  r="1.063" cx="33.616" fill="#4D4D4D" cy="4.681"/>
                    <path  d="M34.368,5.432c-0.211,0.212-0.78,0.105-1.196-0.311c-0.415-0.414-0.52-0.981-0.309-1.192c0.415-0.416,1.088-0.415,1.503,0C34.782,4.344,34.783,5.017,34.368,5.432z" fill="#333333"/>
                </g>
                <g >
                    <circle  r="1.063" cx="33.616" fill="#4D4D4D" cy="10.473"/>
                    <path  d="M34.368,11.224c-0.211,0.213-0.78,0.106-1.196-0.31c-0.415-0.414-0.52-0.981-0.309-1.192c0.415-0.416,1.088-0.416,1.503,0C34.782,10.135,34.783,10.81,34.368,11.224z" fill="#333333"/>
                </g>
                <g >
                    <circle  r="1.063" cx="33.616" fill="#4D4D4D" cy="16.265"/>
                    <path  d="M34.368,17.016c-0.211,0.213-0.78,0.106-1.196-0.31c-0.415-0.414-0.52-0.981-0.309-1.192c0.415-0.416,1.088-0.416,1.503,0C34.782,15.927,34.783,16.602,34.368,17.016z" fill="#333333"/>
                </g>
            </g>
            <g >
                <circle  r="1.559" cx="22.303" fill="#595959" cy="17.465"/>
                <circle  r="1.559" cx="30.178" fill="#595959" cy="17.465"/>
                <circle  r="1.559" cx="22.303" fill="#727272" cy="3.465"/>
                <circle  r="1.559" cx="30.178" fill="#727272" cy="3.465"/>
            </g>
            <path  d="M27.091,0.526c0,0.471-0.381,0.852-0.851,0.852s-0.85-0.382-0.85-0.852H27.091z" fill="#4D4D4D"/>
        </g>
    </g>
    <g  gorn="0.3" id="Screen">
        <g  gorn="0.3.0" id="Text">
            <g >
                <path  d="M12.368,41.339c0.052,0,0.097,0.02,0.133,0.057c0.037,0.037,0.057,0.081,0.057,0.134v1.403c0,0.113-0.04,0.212-0.12,0.294l-0.685,0.686c-0.038,0.036-0.083,0.054-0.135,0.054c-0.051,0-0.095-0.018-0.133-0.054l-0.685-0.686c-0.079-0.082-0.119-0.181-0.119-0.294v-1.403c0-0.053,0.02-0.097,0.056-0.134c0.037-0.037,0.081-0.057,0.131-0.057c0.052,0,0.097,0.02,0.133,0.057c0.037,0.037,0.057,0.081,0.057,0.134v1.402c0.002,0.012,0.006,0.022,0.013,0.032l0.55,0.55l0.549-0.55c0.007-0.01,0.012-0.021,0.014-0.032v-1.402c0-0.053,0.02-0.097,0.056-0.134S12.318,41.339,12.368,41.339z" fill="#FFFFFF"/>
                <path  d="M13.32,41.964c-0.007,0.011-0.011,0.021-0.013,0.033v1.31c0.002,0.012,0.006,0.022,0.013,0.032l0.237,0.237c0.01,0.008,0.021,0.014,0.033,0.016h0.56c0.013-0.002,0.022-0.006,0.033-0.013l0.306-0.311c0.038-0.037,0.082-0.057,0.132-0.057c0.052,0,0.096,0.02,0.133,0.057s0.056,0.081,0.056,0.134c0,0.051-0.019,0.095-0.055,0.133l-0.31,0.309c-0.082,0.08-0.18,0.12-0.294,0.12H13.59c-0.113,0-0.212-0.04-0.294-0.12l-0.242-0.242c-0.08-0.082-0.12-0.181-0.12-0.294v-1.312c0-0.114,0.04-0.212,0.12-0.294l0.242-0.243c0.082-0.08,0.181-0.12,0.294-0.12h0.562c0.114,0,0.212,0.04,0.294,0.12l0.31,0.31c0.036,0.038,0.055,0.082,0.055,0.132c0,0.054-0.02,0.098-0.057,0.135c-0.037,0.036-0.082,0.056-0.133,0.056s-0.095-0.018-0.133-0.054l-0.305-0.311c-0.011-0.009-0.021-0.014-0.033-0.016h-0.56c-0.012,0.002-0.022,0.008-0.032,0.017L13.32,41.964z" fill="#FFFFFF"/>
                <path  d="M15.57,41.964c-0.007,0.011-0.011,0.021-0.013,0.033v1.31c0.002,0.012,0.006,0.022,0.013,0.032l0.237,0.237c0.01,0.008,0.021,0.014,0.033,0.016h0.56c0.013-0.002,0.022-0.006,0.033-0.013l0.306-0.311c0.038-0.037,0.082-0.057,0.132-0.057c0.052,0,0.096,0.02,0.133,0.057s0.056,0.081,0.056,0.134c0,0.051-0.019,0.095-0.055,0.133l-0.31,0.309c-0.082,0.08-0.18,0.12-0.294,0.12H15.84c-0.113,0-0.212-0.04-0.294-0.12l-0.242-0.242c-0.08-0.082-0.12-0.181-0.12-0.294v-1.312c0-0.114,0.04-0.212,0.12-0.294l0.242-0.243c0.082-0.08,0.181-0.12,0.294-0.12H16.4c0.114,0,0.212,0.04,0.294,0.12l0.31,0.31c0.036,0.038,0.055,0.082,0.055,0.132c0,0.054-0.02,0.098-0.057,0.135c-0.037,0.036-0.082,0.056-0.133,0.056s-0.095-0.018-0.133-0.054l-0.305-0.311c-0.011-0.009-0.021-0.014-0.033-0.016H15.84c-0.012,0.002-0.022,0.008-0.032,0.017L15.57,41.964z" fill="#FFFFFF"/>
            </g>
            <g >
                <path  d="M20.569,41.459l0.243,0.243c0.08,0.082,0.12,0.18,0.12,0.294v1.312c0,0.113-0.04,0.212-0.12,0.294l-0.243,0.242c-0.082,0.08-0.18,0.12-0.294,0.12h-0.562c-0.113,0-0.212-0.04-0.294-0.12l-0.242-0.242c-0.08-0.082-0.12-0.181-0.12-0.294v-1.312c0-0.114,0.04-0.212,0.12-0.294l0.242-0.243c0.082-0.08,0.181-0.12,0.294-0.12h0.562C20.389,41.339,20.487,41.379,20.569,41.459z M20.557,43.306v-1.308c-0.002-0.013-0.008-0.021-0.016-0.033l-0.235-0.239c-0.011-0.009-0.021-0.014-0.033-0.016h-0.557c-0.012,0.002-0.022,0.007-0.032,0.016l-0.24,0.239c-0.006,0.011-0.01,0.021-0.012,0.033v1.306c0.002,0.013,0.006,0.022,0.012,0.032l0.24,0.24c0.01,0.008,0.021,0.013,0.032,0.015h0.559c0.013-0.002,0.022-0.006,0.033-0.013l0.235-0.24C20.551,43.329,20.555,43.317,20.557,43.306z" fill="#FFFFFF"/>
                <path  d="M22.993,41.339c0.052,0,0.097,0.02,0.133,0.057c0.037,0.037,0.057,0.081,0.057,0.134v1.778c0,0.113-0.04,0.212-0.12,0.294l-0.243,0.242c-0.082,0.08-0.18,0.12-0.294,0.12h-0.562c-0.119,0-0.219-0.046-0.297-0.138l-0.255-0.294c-0.07-0.082-0.104-0.18-0.104-0.288v-1.717c0-0.053,0.02-0.097,0.056-0.134c0.037-0.037,0.081-0.057,0.131-0.057c0.052,0,0.097,0.02,0.133,0.057c0.037,0.037,0.057,0.081,0.057,0.133v1.717c0,0.016,0.006,0.03,0.02,0.045c0.079,0.094,0.162,0.19,0.249,0.291c0.006,0.006,0.012,0.01,0.019,0.013h0.555c0.013-0.002,0.022-0.007,0.033-0.015l0.239-0.24c0.007-0.01,0.011-0.021,0.013-0.032v-1.775c0-0.053,0.02-0.097,0.056-0.134C22.901,41.358,22.943,41.339,22.993,41.339z" fill="#FFFFFF"/>
                <path  d="M25.246,41.339c0.05,0,0.094,0.02,0.13,0.056c0.037,0.037,0.057,0.081,0.057,0.133c0,0.051-0.02,0.094-0.057,0.131c-0.037,0.035-0.08,0.055-0.13,0.055h-0.563v2.062c0,0.054-0.02,0.098-0.057,0.135c-0.037,0.036-0.08,0.056-0.13,0.056c-0.053,0-0.097-0.02-0.134-0.056c-0.036-0.037-0.056-0.081-0.056-0.135v-2.062h-0.562c-0.053,0-0.097-0.02-0.134-0.055c-0.036-0.037-0.056-0.08-0.056-0.131c0-0.052,0.02-0.096,0.056-0.133c0.037-0.036,0.082-0.056,0.134-0.056H25.246z" fill="#FFFFFF"/>
            </g>
            <g >
                <path  d="M28.65,41.339c0.114,0,0.212,0.04,0.294,0.12l0.31,0.31c0.036,0.038,0.055,0.083,0.055,0.136c0,0.051-0.02,0.094-0.057,0.131c-0.037,0.036-0.08,0.056-0.13,0.056c-0.053,0-0.098-0.018-0.136-0.054l-0.306-0.308c-0.011-0.008-0.021-0.014-0.033-0.016h-0.556c-0.012,0.002-0.022,0.008-0.032,0.016l-0.24,0.236c-0.006,0.011-0.01,0.021-0.012,0.033v0.181c0.002,0.012,0.006,0.022,0.012,0.032l0.24,0.237c0.01,0.008,0.021,0.013,0.032,0.015h0.559c0.114,0,0.212,0.04,0.294,0.12l0.243,0.243c0.08,0.082,0.12,0.18,0.12,0.294v0.187c0,0.113-0.04,0.212-0.12,0.294l-0.243,0.242c-0.082,0.08-0.18,0.12-0.294,0.12h-0.562c-0.113,0-0.212-0.04-0.294-0.12l-0.31-0.309c-0.035-0.038-0.054-0.083-0.054-0.137c0-0.05,0.02-0.093,0.056-0.13c0.037-0.037,0.082-0.057,0.134-0.057c0.05,0,0.094,0.019,0.132,0.055l0.307,0.308c0.01,0.008,0.021,0.013,0.032,0.015h0.556c0.013-0.002,0.022-0.007,0.033-0.015l0.239-0.237c0.006-0.01,0.011-0.021,0.013-0.032v-0.181c-0.002-0.013-0.007-0.022-0.013-0.033l-0.239-0.236c-0.011-0.008-0.021-0.014-0.033-0.016h-0.559c-0.113,0-0.212-0.04-0.294-0.12l-0.242-0.242c-0.08-0.082-0.12-0.181-0.12-0.294v-0.187c0-0.114,0.04-0.212,0.12-0.294l0.242-0.243c0.082-0.08,0.181-0.12,0.294-0.12H28.65z" fill="#FFFFFF"/>
                <path  d="M30.07,41.964c-0.007,0.011-0.011,0.021-0.013,0.033v1.31c0.002,0.012,0.006,0.022,0.013,0.032l0.237,0.237c0.01,0.008,0.021,0.014,0.033,0.016h0.56c0.013-0.002,0.022-0.006,0.033-0.013l0.306-0.311c0.038-0.037,0.082-0.057,0.132-0.057c0.052,0,0.096,0.02,0.133,0.057s0.056,0.081,0.056,0.134c0,0.051-0.019,0.095-0.055,0.133l-0.31,0.309c-0.082,0.08-0.18,0.12-0.294,0.12H30.34c-0.113,0-0.212-0.04-0.294-0.12l-0.242-0.242c-0.08-0.082-0.12-0.181-0.12-0.294v-1.312c0-0.114,0.04-0.212,0.12-0.294l0.242-0.243c0.082-0.08,0.181-0.12,0.294-0.12H30.9c0.114,0,0.212,0.04,0.294,0.12l0.31,0.31c0.036,0.038,0.055,0.082,0.055,0.132c0,0.054-0.02,0.098-0.057,0.135c-0.037,0.036-0.082,0.056-0.133,0.056s-0.095-0.018-0.133-0.054l-0.305-0.311c-0.011-0.009-0.021-0.014-0.033-0.016H30.34c-0.012,0.002-0.022,0.008-0.032,0.017L30.07,41.964z" fill="#FFFFFF"/>
                <path  d="M33.807,41.526c0,0.051-0.02,0.095-0.057,0.133l-0.991,0.997l0.99,0.987c0.036,0.038,0.055,0.082,0.055,0.132c0,0.053-0.019,0.097-0.055,0.134c-0.036,0.036-0.08,0.056-0.132,0.056c-0.053,0-0.097-0.019-0.133-0.054l-1.067-1.071h-0.11v0.938c0,0.051-0.019,0.094-0.055,0.131c-0.036,0.036-0.08,0.056-0.132,0.056c-0.053,0-0.097-0.02-0.134-0.056c-0.036-0.037-0.056-0.08-0.056-0.131v-2.25c0-0.053,0.02-0.097,0.056-0.134c0.037-0.037,0.082-0.057,0.134-0.057s0.096,0.02,0.132,0.057s0.055,0.082,0.055,0.134v0.938h0.11l1.067-1.073c0.038-0.036,0.083-0.055,0.136-0.055c0.052,0,0.096,0.02,0.132,0.057S33.807,41.476,33.807,41.526z" fill="#FFFFFF"/>
            </g>
            <g >
                <path  d="M36.193,41.966c-0.006,0.011-0.01,0.021-0.012,0.033v1.306c0.002,0.013,0.006,0.022,0.012,0.032l0.24,0.24c0.01,0.008,0.021,0.013,0.032,0.015h0.557c0.013-0.002,0.022-0.007,0.033-0.015l0.239-0.24c0.006-0.01,0.011-0.021,0.013-0.032v-0.466h-0.187c-0.053,0-0.097-0.02-0.134-0.055c-0.036-0.037-0.056-0.081-0.056-0.134c0-0.05,0.02-0.093,0.056-0.13c0.037-0.036,0.082-0.056,0.134-0.056h0.375c0.05,0,0.094,0.02,0.13,0.057c0.037,0.037,0.057,0.081,0.057,0.134v0.651c0,0.112-0.04,0.212-0.12,0.293l-0.243,0.242c-0.082,0.08-0.18,0.12-0.294,0.12h-0.562c-0.113,0-0.212-0.04-0.294-0.12L35.927,43.6c-0.08-0.082-0.12-0.181-0.12-0.294v-1.312c0-0.114,0.04-0.212,0.12-0.294l0.242-0.243c0.082-0.08,0.181-0.12,0.294-0.12h0.562c0.114,0,0.212,0.04,0.294,0.12l0.31,0.31c0.036,0.038,0.055,0.083,0.055,0.136c0,0.051-0.02,0.094-0.057,0.131c-0.037,0.036-0.082,0.056-0.133,0.056s-0.095-0.019-0.133-0.054l-0.305-0.311c-0.011-0.009-0.021-0.014-0.033-0.016h-0.557c-0.012,0.002-0.022,0.007-0.032,0.016L36.193,41.966z" fill="#FFFFFF"/>
                <path  d="M39.745,41.339c0.053,0,0.097,0.02,0.133,0.057c0.035,0.037,0.055,0.081,0.055,0.134v2.25c0,0.051-0.02,0.094-0.055,0.131c-0.036,0.036-0.08,0.056-0.133,0.056c-0.052,0-0.097-0.02-0.134-0.056c-0.036-0.037-0.056-0.08-0.056-0.132v-0.676l-1.125-1.124v1.801c0,0.051-0.02,0.094-0.055,0.131c-0.036,0.036-0.08,0.056-0.133,0.056c-0.052,0-0.097-0.02-0.134-0.056c-0.036-0.037-0.056-0.08-0.056-0.131v-2.25c0-0.053,0.02-0.097,0.056-0.134c0.037-0.037,0.082-0.057,0.134-0.057c0.053,0,0.097,0.019,0.133,0.055l1.18,1.184v-1.048c0-0.053,0.02-0.097,0.056-0.134C39.649,41.358,39.694,41.339,39.745,41.339z" fill="#FFFFFF"/>
                <path  d="M42.059,41.702c0.082,0.082,0.123,0.18,0.123,0.294v1.312c0,0.113-0.04,0.212-0.12,0.294l-0.242,0.242c-0.082,0.08-0.181,0.12-0.295,0.12h-1.028c-0.052,0-0.097-0.02-0.134-0.056c-0.036-0.037-0.056-0.081-0.056-0.135v-2.246c0-0.053,0.02-0.097,0.056-0.134c0.037-0.037,0.082-0.057,0.134-0.057h1.028c0.114,0,0.213,0.041,0.295,0.123L42.059,41.702z M41.794,43.339c0.007-0.01,0.012-0.021,0.014-0.032v-1.306c0-0.014-0.005-0.022-0.018-0.033l-0.235-0.24c-0.011-0.009-0.021-0.014-0.033-0.017h-0.839v1.881h0.842c0.014-0.002,0.021-0.008,0.033-0.016L41.794,43.339z" fill="#FFFFFF"/>
            </g>
        </g>
        <polygon  stroke="#FFFFFF" stroke-width="0.5" fill="none" points="32.308,51.838 28.348,51.838 26.717,50.219 25.097,51.838 21.137,51.838 19.518,50.222 17.897,51.841 13.938,51.841 12.318,50.222 12.318,46.26 13.938,44.642 17.897,44.642 19.518,46.258 21.137,44.639 25.097,44.639 26.717,46.258 28.348,44.639 32.308,44.639 33.917,46.258 35.537,44.639 39.497,44.639 41.117,46.258 41.117,50.219 39.497,51.838 35.537,51.838 33.917,50.219 "/>
        <circle  r="4.252" stroke="#FFFFFF" stroke-width="0.5" cx="4.842" fill="none" cy="30.52"/>
        <circle  r="4.251" stroke="#FFFFFF" stroke-width="0.5" cx="47.645" fill="none" cy="30.52"/>
        <g  gorn="0.3.4" id="R2_2_">
            <path  d="M35.963,24.263c0,0.05-0.02,0.093-0.056,0.13c-0.037,0.037-0.08,0.057-0.131,0.057c-0.052,0-0.097-0.019-0.135-0.055l-1.067-1.07h-0.111v0.936c0,0.054-0.02,0.098-0.056,0.135c-0.037,0.037-0.08,0.057-0.131,0.057c-0.052,0-0.096-0.02-0.133-0.057s-0.057-0.081-0.057-0.135v-2.245c0-0.054,0.02-0.098,0.057-0.135s0.082-0.056,0.133-0.056h1.029c0.113,0,0.212,0.04,0.294,0.119l0.242,0.243c0.08,0.082,0.12,0.181,0.12,0.294v0.187c0,0.114-0.04,0.212-0.12,0.294L35.6,23.203c-0.082,0.08-0.181,0.12-0.294,0.12h-0.204l0.808,0.804C35.945,24.165,35.963,24.21,35.963,24.263z M34.463,22.948h0.841c0.012-0.003,0.022-0.008,0.032-0.016l0.24-0.237c0.006-0.01,0.01-0.021,0.012-0.032v-0.181c-0.002-0.013-0.006-0.022-0.012-0.032l-0.24-0.237c-0.01-0.008-0.021-0.013-0.032-0.015h-0.841V22.948z" fill="#FFFFFF"/>
            <path  d="M36.977,24.073h1.049c0.052,0,0.095,0.019,0.132,0.056c0.036,0.037,0.056,0.08,0.056,0.13c0,0.054-0.02,0.098-0.056,0.135c-0.037,0.037-0.08,0.057-0.132,0.057h-1.5c-0.052,0-0.096-0.02-0.133-0.057s-0.057-0.08-0.057-0.13c0-0.054,0.019-0.099,0.055-0.137l1.431-1.432c0.009-0.01,0.014-0.021,0.016-0.032v-0.181c-0.002-0.012-0.007-0.022-0.016-0.032l-0.236-0.24c-0.01-0.006-0.021-0.01-0.032-0.012h-0.556c-0.013,0.002-0.022,0.006-0.033,0.012l-0.306,0.311c-0.038,0.036-0.082,0.055-0.133,0.055c-0.052,0-0.096-0.02-0.133-0.057s-0.057-0.08-0.057-0.13c0-0.054,0.019-0.099,0.055-0.137l0.31-0.31c0.082-0.08,0.18-0.119,0.294-0.119h0.562c0.113,0,0.212,0.039,0.294,0.119l0.242,0.243c0.08,0.082,0.12,0.181,0.12,0.294v0.187c0,0.114-0.04,0.212-0.12,0.294L36.977,24.073z" fill="#FFFFFF"/>
        </g>
        <g  gorn="0.3.5" id="R1_1_">
            <path  d="M16.182,24.481c0,0.051-0.02,0.094-0.057,0.13c-0.037,0.037-0.08,0.057-0.13,0.057c-0.053,0-0.098-0.019-0.136-0.055l-1.067-1.07h-0.11v0.937c0,0.054-0.02,0.098-0.057,0.134c-0.037,0.037-0.08,0.057-0.13,0.057c-0.053,0-0.097-0.02-0.134-0.057c-0.036-0.036-0.056-0.08-0.056-0.134v-2.246c0-0.053,0.02-0.098,0.056-0.134c0.037-0.037,0.082-0.057,0.134-0.057h1.028c0.114,0,0.212,0.04,0.294,0.12l0.243,0.243c0.08,0.081,0.12,0.18,0.12,0.294v0.186c0,0.114-0.04,0.213-0.12,0.295l-0.243,0.242c-0.082,0.08-0.18,0.12-0.294,0.12H15.32l0.808,0.805C16.164,24.384,16.182,24.429,16.182,24.481z M14.682,23.167h0.84c0.013-0.002,0.022-0.007,0.033-0.016l0.239-0.236c0.006-0.01,0.011-0.021,0.013-0.033v-0.18c-0.002-0.013-0.007-0.022-0.013-0.033l-0.239-0.236c-0.011-0.009-0.021-0.014-0.033-0.016h-0.84V23.167z" fill="#FFFFFF"/>
            <path  d="M18.243,24.295c0.052,0,0.097,0.02,0.133,0.056c0.037,0.037,0.057,0.08,0.057,0.13c0,0.053-0.02,0.097-0.057,0.133s-0.081,0.056-0.133,0.056h-1.497c-0.053,0-0.097-0.02-0.134-0.056c-0.036-0.036-0.056-0.08-0.056-0.133c0-0.05,0.02-0.093,0.056-0.13c0.037-0.036,0.082-0.056,0.134-0.056h0.562v-1.619l-0.432,0.437c-0.038,0.037-0.082,0.057-0.131,0.057c-0.053,0-0.097-0.02-0.134-0.057c-0.036-0.036-0.055-0.079-0.055-0.13c0-0.053,0.019-0.099,0.054-0.136l0.75-0.75c0.038-0.036,0.083-0.055,0.136-0.055c0.05,0,0.094,0.02,0.13,0.057c0.037,0.036,0.057,0.081,0.057,0.134v2.062H18.243z" fill="#FFFFFF"/>
        </g>
        <g  gorn="0.3.6" id="C2">
            <path  d="M5.289,36.12c-0.007,0.01-0.012,0.021-0.014,0.032v1.31c0.002,0.013,0.007,0.022,0.014,0.033l0.236,0.236c0.011,0.009,0.021,0.015,0.034,0.017h0.56c0.012-0.002,0.022-0.006,0.032-0.014l0.307-0.311c0.038-0.036,0.082-0.056,0.131-0.056c0.053,0,0.097,0.02,0.134,0.056c0.036,0.037,0.055,0.081,0.055,0.135c0,0.05-0.019,0.094-0.054,0.132L6.413,38c-0.082,0.08-0.181,0.12-0.294,0.12H5.558c-0.114,0-0.212-0.04-0.294-0.12l-0.243-0.243c-0.08-0.082-0.12-0.18-0.12-0.294v-1.312c0-0.113,0.04-0.212,0.12-0.294l0.243-0.242c0.082-0.08,0.18-0.12,0.294-0.12H6.12c0.113,0,0.212,0.04,0.294,0.12l0.31,0.309c0.035,0.038,0.054,0.082,0.054,0.133c0,0.053-0.02,0.097-0.056,0.134c-0.037,0.037-0.082,0.057-0.134,0.057c-0.05,0-0.094-0.019-0.132-0.055L6.15,35.882c-0.01-0.008-0.021-0.013-0.032-0.015H5.559c-0.013,0.002-0.022,0.008-0.033,0.016L5.289,36.12z" fill="#FFFFFF"/>
            <path  d="M7.79,37.745h1.05c0.051,0,0.095,0.02,0.131,0.056c0.036,0.037,0.056,0.08,0.056,0.131c0,0.053-0.02,0.097-0.056,0.134c-0.037,0.037-0.08,0.057-0.131,0.057h-1.5c-0.052,0-0.096-0.02-0.133-0.057s-0.057-0.08-0.057-0.13c0-0.054,0.019-0.099,0.055-0.137l1.432-1.431c0.008-0.011,0.013-0.021,0.015-0.033v-0.181c-0.002-0.012-0.007-0.022-0.015-0.032l-0.237-0.24c-0.01-0.006-0.021-0.01-0.032-0.012H7.811c-0.013,0.002-0.022,0.006-0.033,0.012l-0.306,0.311c-0.038,0.036-0.082,0.055-0.133,0.055c-0.052,0-0.096-0.02-0.133-0.057S7.15,36.11,7.15,36.06c0-0.054,0.019-0.099,0.055-0.137l0.31-0.309c0.082-0.08,0.18-0.12,0.294-0.12H8.37c0.113,0,0.212,0.04,0.294,0.12l0.242,0.242c0.08,0.082,0.12,0.181,0.12,0.294v0.187c0,0.114-0.04,0.212-0.12,0.294L7.79,37.745z" fill="#FFFFFF"/>
        </g>
        <g  gorn="0.3.7" id="C1">
            <path  d="M45.241,35.979c-0.011-0.006-0.021-0.012-0.033-0.014h-1.31c-0.012,0.002-0.022,0.008-0.032,0.014l-0.237,0.236c-0.008,0.012-0.014,0.021-0.017,0.034v0.56c0.003,0.012,0.007,0.021,0.014,0.032l0.311,0.306c0.037,0.038,0.057,0.082,0.057,0.131c0,0.054-0.02,0.098-0.057,0.134c-0.037,0.037-0.081,0.056-0.134,0.056c-0.051,0-0.095-0.019-0.133-0.054l-0.31-0.31c-0.08-0.082-0.119-0.182-0.119-0.295v-0.562c0-0.114,0.039-0.213,0.119-0.294l0.243-0.243c0.082-0.08,0.181-0.12,0.294-0.12h1.312c0.113,0,0.212,0.04,0.294,0.12l0.243,0.243c0.08,0.081,0.12,0.18,0.12,0.294v0.562c0,0.113-0.04,0.213-0.12,0.295l-0.31,0.31c-0.038,0.035-0.082,0.054-0.132,0.054c-0.054,0-0.098-0.019-0.135-0.056s-0.056-0.082-0.056-0.134c0-0.051,0.018-0.095,0.054-0.133l0.311-0.306c0.008-0.011,0.014-0.021,0.016-0.032V36.25c-0.002-0.013-0.009-0.021-0.017-0.033L45.241,35.979z" fill="#FFFFFF"/>
            <path  d="M43.613,39.528c0,0.053-0.019,0.097-0.055,0.134c-0.037,0.037-0.08,0.056-0.13,0.056c-0.053,0-0.097-0.019-0.134-0.056c-0.036-0.037-0.056-0.081-0.056-0.134v-1.497c0-0.052,0.02-0.097,0.056-0.134c0.037-0.037,0.081-0.057,0.134-0.057c0.05,0,0.093,0.02,0.13,0.057c0.036,0.037,0.055,0.082,0.055,0.134v0.562h1.619l-0.437-0.431c-0.037-0.038-0.057-0.082-0.057-0.131c0-0.054,0.02-0.098,0.057-0.134c0.037-0.037,0.08-0.057,0.13-0.057c0.054,0,0.099,0.02,0.137,0.055l0.75,0.75c0.036,0.038,0.055,0.084,0.055,0.136c0,0.051-0.02,0.094-0.057,0.131s-0.081,0.056-0.135,0.056h-2.062V39.528z" fill="#FFFFFF"/>
        </g>
    </g>
    <g  gorn="0.4" id="Connectors">
        <g  gorn="0.4.0" id="connector3pin">
            <g >
                <path  d="M37.518,46.105c-1.177,0-2.126,0.951-2.126,2.125c0,1.177,0.95,2.125,2.126,2.125c1.173,0,2.125-0.948,2.125-2.125C39.644,47.057,38.691,46.105,37.518,46.105z M37.519,49.789c-0.86,0-1.561-0.697-1.561-1.56c0-0.861,0.699-1.561,1.561-1.561c0.86,0,1.559,0.698,1.559,1.561C39.077,49.092,38.379,49.789,37.519,49.789z" fill="#ABABAB"/>
            </g>
            <g >
                <path  d="M37.518,46.105c-1.177,0-2.126,0.951-2.126,2.125c0,1.177,0.95,2.125,2.126,2.125c1.173,0,2.125-0.948,2.125-2.125C39.644,47.057,38.691,46.105,37.518,46.105z M37.519,49.789c-0.86,0-1.561-0.697-1.561-1.56c0-0.861,0.699-1.561,1.561-1.561c0.86,0,1.559,0.698,1.559,1.561C39.077,49.092,38.379,49.789,37.519,49.789z" stroke="#ABABAB" stroke-width="0.25" fill="none"/>
            </g>
        </g>
        <g  gorn="0.4.1" id="connector2pin">
            <g >
                <path  d="M30.316,46.105c-1.176,0-2.126,0.951-2.126,2.125c0,1.177,0.951,2.125,2.126,2.125s2.125-0.948,2.125-2.125C32.441,47.057,31.49,46.105,30.316,46.105z M30.316,49.789c-0.86,0-1.561-0.697-1.561-1.56c0-0.861,0.699-1.561,1.561-1.561s1.559,0.698,1.559,1.561C31.874,49.092,31.176,49.789,30.316,49.789z" fill="#ABABAB"/>
            </g>
            <g >
                <path  d="M30.316,46.105c-1.176,0-2.126,0.951-2.126,2.125c0,1.177,0.951,2.125,2.126,2.125s2.125-0.948,2.125-2.125C32.441,47.057,31.49,46.105,30.316,46.105z M30.316,49.789c-0.86,0-1.561-0.697-1.561-1.56c0-0.861,0.699-1.561,1.561-1.561s1.559,0.698,1.559,1.561C31.874,49.092,31.176,49.789,30.316,49.789z" stroke="#ABABAB" stroke-width="0.25" fill="none"/>
            </g>
        </g>
        <g  gorn="0.4.2" id="connector1pin_2_">
            <g >
                <path  d="M23.117,46.105c-1.177,0-2.126,0.951-2.126,2.125c0,1.177,0.95,2.125,2.126,2.125c1.174,0,2.125-0.948,2.125-2.125C25.242,47.057,24.291,46.105,23.117,46.105z M23.117,49.789c-0.861,0-1.561-0.697-1.561-1.56c0-0.861,0.698-1.561,1.561-1.561c0.859,0,1.558,0.698,1.558,1.561S23.977,49.789,23.117,49.789z" fill="#ABABAB"/>
            </g>
            <g >
                <path  d="M23.117,46.105c-1.177,0-2.126,0.951-2.126,2.125c0,1.177,0.95,2.125,2.126,2.125c1.174,0,2.125-0.948,2.125-2.125C25.242,47.057,24.291,46.105,23.117,46.105z M23.117,49.789c-0.861,0-1.561-0.697-1.561-1.56c0-0.861,0.698-1.561,1.561-1.561c0.859,0,1.558,0.698,1.558,1.561S23.977,49.789,23.117,49.789z" stroke="#ABABAB" stroke-width="0.25" fill="none"/>
            </g>
        </g>
        <g  gorn="0.4.3" id="connector0pin">
            <g >
                <path  d="M13.573,45.887v4.688h4.688v-4.688H13.573z M15.932,49.762c-0.861,0-1.561-0.698-1.561-1.56s0.697-1.56,1.561-1.56c0.862,0,1.56,0.697,1.56,1.56C17.491,49.064,16.793,49.762,15.932,49.762z" fill="#ABABAB"/>
            </g>
        </g>
    </g>
</svg>
