<?xml version='1.0' encoding='utf-8'?>
<!DOCTYPE svg>
<!-- Generator: Adobe Illustrator 16.0.0, SVG Export Plug-In . SVG Version: 6.00 Build 0)  -->
<svg xmlns="http://www.w3.org/2000/svg" enable-background="new 0 0 29.764 37.559" id="Layer_1" x="0px" width="0.413389in" version="1.1" xmlns:xml="http://www.w3.org/XML/1998/namespace" xml:space="preserve"  gorn="0" height="0.521653in" y="0px" viewBox="0 0 29.764 37.559">
    <desc >
        <referenceFile >BME280_Breakout_breadboard.svg</referenceFile>
    </desc>
    <g id="bredboard"  gorn="0.1">
        <path id="icon" fill="#672E58"  d="M0,0v37.558h29.764V0H0z M4.082,34.925c-0.783,0-1.416-0.635-1.416-1.418c0-0.782,0.633-1.416,1.416-1.416s1.416,0.634,1.416,1.416C5.498,34.291,4.865,34.925,4.082,34.925z M3.685,7.936c0-2.348,1.904-4.252,4.252-4.252c2.354,0,4.252,1.904,4.252,4.252c0,2.354-1.897,4.253-4.252,4.253C5.589,12.189,3.685,10.285,3.685,7.936z M11.282,34.925c-0.783,0-1.416-0.635-1.416-1.418c0-0.782,0.633-1.416,1.416-1.416c0.776,0,1.409,0.634,1.409,1.416C12.698,34.291,12.065,34.925,11.282,34.925z M18.482,34.925c-0.776,0-1.416-0.635-1.416-1.418c0-0.782,0.64-1.416,1.416-1.416c0.783,0,1.416,0.634,1.416,1.416C19.898,34.291,19.265,34.925,18.482,34.925z M25.681,34.925c-0.783,0-1.416-0.635-1.416-1.418c0-0.782,0.633-1.416,1.416-1.416s1.416,0.634,1.416,1.416C27.097,34.291,26.464,34.925,25.681,34.925z" gorn="0.1.0"/>
        <g transform="matrix(-4.371139e-008 -1 1 -4.371139e-008 4.9817 29.8577)" >
            <g >
                <g >
                    <g >
                        <g >
                            <g >
                                <g >
                                    <g >
                                        <g >
                                            <g >
                                                <g >
                                                    <g >
                                                        <g >
                                                            <g >
                                                                <g >
                                                                    <g >
                                                                        <g transform="matrix(1 0 0 1 3.051758e-005 0)" >
                                                                            <g >
                                                                                <g >
                                                                                    <g >
                                                                                        <g >
                                                                                            <g >
                                                                                                <g >
                                                                                                    <g >
                                                                                                        <g >
                                                                                                            <g >
                                                                                                                <g >
                                                                                                                    <text font-size="2.6726" fill="#FFFFFF"  font-family="DroidSans">VIN</text>
                                                                                                                </g>
                                                                                                            </g>
                                                                                                        </g>
                                                                                                    </g>
                                                                                                </g>
                                                                                            </g>
                                                                                        </g>
                                                                                    </g>
                                                                                </g>
                                                                            </g>
                                                                        </g>
                                                                    </g>
                                                                </g>
                                                            </g>
                                                        </g>
                                                    </g>
                                                </g>
                                            </g>
                                        </g>
                                    </g>
                                </g>
                            </g>
                        </g>
                    </g>
                </g>
            </g>
        </g>
        <g transform="matrix(-4.371139e-008 -1 1 -4.371139e-008 12.3655 29.8577)" >
            <g >
                <g >
                    <g >
                        <g >
                            <g >
                                <g >
                                    <g >
                                        <g >
                                            <g >
                                                <g >
                                                    <g >
                                                        <g >
                                                            <g >
                                                                <g >
                                                                    <g >
                                                                        <g transform="matrix(1 0 0 1 3.051758e-005 -3.051758e-005)" >
                                                                            <g >
                                                                                <g >
                                                                                    <g >
                                                                                        <g >
                                                                                            <g >
                                                                                                <g >
                                                                                                    <g >
                                                                                                        <g >
                                                                                                            <g >
                                                                                                                <g >
                                                                                                                    <text font-size="2.6726" fill="#FFFFFF"  font-family="DroidSans">GND</text>
                                                                                                                </g>
                                                                                                            </g>
                                                                                                        </g>
                                                                                                    </g>
                                                                                                </g>
                                                                                            </g>
                                                                                        </g>
                                                                                    </g>
                                                                                </g>
                                                                            </g>
                                                                        </g>
                                                                    </g>
                                                                </g>
                                                            </g>
                                                        </g>
                                                    </g>
                                                </g>
                                            </g>
                                        </g>
                                    </g>
                                </g>
                            </g>
                        </g>
                    </g>
                </g>
            </g>
        </g>
        <g transform="matrix(-4.371139e-008 -1 1 -4.371139e-008 19.0823 29.7678)" >
            <g >
                <g >
                    <g >
                        <g >
                            <g >
                                <g >
                                    <g >
                                        <g >
                                            <g >
                                                <g >
                                                    <g >
                                                        <g >
                                                            <g >
                                                                <g >
                                                                    <g >
                                                                        <g transform="matrix(1 0 0 1 -3.051758e-005 -3.051758e-005)" >
                                                                            <g >
                                                                                <g >
                                                                                    <g >
                                                                                        <g >
                                                                                            <g >
                                                                                                <g >
                                                                                                    <g >
                                                                                                        <g >
                                                                                                            <g >
                                                                                                                <g >
                                                                                                                    <text font-size="2.6726" fill="#FFFFFF"  font-family="DroidSans">SCL</text>
                                                                                                                </g>
                                                                                                            </g>
                                                                                                        </g>
                                                                                                    </g>
                                                                                                </g>
                                                                                            </g>
                                                                                        </g>
                                                                                    </g>
                                                                                </g>
                                                                            </g>
                                                                        </g>
                                                                    </g>
                                                                </g>
                                                            </g>
                                                        </g>
                                                    </g>
                                                </g>
                                            </g>
                                        </g>
                                    </g>
                                </g>
                            </g>
                        </g>
                    </g>
                </g>
            </g>
        </g>
        <g transform="matrix(-4.371139e-008 -1 1 -4.371139e-008 26.3655 29.7678)" >
            <g >
                <g >
                    <g >
                        <g >
                            <g >
                                <g >
                                    <g >
                                        <g >
                                            <g >
                                                <g >
                                                    <g >
                                                        <g >
                                                            <g >
                                                                <g >
                                                                    <g >
                                                                        <g transform="matrix(1 0 0 1 -3.051758e-005 -3.051758e-005)" >
                                                                            <g >
                                                                                <g >
                                                                                    <g >
                                                                                        <g >
                                                                                            <g >
                                                                                                <g >
                                                                                                    <g >
                                                                                                        <g >
                                                                                                            <g >
                                                                                                                <g >
                                                                                                                    <text font-size="2.6726" fill="#FFFFFF"  font-family="DroidSans">SDA</text>
                                                                                                                </g>
                                                                                                            </g>
                                                                                                        </g>
                                                                                                    </g>
                                                                                                </g>
                                                                                            </g>
                                                                                        </g>
                                                                                    </g>
                                                                                </g>
                                                                            </g>
                                                                        </g>
                                                                    </g>
                                                                </g>
                                                            </g>
                                                        </g>
                                                    </g>
                                                </g>
                                            </g>
                                        </g>
                                    </g>
                                </g>
                            </g>
                        </g>
                    </g>
                </g>
            </g>
        </g>
        <g id="copper1"  gorn="0.1.5">
            <g id="copper0"  gorn="0.1.5.0">
                <circle cx="4.082" id="connector0pin" stroke-width="1.2" fill="none" stroke="#9A916C"  r="1.984" gorn="0.1.5.0.0" cy="33.508"/>
                <rect id="square" stroke-width="1.2" x="2.097" width="3.969" fill="none" stroke="#9A916C"  gorn="0.1.5.0.1" height="3.974" y="31.524"/>
                <circle cx="11.282" id="connector1pin" stroke-width="1.2" fill="none" stroke="#9A916C"  r="1.984" gorn="0.1.5.0.2" cy="33.508"/>
                <circle cx="18.482" id="connector2pin" stroke-width="1.2" fill="none" stroke="#9A916C"  r="1.984" gorn="0.1.5.0.3" cy="33.508"/>
                <circle cx="25.681" id="connector3pin" stroke-width="1.2" fill="none" stroke="#9A916C"  r="1.984" gorn="0.1.5.0.4" cy="33.508"/>
            </g>
        </g>
        <rect x="6.61" width="2.125" fill="#FFFFFF"  height="2.125" y="22.373"/>
        <rect x="14.382" width="2.126" fill="#FFFFFF"  height="2.125" y="22.373"/>
        <g transform="matrix(1 0 0 1 3.219 21.5295)" >
            <g >
                <g >
                    <g >
                        <g >
                            <g >
                                <g >
                                    <g >
                                        <g >
                                            <g >
                                                <g >
                                                    <g >
                                                        <g >
                                                            <g >
                                                                <g >
                                                                    <g >
                                                                        <g transform="matrix(1 0 0 1 0 3.051758e-005)" >
                                                                            <g >
                                                                                <g >
                                                                                    <g >
                                                                                        <g >
                                                                                            <g >
                                                                                                <g >
                                                                                                    <g >
                                                                                                        <g >
                                                                                                            <g >
                                                                                                                <g >
                                                                                                                    <text font-size="3.4634" fill="#FFFFFF"  font-family="DroidSans">BME/BMP280</text>
                                                                                                                </g>
                                                                                                            </g>
                                                                                                        </g>
                                                                                                    </g>
                                                                                                </g>
                                                                                            </g>
                                                                                        </g>
                                                                                    </g>
                                                                                </g>
                                                                            </g>
                                                                        </g>
                                                                    </g>
                                                                </g>
                                                            </g>
                                                        </g>
                                                    </g>
                                                </g>
                                            </g>
                                        </g>
                                    </g>
                                </g>
                            </g>
                        </g>
                    </g>
                </g>
            </g>
        </g>
        <rect x="13.318" width="2.125" fill="#9A916C"  height="4.252" y="13.726"/>
        <rect x="16.069" width="2.125" fill="#9A916C"  height="4.252" y="13.726"/>
        <rect x="18.707" width="2.125" fill="#9A916C"  height="4.252" y="13.726"/>
        <path fill="#9A916C"  d="M7.937,2.184c-3.172,0-5.752,2.58-5.752,5.752c0,3.173,2.58,5.753,5.752,5.753s5.752-2.58,5.752-5.753C13.689,4.764,11.108,2.184,7.937,2.184z M7.937,12.189c-2.348,0-4.252-1.898-4.252-4.253c0-2.348,1.904-4.252,4.252-4.252c2.354,0,4.252,1.904,4.252,4.252C12.189,10.285,10.285,12.189,7.937,12.189z"/>
        <g >
            <path fill="#D9D9D9"  d="M24.807,10.578c0,0.389-0.318,0.708-0.709,0.708h-5.101c-0.396,0-0.708-0.319-0.708-0.708V5.214c0-0.39,0.313-0.708,0.708-0.708h5.102c0.396,0,0.709,0.318,0.709,0.708L24.807,10.578L24.807,10.578z"/>
            <path fill="#B3B3B3"  d="M24.702,10.492c0,0.376-0.313,0.685-0.688,0.685h-4.937c-0.376,0-0.688-0.309-0.688-0.685V5.301c0-0.377,0.313-0.685,0.688-0.685h4.938c0.378,0,0.688,0.308,0.688,0.685L24.702,10.492L24.702,10.492z"/>
            <path fill="#D9D9D9"  d="M24.459,10.106c0,0.395-0.313,0.708-0.688,0.708H19.32c-0.377,0-0.685-0.313-0.685-0.708v-4.42c0-0.389,0.308-0.708,0.685-0.708h4.453c0.378,0,0.688,0.319,0.688,0.708L24.459,10.106L24.459,10.106z"/>
            <path fill="#B3B3B3"  d="M19.321,10.531c-0.227,0-0.404-0.19-0.404-0.43v-4.42c0-0.229,0.185-0.425,0.404-0.425h4.453c0.229,0,0.412,0.19,0.412,0.425v4.42c0,0.233-0.186,0.43-0.412,0.43H19.321z"/>
            <g >
                <g enable-background="new    " >
                    <path fill="#FFFFFF"  d="M20.288,8.344h-0.619c-0.027,0-0.051-0.01-0.07-0.03c-0.021-0.02-0.03-0.043-0.03-0.067V7.922c0-0.026,0.013-0.05,0.03-0.069c0.021-0.02,0.043-0.026,0.07-0.026h0.619c0.024,0,0.051,0.01,0.067,0.026c0.021,0.021,0.029,0.043,0.029,0.071v0.321c0,0.025-0.01,0.052-0.029,0.068C20.339,8.335,20.316,8.344,20.288,8.344z M20.284,7.926h-0.61v0.315h0.61V7.926z"/>
                    <path fill="#FFFFFF"  d="M20.282,7.583H20.03c-0.025,0-0.053-0.01-0.07-0.031c-0.021-0.021-0.03-0.045-0.03-0.074h-0.305c-0.018,0-0.027-0.005-0.037-0.015S19.57,7.441,19.57,7.426v-0.21c0-0.014,0.008-0.026,0.018-0.037c0.01-0.01,0.021-0.015,0.037-0.015h0.305c0-0.028,0.01-0.055,0.029-0.072c0.021-0.021,0.045-0.031,0.071-0.031h0.257c0.025,0,0.053,0.014,0.07,0.031c0.021,0.021,0.03,0.044,0.03,0.072v0.313c0,0.029-0.011,0.057-0.032,0.074C20.334,7.573,20.31,7.583,20.282,7.583z M19.674,7.375h0.253V7.268h-0.253V7.375z M20.031,7.479h0.257V7.164h-0.257V7.479z"/>
                    <path fill="#FFFFFF"  d="M20.336,6.48H20.12v0.313h-0.498c-0.018,0-0.027-0.005-0.038-0.019c-0.01-0.01-0.019-0.021-0.019-0.034c0-0.017,0.009-0.026,0.019-0.036c0.011-0.013,0.021-0.019,0.038-0.019h0.394V6.48h-0.304c-0.014,0-0.026-0.005-0.037-0.015s-0.016-0.022-0.016-0.037c0-0.014,0.005-0.026,0.016-0.037s0.023-0.015,0.037-0.015h0.304c0-0.017,0.005-0.026,0.015-0.037c0.013-0.01,0.022-0.015,0.037-0.015c0.017,0,0.026,0.005,0.036,0.015c0.014,0.01,0.019,0.021,0.019,0.037h0.217c0.014,0,0.023,0.005,0.036,0.016c0.011,0.01,0.016,0.022,0.016,0.036c0,0.015-0.005,0.027-0.016,0.037C20.363,6.475,20.35,6.48,20.336,6.48z"/>
                </g>
                <g enable-background="new    " >
                    <path fill="#FFFFFF"  d="M21.747,7.582h-0.61c-0.015,0-0.027-0.005-0.037-0.018c-0.011-0.01-0.016-0.021-0.016-0.034c0-0.017,0.005-0.026,0.015-0.036c0.011-0.013,0.022-0.019,0.037-0.019h0.611c0.014,0,0.022-0.005,0.035-0.015c0.011-0.01,0.016-0.022,0.016-0.037v-0.21c0-0.014-0.005-0.026-0.015-0.037c-0.013-0.01-0.022-0.015-0.036-0.015h-0.61c-0.015,0-0.027-0.005-0.038-0.018c-0.01-0.01-0.015-0.021-0.015-0.037c0-0.014,0.005-0.023,0.015-0.034c0.011-0.013,0.023-0.018,0.038-0.018h0.609c0.043,0,0.079,0.019,0.107,0.046c0.03,0.031,0.046,0.067,0.046,0.109v0.212c0,0.043-0.016,0.08-0.046,0.11C21.826,7.566,21.79,7.582,21.747,7.582z"/>
                    <path fill="#FFFFFF"  d="M21.851,6.819h-0.767V6.452c0-0.042,0.015-0.079,0.046-0.109c0.03-0.031,0.064-0.046,0.11-0.046h0.191c0.042,0,0.079,0.015,0.109,0.045c0.028,0.031,0.046,0.067,0.046,0.11v0.262h0.261c0.018,0,0.026,0.005,0.037,0.015c0.01,0.013,0.015,0.022,0.015,0.037c0,0.018-0.005,0.027-0.015,0.038C21.877,6.814,21.865,6.819,21.851,6.819z M21.487,6.714V6.452c0-0.017-0.006-0.026-0.016-0.037C21.461,6.404,21.448,6.4,21.435,6.4H21.24c-0.018,0-0.026,0.008-0.037,0.018c-0.013,0.01-0.018,0.021-0.018,0.037v0.262L21.487,6.714L21.487,6.714z"/>
                </g>
                <circle cx="23.323" fill="#FFFFFF"  r="0.425" cy="6.702"/>
            </g>
            <circle cx="21.547" fill="#1A1A1A"  r="0.425" cy="9.69"/>
        </g>
    </g>
</svg>
