<?xml version='1.0' encoding='UTF-8' standalone='no'?>
<!-- Created with Fritzing (http://www.fritzing.org/) -->
<svg xmlns="http://www.w3.org/2000/svg" height="0.33in" viewBox="0 0 300 330"  x="0in" y="0in" version="1.2" width="0.3in" baseProfile="tiny">
    <desc >
        <referenceFile >dip_icon.svg</referenceFile>
    </desc>
    <g  gorn="0.1" id="icon">
        <rect height="270"  gorn="0.1.0" y="30" fill="#303030" x="0" id="middle" width="300"/>
        <rect height="24.6"  gorn="0.1.1" y="30" fill="#3D3D3D" x="0" id="top" width="300"/>
        <rect height="24.6"  gorn="0.1.2" y="275.4" fill="#000000" x="0" id="bottom" width="300"/>
        <polygon  gorn="0.1.3" points="300,30,292.5,54.6,292.5,275.4,300,300" fill="#141414" id="right"/>
        <polygon  gorn="0.1.4" points="0,30,7.5,54.6,7.5,275.4,0,300" fill="#1F1F1F" id="left"/>
        <polygon  gorn="0.1.5" points="50,115,7.5,114.6,5.6,135.8,5.6,165,50,165" fill="#1C1C1C" id="left-upper-rect"/>
        <polygon  gorn="0.1.6" points="7.5,215.5,50,215.5,50,165,5.6,165,5.6,194.2" fill="#383838" id="left-lower-rect"/>
        <path  gorn="0.1.7" fill="#262626" id="slot" d="M5.6,135.8l0,58.3c14.7,-1.7,26.2,-14,26.2,-29.2C31.8,149.7,20.4,137.5,5.6,135.8z"/>
        <path  gorn="0.1.8" fill="#303030" id="cover" d="M7.5,54.6L7.5,114.5c23.8,4.5,41.9,25.3,41.9,50.4c0,25.1,-18,46,-41.9,50.5L7.5,215.5l50,0L57.5,54.6L7.5,54.6z"/>
        <circle cx="65"  cy="234.7" fill="#212121" r="20.6"/>
        <text  gorn="0.1.10" stroke="none" y="165" fill="#dddddd" x="65" text-anchor="start" id="label" font-size="80" font-family="OCRA">TDS METER V 1.0</text>
        <rect height="43.4"  gorn="0.1.11" y="286.6" fill="#8C8C8C" x="35" id="connector0pin" width="30"/>
        <rect height="30"  gorn="0.1.12" y="300" fill="#8C8C8C" x="35" id="connector0terminal" width="30"/>
        <polygon  points="35,286.6,35,306.6,65,306.6,85,297.4,85,286.6" fill="#8C8C8C"/>
        <rect height="43.4"  gorn="0.1.14" fill="#8C8C8C" x="35" id="connector5pin" width="30"/>
        <rect height="30"  gorn="0.1.15" fill="#8C8C8C" x="35" id="connector5terminal" width="30"/>
        <polygon  points="85,43.4,85,32.6,65,23.4,35,23.4,35,43.4" fill="#8C8C8C"/>
        <rect height="43.4"  gorn="0.1.17" y="286.6" fill="#8C8C8C" x="235" id="connector2pin" width="30"/>
        <rect height="30"  gorn="0.1.18" y="300" fill="#8C8C8C" x="235" id="connector2terminal" width="30"/>
        <polygon  points="215,286.6,215,297.4,235,306.6,265,306.6,265,286.6" fill="#8C8C8C"/>
        <rect height="43.4"  gorn="0.1.20" y="0" fill="#8C8C8C" x="235" id="connector3pin" width="30"/>
        <rect height="30"  gorn="0.1.21" y="0" fill="#8C8C8C" x="235" id="connector3terminal" width="30"/>
        <polygon  points="265,43.4,265,23.4,235,23.4,215,32.6,215,43.4" fill="#8C8C8C"/>
        <rect height="43.4"  gorn="0.1.23" y="286.6" fill="#8C8C8C" x="135" id="connector1pin" width="30"/>
        <rect height="30"  gorn="0.1.24" y="300" fill="#8C8C8C" x="135" id="connector1terminal" width="30"/>
        <polygon  points="115,286.6,115,297.4,135,306.6,165,306.6,185,297.4,185,286.6" fill="#8C8C8C"/>
        <rect height="43.4"  gorn="0.1.26" y="0" fill="#8C8C8C" x="135" id="connector4pin" width="30"/>
        <rect height="30"  gorn="0.1.27" fill="#8C8C8C" x="135" id="connector4terminal" width="30"/>
        <polygon  points="185,43.4,185,32.6,165,23.4,135,23.4,115,32.6,115,43.4" fill="#8C8C8C"/>
    </g>
</svg>
